<svg width="103" height="104" viewBox="0 0 103 104" fill="none" xmlns="http://www.w3.org/2000/svg">
<path d="M20.8411 71.1641C20.8411 71.1641 29.1655 81.7052 43.3919 82.1336C57.6182 82.5621 70.3408 73.6876 80.8365 66.7825C91.3322 59.8774 94.7765 48.3084 89.5359 38.7665C84.2952 29.2246 74.7863 32.4938 63.3739 25.7885C51.9615 19.0832 49.9159 15.5668 36.668 16.1683C23.4202 16.7698 12.4713 30.9179 12.9533 46.7676C13.4354 62.6172 20.8411 71.1641 20.8411 71.1641Z" fill="#C7CDFF"/>
<path opacity="0.7" d="M20.8411 71.1641C20.8411 71.1641 29.1655 81.7052 43.3919 82.1336C57.6182 82.5621 70.3408 73.6876 80.8365 66.7825C91.3322 59.8774 94.7765 48.3084 89.5359 38.7665C84.2952 29.2246 74.7863 32.4938 63.3739 25.7885C51.9615 19.0832 49.9159 15.5668 36.668 16.1683C23.4202 16.7698 12.4713 30.9179 12.9533 46.7676C13.4354 62.6172 20.8411 71.1641 20.8411 71.1641Z" fill="white"/>
<path d="M23.4284 19.0027C23.4161 19.0027 23.5726 18.2344 23.587 18.1787C23.7642 17.6287 24.4316 16.6729 25.0764 16.6749C25.1838 16.678 25.2894 16.7036 25.3862 16.7502C25.4831 16.7968 25.569 16.8632 25.6384 16.9453C25.7078 17.0273 25.7591 17.1231 25.789 17.2263C25.8189 17.3295 25.8267 17.4378 25.8118 17.5443C25.7645 17.9975 25.3566 18.3847 24.9878 18.6072C24.5552 18.8771 23.4284 19.0027 23.4284 19.0027Z" fill="#C7CDFF"/>
<path d="M22.178 13.8361C22.796 14.0544 23.0885 15.1792 23.0679 15.756C23.0679 15.8054 22.9526 16.58 22.9423 16.58H22.9299C22.9773 16.7571 23.0288 16.9487 23.0803 17.1588C23.1709 17.5461 23.2698 17.9828 23.346 18.469C23.4344 18.9898 23.4922 19.5153 23.5191 20.0428C23.5519 20.634 23.5319 21.2269 23.4593 21.8144C23.4584 21.8213 23.4584 21.8282 23.4593 21.835C23.5397 21.6641 23.7786 21.1903 23.7992 21.1573C24.1165 20.6753 25.0105 19.9213 25.6347 20.1005C25.7372 20.1318 25.8319 20.1843 25.9127 20.2546C25.9936 20.325 26.0586 20.4116 26.1037 20.5088C26.1488 20.6059 26.1729 20.7116 26.1745 20.8187C26.176 20.9258 26.1549 21.0321 26.1126 21.1305C25.9478 21.5549 25.4534 21.8206 25.0393 21.938C24.5717 22.0719 23.5294 21.9154 23.447 21.901C23.3589 22.4973 23.2309 23.0871 23.0638 23.6664C22.9677 24.0042 22.8633 24.3414 22.7507 24.6778C22.8228 24.5316 22.8908 24.4018 22.9011 24.3853C23.2183 23.9012 24.1144 23.1493 24.7365 23.3285C24.839 23.3598 24.9338 23.4123 25.0146 23.4826C25.0954 23.553 25.1605 23.6396 25.2056 23.7368C25.2507 23.834 25.2748 23.9396 25.2763 24.0467C25.2778 24.1538 25.2568 24.2601 25.2144 24.3585C25.0496 24.7829 24.5552 25.0486 24.1412 25.1661C23.7271 25.2835 22.829 25.1661 22.5941 25.1352L22.4643 25.5224C22.2583 26.1404 22.0338 26.7584 21.8463 27.3641C21.7784 27.5701 21.7186 27.7926 21.6589 28.0068C21.7248 27.877 21.7804 27.7678 21.7907 27.7514C22.1059 27.2693 23.002 26.5154 23.6241 26.6946C23.7264 26.7262 23.821 26.7788 23.9017 26.8492C23.9823 26.9196 24.0474 27.006 24.0926 27.1031C24.1378 27.2001 24.1622 27.3056 24.1642 27.4126C24.1662 27.5197 24.1457 27.6259 24.1041 27.7246C23.9393 28.151 23.4428 28.4147 23.0288 28.5342C22.6147 28.6536 21.8051 28.5486 21.525 28.5094C21.4694 28.7299 21.4158 28.9503 21.3725 29.1666C21.3458 29.317 21.3107 29.457 21.2922 29.6074L21.2304 30.0503C21.2016 30.3325 21.1686 30.623 21.148 30.899C21.1315 31.0906 21.1192 31.274 21.1068 31.4594C21.1727 31.2534 21.3128 30.8269 21.3128 30.794C21.5409 30.3408 21.8814 29.9535 22.3016 29.6692C22.324 29.6167 22.3523 29.5669 22.3861 29.5209C22.4444 29.4309 22.521 29.3542 22.611 29.2959C22.701 29.2375 22.8023 29.1988 22.9083 29.1823C23.0142 29.1658 23.1225 29.1718 23.226 29.2C23.3294 29.2281 23.4258 29.2778 23.5088 29.3458C23.999 29.7681 23.8754 30.9258 23.6509 31.4573C23.6385 31.4882 23.4552 31.8116 23.3378 32.0156C23.4264 31.9064 23.5088 31.7993 23.6015 31.6901C23.7807 31.4697 23.9661 31.2554 24.1638 31.0247L24.4667 30.6972C24.5655 30.5859 24.685 30.4912 24.7942 30.3696C25.0517 30.1204 25.3257 29.8793 25.6079 29.6424C25.4163 29.4859 24.7406 28.9173 24.547 28.53C24.3534 28.1428 24.2153 27.601 24.4172 27.191C24.4616 27.0933 24.5261 27.0059 24.6064 26.9347C24.6867 26.8634 24.7811 26.8098 24.8835 26.7774C24.9858 26.745 25.0939 26.7344 25.2006 26.7464C25.3073 26.7584 25.4102 26.7927 25.5028 26.847C26.0487 27.191 26.1044 28.3549 25.9622 28.907C25.9622 28.942 25.8057 29.3314 25.7212 29.5436C25.8922 29.4035 26.0611 29.2634 26.2383 29.1316C26.7491 28.7381 27.2786 28.3529 27.8039 27.9677L28.2838 27.6133C28.2159 27.5577 27.4001 26.8985 27.1817 26.4639C26.9902 26.0786 26.8501 25.5348 27.052 25.1269C27.0961 25.0289 27.1604 24.9414 27.2407 24.8699C27.321 24.7985 27.4155 24.7448 27.5179 24.7123C27.6203 24.6798 27.7285 24.6693 27.8353 24.6815C27.9421 24.6937 28.0451 24.7282 28.1376 24.7829C28.6855 25.1249 28.7391 26.2888 28.597 26.8429C28.5867 26.8841 28.3745 27.4444 28.3147 27.5845C28.6649 27.3229 29.0131 27.0592 29.3447 26.7832C29.796 26.4153 30.2227 26.0182 30.6219 25.5945C30.591 25.5678 29.7361 24.8838 29.5137 24.4409C29.32 24.0557 29.182 23.5098 29.3839 23.1019C29.4281 23.0042 29.4923 22.9169 29.5724 22.8457C29.6526 22.7744 29.7468 22.7209 29.849 22.6884C29.9512 22.656 30.0591 22.6454 30.1656 22.6574C30.2722 22.6693 30.375 22.7036 30.4674 22.7579C31.0154 23.1019 31.071 24.2658 30.9289 24.8179C30.9289 24.855 30.7579 25.2814 30.6776 25.4833L30.7085 25.5039C31.0987 25.0659 31.4496 24.5944 31.757 24.0949C31.93 23.8209 32.0784 23.551 32.2184 23.2853C32.0454 23.174 31.2647 22.657 31.0195 22.28C30.7744 21.903 30.589 21.3921 30.7435 20.9637C30.7766 20.8615 30.8309 20.7675 30.9027 20.6877C30.9746 20.608 31.0625 20.5442 31.1606 20.5007C31.2588 20.4572 31.365 20.4348 31.4724 20.4351C31.5797 20.4353 31.6859 20.4582 31.7838 20.5022C32.3668 20.7844 32.548 21.9442 32.4677 22.5066C32.4677 22.5375 32.3853 22.8486 32.3256 23.0731C32.3853 22.9516 32.4512 22.828 32.5068 22.7105C32.7128 22.2718 32.8879 21.8556 33.0321 21.4745C33.1145 21.2685 33.1825 21.0728 33.2381 20.8916C33.1248 20.6856 32.684 19.8945 32.6407 19.4496C32.5975 19.0046 32.6675 18.4649 33.0033 18.1559C33.0798 18.0806 33.1712 18.0223 33.2717 17.9848C33.3721 17.9472 33.4794 17.9312 33.5865 17.9378C33.6935 17.9444 33.798 17.9735 33.8931 18.0231C33.9882 18.0727 34.0717 18.1418 34.1384 18.2259C34.5256 18.743 34.1569 19.8492 33.8232 20.3189C33.7943 20.3601 33.269 20.9369 33.2629 20.9369V20.9245C33.2052 21.0996 33.1434 21.2871 33.0692 21.489C32.9333 21.8639 32.7746 22.2841 32.5707 22.725C32.3551 23.2073 32.1123 23.6771 31.8435 24.1319C31.5436 24.6421 31.1989 25.1247 30.8135 25.5739L30.7991 25.5904C30.9598 25.4915 31.4171 25.2279 31.4562 25.2114C31.9877 24.9848 33.1454 24.8571 33.5698 25.3432C33.6381 25.426 33.6882 25.5221 33.7169 25.6255C33.7456 25.7289 33.7522 25.8372 33.7362 25.9433C33.7203 26.0494 33.6822 26.1509 33.6244 26.2413C33.5666 26.3317 33.4905 26.409 33.4009 26.468C33.028 26.7317 32.4698 26.674 32.0578 26.5504C31.5943 26.4021 30.8218 25.6975 30.7517 25.6399C30.3494 26.0887 29.9172 26.5099 29.458 26.9006C29.1923 27.1292 28.9163 27.3517 28.634 27.5721C28.7762 27.4897 28.9039 27.4176 28.9224 27.4094C29.4519 27.1828 30.6096 27.0551 31.0339 27.5412C31.1026 27.6238 31.1529 27.72 31.1818 27.8234C31.2107 27.9269 31.2173 28.0352 31.2014 28.1414C31.1854 28.2476 31.1472 28.3493 31.0893 28.4397C31.0313 28.5301 30.9549 28.6072 30.865 28.666C30.4942 28.9297 29.9339 28.872 29.524 28.7484C29.114 28.6248 28.428 28.0274 28.2509 27.8688C28.1417 27.9512 28.0449 28.0356 27.9275 28.1201C27.4104 28.5156 26.8975 28.9091 26.3928 29.3128C26.2177 29.4529 26.0508 29.5992 25.8819 29.7454L26.1332 29.6054C26.6626 29.3788 27.8203 29.249 28.2447 29.7351C28.3131 29.818 28.3632 29.9144 28.3919 30.0179C28.4206 30.1215 28.4272 30.2299 28.4112 30.3362C28.3953 30.4424 28.3572 30.5441 28.2994 30.6347C28.2416 30.7253 28.1654 30.8027 28.0758 30.862C27.705 31.1256 27.1447 31.068 26.7347 30.9423C26.3248 30.8166 25.7047 30.279 25.4987 30.0915C25.3319 30.246 25.1629 30.4005 25.0084 30.5571C24.9034 30.6663 24.8024 30.7631 24.6994 30.8805L24.4028 31.2142C24.2236 31.4346 24.0361 31.6592 23.8651 31.8775C23.7457 32.0279 23.6344 32.1742 23.5232 32.3225C23.6942 32.1783 24.0402 31.9105 24.0711 31.8858C24.5594 31.5809 25.6862 31.2678 26.1785 31.6963C26.2583 31.7679 26.3221 31.8556 26.3658 31.9535C26.4095 32.0515 26.4321 32.1576 26.4321 32.2648C26.4321 32.3721 26.4095 32.4781 26.3658 32.5761C26.3221 32.674 26.2583 32.7617 26.1785 32.8334C25.8489 33.1506 25.2886 33.1836 24.8642 33.1177C24.3946 33.0435 23.5458 32.4997 23.4408 32.4214C23.2554 32.6665 23.0782 32.9034 22.9134 33.1321C22.3428 33.9211 21.8978 34.6009 21.593 35.0788L21.5621 35.1282L21.1665 34.9366L21.2283 34.8419C21.5476 34.364 22.0132 33.6883 22.6065 32.9055C22.7939 32.6562 22.9979 32.3946 23.2101 32.1289C22.9894 31.8878 22.7831 31.6339 22.5921 31.3687C22.1368 31.5479 21.1933 31.5541 21.0697 31.5541C21.0512 31.859 21.0347 32.1577 21.0223 32.4379C20.9811 33.4102 20.9853 34.2218 20.9956 34.7904V34.8563L20.5609 34.6503C20.5609 34.0859 20.5836 33.3237 20.6412 32.4214C20.6598 32.1124 20.6866 31.7807 20.7175 31.4408C20.5959 31.4099 19.6133 31.1586 19.2425 30.862C18.9067 30.5921 18.5524 30.1574 18.5648 29.7001C18.5639 29.5928 18.5857 29.4866 18.6287 29.3883C18.6716 29.2899 18.7348 29.2018 18.8141 29.1295C18.8934 29.0572 18.987 29.0024 19.0888 28.9687C19.1907 28.935 19.2985 28.9231 19.4052 28.9338C20.0459 29.0162 20.5836 30.0503 20.6886 30.6168C20.6886 30.6518 20.7216 31.0288 20.7339 31.2554C20.7484 31.1174 20.7587 30.9814 20.7751 30.8434C20.8019 30.5612 20.839 30.281 20.8781 29.9782C20.9008 29.832 20.9255 29.6857 20.9482 29.5374C20.9708 29.3891 21.01 29.2366 21.0409 29.0842C21.1192 28.734 21.2139 28.3817 21.319 28.0295C21.0718 28.0047 20.1963 27.9017 19.8214 27.6854C19.4464 27.4691 19.0303 27.0942 18.9747 26.641C18.9575 26.535 18.9628 26.4266 18.9903 26.3227C19.0178 26.2189 19.0669 26.1221 19.1343 26.0385C19.2018 25.9549 19.2861 25.8865 19.3817 25.8377C19.4774 25.7889 19.5823 25.7608 19.6895 25.7552C20.3343 25.7408 21.0223 26.6802 21.2119 27.2261C21.2242 27.259 21.3169 27.6648 21.3643 27.8894C21.4282 27.6834 21.49 27.4671 21.5703 27.2549C21.7763 26.6369 22.0091 26.0333 22.2357 25.4215C22.3057 25.234 22.3716 25.0466 22.4417 24.8591C22.3531 24.8591 21.3087 24.7499 20.8884 24.5089C20.5156 24.3029 20.0995 23.9177 20.0418 23.4645C20.0249 23.3585 20.0304 23.2502 20.0581 23.1465C20.0857 23.0428 20.1348 22.9461 20.2022 22.8626C20.2696 22.7791 20.3537 22.7107 20.4493 22.6618C20.5448 22.6129 20.6495 22.5846 20.7566 22.5787C21.4034 22.5643 22.0915 23.5036 22.281 24.0495C22.2954 24.0907 22.4273 24.6675 22.454 24.8241C22.6024 24.4121 22.7486 24.0001 22.866 23.5881C23.0403 23.0319 23.1779 22.4648 23.278 21.8907C23.2368 21.8907 22.1471 21.7877 21.7166 21.5405C21.3416 21.3345 20.9255 20.9492 20.8699 20.496C20.8527 20.3901 20.858 20.2818 20.8855 20.1781C20.913 20.0744 20.9621 19.9777 21.0296 19.8942C21.0971 19.8108 21.1814 19.7426 21.2771 19.694C21.3727 19.6454 21.4776 19.6176 21.5847 19.6123C22.2295 19.5958 22.9175 20.5352 23.1071 21.0811C23.1194 21.1161 23.2224 21.5611 23.2657 21.7753H23.3007C23.3858 21.1951 23.4189 20.6084 23.3996 20.0222C23.3996 19.6988 23.3687 19.3919 23.3378 19.0932C23.1318 19.0932 22.1965 19.0932 21.7845 18.914C21.3725 18.7347 20.9338 18.4134 20.8266 17.9705C20.7981 17.8667 20.7917 17.7581 20.808 17.6517C20.8243 17.5454 20.8629 17.4436 20.9213 17.3532C20.9796 17.2628 21.0564 17.1857 21.1466 17.127C21.2368 17.0683 21.3383 17.0293 21.4446 17.0126C22.0853 16.924 22.8722 17.7851 23.1215 18.3042C23.1338 18.333 23.241 18.6359 23.3131 18.8583C23.2986 18.7224 23.2842 18.5823 23.2657 18.4463C23.2018 17.9622 23.1112 17.5235 23.0288 17.1341C22.9793 16.9137 22.932 16.7221 22.8846 16.5305C22.6786 16.4275 21.8711 16.0032 21.595 15.6612C21.319 15.3193 21.0718 14.8228 21.183 14.382C21.2076 14.2779 21.2538 14.1801 21.3186 14.095C21.3834 14.0098 21.4654 13.9393 21.5592 13.8878C21.6529 13.8363 21.7565 13.8052 21.8631 13.7962C21.9697 13.7873 22.077 13.8009 22.178 13.8361Z" fill="#C7CDFF"/>
<path d="M33.8539 23.784C33.3492 23.7634 32.3398 23.2463 32.3398 23.2463C32.3398 23.2463 32.8816 22.6839 32.9208 22.653C33.3719 22.2946 34.4555 21.864 34.9931 22.2225C35.081 22.284 35.1549 22.3635 35.21 22.4556C35.265 22.5477 35.3 22.6504 35.3127 22.7569C35.3253 22.8635 35.3153 22.9715 35.2833 23.074C35.2513 23.1764 35.1981 23.2709 35.127 23.3514C34.8386 23.7036 34.2845 23.8025 33.8539 23.784Z" fill="#C7CDFF"/>
<g opacity="0.5">
<path d="M23.4284 19.0028C23.4161 19.0028 23.5726 18.2344 23.587 18.1788C23.7642 17.6288 24.4316 16.6729 25.0764 16.675C25.1838 16.678 25.2894 16.7037 25.3862 16.7502C25.4831 16.7968 25.569 16.8633 25.6384 16.9453C25.7078 17.0274 25.7591 17.1231 25.789 17.2263C25.8189 17.3295 25.8267 17.4379 25.8118 17.5443C25.7645 17.9975 25.3566 18.3848 24.9878 18.6073C24.5552 18.8771 23.4284 19.0028 23.4284 19.0028Z" fill="white"/>
<path d="M22.178 13.8361C22.796 14.0544 23.0885 15.1792 23.0679 15.756C23.0679 15.8054 22.9526 16.58 22.9423 16.58H22.9299C22.9773 16.7571 23.0288 16.9487 23.0803 17.1588C23.1709 17.5461 23.2698 17.9828 23.346 18.469C23.4344 18.9898 23.4922 19.5153 23.5191 20.0428C23.5519 20.634 23.5319 21.2269 23.4593 21.8144C23.4584 21.8213 23.4584 21.8282 23.4593 21.835C23.5397 21.6641 23.7786 21.1903 23.7992 21.1573C24.1165 20.6753 25.0105 19.9213 25.6347 20.1005C25.7372 20.1318 25.8319 20.1843 25.9127 20.2546C25.9936 20.325 26.0586 20.4116 26.1037 20.5088C26.1488 20.6059 26.1729 20.7116 26.1745 20.8187C26.176 20.9258 26.1549 21.0321 26.1126 21.1305C25.9478 21.5549 25.4534 21.8206 25.0393 21.938C24.5717 22.0719 23.5294 21.9154 23.447 21.901C23.3589 22.4973 23.2309 23.0871 23.0638 23.6664C22.9677 24.0042 22.8633 24.3414 22.7507 24.6778C22.8228 24.5316 22.8908 24.4018 22.9011 24.3853C23.2183 23.9012 24.1144 23.1493 24.7365 23.3285C24.839 23.3598 24.9338 23.4123 25.0146 23.4826C25.0954 23.553 25.1605 23.6396 25.2056 23.7368C25.2507 23.834 25.2748 23.9396 25.2763 24.0467C25.2778 24.1538 25.2568 24.2601 25.2144 24.3585C25.0496 24.7829 24.5552 25.0486 24.1412 25.1661C23.7271 25.2835 22.829 25.1661 22.5941 25.1352L22.4643 25.5224C22.2583 26.1404 22.0338 26.7584 21.8463 27.3641C21.7784 27.5701 21.7186 27.7926 21.6589 28.0068C21.7248 27.877 21.7804 27.7678 21.7907 27.7514C22.1059 27.2693 23.002 26.5154 23.6241 26.6946C23.7264 26.7262 23.821 26.7788 23.9017 26.8492C23.9823 26.9196 24.0474 27.006 24.0926 27.1031C24.1378 27.2001 24.1622 27.3056 24.1642 27.4126C24.1662 27.5197 24.1457 27.6259 24.1041 27.7246C23.9393 28.151 23.4428 28.4147 23.0288 28.5342C22.6147 28.6536 21.8051 28.5486 21.525 28.5094C21.4694 28.7299 21.4158 28.9503 21.3725 29.1666C21.3458 29.317 21.3107 29.457 21.2922 29.6074L21.2304 30.0503C21.2016 30.3325 21.1686 30.623 21.148 30.899C21.1315 31.0906 21.1192 31.274 21.1068 31.4594C21.1727 31.2534 21.3128 30.8269 21.3128 30.794C21.5409 30.3408 21.8814 29.9535 22.3016 29.6692C22.324 29.6167 22.3523 29.5669 22.3861 29.5209C22.4444 29.4309 22.521 29.3542 22.611 29.2959C22.701 29.2375 22.8023 29.1988 22.9083 29.1823C23.0142 29.1658 23.1225 29.1718 23.226 29.2C23.3294 29.2281 23.4258 29.2778 23.5088 29.3458C23.999 29.7681 23.8754 30.9258 23.6509 31.4573C23.6385 31.4882 23.4552 31.8116 23.3378 32.0156C23.4264 31.9064 23.5088 31.7993 23.6015 31.6901C23.7807 31.4697 23.9661 31.2554 24.1638 31.0247L24.4667 30.6972C24.5655 30.5859 24.685 30.4912 24.7942 30.3696C25.0517 30.1204 25.3257 29.8793 25.6079 29.6424C25.4163 29.4859 24.7406 28.9173 24.547 28.53C24.3534 28.1428 24.2153 27.601 24.4172 27.191C24.4616 27.0933 24.5261 27.0059 24.6064 26.9347C24.6867 26.8634 24.7811 26.8098 24.8835 26.7774C24.9858 26.745 25.0939 26.7344 25.2006 26.7464C25.3073 26.7584 25.4102 26.7927 25.5028 26.847C26.0487 27.191 26.1044 28.3549 25.9622 28.907C25.9622 28.942 25.8057 29.3314 25.7212 29.5436C25.8922 29.4035 26.0611 29.2634 26.2383 29.1316C26.7491 28.7381 27.2786 28.3529 27.8039 27.9677L28.2838 27.6133C28.2159 27.5577 27.4001 26.8985 27.1817 26.4639C26.9902 26.0786 26.8501 25.5348 27.052 25.1269C27.0961 25.0289 27.1604 24.9414 27.2407 24.8699C27.321 24.7985 27.4155 24.7448 27.5179 24.7123C27.6203 24.6798 27.7285 24.6693 27.8353 24.6815C27.9421 24.6937 28.0451 24.7282 28.1376 24.7829C28.6855 25.1249 28.7391 26.2888 28.597 26.8429C28.5867 26.8841 28.3745 27.4444 28.3147 27.5845C28.6649 27.3229 29.0131 27.0592 29.3447 26.7832C29.796 26.4153 30.2227 26.0182 30.6219 25.5945C30.591 25.5678 29.7361 24.8838 29.5137 24.4409C29.32 24.0557 29.182 23.5098 29.3839 23.1019C29.4281 23.0042 29.4923 22.9169 29.5724 22.8457C29.6526 22.7744 29.7468 22.7209 29.849 22.6884C29.9512 22.656 30.0591 22.6454 30.1656 22.6574C30.2722 22.6693 30.375 22.7036 30.4674 22.7579C31.0154 23.1019 31.071 24.2658 30.9289 24.8179C30.9289 24.855 30.7579 25.2814 30.6776 25.4833L30.7085 25.5039C31.0987 25.0659 31.4496 24.5944 31.757 24.0949C31.93 23.8209 32.0784 23.551 32.2184 23.2853C32.0454 23.174 31.2647 22.657 31.0195 22.28C30.7744 21.903 30.589 21.3921 30.7435 20.9637C30.7766 20.8615 30.8309 20.7675 30.9027 20.6877C30.9746 20.608 31.0625 20.5442 31.1606 20.5007C31.2588 20.4572 31.365 20.4348 31.4724 20.4351C31.5797 20.4353 31.6859 20.4582 31.7838 20.5022C32.3668 20.7844 32.548 21.9442 32.4677 22.5066C32.4677 22.5375 32.3853 22.8486 32.3256 23.0731C32.3853 22.9516 32.4512 22.828 32.5068 22.7105C32.7128 22.2718 32.8879 21.8556 33.0321 21.4745C33.1145 21.2685 33.1825 21.0728 33.2381 20.8916C33.1248 20.6856 32.684 19.8945 32.6407 19.4496C32.5975 19.0046 32.6675 18.4649 33.0033 18.1559C33.0798 18.0806 33.1712 18.0223 33.2717 17.9848C33.3721 17.9472 33.4794 17.9312 33.5865 17.9378C33.6935 17.9444 33.798 17.9735 33.8931 18.0231C33.9882 18.0727 34.0717 18.1418 34.1384 18.2259C34.5256 18.743 34.1569 19.8492 33.8232 20.3189C33.7943 20.3601 33.269 20.9369 33.2629 20.9369V20.9245C33.2052 21.0996 33.1434 21.2871 33.0692 21.489C32.9333 21.8639 32.7746 22.2841 32.5707 22.725C32.3551 23.2073 32.1123 23.6771 31.8435 24.1319C31.5436 24.6421 31.1989 25.1247 30.8135 25.5739L30.7991 25.5904C30.9598 25.4915 31.4171 25.2279 31.4562 25.2114C31.9877 24.9848 33.1454 24.8571 33.5698 25.3432C33.6381 25.426 33.6882 25.5221 33.7169 25.6255C33.7456 25.7289 33.7522 25.8372 33.7362 25.9433C33.7203 26.0494 33.6822 26.1509 33.6244 26.2413C33.5666 26.3317 33.4905 26.409 33.4009 26.468C33.028 26.7317 32.4698 26.674 32.0578 26.5504C31.5943 26.4021 30.8218 25.6975 30.7517 25.6399C30.3494 26.0887 29.9172 26.5099 29.458 26.9006C29.1923 27.1292 28.9163 27.3517 28.634 27.5721C28.7762 27.4897 28.9039 27.4176 28.9224 27.4094C29.4519 27.1828 30.6096 27.0551 31.0339 27.5412C31.1026 27.6238 31.1529 27.72 31.1818 27.8234C31.2107 27.9269 31.2173 28.0352 31.2014 28.1414C31.1854 28.2476 31.1472 28.3493 31.0893 28.4397C31.0313 28.5301 30.9549 28.6072 30.865 28.666C30.4942 28.9297 29.9339 28.872 29.524 28.7484C29.114 28.6248 28.428 28.0274 28.2509 27.8688C28.1417 27.9512 28.0449 28.0356 27.9275 28.1201C27.4104 28.5156 26.8975 28.9091 26.3928 29.3128C26.2177 29.4529 26.0508 29.5992 25.8819 29.7454L26.1332 29.6054C26.6626 29.3788 27.8203 29.249 28.2447 29.7351C28.3131 29.818 28.3632 29.9144 28.3919 30.0179C28.4206 30.1215 28.4272 30.2299 28.4112 30.3362C28.3953 30.4424 28.3572 30.5441 28.2994 30.6347C28.2416 30.7253 28.1654 30.8027 28.0758 30.862C27.705 31.1256 27.1447 31.068 26.7347 30.9423C26.3248 30.8166 25.7047 30.279 25.4987 30.0915C25.3319 30.246 25.1629 30.4005 25.0084 30.5571C24.9034 30.6663 24.8024 30.7631 24.6994 30.8805L24.4028 31.2142C24.2236 31.4346 24.0361 31.6592 23.8651 31.8775C23.7457 32.0279 23.6344 32.1742 23.5232 32.3225C23.6942 32.1783 24.0402 31.9105 24.0711 31.8858C24.5594 31.5809 25.6862 31.2678 26.1785 31.6963C26.2583 31.7679 26.3221 31.8556 26.3658 31.9535C26.4095 32.0515 26.4321 32.1576 26.4321 32.2648C26.4321 32.3721 26.4095 32.4781 26.3658 32.5761C26.3221 32.674 26.2583 32.7617 26.1785 32.8334C25.8489 33.1506 25.2886 33.1836 24.8642 33.1177C24.3946 33.0435 23.5458 32.4997 23.4408 32.4214C23.2554 32.6665 23.0782 32.9034 22.9134 33.1321C22.3428 33.9211 21.8978 34.6009 21.593 35.0788L21.5621 35.1282L21.1665 34.9366L21.2283 34.8419C21.5476 34.364 22.0132 33.6883 22.6065 32.9055C22.7939 32.6562 22.9979 32.3946 23.2101 32.1289C22.9894 31.8878 22.7831 31.6339 22.5921 31.3687C22.1368 31.5479 21.1933 31.5541 21.0697 31.5541C21.0512 31.859 21.0347 32.1577 21.0223 32.4379C20.9811 33.4102 20.9853 34.2218 20.9956 34.7904V34.8563L20.5609 34.6503C20.5609 34.0859 20.5836 33.3237 20.6412 32.4214C20.6598 32.1124 20.6866 31.7807 20.7175 31.4408C20.5959 31.4099 19.6133 31.1586 19.2425 30.862C18.9067 30.5921 18.5524 30.1574 18.5648 29.7001C18.5639 29.5928 18.5857 29.4866 18.6287 29.3883C18.6716 29.2899 18.7348 29.2018 18.8141 29.1295C18.8934 29.0572 18.987 29.0024 19.0888 28.9687C19.1907 28.935 19.2985 28.9231 19.4052 28.9338C20.0459 29.0162 20.5836 30.0503 20.6886 30.6168C20.6886 30.6518 20.7216 31.0288 20.7339 31.2554C20.7484 31.1174 20.7587 30.9814 20.7751 30.8434C20.8019 30.5612 20.839 30.281 20.8781 29.9782C20.9008 29.832 20.9255 29.6857 20.9482 29.5374C20.9708 29.3891 21.01 29.2366 21.0409 29.0842C21.1192 28.734 21.2139 28.3817 21.319 28.0295C21.0718 28.0047 20.1963 27.9017 19.8214 27.6854C19.4464 27.4691 19.0303 27.0942 18.9747 26.641C18.9575 26.535 18.9628 26.4266 18.9903 26.3227C19.0178 26.2189 19.0669 26.1221 19.1343 26.0385C19.2018 25.9549 19.2861 25.8865 19.3817 25.8377C19.4774 25.7889 19.5823 25.7608 19.6895 25.7552C20.3343 25.7408 21.0223 26.6802 21.2119 27.2261C21.2242 27.259 21.3169 27.6648 21.3643 27.8894C21.4282 27.6834 21.49 27.4671 21.5703 27.2549C21.7763 26.6369 22.0091 26.0333 22.2357 25.4215C22.3057 25.234 22.3716 25.0466 22.4417 24.8591C22.3531 24.8591 21.3087 24.7499 20.8884 24.5089C20.5156 24.3029 20.0995 23.9177 20.0418 23.4645C20.0249 23.3585 20.0304 23.2502 20.0581 23.1465C20.0857 23.0428 20.1348 22.9461 20.2022 22.8626C20.2696 22.7791 20.3537 22.7107 20.4493 22.6618C20.5448 22.6129 20.6495 22.5846 20.7566 22.5787C21.4034 22.5643 22.0915 23.5036 22.281 24.0495C22.2954 24.0907 22.4273 24.6675 22.454 24.8241C22.6024 24.4121 22.7486 24.0001 22.866 23.5881C23.0403 23.0319 23.1779 22.4648 23.278 21.8907C23.2368 21.8907 22.1471 21.7877 21.7166 21.5405C21.3416 21.3345 20.9255 20.9492 20.8699 20.496C20.8527 20.3901 20.858 20.2818 20.8855 20.1781C20.913 20.0744 20.9621 19.9777 21.0296 19.8942C21.0971 19.8108 21.1814 19.7426 21.2771 19.694C21.3727 19.6454 21.4776 19.6176 21.5847 19.6123C22.2295 19.5958 22.9175 20.5352 23.1071 21.0811C23.1194 21.1161 23.2224 21.5611 23.2657 21.7753H23.3007C23.3858 21.1951 23.4189 20.6084 23.3996 20.0222C23.3996 19.6988 23.3687 19.3919 23.3378 19.0932C23.1318 19.0932 22.1965 19.0932 21.7845 18.914C21.3725 18.7347 20.9338 18.4134 20.8266 17.9705C20.7981 17.8667 20.7917 17.7581 20.808 17.6517C20.8243 17.5454 20.8629 17.4436 20.9213 17.3532C20.9796 17.2628 21.0564 17.1857 21.1466 17.127C21.2368 17.0683 21.3383 17.0293 21.4446 17.0126C22.0853 16.924 22.8722 17.7851 23.1215 18.3042C23.1338 18.333 23.241 18.6359 23.3131 18.8583C23.2986 18.7224 23.2842 18.5823 23.2657 18.4463C23.2018 17.9622 23.1112 17.5235 23.0288 17.1341C22.9793 16.9137 22.932 16.7221 22.8846 16.5305C22.6786 16.4275 21.8711 16.0032 21.595 15.6612C21.319 15.3193 21.0718 14.8228 21.183 14.382C21.2076 14.2779 21.2538 14.1801 21.3186 14.095C21.3834 14.0098 21.4654 13.9393 21.5592 13.8878C21.6529 13.8363 21.7565 13.8052 21.8631 13.7962C21.9697 13.7873 22.077 13.8009 22.178 13.8361Z" fill="white"/>
<path d="M33.8539 23.784C33.3492 23.7634 32.3398 23.2464 32.3398 23.2464C32.3398 23.2464 32.8816 22.684 32.9208 22.6531C33.3719 22.2946 34.4555 21.8641 34.9931 22.2225C35.081 22.2841 35.1549 22.3635 35.21 22.4556C35.265 22.5478 35.3 22.6504 35.3127 22.757C35.3253 22.8636 35.3153 22.9716 35.2833 23.074C35.2513 23.1765 35.1981 23.271 35.127 23.3514C34.8386 23.7037 34.2845 23.8026 33.8539 23.784Z" fill="white"/>
</g>
<path d="M27.9603 36.4241C27.9603 36.4241 24.8971 29.0411 23.1832 29.3624C21.4693 29.6838 26.1228 41.1333 26.1228 41.1333C26.1228 41.1333 20.7339 30.9672 17.0588 30.9672C13.3838 30.9672 18.4061 42.2024 23.072 45.9475C23.072 45.9475 15.7219 38.0288 11.435 39.7407C7.14815 41.4526 19.9984 49.4742 19.9984 49.4742C19.9984 49.4742 12.5268 47.1237 13.39 48.9448C14.2531 50.7658 16.5747 51.0831 16.5747 51.0831L18.54 51.5115H29.252L30.9 50.8709C30.9 50.8709 37.7598 47.4451 35.9222 46.0546C34.0847 44.6641 30.043 47.6593 30.043 47.6593C30.043 47.6593 37.0243 39.955 35.6771 37.0668C34.3299 34.1787 28.327 42.3095 28.327 42.3095C28.327 42.3095 33.2278 31.9292 32.241 30.1102C31.2543 28.2912 27.9603 36.4241 27.9603 36.4241Z" fill="#C7CDFF"/>
<path opacity="0.4" d="M27.9603 36.4241C27.9603 36.4241 24.8971 29.0411 23.1832 29.3624C21.4693 29.6838 26.1228 41.1333 26.1228 41.1333C26.1228 41.1333 20.7339 30.9672 17.0588 30.9672C13.3838 30.9672 18.4061 42.2024 23.072 45.9475C23.072 45.9475 15.7219 38.0288 11.435 39.7407C7.14815 41.4526 19.9984 49.4742 19.9984 49.4742C19.9984 49.4742 12.5268 47.1237 13.39 48.9448C14.2531 50.7658 16.5747 51.0831 16.5747 51.0831L19.776 51.5115H28.428L30.9 50.8709C30.9 50.8709 37.7598 47.4451 35.9222 46.0546C34.0847 44.6641 30.043 47.6593 30.043 47.6593C30.043 47.6593 37.0243 39.955 35.6771 37.0668C34.3299 34.1787 28.327 42.3095 28.327 42.3095C28.327 42.3095 33.2278 31.9292 32.241 30.1102C31.2543 28.2912 27.9603 36.4241 27.9603 36.4241Z" fill="white"/>
<path d="M28.9411 36.8138C26.2466 44.7757 26.2466 50.4098 26.2466 50.4098C26.2466 50.4098 29.4313 50.5334 32.7376 48.082" stroke="#263238" stroke-width="0.206" stroke-linecap="round" stroke-linejoin="round"/>
<path d="M27.6042 41.1002C27.0482 38.7202 26.3106 36.3862 25.3979 34.1189" stroke="#263238" stroke-width="0.206" stroke-linecap="round" stroke-linejoin="round"/>
<path d="M19.6318 36.4449L26.4896 46.6131C26.4896 46.6131 31.1452 42.6991 32.7376 40.4887" stroke="#263238" stroke-width="0.206" stroke-linecap="round" stroke-linejoin="round"/>
<path d="M26.3678 49.0621C26.3678 49.0621 19.1413 45.6322 16.2017 43.6732" stroke="#263238" stroke-width="0.206" stroke-linecap="round" stroke-linejoin="round"/>
<path d="M9.64502 82.0061H94.8899" stroke="#263238" stroke-width="0.206" stroke-linecap="round" stroke-linejoin="round"/>
<path d="M39.0558 87.9565C47.2745 87.9565 53.9372 87.1468 53.9372 86.1479C53.9372 85.1489 47.2745 84.3392 39.0558 84.3392C30.837 84.3392 24.1743 85.1489 24.1743 86.1479C24.1743 87.1468 30.837 87.9565 39.0558 87.9565Z" fill="#C7CDFF"/>
<path opacity="0.5" d="M39.0558 87.9565C47.2745 87.9565 53.9372 87.1468 53.9372 86.1479C53.9372 85.1489 47.2745 84.3392 39.0558 84.3392C30.837 84.3392 24.1743 85.1489 24.1743 86.1479C24.1743 87.1468 30.837 87.9565 39.0558 87.9565Z" fill="white"/>
<path d="M69.8506 86.1419C69.8506 86.6404 66.5278 87.0441 62.4346 87.0441C58.3413 87.0441 55.0186 86.6321 55.0186 86.1419C55.0186 85.6516 58.3393 85.2416 62.4346 85.2416C66.5298 85.2416 69.8506 85.6516 69.8506 86.1419Z" fill="#C7CDFF"/>
<path opacity="0.5" d="M69.8506 86.1419C69.8506 86.6404 66.5278 87.0441 62.4346 87.0441C58.3413 87.0441 55.0186 86.6321 55.0186 86.1419C55.0186 85.6516 58.3393 85.2416 62.4346 85.2416C66.5298 85.2416 69.8506 85.6516 69.8506 86.1419Z" fill="white"/>
<path d="M42.0242 26.5647C42.0242 26.5647 40.8727 25.6603 39.5522 26.1115C38.2317 26.5626 37.2306 28.7627 36.8742 30.5508C36.5178 32.3388 35.1479 33.6943 35.4775 35.7914C35.8071 37.8885 38.1905 38.216 41.0684 38.525C43.9462 38.834 45.5077 38.4838 46.8631 36.5927C48.2186 34.7017 47.6439 32.4006 46.8425 30.3654C46.0412 28.3301 44.7063 26.4411 43.596 26.0909C42.4856 25.7407 42.0242 26.5647 42.0242 26.5647Z" fill="#263238" stroke="#263238" stroke-width="0.206" stroke-linecap="round" stroke-linejoin="round"/>
<path d="M37.2656 37.3201C37.4599 37.4075 37.662 37.4765 37.8692 37.5261" stroke="white" stroke-width="0.206" stroke-linecap="round" stroke-linejoin="round"/>
<path d="M41.7356 28.0299C41.2662 29.0785 40.6713 30.0663 39.964 30.9716C38.7856 32.4857 36.1797 33.9153 36.0129 35.5036C35.9861 35.7162 36.0047 35.9321 36.0676 36.137C36.1304 36.342 36.236 36.5312 36.3775 36.6922" stroke="white" stroke-width="0.206" stroke-linecap="round" stroke-linejoin="round"/>
<path d="M46.5169 35.6248C46.4317 35.8242 46.3224 36.0124 46.1914 36.1851" stroke="white" stroke-width="0.206" stroke-linecap="round" stroke-linejoin="round"/>
<path d="M45.5264 31.6454C45.5264 31.6454 46.8509 33.1739 46.7232 34.8054" stroke="white" stroke-width="0.206" stroke-linecap="round" stroke-linejoin="round"/>
<path d="M41.4843 27.1867C40.968 27.1342 40.4467 27.2061 39.9639 27.3964C39.4812 27.5867 39.051 27.8899 38.7095 28.2806C38.6621 28.3342 38.6188 28.3877 38.5776 28.4413" stroke="white" stroke-width="0.206" stroke-linecap="round" stroke-linejoin="round"/>
<path d="M33.8852 66.0162L33.6277 69.9797C33.6277 69.9797 32.5318 75.2965 32.1857 77.4884C31.8396 79.6802 31.2051 83.0133 31.0898 83.0133C30.9744 83.0133 29.0833 84.1566 28.4777 85.0898C27.872 86.023 28.6404 86.4185 29.4809 86.1198C30.3214 85.8211 31.4626 84.9765 31.8355 83.9733C32.2083 82.97 32.3937 82.5972 32.4185 82.4344C32.4432 82.2717 36.4293 71.57 36.8248 70.4267C37.2203 69.2834 38.0608 65.9256 38.0608 65.9256L40.0199 59.28C40.0199 59.28 42.1169 66.1131 42.1417 66.4159C42.1664 66.7187 44.3088 84.1834 44.4077 84.8364C44.5065 85.4894 44.4777 85.955 44.8732 86.0951C45.2687 86.2351 46.2019 86.2351 46.6922 86.2351C47.1825 86.2351 48.884 86.4926 49.7225 86.2825C50.5609 86.0724 50.6556 85.9323 50.0727 85.5121C49.4897 85.0918 46.2514 84.824 45.9527 83.6004C45.9279 83.5077 45.9053 65.5301 45.9053 65.5301C45.9053 65.5301 45.6251 59.5849 45.1596 57.9081H34.3858L33.8852 66.0162Z" fill="white" stroke="#263238" stroke-width="0.206" stroke-linecap="round" stroke-linejoin="round"/>
<path d="M29.4789 86.115C30.3173 85.8101 31.4606 84.9717 31.8335 83.9685L31.9118 83.7625C31.4359 84.2692 30.6758 84.9737 30.6758 84.9737C30.6292 84.7348 30.5253 84.5107 30.3729 84.3207C30.3065 84.2474 30.2214 84.1936 30.1267 84.1649C30.032 84.1362 29.9312 84.1338 29.8353 84.158L30.6593 83.2516C30.0413 83.6347 28.9289 84.4175 28.4922 85.0912C27.868 86.0202 28.6343 86.4178 29.4789 86.115Z" fill="#263238" stroke="#263238" stroke-width="0.206" stroke-linecap="round" stroke-linejoin="round"/>
<path d="M50.0583 85.5073C49.6586 85.2209 48.0168 85.0046 46.9209 84.504C46.8757 84.5425 46.8404 84.5912 46.8179 84.6462C46.7483 84.8436 46.6939 85.0461 46.6552 85.2518L44.3892 84.7677V84.8316C44.4819 85.4846 44.4592 85.9502 44.8547 86.0902C45.2502 86.2303 46.1834 86.2303 46.6737 86.2303C47.164 86.2303 48.8655 86.4878 49.704 86.2777C50.5424 86.0676 50.6495 85.9357 50.0583 85.5073Z" fill="#263238" stroke="#263238" stroke-width="0.206" stroke-linecap="round" stroke-linejoin="round"/>
<path d="M37.0247 48.2379C37.0247 48.2379 35.9555 48.7303 34.6619 51.0539C33.2466 53.5898 33.4897 54.9988 33.4691 58.0579C33.4485 61.117 33.3867 66.1949 33.3867 66.1949C33.3867 66.1949 37.3007 67.2435 40.1085 67.0787C42.9163 66.9139 46.478 66.2773 46.478 66.2773C46.478 66.2773 45.7179 55.9197 44.9989 52.9409C44.28 49.9621 43.8474 48.6149 43.8474 48.6149C42.4579 48.8077 41.0499 48.8285 39.6553 48.6767C37.2719 48.4439 37.0247 48.2379 37.0247 48.2379Z" fill="#263238" stroke="#263238" stroke-width="0.206" stroke-linecap="round" stroke-linejoin="round"/>
<path d="M41.5278 57.3989C41.635 57.7511 41.7338 58.1075 41.8204 58.4639" stroke="white" stroke-width="0.206" stroke-linecap="round" stroke-linejoin="round"/>
<path d="M39.0454 51.5691C39.8752 53.1003 40.5873 54.6925 41.1755 56.3318" stroke="white" stroke-width="0.206" stroke-linecap="round" stroke-linejoin="round"/>
<path d="M63.2671 46.2691C63.1435 46.1867 61.1186 45.8695 61.1186 45.8695L60.723 45.7068C60.723 45.7068 63.1744 45.9025 63.195 45.7995C63.2156 45.6965 63.298 45.5729 63.1332 45.5523C62.9684 45.5317 59.8146 44.891 59.8146 44.891C59.8146 44.891 60.6159 44.1329 60.7189 43.9681C60.8219 43.8033 60.9641 43.4737 60.7993 43.4737C60.6345 43.4737 60.5933 43.5767 60.3687 43.7209C60.1442 43.8651 59.2584 44.2153 59.0112 44.4193C58.764 44.6232 58.0265 45.1588 58.0265 45.1588L49.461 43.9805C49.461 43.9805 46.4534 40.2725 45.8004 39.4814C45.3465 38.9536 44.8297 38.4831 44.2616 38.0806C43.6312 37.8025 43.6436 38.2681 43.6436 38.2681L44.9599 44.1185C44.9599 44.1185 48.3651 46.1476 48.5752 46.1476C48.7853 46.1476 57.9853 46.4525 57.9853 46.4525C57.9853 46.4525 58.6033 46.7409 58.9906 46.986C59.3778 47.2312 61.8478 48.016 61.8478 48.016C61.8478 48.016 62.0126 47.9336 61.8272 47.7894C61.6418 47.6452 60.4511 47.0705 60.4511 47.0705L62.9231 47.6061C62.9231 47.6061 63.0673 47.5031 63.0055 47.4001C62.9437 47.2971 60.7395 46.4545 60.7395 46.4545L63.2115 46.5781C63.2115 46.5781 63.3887 46.3515 63.2671 46.2691Z" fill="white" stroke="#263238" stroke-width="0.206" stroke-linecap="round" stroke-linejoin="round"/>
<path d="M48.944 43.3439C48.0561 42.2501 46.2824 40.0665 45.8004 39.4814C45.3465 38.9536 44.8297 38.4831 44.2616 38.0806C43.6312 37.8025 43.6436 38.2681 43.6436 38.2681L44.9599 44.1185C44.9599 44.1185 46.4967 45.0331 47.5679 45.6347L48.944 43.3439Z" fill="white" stroke="#263238" stroke-width="0.206" stroke-linecap="round" stroke-linejoin="round"/>
<path d="M39.8409 37.5795C39.8409 37.5795 38.0528 37.6619 36.9569 38.8752C35.8609 40.0886 35.9907 42.7583 36.4439 44.361C36.8971 45.9637 37.4739 46.8474 37.3483 47.4036C37.2226 47.9598 36.7735 48.1432 37.0187 48.6561C37.2638 49.169 38.6831 49.7252 41.1902 49.6428C43.6972 49.5604 44.171 49.0248 44.1916 48.5552C44.2122 48.0855 44.0268 47.692 44.0886 47.4036C44.1504 47.1152 45.9591 45.5125 45.9591 43.7451C45.9591 41.9776 45.1783 41.3616 44.9929 40.0865C44.8075 38.8114 44.8693 38.628 44.1092 38.0718C43.349 37.5156 40.8482 37.2293 39.8409 37.5795Z" fill="white" stroke="#263238" stroke-width="0.206" stroke-linecap="round" stroke-linejoin="round"/>
<path d="M39.029 43.7066C38.4314 44.2067 37.7681 44.6226 37.0576 44.9426" stroke="#263238" stroke-width="0.206" stroke-linecap="round" stroke-linejoin="round"/>
<path d="M39.2268 43.9127C39.2268 43.9127 38.7839 45.3424 37.6982 46.1313" stroke="#263238" stroke-width="0.206" stroke-linecap="round" stroke-linejoin="round"/>
<path d="M43.6641 38.8736L43.8701 40.8471L43.0049 39.8397L43.6641 38.8736Z" fill="white" stroke="#263238" stroke-width="0.206" stroke-linecap="round" stroke-linejoin="round"/>
<path d="M42.5122 41.012L43.6637 38.8737L42.6152 37.7448L42.5122 41.012Z" fill="white" stroke="#263238" stroke-width="0.206" stroke-linecap="round" stroke-linejoin="round"/>
<path d="M40.2939 34.086C40.4735 34.7985 40.5628 35.5307 40.5597 36.2655C40.5537 36.7412 40.5054 37.2155 40.4155 37.6828L42.5126 41.0117L43.1079 37.9217L43.4993 35.7834C43.4993 35.7834 41.1159 35.6475 40.2939 34.086Z" fill="white" stroke="#263238" stroke-width="0.206" stroke-linecap="round" stroke-linejoin="round"/>
<path d="M42.3888 39.2236L42.5124 41.0117L41.8965 40.0455L42.3888 39.2236Z" fill="white" stroke="#263238" stroke-width="0.206" stroke-linecap="round" stroke-linejoin="round"/>
<path d="M39.7173 37.6002L41.629 41.0322L42.3891 39.2235L40.3559 36.4281L39.7173 37.6002Z" fill="white" stroke="#263238" stroke-width="0.206" stroke-linecap="round" stroke-linejoin="round"/>
<path d="M73.2086 39.2012H55.8613V53.4358H73.2086V39.2012Z" fill="#C7CDFF"/>
<mask id="mask0_433_3064" style="mask-type:luminance" maskUnits="userSpaceOnUse" x="55" y="39" width="19" height="15">
<path d="M73.2086 39.2012H55.8613V53.4358H73.2086V39.2012Z" fill="white"/>
</mask>
<g mask="url(#mask0_433_3064)">
<path opacity="0.2" d="M73.2086 39.2012H55.8613V53.4358H73.2086V39.2012Z" fill="black"/>
</g>
<path d="M73.2086 39.2012H55.8613V53.4358H73.2086V39.2012Z" stroke="#263238" stroke-width="0.206" stroke-linecap="round" stroke-linejoin="round"/>
<path d="M69.5357 39.2012H52.1885V53.4358H69.5357V39.2012Z" fill="#C7CDFF" stroke="#263238" stroke-width="0.206" stroke-linecap="round" stroke-linejoin="round"/>
<path d="M76.0657 58.2271C75.5095 57.3454 73.2085 53.4355 73.2085 53.4355H69.5376L71.4266 58.2271H76.0657Z" fill="#C7CDFF"/>
<mask id="mask1_433_3064" style="mask-type:luminance" maskUnits="userSpaceOnUse" x="69" y="53" width="8" height="6">
<path d="M76.0657 58.2271C75.5095 57.3454 73.2085 53.4355 73.2085 53.4355H69.5376L71.4266 58.2271H76.0657Z" fill="white"/>
</mask>
<g mask="url(#mask1_433_3064)">
<path opacity="0.2" d="M76.0657 58.2271C75.5095 57.3454 73.2085 53.4355 73.2085 53.4355H69.5376L71.4266 58.2271H76.0657Z" fill="black"/>
</g>
<path d="M76.0657 58.2271C75.5095 57.3454 73.2085 53.4355 73.2085 53.4355H69.5376L71.4266 58.2271H76.0657Z" stroke="#263238" stroke-width="0.206" stroke-linecap="round" stroke-linejoin="round"/>
<path d="M49.3208 58.2271C49.877 57.3454 52.176 53.4355 52.176 53.4355H55.8489L53.9599 58.2271H49.3208Z" fill="#C7CDFF" stroke="#263238" stroke-width="0.206" stroke-linecap="round" stroke-linejoin="round"/>
<path d="M52.1756 53.4355L50.5791 58.2271H68.6968L69.5373 53.4355H52.1756Z" fill="#C7CDFF" stroke="#263238" stroke-width="0.206" stroke-linecap="round" stroke-linejoin="round"/>
<path d="M75.4414 44.3514V49.1182" stroke="#263238" stroke-width="0.206" stroke-linecap="round" stroke-linejoin="round"/>
<path d="M76.3438 46.4134V50.278" stroke="#263238" stroke-width="0.206" stroke-linecap="round" stroke-linejoin="round"/>
<path d="M50.3242 49.118V52.0803" stroke="#263238" stroke-width="0.206" stroke-linecap="round" stroke-linejoin="round"/>
<path d="M49.5513 50.793V53.1105" stroke="#263238" stroke-width="0.206" stroke-linecap="round" stroke-linejoin="round"/>
<path d="M36.8599 42.6967C37.4746 43.3929 38.1881 43.9954 38.9775 44.4847C40.2135 45.2243 44.7455 47.7931 45.1019 47.9373C45.4583 48.0815 56.2815 46.314 56.2815 46.314C56.2815 46.314 56.8995 46.6024 57.2889 46.8476C57.6782 47.0927 60.1461 47.8776 60.1461 47.8776C60.1461 47.8776 60.3109 47.7952 60.1255 47.653C59.9401 47.5109 58.7494 46.932 58.7494 46.932L61.2214 47.4676C61.2214 47.4676 61.3656 47.3646 61.3038 47.2616C61.242 47.1586 59.0378 46.3161 59.0378 46.3161L61.5098 46.4397C61.5098 46.4397 61.6952 46.2131 61.5716 46.1307C61.448 46.0483 58.9163 45.4715 58.9163 45.4715C58.9163 45.4715 61.6087 45.2449 61.6293 45.1419C61.6499 45.0389 61.7323 44.9173 61.5675 44.8967C61.4027 44.8761 58.0325 44.5465 58.0325 44.5465C58.0325 44.5465 58.9163 43.9924 59.0193 43.8276C59.1223 43.6628 59.2665 43.3332 59.1017 43.3332C58.9369 43.3332 58.8957 43.4362 58.6711 43.5804C58.4466 43.7246 57.5608 44.0748 57.3136 44.2787C57.0664 44.4827 56.3269 45.0203 56.3269 45.0203L46.4224 45.0409L40.2733 40.1896" fill="white"/>
<path d="M36.8599 42.6967C37.4746 43.3929 38.1881 43.9954 38.9775 44.4847C40.2135 45.2243 44.7455 47.7931 45.1019 47.9373C45.4583 48.0815 56.2815 46.314 56.2815 46.314C56.2815 46.314 56.8995 46.6024 57.2889 46.8476C57.6782 47.0927 60.1461 47.8776 60.1461 47.8776C60.1461 47.8776 60.3109 47.7952 60.1255 47.653C59.9401 47.5109 58.7494 46.932 58.7494 46.932L61.2214 47.4676C61.2214 47.4676 61.3656 47.3646 61.3038 47.2616C61.242 47.1586 59.0378 46.3161 59.0378 46.3161L61.5098 46.4397C61.5098 46.4397 61.6952 46.2131 61.5716 46.1307C61.448 46.0483 58.9163 45.4715 58.9163 45.4715C58.9163 45.4715 61.6087 45.2449 61.6293 45.1419C61.6499 45.0389 61.7323 44.9173 61.5675 44.8967C61.4027 44.8761 58.0325 44.5465 58.0325 44.5465C58.0325 44.5465 58.9163 43.9924 59.0193 43.8276C59.1223 43.6628 59.2665 43.3332 59.1017 43.3332C58.9369 43.3332 58.8957 43.4362 58.6711 43.5804C58.4466 43.7246 57.5608 44.0748 57.3136 44.2787C57.0664 44.4827 56.3269 45.0203 56.3269 45.0203L46.4224 45.0409L40.2733 40.1896" stroke="#263238" stroke-width="0.206" stroke-linecap="round" stroke-linejoin="round"/>
<path d="M61.5633 44.8972C61.4006 44.8766 58.0284 44.547 58.0284 44.547C58.0284 44.547 58.9121 43.9928 59.0151 43.828C59.1181 43.6632 59.2623 43.3336 59.0975 43.3336C58.9327 43.3336 58.8915 43.4366 58.667 43.5808C58.4424 43.725 57.5566 44.0752 57.3094 44.2792C57.0622 44.4831 56.3227 45.0208 56.3227 45.0208L46.4182 45.0414L45.3202 44.17C44.9082 44.893 44.1378 46.2485 43.6372 47.1426C44.4076 47.571 44.9906 47.8903 45.108 47.9377C45.4582 48.0819 56.2877 46.3144 56.2877 46.3144C56.2877 46.3144 56.9057 46.6028 57.295 46.848C57.6843 47.0931 60.1522 47.878 60.1522 47.878C60.1522 47.878 60.317 47.7956 60.1316 47.6534C59.9462 47.5113 58.7555 46.9324 58.7555 46.9324L61.2275 47.468C61.2275 47.468 61.3717 47.365 61.3099 47.262C61.2481 47.159 59.0439 46.3165 59.0439 46.3165L61.5159 46.4401C61.5159 46.4401 61.7013 46.2135 61.5777 46.1311C61.4541 46.0487 58.9162 45.4719 58.9162 45.4719C58.9162 45.4719 61.6086 45.2453 61.6292 45.1423C61.6498 45.0393 61.7281 44.9178 61.5633 44.8972Z" fill="white" stroke="#263238" stroke-width="0.206" stroke-linecap="round" stroke-linejoin="round"/>
<path d="M44.9782 32.3597C45.0133 32.3171 45.0596 32.2852 45.112 32.2676C45.1644 32.2501 45.2206 32.2476 45.2743 32.2605C45.328 32.2734 45.377 32.3011 45.4157 32.3405C45.4544 32.3799 45.4812 32.4294 45.4932 32.4833C45.5276 32.7067 45.5161 32.9349 45.4594 33.1538C45.4027 33.3726 45.3021 33.5777 45.1636 33.7564C44.937 33.983 44.731 34.0448 44.731 33.7564C44.7882 33.2867 44.8707 32.8205 44.9782 32.3597Z" fill="white" stroke="#263238" stroke-width="0.206" stroke-linecap="round" stroke-linejoin="round"/>
<path d="M42.4487 28.7592C42.3765 29.7617 41.9475 30.7052 41.2395 31.4186C40.5799 32.0672 39.834 32.6218 39.0229 33.0666C39.0229 33.0666 39.1424 33.7114 39.3855 33.9133C39.6286 34.1152 40.1106 34.076 40.1106 34.076C40.3909 34.8422 40.8466 35.5322 41.4414 36.0907C42.4075 36.9765 43.5364 36.8962 44.1812 35.5675C44.826 34.2388 45.1494 32.9059 45.0691 32.1396L44.9887 31.3733C44.9887 31.3733 42.8916 30.2094 42.4487 28.7592Z" fill="white" stroke="#263238" stroke-width="0.206" stroke-linecap="round" stroke-linejoin="round"/>
<path d="M42.327 32.7432C42.4294 32.7432 42.5124 32.5957 42.5124 32.4136C42.5124 32.2316 42.4294 32.084 42.327 32.084C42.2246 32.084 42.1416 32.2316 42.1416 32.4136C42.1416 32.5957 42.2246 32.7432 42.327 32.7432Z" fill="#263238"/>
<path d="M43.3343 35.3732C43.4367 35.3732 43.5197 35.2256 43.5197 35.0436C43.5197 34.8616 43.4367 34.714 43.3343 34.714C43.2319 34.714 43.1489 34.8616 43.1489 35.0436C43.1489 35.2256 43.2319 35.3732 43.3343 35.3732Z" fill="#263238"/>
<path d="M44.1151 32.7432C44.2175 32.7432 44.3005 32.5957 44.3005 32.4136C44.3005 32.2316 44.2175 32.084 44.1151 32.084C44.0127 32.084 43.9297 32.2316 43.9297 32.4136C43.9297 32.5957 44.0127 32.7432 44.1151 32.7432Z" fill="#263238"/>
<path d="M43.7445 32.0631C43.6738 32.3099 43.6527 32.5683 43.6827 32.8233C43.7445 33.1735 44.0329 33.7688 43.7857 33.8718C43.6729 33.9232 43.5482 33.9428 43.4251 33.9282C43.3019 33.9137 43.1851 33.8657 43.0874 33.7894" stroke="#263238" stroke-width="0.206" stroke-linecap="round" stroke-linejoin="round"/>
<path d="M41.7915 31.8182C41.7915 31.8182 41.8904 31.1879 42.7164 31.26" stroke="#263238" stroke-width="0.206" stroke-linecap="round" stroke-linejoin="round"/>
<path d="M44.0039 31.4535C44.0039 31.4535 44.7743 30.8355 45.0236 31.9664" stroke="#263238" stroke-width="0.206" stroke-linecap="round" stroke-linejoin="round"/>
</svg>
