<svg width="234" height="171" viewBox="0 0 234 171" fill="none" xmlns="http://www.w3.org/2000/svg">
<path d="M234 154.074H0V154.192H234V154.074Z" fill="#EBEBEB"/>
<path d="M52.2543 158.021H36.7542V158.139H52.2543V158.021Z" fill="#EBEBEB"/>
<path d="M76.5151 161.416H62.3955V161.534H76.5151V161.416Z" fill="#EBEBEB"/>
<path d="M44.5093 162.391H26.6083V162.508H44.5093V162.391Z" fill="#EBEBEB"/>
<path d="M210.56 162.139H203.119V162.256H210.56V162.139Z" fill="#EBEBEB"/>
<path d="M201.603 162.139H183.202V162.256H201.603V162.139Z" fill="#EBEBEB"/>
<path d="M131.195 157.963H117V158.081H131.195V157.963Z" fill="#EBEBEB"/>
<path d="M166.964 157.963H133.221V158.081H166.964V157.963Z" fill="#EBEBEB"/>
<path d="M110.916 133.086H20.5495C19.8416 133.085 19.1631 132.801 18.6629 132.298C18.1628 131.794 17.8819 131.111 17.8819 130.399V2.66361C17.8881 1.95583 18.1717 1.27909 18.6712 0.780361C19.1706 0.281636 19.8456 0.00121245 20.5495 0H110.916C111.624 0 112.304 0.283108 112.805 0.787044C113.306 1.29098 113.588 1.97446 113.588 2.68714V130.399C113.588 131.112 113.306 131.795 112.805 132.299C112.304 132.803 111.624 133.086 110.916 133.086ZM20.5495 0.0941207C19.8726 0.0953674 19.2239 0.36663 18.7457 0.848367C18.2675 1.3301 17.9989 1.98295 17.9989 2.66361V130.399C17.9989 131.08 18.2675 131.733 18.7457 132.214C19.2239 132.696 19.8726 132.967 20.5495 132.969H110.916C111.593 132.967 112.242 132.696 112.721 132.215C113.2 131.733 113.47 131.08 113.471 130.399V2.66361C113.47 1.98252 113.2 1.32968 112.721 0.84808C112.242 0.366477 111.593 0.0953647 110.916 0.0941207H20.5495Z" fill="#EBEBEB"/>
<path d="M212.149 133.086H121.778C121.07 133.085 120.391 132.801 119.89 132.298C119.389 131.794 119.107 131.111 119.106 130.399V2.66361C119.113 1.9554 119.398 1.27866 119.898 0.780066C120.398 0.281471 121.074 0.00119923 121.778 0H212.149C212.852 0.00244925 213.526 0.28342 214.024 0.782012C214.523 1.28061 214.806 1.95665 214.812 2.66361V130.399C214.812 131.11 214.532 131.792 214.033 132.296C213.533 132.8 212.856 133.084 212.149 133.086ZM121.778 0.0941207C121.101 0.0953647 120.452 0.366477 119.973 0.84808C119.494 1.32968 119.224 1.98252 119.223 2.66361V130.399C119.224 131.08 119.494 131.733 119.973 132.215C120.452 132.696 121.101 132.967 121.778 132.969H212.149C212.826 132.967 213.476 132.696 213.955 132.215C214.433 131.733 214.703 131.08 214.704 130.399V2.66361C214.703 1.98252 214.433 1.32968 213.955 0.84808C213.476 0.366477 212.826 0.0953647 212.149 0.0941207H121.778Z" fill="#EBEBEB"/>
<path d="M195.308 94.8926H177.875V154.075H195.308V94.8926Z" fill="#E6E6E6"/>
<path d="M192.409 154.075H195.306V148.748H189.362L192.409 154.075Z" fill="#F0F0F0"/>
<path d="M124.334 94.8926H106.901V154.075H124.334V94.8926Z" fill="#E6E6E6"/>
<path d="M195.307 94.8926H121.812V152.028H195.307V94.8926Z" fill="#F0F0F0"/>
<path d="M193.051 97.4258H124.058V113.097H193.051V97.4258Z" fill="#E6E6E6"/>
<path d="M161.812 102.293H155.292C152.484 102.293 149.756 100.359 147.804 96.9473H169.29C167.348 100.359 164.643 102.293 161.812 102.293Z" fill="#F0F0F0"/>
<path d="M124.714 154.075H121.812V148.748H127.756L124.714 154.075Z" fill="#F0F0F0"/>
<path d="M193.051 115.625H124.058V131.296H193.051V115.625Z" fill="#E6E6E6"/>
<path d="M161.812 120.473H155.292C152.484 120.473 149.756 118.544 147.804 115.127H169.29C167.348 118.562 164.643 120.473 161.812 120.473Z" fill="#F0F0F0"/>
<path d="M193.051 133.83H124.058V149.501H193.051V133.83Z" fill="#E6E6E6"/>
<path d="M161.812 138.698H155.292C152.484 138.698 149.756 136.763 147.804 133.352H169.29C167.348 136.763 164.643 138.698 161.812 138.698Z" fill="#F0F0F0"/>
<path d="M203.248 18.1406H127.965V54.8852H203.248V18.1406Z" fill="#F0F0F0"/>
<path d="M205.957 18.1406H129.228V54.8852H205.957V18.1406Z" fill="#F5F5F5"/>
<path d="M202.167 51.8326V21.2012L133.034 21.2012V51.8326H202.167Z" fill="white"/>
<path d="M180.444 81.9123C181.801 67.7942 182.742 44.8383 182.012 37.1675C181.998 37.036 181.957 36.9089 181.891 36.7946C181.824 36.6802 181.735 36.5812 181.628 36.5039C181.487 36.3997 181.319 36.3376 181.144 36.3248C180.969 36.3119 180.794 36.3488 180.638 36.4313C180.483 36.5137 180.354 36.6384 180.266 36.791C180.178 36.9436 180.134 37.1181 180.14 37.2945C180.266 41.097 180.416 50.5984 179.611 66.9895C179.209 75.145 178.633 80.7311 179.031 81.9123H180.444Z" fill="#F0F0F0"/>
<path d="M184.332 51.5112C187.43 47.5017 193.841 44.3298 200.412 43.8451C202.991 43.6521 192.629 48.824 188.361 53.9913C185.052 58.0008 181.341 64.608 180.106 68.2128C180.831 60.7726 181.229 55.5301 184.332 51.5112Z" fill="#F0F0F0"/>
<path d="M177.848 50.6467C174.642 46.1572 167.239 42.6982 159.227 42.3076C156.082 42.157 168.048 47.7949 172.513 53.5739C175.981 58.0587 179.533 65.4942 180.516 69.5743C180.755 61.1129 181.059 55.141 177.848 50.6467Z" fill="#F0F0F0"/>
<path d="M184.104 38.297C186.551 34.951 191.957 32.2027 197.676 31.6427C199.922 31.4215 191.189 35.8781 187.801 40.217C185.166 43.5677 182.367 49.0502 181.525 52.0197C181.665 45.9349 181.661 41.643 184.104 38.297Z" fill="#F0F0F0"/>
<path d="M179.176 38.9853C176.457 35.1782 170.19 32.2557 163.404 31.9263C160.741 31.7992 170.892 36.5712 174.636 41.4654C177.575 45.2632 180.589 51.5598 181.417 55.014C181.633 47.8421 181.89 42.7878 179.176 38.9853Z" fill="#F0F0F0"/>
<path d="M182.48 66.6084C184.249 64.086 188.222 61.9636 192.467 61.4554C194.133 61.2577 187.712 64.7166 185.26 67.9779C183.355 70.5097 181.357 74.6228 180.776 76.8393C180.781 72.3168 180.715 69.1309 182.48 66.6084Z" fill="#F0F0F0"/>
<path d="M179.244 65.1877C177.709 62.6841 173.909 60.5711 169.674 60.0628C168.008 59.8652 174.148 63.3053 176.305 66.5383C177.976 69.0513 179.581 73.1267 179.956 75.3291C180.414 70.849 180.798 67.6913 179.244 65.1877Z" fill="#F0F0F0"/>
<path d="M179.862 94.8919C183.246 94.8919 186.04 94.1813 186.232 90.7883L186.798 80.9668H172.931L173.497 90.7883C173.689 94.1813 176.483 94.8919 179.862 94.8919Z" fill="#E6E6E6"/>
<path d="M173.012 83.2012H186.729C186.998 83.2005 187.257 83.1002 187.456 82.9196C187.656 82.739 187.782 82.4907 187.811 82.2224L188.021 80.34C188.038 80.1866 188.022 80.0314 187.975 79.8846C187.928 79.7377 187.85 79.6025 187.748 79.4876C187.646 79.3726 187.52 79.2806 187.38 79.2175C187.24 79.1544 187.089 79.1215 186.935 79.1211H172.806C172.653 79.1215 172.501 79.1544 172.361 79.2175C172.221 79.2806 172.096 79.3726 171.994 79.4876C171.891 79.6025 171.814 79.7377 171.767 79.8846C171.72 80.0314 171.704 80.1866 171.721 80.34L171.927 82.2224C171.956 82.4911 172.084 82.7394 172.284 82.9199C172.484 83.1005 172.743 83.2006 173.012 83.2012Z" fill="#F0F0F0"/>
<path d="M128.809 94.8919H119.613L122.337 74.623H128.809V94.8919Z" fill="#E6E6E6"/>
<path d="M142.317 94.891H124.888L121.641 71.168H139.074L142.317 94.891Z" fill="#F0F0F0"/>
<path d="M144.641 94.891H126.506L123.263 71.168H141.398L144.641 94.891Z" fill="#F5F5F5"/>
<path d="M128.109 93.0255L125.376 73.0391H139.795L142.528 93.0255H128.109Z" fill="white"/>
<path d="M136.236 88.4111H132.8C132.502 88.4116 132.213 88.3032 131.987 88.1059C131.762 87.9086 131.615 87.6359 131.574 87.3381L130.442 79.0602C130.417 78.8842 130.43 78.7048 130.48 78.5343C130.53 78.3638 130.616 78.2061 130.732 78.072C130.849 77.939 130.994 77.8325 131.155 77.7595C131.316 77.6865 131.491 77.6487 131.668 77.6484H135.103C135.402 77.6489 135.69 77.7577 135.915 77.9548C136.141 78.1519 136.288 78.4241 136.329 78.7214L137.462 86.9993C137.486 87.1753 137.472 87.3544 137.422 87.5246C137.371 87.6948 137.285 87.8521 137.168 87.986C137.052 88.1198 136.909 88.2269 136.748 88.3003C136.587 88.3736 136.412 88.4114 136.236 88.4111ZM132.024 87.2722C132.05 87.4573 132.141 87.6267 132.281 87.7495C132.421 87.8722 132.601 87.9401 132.786 87.9405H136.222C136.331 87.9409 136.44 87.9176 136.54 87.8721C136.64 87.8266 136.73 87.7601 136.802 87.677C136.874 87.593 136.927 87.4946 136.959 87.3884C136.99 87.2821 136.999 87.1704 136.984 87.0605L135.852 78.7873C135.826 78.6022 135.735 78.4328 135.594 78.31C135.454 78.1873 135.275 78.1195 135.089 78.119H131.654C131.544 78.118 131.435 78.1411 131.335 78.1866C131.235 78.2321 131.145 78.299 131.074 78.3826C131 78.4647 130.946 78.5621 130.914 78.6679C130.883 78.7737 130.875 78.8852 130.891 78.9944L132.024 87.2722Z" fill="#F5F5F5"/>
<path d="M98.9746 17.0586H29.5328V90.7454H98.9746V17.0586Z" fill="#E6E6E6"/>
<path d="M106.431 14.6719H25.0504C24.9597 14.6719 24.8698 14.6899 24.786 14.725C24.7023 14.76 24.6262 14.8114 24.5623 14.8762C24.4983 14.9409 24.4478 15.0177 24.4135 15.1022C24.3792 15.1867 24.3618 15.2771 24.3624 15.3684C24.3624 15.5518 24.4349 15.7278 24.5639 15.8575C24.693 15.9873 24.8679 16.0601 25.0504 16.0601H106.431C106.613 16.0601 106.788 15.9873 106.917 15.8575C107.046 15.7278 107.119 15.5518 107.119 15.3684C107.119 15.2771 107.102 15.1867 107.068 15.1022C107.034 15.0177 106.983 14.9409 106.919 14.8762C106.855 14.8114 106.779 14.76 106.695 14.725C106.612 14.6899 106.522 14.6719 106.431 14.6719Z" fill="#E6E6E6"/>
<path d="M101.935 17.0586H30.9209V90.7454H101.935V17.0586Z" fill="#F0F0F0"/>
<path d="M97.8083 86.5991V21.209L35.0449 21.209L35.0449 86.5991H97.8083Z" fill="#FAFAFA"/>
<path d="M49.2863 86.6019L73.5006 21.207H84.9292L60.7196 86.6019H49.2863Z" fill="white"/>
<path d="M63.1754 86.6019L87.3897 21.207H91.845L67.6307 86.6019H63.1754Z" fill="white"/>
<path d="M97.8083 86.5972V21.207H97.2832V86.5972H97.8083Z" fill="#E6E6E6"/>
<g opacity="0.6">
<path d="M33.3412 119.095H24.6223L26.0029 13.4355H34.7264L33.3412 119.095Z" fill="#F0F0F0"/>
<path d="M36.7362 119.095H29.9409L31.3261 13.4355H38.1168L36.7362 119.095Z" fill="#E6E6E6"/>
<path d="M42.0598 119.095H33.341L34.7263 13.4355H43.4451L42.0598 119.095Z" fill="#F0F0F0"/>
<path d="M45.4471 119.095H38.6517L40.037 13.4355H46.8324L45.4471 119.095Z" fill="#E6E6E6"/>
<path d="M50.7785 119.095H42.0597L43.445 13.4355H52.1638L50.7785 119.095Z" fill="#F0F0F0"/>
</g>
<g opacity="0.6">
<path d="M100.484 119.095H105.412L106.072 13.4355H101.144L100.484 119.095Z" fill="#F0F0F0"/>
<path d="M98.5736 119.095H102.411L103.076 13.4355H99.2335L98.5736 119.095Z" fill="#E6E6E6"/>
<path d="M95.5634 119.095H100.491L101.151 13.4355H96.2233L95.5634 119.095Z" fill="#F0F0F0"/>
<path d="M93.645 119.095H97.4826L98.1471 13.4355H94.3048L93.645 119.095Z" fill="#E6E6E6"/>
<path d="M90.6348 119.095H95.5628L96.2227 13.4355H91.2946L90.6348 119.095Z" fill="#F0F0F0"/>
</g>
<path d="M133.204 30.0201C130.396 26.1988 131.046 22.8622 133.204 20.4622C135.895 17.4503 140.289 17.4739 143.219 19.0127C147.805 21.4175 148.793 31.9543 141.132 33.4414C138.413 32.4871 135.764 31.3439 133.204 30.0201Z" fill="#263238"/>
<path d="M142.314 19.6764C145.122 18.0152 144.34 14.7916 146.877 13.088C150.406 10.735 158.011 11.7562 155.633 17.6387C153.256 23.5212 161.717 23.8601 159.26 29.7049C156.803 35.5498 149.666 39.117 147.832 30.6462C146.46 24.2977 152.287 16.1187 147.584 16.9987C144.649 17.5446 143.671 20.58 143.671 20.58L142.314 19.6764Z" fill="#263238"/>
<path d="M135.345 44.5922C134.961 45.6605 134.545 46.6299 134.1 47.6323C133.655 48.6347 133.164 49.5994 132.649 50.5641C131.613 52.5887 130.311 54.4643 128.779 56.1408C128.341 56.6102 127.86 57.0372 127.342 57.4161C126.83 57.7813 126.285 58.0964 125.714 58.3573C124.661 58.831 123.563 59.1968 122.438 59.4491C120.305 59.9444 118.121 60.183 115.932 60.1597C115.687 60.1557 115.451 60.0623 115.269 59.8968C115.086 59.7313 114.97 59.505 114.941 59.2598C114.911 59.0145 114.972 58.767 115.11 58.563C115.249 58.359 115.456 58.2123 115.694 58.1502H115.74C117.698 57.6899 119.626 57.1068 121.511 56.4043C122.397 56.0723 123.255 55.6678 124.076 55.1949C124.441 54.9842 124.789 54.7433 125.114 54.4748C125.43 54.2096 125.721 53.9166 125.985 53.5995C126.588 52.8833 127.131 52.1183 127.609 51.3124C128.114 50.4794 128.601 49.6182 129.05 48.7194C129.94 46.9405 130.782 45.0393 131.507 43.2133V43.1851C131.7 42.6777 132.085 42.268 132.577 42.0461C133.07 41.8241 133.631 41.8081 134.135 42.0015C134.64 42.195 135.047 42.5821 135.268 43.0776C135.489 43.5732 135.505 44.1366 135.312 44.644L135.345 44.5922Z" fill="#AB5F1A"/>
<path d="M134.74 41.11C130.874 41.5524 128.745 47.3831 128.745 47.3831L132.704 52.9927C132.704 52.9927 137.384 47.6608 137.791 45.2796C138.198 42.8277 137.594 40.7759 134.74 41.11Z" fill="#263238"/>
<path opacity="0.2" d="M132.614 44.6763C133.91 43.8574 135.324 44.3092 136.527 45.8292C136.775 46.2655 136.942 46.7441 137.018 47.241C135.848 49.3729 132.689 52.9871 132.689 52.9871L130.878 50.4223C130.742 48.907 131.776 45.1798 132.614 44.6763Z" fill="black"/>
<path d="M116.65 58.3547L113.734 56.7734L113.654 60.5947C113.654 60.5947 115.601 61.0183 116.888 59.9735L116.65 58.3547Z" fill="#AB5F1A"/>
<path d="M110.8 56.9052L111.31 60.0253L113.664 60.5947L113.744 56.7734L110.8 56.9052Z" fill="#AB5F1A"/>
<path d="M125.493 50.0302L122.938 47.9219L105.529 74.2238L108.107 76.3321C111.046 78.751 117.322 74.8262 122.147 67.5601C126.972 60.294 128.432 52.4491 125.493 50.0302Z" fill="#0C29FF"/>
<path opacity="0.1" d="M125.493 50.0302L122.938 47.9219L105.529 74.2238L108.107 76.3321C111.046 78.751 117.322 74.8262 122.147 67.5601C126.972 60.294 128.432 52.4491 125.493 50.0302Z" fill="black"/>
<path d="M120.012 64.748C124.657 57.3659 125.837 49.7368 122.648 47.708C119.459 45.6792 113.108 50.019 108.464 57.4011C103.819 64.7832 102.639 72.4122 105.828 74.441C109.017 76.4698 115.368 72.1301 120.012 64.748Z" fill="#0C29FF"/>
<path d="M111.005 65.3866L113.345 61.8383C113.107 61.1108 113.096 60.3277 113.312 59.5935C113.58 58.6679 113.996 57.7921 114.543 57.0005C115.037 56.2006 115.682 55.5066 116.443 54.9581C117.094 54.5252 117.651 54.4216 118.104 54.6475L118.675 53.791L119.172 54.2004L118.61 55.0616C118.762 55.3013 118.864 55.5699 118.909 55.8508C118.954 56.1317 118.942 56.4189 118.872 56.6946C118.69 57.5251 118.374 58.3199 117.936 59.0476L116.883 58.6147C117.211 58.1127 117.374 57.5204 117.351 56.9205L115.156 60.2147C115.458 60.9612 115.52 61.784 115.334 62.5677C114.738 64.449 113.597 66.1087 112.058 67.3349C111.347 67.8306 110.715 67.9734 110.163 67.7632L109.596 68.6197L109.1 68.2103L109.638 67.3961C109.471 67.1162 109.363 66.8043 109.322 66.4802C109.281 66.1561 109.307 65.8269 109.4 65.5137C109.653 64.4644 110.07 63.4621 110.635 62.5442L111.712 63.0619C111.473 63.485 111.282 63.9332 111.141 64.3984C111.039 64.7174 110.993 65.0518 111.005 65.3866ZM116.892 56.4734C116.631 56.4992 116.385 56.608 116.19 56.784C115.647 57.2355 115.246 57.8353 115.034 58.5112C114.938 58.7987 114.911 59.1051 114.955 59.4053L116.892 56.4734ZM111.426 65.8855C111.57 65.9075 111.717 65.8969 111.856 65.8546C111.995 65.8122 112.123 65.7392 112.231 65.6408C112.9 65.1167 113.391 64.3964 113.635 63.5795C113.729 63.2523 113.72 62.9043 113.612 62.5819L111.426 65.8855Z" fill="white"/>
<path opacity="0.1" d="M122.177 56.6527C122.523 54.3468 122.177 52.4973 121.091 51.589C118.699 49.6172 113.603 52.8173 109.667 58.7328C108.013 61.1692 106.792 63.8762 106.059 66.733C106.461 64.0317 107.795 60.7046 109.906 57.5092C113.823 51.5937 118.938 48.3983 121.33 50.3655C122.621 51.4243 122.855 53.782 122.177 56.6527Z" fill="black"/>
<path d="M156.101 144.385L152.17 144.762L150.167 135.552L154.098 135.176L156.101 144.385Z" fill="#AB5F1A"/>
<path d="M177.996 138.691L174.341 140.131L170.817 131.397L174.472 129.957L177.996 138.691Z" fill="#AB5F1A"/>
<path d="M173.287 138.324L177.293 136.319C177.362 136.285 177.441 136.276 177.515 136.295C177.59 136.314 177.656 136.359 177.7 136.422L179.731 139.383C179.783 139.459 179.817 139.546 179.832 139.637C179.847 139.729 179.843 139.822 179.819 139.911C179.795 140 179.752 140.084 179.693 140.155C179.634 140.226 179.561 140.284 179.478 140.324C178.074 141.001 177.457 141.336 175.692 142.206C174.606 142.747 172.187 144.023 170.689 144.771C169.192 145.519 168.377 144.07 168.934 143.623C171.429 141.623 172.252 140.112 172.8 138.846C172.896 138.62 173.069 138.435 173.287 138.324Z" fill="#263238"/>
<path d="M151.411 142.709H156.138C156.222 142.71 156.304 142.738 156.371 142.79C156.438 142.842 156.486 142.914 156.507 142.996L157.537 146.761C157.563 146.85 157.567 146.944 157.55 147.035C157.533 147.126 157.495 147.211 157.439 147.285C157.383 147.358 157.311 147.417 157.228 147.457C157.145 147.497 157.053 147.516 156.961 147.514C155.309 147.486 154.518 147.514 152.44 147.514H146.094C144.367 147.514 143.988 145.754 144.69 145.599C147.896 144.884 149.745 143.9 150.732 142.964C150.917 142.793 151.16 142.702 151.411 142.709Z" fill="#263238"/>
<path opacity="0.2" d="M150.175 135.557L151.204 140.301H155.22L154.106 135.176L150.175 135.557Z" fill="black"/>
<path opacity="0.2" d="M174.472 129.961L170.817 131.401L172.638 135.9L176.288 134.46L174.472 129.961Z" fill="black"/>
<path d="M146.738 37.1294C149.864 36.767 151.886 38.2635 152.027 41.4024C152.438 52.4663 153.655 55.0122 155.494 60.7347L139.905 65.0972C134.364 53.031 132.417 47.3414 131.8 44.6637C131.671 44.0414 131.749 43.3938 132.021 42.8202C132.293 42.2465 132.745 41.7783 133.307 41.4871C137.456 39.1628 142.02 37.6821 146.738 37.1294Z" fill="#263238"/>
<path d="M141.998 29.7148C142.185 32.129 142.807 36.3033 144.806 37.4092C144.806 37.4092 144.511 38.901 139.344 43.8753C136.157 41.174 137.786 39.3622 137.786 39.3622C140.158 38.0398 139.602 36.3174 138.666 34.6562L141.998 29.7148Z" fill="#AB5F1A"/>
<path opacity="0.2" d="M141.63 30.2559C141.971 31.6279 142.019 33.057 141.77 34.4489C141.592 35.3901 140.572 36.1054 139.43 36.5149C139.274 35.8611 139.019 35.2356 138.672 34.6607L141.63 30.2559Z" fill="black"/>
<path d="M142.921 25.1531C143.684 29.0543 144.091 30.6873 142.677 33.1533C140.548 36.8805 135.615 36.9746 133.706 33.3792C131.988 30.1461 131.024 24.3107 134.366 21.7977C135.101 21.2408 135.965 20.8822 136.876 20.7559C137.788 20.6296 138.717 20.7398 139.574 21.076C140.431 21.4122 141.189 21.9633 141.774 22.6769C142.36 23.3905 142.755 24.2429 142.921 25.1531Z" fill="#AB5F1A"/>
<path d="M144.943 27.5314C145 27.9076 144.983 28.2914 144.891 28.6605C144.799 29.0297 144.636 29.3769 144.41 29.6821C143.802 30.4962 142.884 30.1009 142.538 29.2115C142.229 28.4021 142.168 26.9997 143.029 26.5102C143.218 26.4063 143.429 26.3511 143.644 26.3496C143.859 26.3481 144.071 26.4004 144.26 26.5016C144.45 26.6029 144.612 26.7501 144.731 26.9298C144.85 27.1096 144.923 27.3163 144.943 27.5314Z" fill="#AB5F1A"/>
<path d="M139.518 23.0877C139.373 24.5796 140.562 27.1302 142.794 27.7232C145.106 25.0502 143.581 21.3842 141.456 21.3089C139.331 21.2336 139.518 23.0877 139.518 23.0877Z" fill="#263238"/>
<path d="M136.396 19.0212C132.984 19.1765 129.324 20.7059 130.593 26.0802C133.569 25.4543 141.853 24.5225 142.489 22.386C141.651 19.6423 138.633 18.9176 136.396 19.0212Z" fill="#263238"/>
<path d="M139.907 65.0974C139.907 65.0974 138.999 96.7595 141.531 108.708C144.156 121.141 150.086 138.911 150.086 138.911L155.655 138.549C155.655 138.549 152.056 115.315 150.975 105.729C149.449 92.5147 151.344 61.8926 151.344 61.8926L139.907 65.0974Z" fill="#0C29FF"/>
<path opacity="0.2" d="M147.754 75.0003C148.007 72.1296 150.16 72.6802 150.642 76.5674C150.431 82.6852 150.281 89.7866 150.403 96.0033C148.082 91.4431 147.178 81.5323 147.754 75.0003Z" fill="black"/>
<path d="M156.362 138.913L149.655 139.37L148.724 136.207L155.983 135.436L156.362 138.913Z" fill="#263238"/>
<path d="M145.402 63.5619C145.402 63.5619 150.148 90.1038 156.592 104.387C161.796 115.921 171.226 134.505 171.226 134.505L176.342 132.58C176.342 132.58 168.343 111.483 165.451 103.37C158.249 83.1342 162.175 70.8515 155.492 60.7383L145.402 63.5619Z" fill="#0C29FF"/>
<path d="M176.948 133.067L171.047 135.133L169.367 132.092L176.391 130.342L176.948 133.067Z" fill="#263238"/>
<path d="M155.473 59.7675L156.568 60.977C156.653 61.0711 156.568 61.217 156.372 61.2641L140.025 65.843C139.884 65.8807 139.748 65.843 139.716 65.7583L139.187 64.3936C139.149 64.2994 139.248 64.1818 139.402 64.1394L155.188 59.7205C155.235 59.702 155.287 59.6967 155.337 59.705C155.387 59.7132 155.434 59.7348 155.473 59.7675Z" fill="#263238"/>
<path d="M153.849 62.1197L154.275 61.9973C154.359 61.9738 154.41 61.9126 154.387 61.8608L153.685 60.0961C153.685 60.0443 153.582 60.0208 153.498 60.0443L153.072 60.1619C152.988 60.1619 152.936 60.2467 152.955 60.2984L153.661 62.0679C153.68 62.1197 153.764 62.1432 153.849 62.1197Z" fill="#0C29FF"/>
<path d="M141.254 65.6403L141.68 65.5227C141.76 65.5227 141.816 65.438 141.792 65.3862L141.09 63.6215C141.09 63.5697 140.983 63.5462 140.898 63.5697L140.477 63.6873C140.393 63.6873 140.342 63.772 140.36 63.8238L141.062 65.5933C141.086 65.645 141.17 65.6639 141.254 65.6403Z" fill="#0C29FF"/>
<path d="M147.547 63.8775L147.973 63.7598C148.058 63.7363 148.109 63.6751 148.086 63.6233L147.384 61.8539C147.384 61.8021 147.276 61.7786 147.192 61.8021L146.771 61.9198C146.686 61.9198 146.635 62.0092 146.654 62.0609L147.36 63.8257C147.379 63.8775 147.463 63.901 147.547 63.8775Z" fill="#0C29FF"/>
<path d="M137.394 27.7652C137.473 28.0805 137.394 28.377 137.174 28.4287C136.954 28.4805 136.738 28.2734 136.659 27.9581C136.579 27.6428 136.659 27.3511 136.879 27.2946C137.099 27.2381 137.314 27.4405 137.394 27.7652Z" fill="#263238"/>
<path d="M133.884 28.6777C133.969 28.9883 133.884 29.2848 133.664 29.3413C133.444 29.3978 133.229 29.1813 133.15 28.8707C133.07 28.5601 133.15 28.2589 133.37 28.2071C133.59 28.1554 133.805 28.3624 133.884 28.6777Z" fill="#263238"/>
<path d="M133.46 28.2032L132.659 28.1797C132.659 28.1797 133.193 28.6691 133.46 28.2032Z" fill="#263238"/>
<path d="M134.957 28.9727C134.865 29.7585 134.667 30.5281 134.367 31.2598C134.555 31.3321 134.756 31.362 134.957 31.3474C135.157 31.3327 135.352 31.2739 135.528 31.1751L134.957 28.9727Z" fill="#7A4B2C"/>
<path d="M136.902 32.118C136.884 32.1149 136.868 32.1065 136.854 32.094C136.841 32.0814 136.832 32.0653 136.827 32.0474C136.824 32.0357 136.823 32.0233 136.824 32.0112C136.826 31.999 136.83 31.9872 136.836 31.9766C136.842 31.966 136.85 31.9568 136.86 31.9496C136.87 31.9423 136.881 31.9372 136.893 31.9345C137.282 31.8418 137.644 31.6579 137.949 31.3979C138.254 31.1378 138.494 30.8089 138.648 30.438C138.652 30.4257 138.658 30.4143 138.666 30.4046C138.674 30.3948 138.684 30.3868 138.696 30.381C138.707 30.3753 138.72 30.372 138.732 30.3712C138.745 30.3705 138.758 30.3724 138.77 30.3768C138.793 30.3853 138.811 30.4021 138.823 30.4238C138.834 30.4456 138.837 30.4707 138.831 30.4944C138.669 30.8952 138.415 31.2515 138.09 31.5338C137.764 31.8162 137.376 32.0165 136.959 32.118C136.94 32.1235 136.921 32.1235 136.902 32.118Z" fill="#263238"/>
<path d="M138.087 26.3557C138.053 26.3513 138.022 26.3365 137.998 26.3133C137.816 26.1603 137.601 26.0532 137.369 26.0008C137.138 25.9484 136.898 25.9523 136.669 26.0121C136.621 26.0271 136.569 26.0226 136.524 25.9998C136.48 25.9769 136.446 25.9374 136.43 25.8898C136.421 25.8663 136.417 25.8413 136.418 25.8163C136.42 25.7913 136.426 25.7668 136.437 25.7443C136.448 25.7219 136.463 25.7019 136.482 25.6856C136.501 25.6693 136.523 25.6571 136.547 25.6498C136.836 25.5707 137.141 25.5628 137.434 25.6267C137.727 25.6906 138.001 25.8244 138.232 26.0168C138.263 26.0436 138.285 26.0797 138.294 26.1199C138.304 26.1601 138.3 26.2022 138.284 26.2402C138.267 26.2781 138.24 26.3098 138.204 26.3305C138.169 26.3513 138.127 26.3601 138.087 26.3557Z" fill="#263238"/>
<path d="M131.803 27.4737H131.765C131.742 27.4657 131.72 27.4532 131.701 27.4368C131.683 27.4204 131.668 27.4005 131.657 27.3782C131.646 27.3559 131.64 27.3316 131.638 27.3068C131.637 27.282 131.64 27.2572 131.648 27.2337C131.739 26.9462 131.898 26.685 132.11 26.4721C132.323 26.2591 132.583 26.1007 132.87 26.0101C132.894 26.0038 132.919 26.0023 132.943 26.0057C132.968 26.0091 132.991 26.0175 133.013 26.0302C133.034 26.0429 133.053 26.0597 133.067 26.0797C133.082 26.0997 133.093 26.1224 133.099 26.1466C133.11 26.1959 133.102 26.2476 133.076 26.2908C133.049 26.3339 133.007 26.3649 132.958 26.3772C132.736 26.4536 132.535 26.5822 132.372 26.7525C132.21 26.9228 132.09 27.1297 132.022 27.356C132.007 27.3994 131.975 27.4353 131.935 27.457C131.894 27.4787 131.847 27.4846 131.803 27.4737Z" fill="#263238"/>
<path d="M150.103 44.5387C148.886 47.0612 147.623 49.5365 146.289 51.9978C145.624 53.2308 144.96 54.4637 144.253 55.6779C143.546 56.892 142.849 58.1109 142.011 59.3298C141.82 59.6309 141.581 59.951 141.356 60.271L141.272 60.3839L141.23 60.4451L141.16 60.5345C141.061 60.6569 140.963 60.7604 140.865 60.8639C140.686 61.0463 140.494 61.2146 140.289 61.3675C139.615 61.8631 138.883 62.2725 138.108 62.5863C136.742 63.1412 135.333 63.585 133.896 63.9134C131.145 64.5529 128.352 64.9917 125.538 65.2264L125.22 63.2216C126.525 62.8734 127.854 62.5063 129.16 62.1251C130.466 61.7439 131.762 61.3392 133.026 60.8969C134.256 60.4801 135.458 59.9834 136.625 59.4098C137.117 59.166 137.58 58.8676 138.005 58.5203C138.075 58.4621 138.139 58.3975 138.197 58.3274C138.214 58.3064 138.23 58.2844 138.244 58.2615L138.347 58.1015C138.511 57.8427 138.679 57.5979 138.848 57.3062C139.512 56.1814 140.168 54.9767 140.804 53.7719L142.699 50.1154L146.443 42.7363L150.103 44.5387Z" fill="#AB5F1A"/>
<path d="M126.51 63.2393L123.753 62.1758L123.987 66.0865C123.987 66.0865 126.154 66.0865 127.156 64.7453L126.51 63.2393Z" fill="#AB5F1A"/>
<path d="M121.59 62.2887L121.001 65.1641L123.991 66.0865L123.757 62.1758L121.59 62.2887Z" fill="#AB5F1A"/>
<path d="M146.717 39.155C145.178 39.8656 143.39 46.2987 143.39 46.2987L150.059 47.0611C150.059 47.0611 151.351 43.9363 151.089 42.3316C150.695 39.7668 148.472 38.3456 146.717 39.155Z" fill="#263238"/>
<path d="M171.3 139.472C171.274 139.427 171.253 139.38 171.239 139.33C171.217 139.278 171.21 139.22 171.218 139.164C171.227 139.108 171.25 139.055 171.286 139.01C171.609 138.615 173.041 138.775 173.2 138.794C173.218 138.795 173.236 138.802 173.25 138.814C173.264 138.826 173.274 138.842 173.279 138.86C173.285 138.877 173.286 138.896 173.281 138.914C173.276 138.931 173.265 138.947 173.251 138.959C172.844 139.302 172.086 139.853 171.599 139.712C171.535 139.695 171.476 139.665 171.424 139.624C171.372 139.582 171.33 139.531 171.3 139.472ZM172.952 138.959C172.376 138.912 171.604 138.921 171.431 139.128C171.417 139.15 171.41 139.175 171.41 139.201C171.41 139.227 171.417 139.252 171.431 139.274C171.444 139.334 171.473 139.389 171.514 139.434C171.555 139.479 171.607 139.513 171.665 139.533C171.922 139.608 172.399 139.396 172.961 138.959H172.952Z" fill="#0C29FF"/>
<path d="M171.651 138.173C171.633 138.139 171.618 138.102 171.609 138.065C171.589 137.992 171.595 137.915 171.624 137.845C171.654 137.776 171.706 137.719 171.772 137.684C171.833 137.644 171.902 137.617 171.974 137.607C172.046 137.596 172.119 137.602 172.189 137.622C172.746 137.773 173.261 138.804 173.284 138.846C173.292 138.86 173.296 138.877 173.296 138.893C173.296 138.91 173.292 138.926 173.284 138.94C173.275 138.954 173.262 138.965 173.247 138.972C173.232 138.979 173.216 138.983 173.2 138.982C172.604 138.906 172.055 138.619 171.651 138.173ZM173.013 138.742C172.821 138.404 172.465 137.891 172.137 137.801C172.094 137.787 172.049 137.783 172.004 137.79C171.96 137.797 171.917 137.813 171.88 137.839C171.777 137.905 171.777 137.966 171.791 138.008C171.861 138.281 172.554 138.662 173.027 138.761L173.013 138.742Z" fill="#0C29FF"/>
<path d="M149.293 143.493C148.966 143.52 148.638 143.442 148.357 143.272C148.283 143.218 148.223 143.147 148.181 143.066C148.14 142.984 148.118 142.893 148.118 142.801C148.112 142.751 148.119 142.701 148.14 142.655C148.161 142.609 148.194 142.57 148.235 142.542C148.661 142.251 150.271 142.985 150.575 143.135C150.594 143.144 150.609 143.158 150.619 143.176C150.629 143.194 150.633 143.214 150.631 143.234C150.629 143.254 150.62 143.272 150.607 143.286C150.593 143.301 150.576 143.31 150.557 143.314C150.143 143.418 149.719 143.478 149.293 143.493ZM148.539 142.674C148.474 142.67 148.409 142.685 148.352 142.717C148.352 142.717 148.315 142.75 148.319 142.806C148.321 142.868 148.336 142.928 148.365 142.983C148.393 143.038 148.434 143.085 148.483 143.121C148.759 143.333 149.419 143.361 150.262 143.201C149.722 142.939 149.146 142.761 148.553 142.674H148.539Z" fill="#0C29FF"/>
<path d="M150.586 143.332H150.549C150.015 143.115 148.939 142.245 149 141.798C149 141.699 149.079 141.577 149.323 141.548C150.259 141.435 150.661 143.153 150.68 143.224C150.683 143.241 150.681 143.258 150.675 143.275C150.67 143.291 150.66 143.306 150.647 143.318C150.629 143.329 150.607 143.334 150.586 143.332ZM149.411 141.722H149.346C149.248 141.722 149.196 141.765 149.187 141.812C149.154 142.071 149.898 142.753 150.441 143.054C150.315 142.645 149.978 141.722 149.411 141.722Z" fill="#0C29FF"/>
<path d="M136.981 27.2949H136.176C136.176 27.2949 136.715 27.7655 136.981 27.2949Z" fill="#263238"/>
<path d="M138.817 147.52H164.426C164.602 147.52 164.771 147.59 164.896 147.715C165.021 147.841 165.091 148.011 165.091 148.188V150.362H138.157V148.188C138.157 148.011 138.227 147.842 138.35 147.717C138.474 147.592 138.642 147.521 138.817 147.52Z" fill="#263238"/>
<path d="M165.317 157.557H138.383V160.394H165.317V157.557Z" fill="#263238"/>
<path opacity="0.5" d="M165.323 157.557H147.515V160.394H165.323V157.557Z" fill="black"/>
<path d="M150.101 150.359L147.073 169.418C147.048 169.575 146.968 169.717 146.848 169.821C146.728 169.924 146.576 169.982 146.418 169.983H144.934C144.839 169.983 144.744 169.962 144.657 169.921C144.57 169.881 144.493 169.822 144.43 169.748C144.368 169.675 144.322 169.589 144.296 169.496C144.27 169.404 144.264 169.306 144.279 169.211L147.279 150.34L150.101 150.359Z" fill="#263238"/>
<path opacity="0.5" d="M150.111 150.359L149.882 151.809H147.055L147.289 150.359H150.111Z" fill="black"/>
<path d="M140.985 150.359L137.957 169.418C137.931 169.575 137.852 169.717 137.732 169.821C137.612 169.924 137.46 169.982 137.302 169.983H135.818C135.722 169.983 135.628 169.962 135.541 169.921C135.453 169.881 135.376 169.822 135.314 169.748C135.252 169.675 135.206 169.589 135.18 169.496C135.154 169.404 135.148 169.306 135.163 169.211L138.163 150.34L140.985 150.359Z" fill="#263238"/>
<path d="M168.097 169.231L165.102 150.359H162.294L165.307 169.419C165.332 169.576 165.411 169.719 165.531 169.823C165.652 169.926 165.804 169.983 165.963 169.983H167.442C167.536 169.983 167.628 169.962 167.714 169.923C167.799 169.884 167.876 169.826 167.938 169.755C168 169.684 168.046 169.601 168.073 169.51C168.101 169.42 168.109 169.324 168.097 169.231Z" fill="#263238"/>
<path opacity="0.5" d="M165.326 151.809L165.097 150.359H162.27L162.499 151.809H165.326Z" fill="black"/>
<path d="M158.957 169.231L155.962 150.359H153.154L156.168 169.419C156.192 169.576 156.272 169.719 156.392 169.823C156.512 169.926 156.665 169.983 156.823 169.983H158.302C158.396 169.983 158.489 169.962 158.574 169.923C158.66 169.884 158.736 169.826 158.798 169.755C158.86 169.684 158.906 169.601 158.933 169.51C158.961 169.42 158.969 169.324 158.957 169.231Z" fill="#263238"/>
<path opacity="0.5" d="M158.957 169.231L155.962 150.359H153.154L156.168 169.419C156.192 169.576 156.272 169.719 156.392 169.823C156.512 169.926 156.665 169.983 156.823 169.983H158.302C158.396 169.983 158.489 169.962 158.574 169.923C158.66 169.884 158.736 169.826 158.798 169.755C158.86 169.684 158.906 169.601 158.933 169.51C158.961 169.42 158.969 169.324 158.957 169.231Z" fill="black"/>
<path opacity="0.5" d="M147.289 147.52H164.432C164.608 147.52 164.777 147.59 164.902 147.715C165.027 147.841 165.097 148.011 165.097 148.188V150.362H147.313V147.538L147.289 147.52Z" fill="black"/>
<path d="M68.2482 167.407L71.9969 160.489L58.5887 148.672L57.5404 167.407H68.2482Z" fill="#0C29FF"/>
<path opacity="0.1" d="M68.2482 167.407L71.9969 160.489L58.5887 148.672L57.5404 167.407H68.2482Z" fill="black"/>
<path d="M114.446 88.5789C121.967 83.4023 128.266 83.9341 130.358 85.4447C132.45 86.9554 125.804 98.4286 125.804 98.4286C123.319 97.7027 121.018 96.4472 119.058 94.7477C117.098 93.0481 115.525 90.9442 114.446 88.5789Z" fill="#0C29FF"/>
<path opacity="0.2" d="M118.025 93.7797C122.261 89.596 126.58 88.2548 127.75 88.956C128.92 89.6572 125.162 97.7233 125.162 97.7233C125.162 97.7233 120.085 98.4574 118.025 93.7797Z" fill="black"/>
<path d="M49.0995 104.804L48.6736 104.587C49.8494 102.261 51.2325 100.046 52.806 97.9707L53.1851 98.2625C51.6315 100.316 50.2641 102.505 49.0995 104.804Z" fill="#0C29FF"/>
<path d="M46.88 110.122L46.412 109.967C46.7677 108.918 47.1701 107.868 47.6101 106.852L48.05 107.045C47.6288 108.042 47.231 109.078 46.88 110.122Z" fill="#0C29FF"/>
<path d="M134.384 123.181C134.384 146.547 116.89 165.484 91.6365 165.484C66.3832 165.484 45.9129 146.547 45.9129 123.181C45.9129 99.8159 66.3832 80.8789 91.6365 80.8789C116.89 80.8789 134.384 99.8159 134.384 123.181Z" fill="#0C29FF"/>
<path opacity="0.1" d="M85.5497 161.004L83.7198 164.853C85.0427 165.07 86.3859 165.227 87.7493 165.324L85.5497 161.004Z" fill="black"/>
<path d="M82.7759 170.001L88.0362 160.49L71.2116 154.307L69.0588 170.001H82.7759Z" fill="#0C29FF"/>
<path d="M107.275 170.001L102.717 160.49L118.737 154.307L119.799 170.001H107.275Z" fill="#0C29FF"/>
<path opacity="0.2" d="M118.777 129.295C118.777 135.62 113.217 140.745 106.38 140.745C99.5425 140.745 94.006 135.62 94.006 129.295C94.006 122.971 99.5472 117.846 106.38 117.846C113.213 117.846 118.777 122.971 118.777 129.295Z" fill="black"/>
<path opacity="0.2" d="M102.276 133.04C103.436 133.04 104.377 131.279 104.377 129.106C104.377 126.933 103.436 125.172 102.276 125.172C101.115 125.172 100.175 126.933 100.175 129.106C100.175 131.279 101.115 133.04 102.276 133.04Z" fill="black"/>
<path opacity="0.4" d="M87.2483 107.938C87.8521 109.788 87.2951 111.807 86.0081 112.442C84.7211 113.077 83.2001 112.089 82.5824 110.24C81.9646 108.39 82.5309 106.371 83.8179 105.736C85.1049 105.101 86.6446 106.084 87.2483 107.938Z" fill="black"/>
<path opacity="0.4" d="M119.818 108.023C119.35 109.872 119.926 111.868 121.086 112.475C122.247 113.082 123.558 112.075 124.016 110.22C124.475 108.366 123.909 106.376 122.748 105.769C121.587 105.161 120.286 106.169 119.818 108.023Z" fill="black"/>
<path opacity="0.2" d="M113.467 133.04C114.627 133.04 115.568 131.279 115.568 129.106C115.568 126.933 114.627 125.172 113.467 125.172C112.306 125.172 111.365 126.933 111.365 129.106C111.365 131.279 112.306 133.04 113.467 133.04Z" fill="black"/>
<path d="M78.27 88.1899C70.1221 81.4038 62.826 80.8768 60.3082 82.1097C57.7903 83.3427 64.3376 96.6466 64.3376 96.6466C64.3376 96.6466 73.2764 96.1196 78.27 88.1899Z" fill="#0C29FF"/>
<path opacity="0.2" d="M73.6853 93.0765C69.2159 87.8999 64.3861 85.7446 62.9774 86.281C61.5688 86.8175 65.1396 96.0037 65.1396 96.0037C65.1396 96.0037 70.896 97.6696 73.6853 93.0765Z" fill="black"/>
<path opacity="0.4" d="M94.7252 84.5604H101.609C101.609 84.5604 100.112 82.9039 95.0294 82.4004C92.151 82.1653 89.2542 82.3236 86.4182 82.871C86.4182 82.871 92.0903 82.7439 94.7252 84.5604Z" fill="black"/>
</svg>
