<svg width="253" height="189" viewBox="0 0 253 189" fill="none" xmlns="http://www.w3.org/2000/svg">
<path d="M252.371 166.092H0V166.218H252.371V166.092Z" fill="#EBEBEB"/>
<path d="M227.084 174.252H210.367V174.379H227.084V174.252Z" fill="#EBEBEB"/>
<path d="M167.173 175.633H162.787V175.76H167.173V175.633Z" fill="#EBEBEB"/>
<path d="M209.856 169.544H200.17V169.671H209.856V169.544Z" fill="#EBEBEB"/>
<path d="M48.2825 170.396H26.4826V170.522H48.2825V170.396Z" fill="#EBEBEB"/>
<path d="M55.9779 170.396H52.7829V170.522H55.9779V170.396Z" fill="#EBEBEB"/>
<path d="M113.634 172.539H66.3499V172.666H113.634V172.539Z" fill="#EBEBEB"/>
<path d="M119.629 143.465H22.1679C21.4044 143.464 20.6727 143.158 20.1332 142.615C19.5938 142.072 19.2909 141.336 19.2909 140.568V2.87133C19.2975 2.10836 19.6034 1.37884 20.1421 0.841218C20.6808 0.303599 21.4088 0.00130701 22.1679 0H119.629C120.393 0 121.126 0.305187 121.667 0.848423C122.207 1.39166 122.511 2.12844 122.511 2.8967V140.568C122.511 141.337 122.207 142.073 121.667 142.617C121.126 143.16 120.393 143.465 119.629 143.465ZM22.1679 0.101461C21.4379 0.102805 20.7382 0.395222 20.2225 0.914528C19.7067 1.43383 19.4171 2.13759 19.4171 2.87133V140.568C19.4171 141.302 19.7067 142.006 20.2225 142.525C20.7382 143.045 21.4379 143.337 22.1679 143.338H119.629C120.359 143.337 121.059 143.045 121.576 142.526C122.092 142.006 122.383 141.303 122.385 140.568V2.87133C122.383 2.13713 122.092 1.43338 121.576 0.914218C121.059 0.395057 120.359 0.102802 119.629 0.101461H22.1679Z" fill="#EBEBEB"/>
<path d="M228.818 143.465H131.352C130.588 143.464 129.856 143.158 129.316 142.615C128.775 142.072 128.471 141.336 128.47 140.568V2.87133C128.478 2.1079 128.785 1.37838 129.324 0.840901C129.864 0.303422 130.592 0.00129275 131.352 0H228.818C229.576 0.00264025 230.303 0.305522 230.84 0.842999C231.378 1.38047 231.683 2.10924 231.69 2.87133V140.568C231.69 141.335 231.387 142.07 230.849 142.613C230.311 143.156 229.58 143.462 228.818 143.465ZM131.352 0.101461C130.621 0.102802 129.921 0.395057 129.405 0.914218C128.888 1.43338 128.597 2.13713 128.596 2.87133V140.568C128.597 141.303 128.888 142.006 129.405 142.526C129.921 143.045 130.621 143.337 131.352 143.338H228.818C229.548 143.337 230.248 143.045 230.765 142.526C231.281 142.006 231.572 141.303 231.574 140.568V2.87133C231.572 2.13713 231.281 1.43338 230.765 0.914218C230.248 0.395057 229.548 0.102802 228.818 0.101461H131.352Z" fill="#EBEBEB"/>
<path d="M111.924 166.089L111.924 13.5278L30.6753 13.5278L30.6753 166.089H111.924Z" fill="#E6E6E6"/>
<path d="M113.808 50.0386V39.8672H111.921V50.0386H113.808Z" fill="#E0E0E0"/>
<path d="M113.808 142.424V132.252H111.921V142.424H113.808Z" fill="#E0E0E0"/>
<path d="M162.639 166.089V13.5278L113.811 13.5278V166.089H162.639Z" fill="#F0F0F0"/>
<path d="M156.308 159.722V19.8945L120.148 19.8945V159.722H156.308Z" stroke="#E6E6E6" stroke-width="0.545107" stroke-miterlimit="10"/>
<path d="M165.158 166.084V13.5234H162.65V166.084H165.158Z" fill="#E6E6E6"/>
<path d="M106.648 18.8394H35.9587V166.094H106.648V18.8394Z" fill="#F5F5F5"/>
<path d="M63.0052 46.2891C62.9958 45.0373 62.4945 43.8399 61.6105 42.9581C60.7264 42.0762 59.5314 41.5813 58.2858 41.5814C57.6803 41.5801 57.0803 41.6973 56.5192 41.9263C55.9998 40.8579 55.1629 39.978 54.1243 39.4084C53.0856 38.8389 51.8966 38.6077 50.7215 38.747C49.5465 38.8863 48.4435 39.3891 47.5652 40.1858C46.6869 40.9826 46.0766 42.034 45.8187 43.1946C44.5458 43.2767 43.3546 43.8534 42.4972 44.8026C41.6398 45.7518 41.1835 46.999 41.2248 48.2804C41.2661 49.5617 41.8018 50.7766 42.7186 51.668C43.6353 52.5594 44.8611 53.0574 46.1367 53.0565H61.7837C62.5959 53.0533 63.3814 52.7649 64.0044 52.2412C64.6275 51.7175 65.0487 50.9914 65.1955 50.1885C65.3422 49.3856 65.2051 48.5564 64.8079 47.8444C64.4107 47.1323 63.7784 46.5822 63.0203 46.2891H63.0052Z" fill="white"/>
<path d="M80.9809 34.3179C80.9849 33.6653 81.1479 33.0237 81.4558 32.4492C81.7637 31.8746 82.207 31.3847 82.7469 31.0222C83.2868 30.6598 83.9069 30.4359 84.5529 30.3701C85.1989 30.3044 85.8511 30.3988 86.4523 30.645C86.8895 29.7435 87.5949 29.0009 88.4707 28.5202C89.3464 28.0395 90.3493 27.8445 91.3403 27.9621C92.3312 28.0797 93.2613 28.5041 94.0016 29.1766C94.7419 29.8491 95.2558 30.7364 95.4721 31.7154C96.5404 31.7904 97.5383 32.2786 98.256 33.0776C98.9736 33.8765 99.3553 34.9239 99.3206 35.9998C99.286 37.0756 98.8378 38.096 98.0702 38.8467C97.3027 39.5973 96.2755 40.0197 95.2046 40.0251H82.0257C81.341 40.0222 80.6787 39.7789 80.1535 39.3374C79.6282 38.8958 79.2729 38.2837 79.149 37.6069C79.0251 36.93 79.1403 36.2309 79.4748 35.6303C79.8093 35.0298 80.342 34.5656 80.9809 34.3179Z" fill="white"/>
<path d="M106.648 137.342H35.9587V166.091H106.648V137.342Z" fill="#FAFAFA"/>
<path d="M85.1105 117.658C79.8662 122.27 68.454 137.342 59.8431 125.496C51.2322 113.651 35.9587 109.815 35.9587 109.815V137.342H106.648V116.172C106.648 116.172 94.0243 109.815 85.1105 117.658Z" fill="#EBEBEB"/>
<path d="M159.487 83.1629C159.487 83.5712 159.366 83.9704 159.141 84.31C158.915 84.6495 158.594 84.9141 158.219 85.0704C157.843 85.2267 157.43 85.2676 157.032 85.1879C156.633 85.1082 156.267 84.9116 155.98 84.6228C155.693 84.3341 155.497 83.9662 155.418 83.5657C155.338 83.1652 155.379 82.75 155.535 82.3727C155.69 81.9955 155.953 81.673 156.291 81.4461C156.629 81.2192 157.026 81.0981 157.432 81.0981C157.977 81.0981 158.5 81.3157 158.885 81.7029C159.27 82.0901 159.487 82.6153 159.487 83.1629Z" fill="#E0E0E0"/>
<path d="M157.884 83.1616C157.883 83.8326 157.684 84.4883 157.313 85.0458C156.941 85.6032 156.413 86.0374 155.796 86.2935C155.179 86.5496 154.5 86.6161 153.846 86.4846C153.191 86.353 152.59 86.0294 152.118 85.5546C151.646 85.0797 151.325 84.475 151.195 83.8168C151.065 83.1586 151.133 82.4765 151.388 81.8566C151.644 81.2368 152.077 80.707 152.632 80.3343C153.187 79.9616 153.84 79.7627 154.508 79.7627C155.404 79.764 156.262 80.1227 156.896 80.76C157.529 81.3973 157.884 82.261 157.884 83.1616Z" fill="#E6E6E6"/>
<path d="M209.849 111.862C210.818 89.3327 211.49 52.7613 210.985 40.5556C210.983 40.1849 210.89 39.8205 210.712 39.4954C210.263 38.7598 209.632 39.4953 209.647 40.7585C209.743 46.8157 209.849 61.9536 209.274 88.0746C208.986 101.077 208.572 109.98 208.855 111.862H209.849Z" fill="#F0F0F0"/>
<path d="M212.832 65.2173C215.143 59.1296 219.873 54.777 224.693 54.8024C226.581 54.8024 218.934 61.9046 215.754 69.7221C213.286 75.8097 210.5 86.0217 209.551 91.6985C210.167 79.7566 210.515 71.3201 212.832 65.2173Z" fill="#F0F0F0"/>
<path d="M207.992 65.1546C205.701 58.4481 200.421 53.2837 194.687 52.7003C192.441 52.4721 200.987 60.8933 204.177 69.5225C206.655 76.229 209.224 87.3339 209.895 93.4215C210.062 80.7846 210.279 71.8662 207.992 65.1546Z" fill="#F0F0F0"/>
<path d="M212.832 75.0197C215.143 68.932 219.873 64.5794 224.693 64.5997C226.581 64.5997 218.934 71.7019 215.754 79.5245C213.286 85.6121 210.5 95.8241 209.551 101.496C210.167 89.559 210.515 81.1225 212.832 75.0197Z" fill="#F0F0F0"/>
<path d="M207.992 75.5062C205.701 68.7946 200.421 63.6353 194.687 63.0519C192.441 62.8236 200.987 71.2448 204.177 79.874C206.655 86.5755 209.224 97.6804 209.895 103.773C210.062 91.1362 210.279 82.2178 207.992 75.5062Z" fill="#F0F0F0"/>
<path d="M212.415 42.1716C213.929 37.6363 217.175 34.1004 220.567 33.6185C221.899 33.4257 216.65 39.1988 214.555 45.0328C212.788 50.279 211.463 55.6652 210.593 61.1345C210.805 52.6727 210.896 46.7018 212.415 42.1716Z" fill="#F0F0F0"/>
<path d="M209.397 44.0846C207.787 39.3565 204.057 35.7192 200.024 35.3082C198.439 35.151 204.466 41.0813 206.712 47.1639C208.598 52.6333 209.95 58.274 210.75 64.0063C210.861 55.1032 211.012 48.8177 209.397 44.0846Z" fill="#F0F0F0"/>
<path d="M212.94 48.0511C214.898 42.8867 218.906 39.2088 222.984 39.2291C224.584 39.2291 218.108 45.2406 215.413 51.866C213.113 57.8987 211.354 64.1261 210.159 70.4738C210.684 60.3684 210.987 53.2154 212.94 48.0511Z" fill="#F0F0F0"/>
<path d="M208.971 50.8001C207.033 45.1184 202.551 40.7505 197.705 40.2533C195.803 40.0606 203.041 47.1932 205.746 54.4984C208.006 61.0709 209.627 67.848 210.586 74.7347C210.718 64.0357 210.899 56.4819 208.971 50.8001Z" fill="#F0F0F0"/>
<path d="M213.082 55.2212C215.197 49.6409 219.518 45.6839 223.919 45.7042C225.645 45.7042 218.66 52.1875 215.757 59.3354C213.272 65.8421 211.375 72.5606 210.089 79.4093C210.649 68.4871 210.967 60.7964 213.082 55.2212Z" fill="#F0F0F0"/>
<path d="M208.65 58.2725C206.495 51.9617 201.523 47.1119 196.143 46.564C194.028 46.3458 202.063 54.2648 205.066 62.3766C207.393 68.6824 209.781 79.1176 210.442 84.845C210.598 72.964 210.8 64.5783 208.65 58.2725Z" fill="#F0F0F0"/>
<path d="M203.446 108.526L203.789 114.061C203.824 115.299 204.359 116.268 205.005 116.268H213.586C214.232 116.268 214.767 115.299 214.807 114.061L215.145 108.526C215.186 107.182 214.641 106.046 213.929 106.046H204.667C203.965 106.025 203.42 107.182 203.446 108.526Z" fill="#E6E6E6"/>
<path d="M202.9 109.698H215.644C215.831 109.698 215.988 109.429 216.013 109.069L216.316 103.798C216.316 103.382 216.169 103.017 215.947 103.017H202.612C202.395 103.017 202.223 103.382 202.249 103.798L202.551 109.069C202.572 109.429 202.728 109.698 202.9 109.698Z" fill="#F5F5F5"/>
<path d="M236.384 116.269H227.243V166.086H236.384V116.269Z" fill="#E6E6E6"/>
<path d="M233.651 166.092H236.391V156.56H230.779L233.651 166.092Z" fill="#F0F0F0"/>
<path d="M184.513 116.269H175.373V166.086H184.513V116.269Z" fill="#E6E6E6"/>
<path d="M236.385 116.269H182.13V160.236H236.385V116.269Z" fill="#F0F0F0"/>
<path d="M184.871 166.092H182.13V156.56H187.743L184.871 166.092Z" fill="#F0F0F0"/>
<path d="M234.254 119.363H184.249V136.956H234.254V119.363Z" fill="#E6E6E6"/>
<path d="M217.841 124.832H202.512C199.841 124.832 197.282 122.661 195.445 118.831H224.912C223.095 122.661 220.516 124.832 217.841 124.832Z" fill="#F0F0F0"/>
<path d="M234.254 139.803H184.249V157.396H234.254V139.803Z" fill="#E6E6E6"/>
<path d="M217.841 145.27H202.512C199.841 145.27 197.282 143.099 195.445 139.269H224.912C223.095 143.099 220.516 145.27 217.841 145.27Z" fill="#F0F0F0"/>
<path d="M126.194 188.999C180.243 188.999 224.058 186.428 224.058 183.256C224.058 180.085 180.243 177.514 126.194 177.514C72.1449 177.514 28.3294 180.085 28.3294 183.256C28.3294 186.428 72.1449 188.999 126.194 188.999Z" fill="#F5F5F5"/>
<path d="M170.519 35.8214C170.458 36.1207 170.251 36.3287 170.054 36.2932C169.857 36.2577 169.751 35.9787 169.812 35.6793C169.872 35.38 170.079 35.172 170.277 35.2076C170.474 35.2431 170.595 35.5119 170.519 35.8214Z" fill="#000214"/>
<path d="M170.287 36.3374C169.745 37.1818 169.092 37.9481 168.344 38.6152C168.518 38.8033 168.732 38.9508 168.969 39.0472C169.206 39.1436 169.461 39.1866 169.717 39.1732L170.287 36.3374Z" fill="#AB5F1A"/>
<path d="M171.958 34.3808C171.992 34.38 172.026 34.3692 172.055 34.3497C172.084 34.3303 172.106 34.3029 172.12 34.2708C172.134 34.2388 172.138 34.2035 172.133 34.169C172.127 34.1346 172.112 34.1024 172.089 34.0764C171.902 33.8632 171.667 33.6981 171.404 33.5948C171.14 33.4916 170.856 33.4532 170.575 33.4829C170.548 33.483 170.522 33.4889 170.498 33.5002C170.474 33.5114 170.453 33.5278 170.436 33.5481C170.419 33.5684 170.407 33.5922 170.4 33.6178C170.393 33.6434 170.392 33.6702 170.396 33.6964C170.401 33.7225 170.411 33.7474 170.426 33.7692C170.441 33.791 170.46 33.8093 170.483 33.8228C170.506 33.8363 170.531 33.8446 170.558 33.8473C170.584 33.8499 170.61 33.8467 170.635 33.838C170.86 33.8207 171.086 33.8578 171.295 33.946C171.503 34.0342 171.687 34.1711 171.831 34.3453C171.867 34.373 171.913 34.3857 171.958 34.3808Z" fill="#000214"/>
<path d="M178.809 41.2837C178.269 44.0637 177.94 47.9091 179.874 49.7658C179.874 49.7658 179.117 52.5813 173.983 52.5813C168.335 52.5813 171.268 50.1107 171.268 50.1107C173.615 49.3752 173.595 46.6915 173.055 44.5304L178.809 41.2837Z" fill="#AB5F1A"/>
<path d="M170.802 50.6034C170.802 50.6034 171.433 48.6452 172.074 48.3053C172.715 47.9654 179.549 47.0827 180.493 47.864C181.437 48.6452 179.312 51.1513 179.312 51.1513L170.802 50.6034Z" fill="#000214"/>
<path d="M168.084 179.587C167.579 179.587 167.135 179.521 166.999 179.298C166.964 179.237 166.949 179.166 166.956 179.096C166.963 179.026 166.992 178.96 167.039 178.907C167.072 178.854 167.116 178.808 167.167 178.773C167.218 178.737 167.276 178.712 167.337 178.699C167.978 178.527 169.24 179.283 169.29 179.313C169.305 179.323 169.317 179.337 169.324 179.353C169.331 179.369 169.334 179.387 169.331 179.405C169.326 179.424 169.316 179.441 169.302 179.455C169.287 179.468 169.269 179.477 169.25 179.481C168.865 179.549 168.475 179.585 168.084 179.587ZM167.579 178.841C167.522 178.833 167.465 178.833 167.408 178.841C167.369 178.848 167.333 178.863 167.301 178.885C167.269 178.907 167.242 178.935 167.221 178.968C167.15 179.08 167.165 179.131 167.186 179.166C167.342 179.41 168.296 179.415 169.008 179.318C168.569 179.063 168.083 178.901 167.579 178.841Z" fill="#0C29FF"/>
<path d="M169.238 179.467H169.203C168.764 179.259 167.926 178.452 168.032 178.011C168.032 177.909 168.133 177.782 168.385 177.757C168.471 177.747 168.558 177.755 168.641 177.782C168.724 177.808 168.8 177.851 168.865 177.909C169.314 178.31 169.334 179.33 169.334 179.375C169.334 179.401 169.324 179.425 169.306 179.443C169.288 179.462 169.264 179.472 169.238 179.472V179.467ZM168.441 177.945H168.385C168.224 177.945 168.208 178.026 168.203 178.046C168.143 178.305 168.708 178.949 169.147 179.233C169.142 178.809 169 178.398 168.743 178.061C168.663 177.98 168.555 177.932 168.441 177.929V177.945Z" fill="#0C29FF"/>
<path d="M173.396 179.379H169.621L169.959 170.587H173.734L173.396 179.379Z" fill="#AB5F1A"/>
<path d="M169.686 178.941H173.81C173.883 178.939 173.955 178.964 174.01 179.012C174.066 179.06 174.103 179.127 174.113 179.2L174.582 182.573C174.592 182.658 174.584 182.744 174.559 182.825C174.533 182.906 174.491 182.981 174.435 183.045C174.379 183.109 174.31 183.16 174.232 183.195C174.155 183.23 174.071 183.248 173.986 183.248C172.497 183.223 170.357 183.136 168.485 183.136C166.299 183.136 166.022 183.258 163.437 183.258C161.888 183.258 161.585 181.68 162.246 181.538C165.275 180.889 166.047 180.818 168.732 179.235C169.017 179.052 169.347 178.95 169.686 178.941Z" fill="#000214"/>
<path d="M158.851 59.7182C159.011 59.8066 159.146 59.9353 159.243 60.0918C159.339 60.2482 159.394 60.4271 159.401 60.6111L159.426 61.4582C159.437 61.6727 159.382 61.8853 159.268 62.067C159.154 62.2486 158.987 62.3904 158.79 62.4729L157.094 63.1881C156.614 63.3881 156.081 63.4203 155.58 63.2795L153.445 62.6656C153.221 62.5758 153.027 62.4235 152.887 62.2266C152.747 62.0297 152.665 61.7965 152.652 61.5546L152.582 60.3523C152.571 60.174 152.598 59.9954 152.66 59.8281C152.722 59.6609 152.819 59.5086 152.944 59.3814C153.069 59.2541 153.218 59.1546 153.384 59.0894C153.549 59.0242 153.727 58.9947 153.904 59.0029L154.914 59.0486C156.264 58.8004 157.657 59.0374 158.851 59.7182Z" fill="#AB5F1A"/>
<path d="M184.698 56.0258C184.003 57.1927 183.222 58.3051 182.361 59.3537C181.491 60.4158 180.534 61.4019 179.499 62.3011C177.487 63.9987 175.297 65.4702 172.967 66.6893L172.761 66.8009C172.299 67.0559 171.763 67.1386 171.246 67.0343C170.116 66.8111 168.99 66.527 167.865 66.2682C166.739 66.0095 165.629 65.6696 164.518 65.3196C163.408 64.9695 162.307 64.5941 161.217 64.1579C160.672 63.9397 160.137 63.7013 159.597 63.4578C159.057 63.2143 158.547 62.9505 157.951 62.636C157.654 62.4704 157.425 62.2032 157.307 61.8827C157.188 61.5623 157.188 61.2099 157.306 60.8892C157.423 60.5685 157.651 60.3008 157.949 60.1345C158.246 59.9683 158.592 59.9144 158.926 59.9828L159.062 60.0132L160.601 60.3277C161.136 60.4343 161.676 60.5205 162.216 60.6118C163.297 60.7944 164.382 60.9635 165.472 61.1191C166.557 61.2815 167.653 61.4083 168.748 61.5503L172.034 61.9207L170.302 62.2656C172.217 61.0242 174.025 59.6243 175.708 58.0804C176.491 57.3277 177.226 56.5262 177.909 55.6808C178.599 54.8207 179.245 53.9249 179.842 52.9972C180.264 52.3986 180.899 51.9848 181.614 51.8407C182.33 51.6966 183.074 51.8329 183.693 52.2219C184.313 52.6109 184.76 53.223 184.945 53.933C185.13 54.643 185.038 55.3971 184.688 56.041L184.698 56.0258Z" fill="#AB5F1A"/>
<path d="M164.271 53.587C163.499 57.686 163.014 66.1123 165.281 82.7924H185.47C184.48 73.4778 184.588 64.0782 185.793 54.7893C185.887 54.1037 185.841 53.4062 185.658 52.739C185.475 52.0719 185.16 51.449 184.73 50.9082C184.301 50.3674 183.766 49.9199 183.159 49.5929C182.553 49.2659 181.886 49.0663 181.2 49.006C180.766 48.9705 180.327 48.9401 179.893 48.9198C177.035 48.7526 174.17 48.7526 171.312 48.9198C170.363 49.006 169.435 49.143 168.607 49.2901C167.535 49.479 166.547 49.9914 165.772 50.759C164.998 51.5265 164.474 52.513 164.271 53.587Z" fill="#0C29FF"/>
<path opacity="0.2" d="M169.954 170.592L169.777 175.122H173.558L173.734 170.592H169.954Z" fill="black"/>
<path d="M180.602 37.2197C179.633 40.8621 179.244 43.0385 177.013 44.5553C173.652 46.828 169.442 44.2154 169.331 40.3599C169.215 36.8849 170.82 31.5176 174.707 30.782C175.563 30.6165 176.447 30.6736 177.276 30.948C178.104 31.2224 178.849 31.7049 179.439 32.3499C180.03 32.9948 180.447 33.7806 180.65 34.6329C180.854 35.4852 180.837 36.3756 180.602 37.2197Z" fill="#AB5F1A"/>
<path d="M171.267 37.9058C170.621 36.4701 171.489 34.1061 172.554 33.472C171.767 32.8327 170.959 32.2088 171.267 30.6919C171.575 29.1751 174.543 27.2829 176.314 28.6069C178.086 29.931 184.981 27.9322 182.851 32.7769C187.616 34.5829 181.589 41.9845 178.449 43.8767C175.31 45.769 172.65 42.02 171.267 37.9058Z" fill="#000214"/>
<path d="M182.206 32.8316C182.206 32.8316 184.084 32.3801 184.281 29.7319C185.825 32.1822 184.927 33.3947 182.206 32.8316Z" fill="#000214"/>
<path d="M173.943 37.323C173.719 38.2312 173.205 39.0403 172.479 39.6262C171.515 40.3871 170.763 39.6871 170.804 38.5659C170.839 37.5513 171.384 35.9482 172.459 35.6185C173.534 35.2888 174.195 36.2222 173.943 37.323Z" fill="#AB5F1A"/>
<path d="M209.644 165.455L206.298 167.079L201.775 159.347L205.122 157.724L209.644 165.455Z" fill="#AB5F1A"/>
<path d="M204.421 167.29C204.058 167.62 203.674 167.883 203.411 167.797C203.326 167.797 203.215 167.701 203.179 167.483C203.16 167.357 203.189 167.228 203.26 167.122C203.623 166.559 205.062 166.27 205.123 166.26C205.139 166.256 205.157 166.258 205.173 166.265C205.188 166.272 205.201 166.285 205.208 166.301C205.218 166.317 205.223 166.335 205.223 166.354C205.223 166.373 205.218 166.391 205.208 166.407C204.972 166.723 204.708 167.019 204.421 167.29ZM203.528 167.112C203.484 167.151 203.444 167.195 203.411 167.244C203.368 167.308 203.348 167.385 203.356 167.462C203.356 167.594 203.432 167.625 203.467 167.635C203.745 167.711 204.476 167.067 204.916 166.514C204.421 166.619 203.953 166.823 203.538 167.112H203.528Z" fill="#0C29FF"/>
<path d="M205.204 166.434H205.174C204.709 166.576 203.543 166.536 203.331 166.145C203.281 166.054 203.261 165.906 203.427 165.719C203.484 165.652 203.554 165.6 203.634 165.564C203.713 165.528 203.799 165.51 203.886 165.511C204.482 165.511 205.184 166.241 205.214 166.277C205.22 166.29 205.223 166.305 205.223 166.32C205.223 166.335 205.22 166.35 205.214 166.363C205.217 166.375 205.218 166.387 205.217 166.4C205.215 166.412 205.21 166.424 205.204 166.434ZM203.584 165.83L203.548 165.871C203.437 165.993 203.467 166.049 203.478 166.069C203.604 166.302 204.452 166.399 204.967 166.312C204.682 165.999 204.302 165.789 203.886 165.714C203.775 165.715 203.668 165.757 203.584 165.83Z" fill="#0C29FF"/>
<path d="M205.178 165.747L208.231 162.957C208.287 162.909 208.358 162.883 208.431 162.883C208.504 162.883 208.575 162.909 208.63 162.957L211.235 165.138C211.298 165.195 211.349 165.265 211.384 165.342C211.419 165.42 211.437 165.505 211.437 165.59C211.437 165.675 211.419 165.76 211.384 165.837C211.349 165.915 211.298 165.985 211.235 166.041C210.119 167.026 208.474 168.41 207.086 169.674C205.471 171.15 205.344 171.424 203.447 173.159C202.296 174.204 201.019 173.245 201.428 172.692C203.219 170.156 203.765 169.587 204.688 166.604C204.771 166.279 204.941 165.983 205.178 165.747Z" fill="#000214"/>
<path opacity="0.2" d="M201.775 159.353L204.107 163.335L207.454 161.712L205.127 157.724L201.775 159.353Z" fill="black"/>
<path d="M172.435 82.7925C172.435 82.7925 178.754 111.962 181.172 122.788C183.822 134.644 201.634 162.449 201.634 162.449L207.782 159.218C207.782 159.218 196.35 135.79 191.923 122.185C189.955 109.502 185.472 82.8026 185.472 82.8026L172.435 82.7925Z" fill="#0C29FF"/>
<path opacity="0.5" d="M172.435 82.7925C172.435 82.7925 178.754 111.962 181.172 122.788C183.822 134.644 201.634 162.449 201.634 162.449L207.782 159.218C207.782 159.218 196.35 135.79 191.923 122.185C189.955 109.502 185.472 82.8026 185.472 82.8026L172.435 82.7925Z" fill="black"/>
<path d="M199.943 161.241C199.918 161.241 201.316 163.504 201.316 163.504L208.508 159.694L207.771 157.411L199.943 161.241Z" fill="#0C29FF"/>
<path opacity="0.3" d="M176.15 96.3112C180.905 96.9453 181.455 113.793 181.369 123.675C181.304 123.361 181.233 123.066 181.172 122.782C179.855 116.872 177.372 105.483 175.388 96.367C175.634 96.2891 175.895 96.27 176.15 96.3112Z" fill="black"/>
<path d="M165.255 82.7925C165.255 82.7925 164.341 111.201 164.659 122.763C164.987 134.791 168.192 174.244 168.192 174.244H174.633C174.633 174.244 175.481 135.511 176.187 123.681C176.949 110.785 178.56 82.7925 178.56 82.7925H165.255Z" fill="#0C29FF"/>
<path opacity="0.5" d="M165.255 82.7925C165.255 82.7925 164.341 111.201 164.659 122.763C164.987 134.791 168.192 174.244 168.192 174.244H174.633C174.633 174.244 175.481 135.511 176.187 123.681C176.949 110.785 178.56 82.7925 178.56 82.7925H165.255Z" fill="black"/>
<path d="M167.427 171.682C167.397 171.682 167.568 174.35 167.568 174.35H175.356L175.76 171.971L167.427 171.682Z" fill="#0C29FF"/>
<path d="M146.88 65.9087C147.06 65.9429 147.228 66.0242 147.367 66.1444C147.507 66.2646 147.612 66.4195 147.672 66.5936L147.95 67.39C148.02 67.59 148.029 67.8067 147.974 68.0115C147.919 68.2163 147.803 68.3994 147.642 68.5365L146.239 69.7338C145.836 70.0734 145.331 70.268 144.805 70.2867L142.63 70.3476C142.39 70.3303 142.159 70.2442 141.966 70.0995C141.773 69.9547 141.625 69.7574 141.54 69.5309L141.111 68.4046C141.047 68.238 141.02 68.0598 141.029 67.8816C141.039 67.7035 141.086 67.5294 141.167 67.3706C141.248 67.2118 141.361 67.0719 141.499 66.9599C141.637 66.8478 141.797 66.7663 141.969 66.7204L142.933 66.4617C144.143 65.8166 145.54 65.6209 146.88 65.9087Z" fill="#AB5F1A"/>
<path d="M169.586 54.9039C169.167 56.4511 168.703 57.9933 168.238 59.5355C167.774 61.0777 167.269 62.6098 166.724 64.1368C166.179 65.6638 165.624 67.1806 164.993 68.7025C164.68 69.4685 164.352 70.2244 163.983 71.0107C163.599 71.8385 163.164 72.6415 162.681 73.4153L162.565 73.598C162.323 73.98 161.976 74.2828 161.565 74.4693C161.154 74.6558 160.699 74.7179 160.253 74.6481C159.617 74.5466 158.981 74.4604 158.35 74.3386C157.72 74.2169 157.094 74.09 156.468 73.9226C155.842 73.7552 155.226 73.598 154.61 73.39C153.995 73.182 153.389 72.974 152.788 72.7406C151.584 72.2586 150.418 71.6854 149.3 71.0259C148.739 70.6907 148.195 70.3267 147.67 69.9352C147.403 69.7425 147.165 69.5345 146.888 69.3214C146.757 69.2149 146.63 69.1083 146.504 68.9866C146.378 68.8648 146.267 68.7634 146.095 68.5909C145.853 68.3558 145.703 68.0413 145.672 67.7044C145.641 67.3675 145.73 67.0306 145.925 66.7546C146.12 66.4785 146.406 66.2817 146.733 66.1998C147.06 66.1179 147.405 66.1563 147.705 66.308L147.938 66.4247L148.594 66.7595C148.836 66.8762 149.099 66.998 149.336 67.1045C149.841 67.3277 150.345 67.5154 150.88 67.7031C151.931 68.0693 153.001 68.3775 154.085 68.6264C155.171 68.8699 156.271 69.0627 157.376 69.2047C157.921 69.2859 158.487 69.3163 159.037 69.3823L160.708 69.4888L158.285 70.7165C158.597 70.1127 158.873 69.491 159.113 68.8547C159.38 68.1698 159.648 67.4596 159.9 66.7392C160.405 65.2934 160.874 63.807 161.344 62.3156L162.716 57.8107L164.079 53.2805C164.287 52.5466 164.776 51.9255 165.439 51.554C166.102 51.1825 166.885 51.0909 167.615 51.2995C168.345 51.508 168.963 51.9996 169.333 52.666C169.702 53.3325 169.794 54.1192 169.586 54.8531V54.9039Z" fill="#AB5F1A"/>
<path d="M172.696 53.3081C174.21 58.3202 167.649 65.1891 167.649 65.1891L160.466 61.7598C160.466 61.7598 161.274 55.799 164.312 52.2225C168.067 47.814 171.545 49.4983 172.696 53.3081Z" fill="#0C29FF"/>
<path d="M90.5386 83.5474C93.4913 86.3274 94.0263 88.8335 93.6326 92.1715C93.2389 95.5096 88.8073 96.5089 88.8073 96.5089L89.1909 84.3337L90.5386 83.5474Z" fill="#000214"/>
<path d="M80.8343 179.082L84.8773 179.021L84.6249 169.575L80.582 169.636L80.8343 179.082Z" fill="#AB5F1A"/>
<path d="M84.9156 178.569L80.4991 178.64C80.4211 178.64 80.3458 178.668 80.2879 178.721C80.23 178.774 80.1938 178.846 80.1862 178.924L79.8026 182.551C79.7948 182.643 79.8063 182.736 79.8365 182.823C79.8666 182.91 79.9146 182.99 79.9774 183.058C80.0402 183.125 80.1164 183.179 80.2011 183.215C80.2857 183.251 80.377 183.268 80.4689 183.266C82.0588 183.216 84.3503 183.084 86.3542 183.053C88.6962 183.018 88.464 183.114 91.2148 183.053C92.8704 183.028 93.1379 181.334 92.4262 181.192C89.1858 180.542 88.8577 180.507 85.9302 178.853C85.6223 178.671 85.2726 178.573 84.9156 178.569Z" fill="#000214"/>
<path d="M89.215 54.1421C90.8453 56.1713 92.5817 58.2918 94.3129 60.3007C96.0442 62.3097 97.8461 64.2932 99.6834 66.0688L100.027 66.3934L100.203 66.5609L100.289 66.642L100.259 66.6167L100.188 66.5659C100.034 66.4678 99.8628 66.4006 99.6834 66.3681C99.6255 66.3523 99.5646 66.3523 99.5067 66.3681C99.5067 66.3681 99.648 66.3681 99.8298 66.3681C100.057 66.3216 100.281 66.2606 100.501 66.1854C101.63 65.7458 102.719 65.2095 103.757 64.5824C105.988 63.2837 108.259 61.7567 110.465 60.25L112.519 62.5075C110.677 64.6802 108.643 66.6804 106.442 68.4835C105.254 69.4622 103.966 70.3123 102.601 71.02C102.192 71.217 101.77 71.3865 101.339 71.5273C100.792 71.7173 100.221 71.8283 99.643 71.8571C99.2432 71.8775 98.8425 71.8434 98.4518 71.7556C97.9441 71.6474 97.4623 71.4406 97.0335 71.1469L96.8619 71.0251L96.7407 70.9338L96.6347 70.8476L96.4177 70.6751L95.9887 70.3301C94.8479 69.4068 93.7779 68.4379 92.7533 67.4486C91.7286 66.4594 90.7343 65.4194 89.7753 64.4048C87.8516 62.3306 86.0355 60.1581 84.3342 57.8961L89.215 54.1421Z" fill="#AB5F1A"/>
<path d="M82.1785 55.8579C81.8757 59.7844 91.4102 67.8962 91.4102 67.8962L97.9214 61.1034C95.8529 58.2939 93.4832 55.7216 90.855 53.433C86.9281 50.2218 82.5066 51.5509 82.1785 55.8579Z" fill="#0C29FF"/>
<path opacity="0.2" d="M87.6414 59.007C89.3272 59.2911 93.2289 63.7757 93.3752 65.8303L91.3967 67.895C89.1069 65.9172 86.9722 63.765 85.0117 61.4573C85.794 60.0825 86.753 58.8447 87.6414 59.007Z" fill="black"/>
<path d="M110.873 63.4481L115.512 63.2604L114.543 58.7251C114.543 58.7251 110.954 58.3903 109.94 61.2311L110.873 63.4481Z" fill="#AB5F1A"/>
<path d="M118.926 60.6913L117.76 58.8447C117.666 58.695 117.531 58.5754 117.372 58.4999C117.213 58.4244 117.036 58.3962 116.861 58.4186L114.534 58.7078L115.503 63.243L118.481 62.0509C118.607 62.0003 118.721 61.9225 118.814 61.823C118.907 61.7236 118.977 61.6049 119.019 61.4753C119.061 61.3457 119.075 61.2083 119.059 61.0729C119.043 60.9374 118.997 60.8072 118.926 60.6913Z" fill="#AB5F1A"/>
<path opacity="0.2" d="M84.6249 169.575L84.7562 174.445L80.7081 174.511L80.582 169.641L84.6249 169.575Z" fill="black"/>
<path d="M87.1741 51.7437C80.6286 50.9355 73.9891 51.4145 67.6255 53.154C67.274 53.2452 66.9719 53.4707 66.7833 53.7824C66.5948 54.0941 66.5348 54.4675 66.616 54.8231C70.0129 69.9052 68.5996 85.5149 68.8621 88.7464L90.5357 88.3963C92.0802 69.8037 90.3035 58.1357 89.4354 53.8744C89.3231 53.3282 89.0456 52.8303 88.6407 52.4489C88.2359 52.0674 87.7237 51.8211 87.1741 51.7437Z" fill="#0C29FF"/>
<path d="M72.2616 51.8702L71.2522 52.1137C71.2245 52.1211 71.1992 52.1357 71.179 52.1561C71.1588 52.1765 71.1443 52.202 71.1371 52.2299C71.1299 52.2578 71.1302 52.2871 71.138 52.3148C71.1458 52.3425 71.1608 52.3677 71.1815 52.3876C74.9418 55.8627 90.0589 74.1052 90.498 89.4511H91.8053C91.3611 73.877 75.8554 54.9546 72.3828 51.9108C72.3672 51.8949 72.3481 51.883 72.327 51.8759C72.306 51.8689 72.2836 51.8669 72.2616 51.8702Z" fill="#000214"/>
<path opacity="0.2" d="M70.7088 60.1743C71.0419 61.6709 70.3403 68.4992 68.7201 70.1834C68.5888 67.9969 68.392 65.7141 68.1093 63.3805L70.7088 60.1743Z" fill="black"/>
<path d="M74.099 41.5977C74.7854 44.5248 75.5627 49.7551 73.5639 51.8908C75.2346 53.3721 77.405 55.2441 80.9281 55.1071C84.4512 54.9701 83.79 52.5706 82.8159 51.3683C79.4795 50.8255 79.4391 48.3651 79.9287 46.0163L74.099 41.5977Z" fill="#AB5F1A"/>
<path opacity="0.2" d="M76.482 43.4194L79.9294 46.032C79.8091 46.5777 79.7348 47.1327 79.7073 47.6909C78.4404 47.5996 76.6789 46.3415 76.4719 45.0276C76.3783 44.4953 76.3817 43.9504 76.482 43.4194Z" fill="black"/>
<path d="M73.0991 37.1675C73.6038 41.1701 73.7048 43.5443 75.86 45.4568C79.1055 48.3332 83.9359 46.1214 84.6224 42.0376C85.2482 38.3597 84.3145 32.4293 80.2866 31.1205C79.3958 30.8357 78.4478 30.7815 77.5306 30.9631C76.6134 31.1447 75.7567 31.5561 75.0398 32.1592C74.323 32.7623 73.7693 33.5375 73.43 34.413C73.0907 35.2886 72.9769 36.236 73.0991 37.1675Z" fill="#AB5F1A"/>
<path d="M85.5505 31.1568C85.845 31.263 86.1109 31.4365 86.3273 31.6636C86.5436 31.8908 86.7045 32.1653 86.7972 32.4657C86.8112 32.5322 86.807 32.6014 86.785 32.6657C86.7629 32.7301 86.7239 32.7872 86.672 32.831C86.6202 32.8747 86.5575 32.9035 86.4906 32.9142C86.4238 32.9249 86.3553 32.9172 86.2925 32.8918C84.1423 31.9685 78.9838 32.349 78.9838 32.349C78.9838 32.349 83.4306 30.4365 85.5505 31.1568Z" fill="#0C29FF"/>
<path opacity="0.2" d="M85.5505 31.1568C85.845 31.263 86.1109 31.4365 86.3273 31.6636C86.5436 31.8908 86.7045 32.1653 86.7972 32.4657C86.8112 32.5322 86.807 32.6014 86.785 32.6657C86.7629 32.7301 86.7239 32.7872 86.672 32.831C86.6202 32.8747 86.5575 32.9035 86.4906 32.9142C86.4238 32.9249 86.3553 32.9172 86.2925 32.8918C84.1423 31.9685 78.9838 32.349 78.9838 32.349C78.9838 32.349 83.4306 30.4365 85.5505 31.1568Z" fill="black"/>
<path d="M74.065 40.7505L75.8316 40.4157C75.8316 40.4157 77.3458 36.9508 75.5792 35.8753C77.5982 33.7548 84.7706 35.2158 83.5895 32.7503C82.6204 30.7211 78.0979 29.5137 74.5041 30.8429C70.9103 32.172 71.3394 33.8867 71.3394 33.8867C71.3394 33.8867 68.5229 36.0275 70.7185 38.5488C70.7438 39.6344 72.8485 41.2578 74.065 40.7505Z" fill="#000214"/>
<path d="M70.3493 38.5529C70.3823 38.5884 70.4226 38.6162 70.4675 38.6342C70.5123 38.6522 70.5606 38.66 70.6088 38.6571C70.657 38.6542 70.704 38.6406 70.7464 38.6174C70.7888 38.5941 70.8256 38.5617 70.854 38.5225C71.5809 37.5941 74.0137 34.7127 77.0422 33.5002C78.8591 32.7431 80.7879 32.2923 82.7508 32.166C82.8093 32.1653 82.8666 32.1489 82.9167 32.1185C82.9668 32.0881 83.0078 32.0447 83.0356 31.993C83.0634 31.9412 83.077 31.8829 83.0748 31.8242C83.0726 31.7654 83.0549 31.7083 83.0234 31.6587C82.5527 30.7074 81.9623 29.8209 81.2669 29.0207C80.4694 28.3004 74.7456 27.9757 73.0749 29.0816C71.9493 29.8324 68.7745 33.0386 68.6483 34.5909C68.5524 35.6816 69.2136 37.3253 70.3493 38.5529Z" fill="#0C29FF"/>
<path opacity="0.3" d="M70.3493 38.5529C70.3823 38.5884 70.4226 38.6162 70.4675 38.6342C70.5123 38.6522 70.5606 38.66 70.6088 38.6571C70.657 38.6542 70.704 38.6406 70.7464 38.6174C70.7888 38.5941 70.8256 38.5617 70.854 38.5225C71.5809 37.5941 74.0137 34.7127 77.0422 33.5002C78.8591 32.7431 80.7879 32.2923 82.7508 32.166C82.8093 32.1653 82.8666 32.1489 82.9167 32.1185C82.9668 32.0881 83.0078 32.0447 83.0356 31.993C83.0634 31.9412 83.077 31.8829 83.0748 31.8242C83.0726 31.7654 83.0549 31.7083 83.0234 31.6587C82.5527 30.7074 81.9623 29.8209 81.2669 29.0207C80.4694 28.3004 74.7456 27.9757 73.0749 29.0816C71.9493 29.8324 68.7745 33.0386 68.6483 34.5909C68.5524 35.6816 69.2136 37.3253 70.3493 38.5529Z" fill="white"/>
<path d="M74.2588 35.1023C76.2882 34.0756 78.5529 33.6099 80.8204 33.7529C81.0694 33.7671 81.3174 33.7121 81.5373 33.594C81.7573 33.4759 81.9406 33.2991 82.0672 33.0832C82.6224 32.1701 83.5511 31.4599 85.1814 31.2366C85.2042 31.2366 85.226 31.2276 85.2421 31.2114C85.2582 31.1952 85.2672 31.1733 85.2672 31.1504C85.2672 31.1275 85.2582 31.1056 85.2421 31.0894C85.226 31.0733 85.2042 31.0642 85.1814 31.0642C82.7687 30.4351 75.3945 32.3121 74.2588 35.1023Z" fill="#0C29FF"/>
<path d="M71.4745 41.2503C71.7403 41.6751 72.0873 42.0426 72.4953 42.3317C72.9034 42.6208 73.3645 42.8257 73.8519 42.9345C75.1591 43.2186 75.7446 42.0214 75.3257 40.8241C74.9471 39.7436 73.8115 38.2876 72.5244 38.5464C72.2447 38.607 71.9844 38.7362 71.7666 38.9227C71.5489 39.1091 71.3804 39.3469 71.2764 39.6147C71.1724 39.8826 71.1361 40.1722 71.1707 40.4576C71.2052 40.743 71.3096 41.0153 71.4745 41.2503Z" fill="#AB5F1A"/>
<path d="M77.9879 128.815C78.1495 108.34 73.6421 88.6724 73.6421 88.6724L90.5358 88.3984C90.5358 88.3984 88.5926 117.974 87.9162 130.362C87.2146 143.243 86.2354 173.483 86.2354 173.483L79.376 173.59C79.376 173.59 77.039 144.978 77.9879 128.815Z" fill="#000214"/>
<path opacity="0.2" d="M77.326 99.9379C82.1413 106.563 79.9759 119.028 78.0024 127.839C77.9248 118.126 77.103 108.434 75.5443 98.8472L77.326 99.9379Z" fill="black"/>
<path d="M78.5235 171.1L78.9575 173.754L86.6902 173.627L87.1394 170.816L78.5235 171.1Z" fill="#0C29FF"/>
<path d="M79.9236 37.8373C79.9236 38.1671 80.1359 38.4207 80.3482 38.4004C80.5605 38.3801 80.7171 38.1062 80.6969 37.7815C80.6767 37.4569 80.4846 37.2032 80.2724 37.2184C80.0601 37.2336 79.9034 37.538 79.9236 37.8373Z" fill="#000214"/>
<path d="M83.6324 37.5646C83.6324 37.8943 83.8447 38.1429 84.057 38.1277C84.2692 38.1125 84.4259 37.8334 84.4057 37.5088C84.3855 37.1841 84.1934 36.9254 83.9811 36.9406C83.7689 36.9558 83.6122 37.2348 83.6324 37.5646Z" fill="#000214"/>
<path d="M82.3799 37.813C82.8333 38.7862 83.4194 39.6911 84.1213 40.5017C83.9125 40.6744 83.6693 40.8 83.408 40.87C83.1468 40.94 82.8736 40.9528 82.607 40.9075L82.3799 37.813Z" fill="#EC760A"/>
<path d="M80.9165 41.8841C80.5508 41.8697 80.192 41.7794 79.8628 41.6187C79.5335 41.458 79.241 41.2306 79.0035 40.9507C78.9945 40.9417 78.9874 40.931 78.9825 40.9193C78.9776 40.9075 78.9751 40.8949 78.9751 40.8822C78.9751 40.8694 78.9776 40.8568 78.9825 40.8451C78.9874 40.8333 78.9945 40.8227 79.0035 40.8137C79.0213 40.7969 79.0448 40.7876 79.0692 40.7876C79.0935 40.7876 79.117 40.7969 79.1348 40.8137C79.4046 41.1186 79.7423 41.3552 80.1203 41.5042C80.4984 41.6531 80.906 41.7103 81.3102 41.671C81.3348 41.6696 81.3591 41.6778 81.3779 41.6938C81.3967 41.7099 81.4086 41.7326 81.4112 41.7573C81.4125 41.7703 81.4113 41.7836 81.4074 41.7961C81.4035 41.8087 81.3971 41.8203 81.3886 41.8303C81.3801 41.8402 81.3697 41.8483 81.3579 41.8541C81.3462 41.8599 81.3334 41.8632 81.3203 41.8638C81.1863 41.8798 81.0514 41.8866 80.9165 41.8841Z" fill="#000214"/>
<path d="M77.6058 36.3104C77.5741 36.3049 77.5435 36.2946 77.5149 36.28C77.4728 36.2511 77.4435 36.2069 77.4332 36.1568C77.4228 36.1067 77.4322 36.0544 77.4594 36.0111C77.6208 35.7488 77.8426 35.5293 78.1062 35.3713C78.3697 35.2132 78.6672 35.1212 78.9736 35.103C79.0245 35.103 79.0733 35.1233 79.1092 35.1595C79.1452 35.1956 79.1654 35.2447 79.1654 35.2958C79.1641 35.3465 79.1435 35.3948 79.1078 35.4307C79.0721 35.4666 79.0241 35.4873 78.9736 35.4886C78.7322 35.5062 78.4985 35.5817 78.2921 35.7088C78.0857 35.8359 77.9127 36.0109 77.7875 36.2191C77.7683 36.2495 77.7412 36.274 77.7092 36.2901C77.6772 36.3062 77.6414 36.3132 77.6058 36.3104Z" fill="#000214"/>
<path d="M84.8493 35.7065C84.8178 35.7073 84.7866 35.7003 84.7585 35.6862C84.7303 35.672 84.706 35.6511 84.6878 35.6253C84.5501 35.4274 84.3674 35.2653 84.155 35.1524C83.9427 35.0395 83.7066 34.979 83.4663 34.9759C83.4154 34.9759 83.3667 34.9556 83.3307 34.9195C83.2947 34.8833 83.2745 34.8343 83.2745 34.7832C83.2745 34.732 83.2947 34.683 83.3307 34.6469C83.3667 34.6107 83.4154 34.5904 83.4663 34.5904C83.7704 34.5879 84.0705 34.66 84.3406 34.8006C84.6106 34.9412 84.8425 35.1459 85.0159 35.397C85.0459 35.4381 85.0585 35.4894 85.0509 35.5398C85.0433 35.5902 85.0162 35.6355 84.9755 35.6659C84.9388 35.6926 84.8946 35.7068 84.8493 35.7065Z" fill="#000214"/>
<path d="M85.6516 178.908C85.6345 178.903 85.6191 178.893 85.6074 178.88C85.5958 178.866 85.5883 178.85 85.586 178.832C85.583 178.812 85.5863 178.793 85.5954 178.775C85.6045 178.758 85.6189 178.744 85.6365 178.735C85.8182 178.634 87.4334 177.782 87.928 178.046C87.9739 178.071 88.0127 178.107 88.0409 178.152C88.0692 178.196 88.0859 178.247 88.0895 178.299C88.1041 178.386 88.096 178.475 88.0659 178.558C88.0358 178.641 87.9848 178.714 87.9179 178.771C87.4838 179.177 86.3179 179.035 85.6617 178.913L85.6516 178.908ZM87.8018 178.203C87.4939 178.101 86.6207 178.451 85.9797 178.771C86.8781 178.908 87.5444 178.857 87.7917 178.629C87.834 178.59 87.8663 178.542 87.8857 178.488C87.905 178.434 87.9109 178.376 87.9028 178.319C87.9027 178.298 87.8965 178.277 87.8848 178.259C87.8732 178.241 87.8566 178.227 87.8372 178.218L87.8018 178.203Z" fill="#0C29FF"/>
<path d="M85.6514 178.91H85.6262C85.6118 178.901 85.6003 178.888 85.5931 178.873C85.5859 178.857 85.5834 178.84 85.5858 178.823C85.5858 178.778 85.6817 177.677 86.1865 177.246C86.2585 177.182 86.3425 177.133 86.4335 177.103C86.5246 177.072 86.6208 177.061 86.7164 177.068C86.984 177.094 87.0597 177.225 87.0799 177.332C87.1606 177.794 86.2067 178.692 85.7221 178.92C85.7103 178.923 85.6979 178.924 85.6857 178.922C85.6735 178.921 85.6618 178.916 85.6514 178.91ZM86.7972 177.271H86.7013C86.6309 177.264 86.56 177.273 86.493 177.296C86.4261 177.318 86.3646 177.355 86.3127 177.403C86.0191 177.762 85.8428 178.203 85.8079 178.666C86.3127 178.357 86.9486 177.652 86.8982 177.378C86.8881 177.342 86.878 177.296 86.8023 177.271H86.7972Z" fill="#0C29FF"/>
<path d="M58.5377 179.082L62.5908 179.021L63.5599 169.575L59.5119 169.636L58.5377 179.082Z" fill="#AB5F1A"/>
<path d="M62.8934 178.567L58.4769 178.638C58.3986 178.637 58.3226 178.665 58.2644 178.718C58.2063 178.771 58.1704 178.844 58.1639 178.922L57.7753 182.549C57.7683 182.641 57.7804 182.734 57.8108 182.821C57.8412 182.907 57.8892 182.987 57.9519 183.054C58.0145 183.122 58.0904 183.175 58.1747 183.211C58.259 183.247 58.3499 183.266 58.4416 183.265C60.0315 183.214 60.5312 183.082 62.535 183.052C64.877 183.016 63.7969 183.113 66.5427 183.052C68.2033 183.026 68.4708 181.337 67.7591 181.19C65.5079 180.713 64.9174 179.815 63.9029 178.851C63.6137 178.633 63.2534 178.531 62.8934 178.567Z" fill="#000214"/>
<path opacity="0.2" d="M63.5508 169.575L63.0511 174.445L58.998 174.511L59.4977 169.641L63.5508 169.575Z" fill="black"/>
<path d="M63.8799 128.301C66.1765 109.998 64.8894 97.7411 68.892 88.7314L83.2115 88.498C83.2115 88.498 75.8675 117.414 73.0713 129.63C70.169 142.313 64.6522 172.244 64.6522 172.244L58.1208 172.34C58.1208 172.34 60.8262 143.464 63.8799 128.301Z" fill="#000214"/>
<path d="M57.4173 171.1L57.8311 173.754L65.1196 173.627L65.5436 170.816L57.4173 171.1Z" fill="#0C29FF"/>
<path d="M62.071 178.859C62.0534 178.859 62.0362 178.854 62.021 178.845C62.0059 178.837 61.9935 178.824 61.9852 178.808C61.9743 178.791 61.9686 178.772 61.9686 178.752C61.9686 178.732 61.9743 178.713 61.9852 178.696C62.1265 178.539 63.348 177.175 63.9083 177.261C63.9601 177.268 64.0093 177.289 64.0508 177.321C64.0924 177.353 64.125 177.395 64.1455 177.443C64.1862 177.522 64.2074 177.609 64.2074 177.697C64.2074 177.785 64.1862 177.872 64.1455 177.951C63.8729 178.458 62.7322 178.747 62.076 178.859H62.071ZM63.8527 177.448C63.5297 177.448 62.8433 178.093 62.3385 178.61C63.2269 178.428 63.8527 178.154 63.989 177.854C64.0164 177.804 64.0308 177.747 64.0308 177.689C64.0308 177.632 64.0164 177.575 63.989 177.525C63.9809 177.505 63.9677 177.488 63.9508 177.476C63.9339 177.463 63.914 177.456 63.8931 177.454L63.8527 177.448Z" fill="#0C29FF"/>
<path d="M62.0784 178.858C62.0621 178.854 62.0471 178.846 62.0347 178.835C62.0224 178.823 62.0131 178.809 62.0077 178.793C62.0077 178.747 61.7049 177.682 62.038 177.103C62.0823 177.018 62.1438 176.943 62.2185 176.882C62.2932 176.822 62.3796 176.778 62.4721 176.753C62.7295 176.687 62.8507 176.784 62.9011 176.88C63.1384 177.281 62.5478 178.453 62.1693 178.833C62.1569 178.844 62.1423 178.852 62.1266 178.856C62.1109 178.86 62.0945 178.861 62.0784 178.858ZM62.5831 176.921H62.4822C62.4146 176.938 62.3514 176.97 62.2967 177.014C62.242 177.058 62.1969 177.112 62.1642 177.174C62.0063 177.612 61.9869 178.089 62.1087 178.539C62.4671 178.077 62.8355 177.195 62.6992 176.956C62.6854 176.939 62.6671 176.927 62.6464 176.921C62.6258 176.915 62.6038 176.915 62.5831 176.921Z" fill="#0C29FF"/>
<path d="M79.3952 73.3355C79.5378 73.1079 79.6044 72.8405 79.5853 72.5723C79.5663 72.304 79.4625 72.0489 79.2892 71.844L78.5775 71.0577C78.5253 71.0003 78.4916 70.9284 78.4808 70.8515C78.47 70.7745 78.4826 70.6961 78.5169 70.6265C78.6031 70.4566 78.6357 70.2643 78.6105 70.0753C78.5852 69.8863 78.5033 69.7095 78.3756 69.5685C78.2479 69.4275 78.0804 69.3289 77.8956 69.2859C77.7107 69.2429 77.5172 69.2575 77.3409 69.3278C77.2688 69.3567 77.1897 69.363 77.114 69.3458C77.0383 69.3286 76.9695 69.2887 76.9169 69.2314L76.2052 68.4451C76.0169 68.2528 75.7727 68.1256 75.5078 68.0818C75.2429 68.038 74.971 68.08 74.7313 68.2016L74.5193 68.298L76.9017 70.9207L79.2841 73.5587L79.3952 73.3355Z" fill="white"/>
<path d="M81.9115 76.0722L72.2611 65.4463L58.192 78.3537L67.8425 88.9797L81.9115 76.0722Z" fill="#000214"/>
<path d="M70.6058 58.9002C69.3541 61.3099 68.0821 63.7856 66.8606 66.2358C65.6391 68.6861 64.4278 71.1516 63.3274 73.612C63.0599 74.2258 62.7874 74.8397 62.5501 75.4535L62.3634 75.9101L62.3179 76.0268C62.3001 75.9088 62.2696 75.7932 62.2271 75.6818C62.1564 75.5093 62.0302 75.4231 62.0353 75.4535C62.0403 75.4839 62.106 75.5702 62.2574 75.6666C62.6731 75.9259 63.1212 76.1289 63.5899 76.2703C64.7937 76.635 66.0239 76.9047 67.2695 77.0769C67.9256 77.1733 68.5868 77.2646 69.2531 77.3457L71.2721 77.5537L71.4942 80.5975C70.7471 80.7599 70.0456 80.8664 69.3187 80.9628C68.5919 81.0592 67.8651 81.1353 67.1281 81.1759C66.3912 81.2165 65.6442 81.2367 64.8871 81.2165C64.0991 81.2031 63.3131 81.1336 62.535 81.0085C61.6348 80.8807 60.7566 80.628 59.9255 80.2577C59.3752 80.015 58.8647 79.6901 58.4112 79.2938C57.8107 78.7647 57.3539 78.0909 57.0838 77.3356C56.7804 76.386 56.7645 75.3671 57.0383 74.4085L57.104 74.1751L57.1443 74.0432L57.316 73.5359C57.538 72.8257 57.7803 72.1408 58.0276 71.456C59.0371 68.7267 60.1577 66.1141 61.3539 63.5319C62.5501 60.9497 63.8271 58.4589 65.2202 55.9224L70.6058 58.9002Z" fill="#AB5F1A"/>
<path d="M67.1652 53.3258C63.42 54.4875 59.4931 64.522 59.4931 64.522L67.6397 69.0877C69.1716 66.2087 70.5202 63.235 71.6776 60.1845C73.5906 55.005 71.6928 51.9155 67.1652 53.3258Z" fill="#0C29FF"/>
<path d="M76.7921 79.4831L75.1971 78.4127C74.8431 78.1747 74.4418 78.0172 74.021 77.9511L71.6588 77.5858C71.3448 77.5355 71.0229 77.5766 70.7313 77.7042C70.4397 77.8319 70.1906 78.0408 70.0134 78.3062L69.2058 79.4984C68.9736 81.5276 72.5775 82.5422 72.5775 82.5422L74.4299 83.4249C74.7343 83.5694 75.0798 83.6009 75.4051 83.5135C75.7304 83.4262 76.0144 83.2259 76.2066 82.948L77.2161 81.5022C77.3239 81.3429 77.3987 81.1633 77.4358 80.9742C77.4729 80.7851 77.4716 80.5905 77.432 80.4019C77.3924 80.2133 77.3153 80.0347 77.2054 79.8769C77.0954 79.719 76.9548 79.5851 76.7921 79.4831Z" fill="#AB5F1A"/>
<path d="M144.966 34.0747L144.712 37.0018" stroke="#000214" stroke-width="0.52121" stroke-miterlimit="10"/>
<path d="M141.916 23.0352L145.903 23.3903L145.171 31.705" stroke="#000214" stroke-width="0.52121" stroke-miterlimit="10"/>
<path d="M144.287 24.7607L104.228 21.2241L101.902 47.8413L141.961 51.3779L144.287 24.7607Z" fill="#0C29FF"/>
<path opacity="0.2" d="M122.655 22.8542L116.536 22.314L116.065 27.7061L122.184 28.2464L122.655 22.8542Z" fill="white"/>
<path opacity="0.2" d="M111.042 40.8377L104.828 40.2891L104.349 45.7671L110.564 46.3158L111.042 40.8377Z" fill="white"/>
<g opacity="0.2">
<path d="M113.003 41.3831L118.505 41.8904L118.091 46.654L112.584 46.1467L113.003 41.3831ZM112.675 40.9976L112.2 46.4714L118.414 47.0243L118.893 41.5454L112.675 40.9976Z" fill="white"/>
</g>
<path opacity="0.1" d="M144.269 24.7597L134.967 23.9385L132.641 50.5556L141.943 51.3768L144.269 24.7597Z" fill="black"/>
<path opacity="0.1" d="M101.883 47.8485L141.94 51.3895L142.838 41.1318L101.883 47.8485Z" fill="black"/>
<path d="M142.081 51.4536L102.563 46.4628C101.951 46.3855 101.489 45.8646 101.526 45.2948L103.037 22.3346C103.074 21.7648 103.597 21.3684 104.209 21.4457L143.726 26.4365C144.338 26.5138 144.801 27.0346 144.763 27.6045L143.253 50.5646C143.216 51.1345 142.693 51.5309 142.081 51.4536Z" fill="#161928"/>
<path d="M132.36 44.3849L131.281 46.4286L131.012 44.5281C130.979 44.315 130.805 44.1653 130.609 44.1376L129.07 43.9201L129.049 44.0145C129.362 44.1282 129.719 44.2758 129.923 44.416C130.055 44.5041 130.082 44.5635 130.118 44.7215L130.693 47.3741L131.644 47.5084L133.296 44.5171L132.36 44.3849Z" fill="white"/>
<path d="M133.624 44.3726L132.643 47.587L133.585 47.7195L134.566 44.5051L133.624 44.3726Z" fill="white"/>
<path d="M139.336 44.9403L138.566 44.8436C138.385 44.8208 138.243 44.9033 138.158 45.0361L136.599 47.9238L137.549 48.0433L137.778 47.5701L138.939 47.7161L139.012 48.2273L139.857 48.3335L139.336 44.9403ZM138.063 46.9318L138.628 45.7549L138.818 47.0267L138.063 46.9318Z" fill="white"/>
<path d="M136.279 44.5999C135.374 44.4708 134.704 44.83 134.667 45.4644C134.64 45.9296 135.084 46.263 135.428 46.4684C135.771 46.6738 135.888 46.8041 135.879 46.9451C135.866 47.1706 135.57 47.2136 135.308 47.1905C134.848 47.1249 134.579 46.9727 134.37 46.8434L134.16 47.5383C134.369 47.6535 134.763 47.795 135.177 47.8541C136.143 47.9919 136.797 47.6446 136.852 46.9701C136.902 46.1102 135.602 45.8679 135.639 45.4894C135.646 45.3767 135.776 45.2673 136.038 45.2763C136.177 45.2819 136.531 45.3181 136.935 45.5463L137.144 44.8796C136.902 44.7742 136.631 44.6502 136.279 44.5999Z" fill="white"/>
<path d="M132.876 28.6223L133.304 28.6735L133.008 29.0801L132.535 29.0236C132.328 28.9989 132.242 28.9485 132.251 28.8289C132.123 28.9476 131.957 28.9814 131.765 28.9584C131.588 28.9373 131.459 28.855 131.365 28.7098C131.271 28.5646 131.253 28.3884 131.312 28.1944C131.433 27.7268 131.79 27.5283 132.396 27.6006L132.425 27.6042L132.292 28.0169L132.263 28.0133C132.1 27.9939 131.989 28.0878 131.931 28.2818C131.892 28.4111 131.96 28.5129 132.078 28.527C132.211 28.5429 132.29 28.472 132.35 28.2515L132.694 27.1675L133.315 27.2416L132.876 28.6223ZM134.407 27.1711C134.215 27.1482 134.047 27.2085 134.005 27.3776C133.948 27.5583 134.074 27.6805 134.281 27.7052C134.473 27.7281 134.641 27.6678 134.682 27.4987C134.74 27.318 134.614 27.1958 134.407 27.1711ZM133.502 28.1881L133.768 28.2199L133.292 29.7167L133.927 29.7925L134.041 29.4312L134.233 28.8245L134.537 27.8698L133.799 27.7815L133.502 28.1881ZM136.127 29.0105L136.526 29.0582L136.229 29.4648L135.786 29.4118C135.579 29.3871 135.493 29.3367 135.502 29.2171C135.39 29.3243 135.237 29.3731 135.06 29.3519C134.883 29.3308 134.754 29.2485 134.645 29.1015C134.551 28.9563 134.518 28.7916 134.576 28.5977C134.619 28.4152 134.718 28.2664 134.89 28.153C135.218 27.9377 135.711 27.9162 136.281 28.078L136.384 28.1036L136.089 28.4836L135.986 28.458C135.561 28.367 135.273 28.4397 135.212 28.6603C135.157 28.8144 135.211 28.9011 135.344 28.917C135.477 28.9329 135.557 28.8487 135.616 28.6415L135.653 28.5387L136.274 28.6128L136.127 29.0105ZM139.185 29.3758L139.584 29.4234L139.288 29.83L138.771 29.7683C138.638 29.7524 138.551 29.7152 138.509 29.6701C138.468 29.6249 138.474 29.532 138.512 29.4159L138.646 28.9899C138.686 28.8473 138.66 28.7907 138.542 28.7766C138.424 28.7624 138.376 28.797 138.319 28.9777L138.091 29.6871L137.47 29.613L137.7 28.877C137.74 28.7344 137.714 28.6777 137.596 28.6636C137.537 28.6566 137.492 28.6646 137.459 28.7009C137.428 28.7239 137.409 28.7886 137.372 28.8913L137.16 29.5759L136.54 29.5018L136.827 28.5852L136.561 28.5534L136.857 28.1468L137.242 28.1927C137.448 28.2174 137.519 28.2661 137.526 28.3874C137.638 28.2802 137.805 28.2332 137.967 28.2526C138.204 28.2808 138.346 28.3782 138.38 28.5296C138.554 28.3896 138.721 28.3426 138.913 28.3655C139.312 28.4131 139.43 28.6416 139.296 29.0676L139.185 29.3758ZM139.741 29.1072C139.894 28.6166 140.363 28.5119 140.777 28.5613C141.028 28.5913 141.216 28.6673 141.371 28.8063C141.525 28.9453 141.555 29.1498 141.477 29.4217C141.401 29.6537 141.255 29.8238 141.056 29.9072C140.872 29.979 140.661 30.0074 140.44 29.9809C139.968 29.9112 139.568 29.6625 139.741 29.1072ZM140.832 29.2644C140.87 29.1483 140.787 29.0581 140.683 29.0457C140.521 29.0263 140.412 29.0936 140.37 29.2628C140.346 29.3939 140.415 29.4824 140.533 29.4965C140.696 29.5026 140.79 29.4468 140.832 29.2644Z" fill="white"/>
<path d="M111.431 35.4081L106.432 34.7732C106.177 34.7409 105.98 34.5185 105.996 34.2807L106.207 31.0498C106.223 30.812 106.445 30.6428 106.7 30.6751L111.699 31.3101C111.954 31.3424 112.151 31.5648 112.135 31.8026L111.924 35.0335C111.908 35.2713 111.686 35.4405 111.431 35.4081Z" fill="white"/>
<path d="M110.245 32.4765L112.033 32.7049L112.038 32.6331L110.249 32.4048C110.112 32.3872 109.98 32.5151 109.969 32.6873L109.914 33.534C109.906 33.6632 109.96 33.7714 110.033 33.8386C109.953 33.8862 109.885 33.9789 109.877 34.108L109.85 34.5242C109.824 34.9117 110.1 35.4099 110.498 35.4607L110.502 35.3889C110.135 35.3421 109.887 34.8908 109.912 34.5177L109.939 34.1015C109.947 33.9723 110.046 33.8692 110.138 33.8809L111.942 34.1112L111.946 34.0395L110.158 33.8111C110.051 33.7975 109.982 33.6729 109.99 33.5438L110.045 32.6971C110.04 32.5516 110.138 32.4629 110.245 32.4765Z" fill="#161928"/>
<path d="M108.268 32.0078L108.325 31.154C108.339 30.9369 108.223 30.7909 108.083 30.7732L106.263 30.543L106.259 30.6153L108.078 30.8456C108.187 30.8594 108.257 30.985 108.246 31.1586L108.19 32.0124C108.181 32.1426 108.08 32.2466 107.987 32.2348L106.167 32.0045L106.163 32.0769L107.982 32.3071C108.091 32.3209 108.161 32.4465 108.153 32.5768L108.097 33.4305C108.088 33.5608 107.987 33.6647 107.894 33.6529L106.074 33.4227L106.07 33.495L107.889 33.7253C107.998 33.7391 108.068 33.8647 108.06 33.9949L108.032 34.4146C108.008 34.7763 107.7 35.175 107.327 35.1278L107.322 35.2002C107.726 35.2513 108.068 34.8276 108.093 34.4369L108.121 34.0173C108.129 33.887 108.074 33.7779 108 33.7101C108.081 33.6621 108.15 33.5687 108.159 33.4384L108.215 32.5846C108.223 32.4544 108.168 32.3452 108.094 32.2775C108.208 32.2189 108.261 32.1235 108.268 32.0078Z" fill="#161928"/>
<path d="M109.466 34.5651L108.391 34.4429L108.382 34.5658L109.457 34.688L109.466 34.5651Z" fill="#161928"/>
<path d="M109.735 31.634L108.661 31.5117L108.652 31.6346L109.726 31.7568L109.735 31.634Z" fill="#161928"/>
<path d="M109.466 34.5651L108.391 34.4429L108.382 34.5658L109.457 34.688L109.466 34.5651Z" fill="#161928"/>
<path d="M109.735 31.634L108.661 31.5117L108.652 31.6346L109.726 31.7568L109.735 31.634Z" fill="#161928"/>
<path d="M114.837 33.2206C114.804 32.9521 114.737 32.6792 114.618 32.4287C114.589 32.3661 114.543 32.3012 114.544 32.2867C114.512 32.2532 114.413 32.2254 114.362 32.2478C114.327 32.258 114.291 32.3118 114.289 32.3409C114.288 32.3554 114.317 32.418 114.363 32.4974C114.525 32.8564 114.591 33.1439 114.568 33.5076C114.544 33.8859 114.442 34.1804 114.221 34.4886C114.166 34.5692 114.165 34.5838 114.163 34.6129C114.177 34.6588 114.208 34.7068 114.257 34.728C114.273 34.7302 114.307 34.7346 114.307 34.7346C114.307 34.7346 114.323 34.7368 114.34 34.739C114.39 34.7457 114.443 34.6941 114.519 34.5574C114.667 34.3277 114.766 34.0914 114.833 33.8216C114.84 33.7052 114.86 33.3851 114.837 33.2206Z" fill="white"/>
<path d="M114.206 32.9292C114.165 32.7918 114.047 32.5416 114.016 32.5082C113.969 32.4579 113.854 32.4424 113.801 32.4938C113.748 32.5452 113.746 32.5743 113.82 32.7306C113.922 32.964 113.962 33.1159 113.981 33.3528C113.997 33.6332 113.913 33.9148 113.747 34.1707C113.711 34.2244 113.674 34.2926 113.656 34.3049C113.636 34.3607 113.681 34.44 113.746 34.4634C113.843 34.5058 113.93 34.4443 114.042 34.2397C114.283 33.8329 114.344 33.3871 114.206 32.9292Z" fill="white"/>
<path d="M113.423 32.6736C113.374 32.6669 113.358 32.6647 113.324 32.6892C113.255 32.7382 113.253 32.7672 113.326 32.9233C113.485 33.281 113.466 33.5997 113.266 33.9084C113.212 33.9886 113.194 34.0153 113.208 34.0465C113.222 34.0922 113.252 34.1402 113.284 34.1591C113.3 34.1613 113.332 34.1803 113.348 34.1825C113.414 34.177 113.449 34.1525 113.521 34.0455C113.647 33.8583 113.706 33.7057 113.72 33.4739C113.733 33.2566 113.695 33.076 113.609 32.8598C113.536 32.7182 113.505 32.6848 113.423 32.6736Z" fill="white"/>
<path d="M112.938 32.8662C112.858 32.8694 112.805 32.9347 112.817 33.0089C112.816 33.0233 112.846 33.0711 112.86 33.1021C112.918 33.212 112.931 33.2574 112.924 33.3871C112.916 33.5168 112.898 33.5578 112.828 33.6496C112.775 33.7149 112.758 33.7415 112.771 33.787C112.785 33.818 112.815 33.8657 112.846 33.8846C112.924 33.9247 112.99 33.9049 113.059 33.8274C113.25 33.6072 113.269 33.2758 113.108 33.0062C113.05 32.8963 113.002 32.8752 112.938 32.8662Z" fill="white"/>
</svg>
