<!-- Generated by IcoMoon.io -->
<svg version="1.1" xmlns="http://www.w3.org/2000/svg" width="32" height="32" viewBox="0 0 32 32">
<title>accountFilled</title>
<path d="M0 7.111c0-2.946 2.388-5.333 5.333-5.333h21.333c0.982 0 1.778 0.796 1.778 1.778s-0.796 1.778-1.778 1.778h-21.333c-0.982 0-1.778 0.796-1.778 1.778s0.796 1.778 1.778 1.778h23.111c1.964 0 3.556 1.592 3.556 3.556v14.222c0 1.964-1.592 3.556-3.556 3.556h-24.889c-1.964 0-3.556-1.592-3.556-3.556v-19.556zM23.111 22.222c1.473 0 2.667-1.194 2.667-2.667s-1.194-2.667-2.667-2.667-2.667 1.194-2.667 2.667c0 1.473 1.194 2.667 2.667 2.667z"></path>
</svg>
