<!-- Generated by IcoMoon.io -->
<svg version="1.1" xmlns="http://www.w3.org/2000/svg" width="32" height="32" viewBox="0 0 32 32">
<title>add</title>
<path d="M26.182 16c0 0.703-0.752 1.455-1.455 1.455h-7.273v7.273c0 0.703-0.752 1.455-1.455 1.455s-1.455-0.752-1.455-1.455v-7.273h-7.273c-0.703 0-1.455-0.752-1.455-1.455s0.752-1.455 1.455-1.455h7.273v-7.273c0-0.703 0.752-1.455 1.455-1.455s1.455 0.752 1.455 1.455v7.273h7.273c0.703 0 1.455 0.752 1.455 1.455z"></path>
<path d="M32 16c0-8.837-7.163-16-16-16s-16 7.163-16 16c0 8.837 7.163 16 16 16s16-7.163 16-16zM29.091 16c0 7.23-5.861 13.091-13.091 13.091s-13.091-5.861-13.091-13.091c0-7.23 5.861-13.091 13.091-13.091s13.091 5.861 13.091 13.091z"></path>
</svg>
