<svg width="24" height="24" viewBox="0 0 24 24" fill="none" xmlns="http://www.w3.org/2000/svg">
<path fill-rule="evenodd" clip-rule="evenodd" d="M13 4C13 2.89543 13.8954 2 15 2H20C21.1046 2 22 2.89543 22 4V9C22 10.1046 21.1046 11 20 11H15C13.8954 11 13 10.1046 13 9V4ZM15 4H20V9H15V4Z" fill="#1C1C1F"/>
<path fill-rule="evenodd" clip-rule="evenodd" d="M2 15C2 13.8954 2.89543 13 4 13H9C10.1046 13 11 13.8954 11 15V20C11 21.1046 10.1046 22 9 22H4C2.89543 22 2 21.1046 2 20V15ZM4 15H9V20H4L4 15Z" fill="#1C1C1F"/>
<path fill-rule="evenodd" clip-rule="evenodd" d="M4 2C2.89543 2 2 2.89543 2 4V9C2 10.1046 2.89543 11 4 11H9C10.1046 11 11 10.1046 11 9V4C11 2.89543 10.1046 2 9 2H4ZM9 4H4L4 9H9V4Z" fill="#1C1C1F"/>
<path d="M17.5 22C16.9477 22 16.5 21.5523 16.5 21L16.5001 18.5L14 18.5C13.4477 18.5 13 18.0523 13 17.5C13 16.9477 13.4477 16.5 14 16.5L16.5001 16.5L16.5002 14C16.5002 13.4477 16.9479 13 17.5002 13C18.0525 13 18.5002 13.4477 18.5002 14L18.5001 16.5L21 16.5C21.5523 16.5 22 16.9477 22 17.5C22 18.0523 21.5523 18.5 21 18.5L18.5001 18.5L18.5 21C18.5 21.5523 18.0523 22 17.5 22Z" fill="#1C1C1F"/>
</svg>
