<!-- Generated by IcoMoon.io -->
<svg version="1.1" xmlns="http://www.w3.org/2000/svg" width="32" height="32" viewBox="0 0 32 32">
<title>addCircularGraph</title>
<path d="M22.4 27.2c-0.884-0-1.6-0.716-1.6-1.6l0-1.6h-1.6c-0.884 0-1.6-0.716-1.6-1.6s0.716-1.6 1.6-1.6h1.6v-1.6c0-0.884 0.716-1.6 1.6-1.6s1.6 0.716 1.6 1.6v1.6h1.6c0.884 0 1.6 0.716 1.6 1.6s-0.716 1.6-1.6 1.6h-1.6l-0 1.6c0 0.884-0.716 1.6-1.6 1.6z"></path>
<path d="M12.002 3.84c-2.438 0.801-4.578 2.317-6.143 4.35s-2.484 4.489-2.636 7.051c-0.149 2.502 0.441 4.991 1.692 7.159 1.352 2.341 3.409 4.194 5.879 5.293 1.408 0.627 2.909 0.991 4.43 1.083-1.508-1.696-2.423-3.929-2.423-6.376 0-5.302 4.298-9.6 9.6-9.6s9.6 4.298 9.6 9.6c0 5.302-4.298 9.6-9.6 9.6-1.088 0-2.133-0.181-3.108-0.514l0.035 0.165c-1.057 0.225-2.128 0.34-3.197 0.349-2.273 0.018-4.538-0.448-6.637-1.383s-3.961-2.305-5.469-4.007c-0.66-0.745-1.252-1.554-1.767-2.417-0.553-0.928-1.008-1.904-1.361-2.914-0.695-1.988-0.994-4.104-0.868-6.227 0.19-3.202 1.338-6.272 3.295-8.813s4.632-4.435 7.679-5.437c2.021-0.664 4.143-0.916 6.242-0.752 1.065 0.083 2.125 0.273 3.163 0.571l0.002 0.001-0.882 3.076c-2.466-0.707-5.089-0.657-7.526 0.144zM22.4 28.8c3.535 0 6.4-2.865 6.4-6.4s-2.865-6.4-6.4-6.4c-3.535 0-6.4 2.865-6.4 6.4s2.865 6.4 6.4 6.4z"></path>
<path d="M24.431 6.369l2.108-2.408c0.811 0.71 1.547 1.499 2.195 2.351 0.323 0.424 0.624 0.864 0.903 1.319 0.56 0.913 1.029 1.883 1.398 2.896l-3.007 1.094c-0.737-2.026-1.975-3.833-3.597-5.253z"></path>
</svg>
