<!-- Generated by IcoMoon.io -->
<svg version="1.1" xmlns="http://www.w3.org/2000/svg" width="32" height="32" viewBox="0 0 32 32">
<title>addMoney</title>
<path d="M10.667 9.905c0-2.525 2.047-4.571 4.571-4.571s4.571 2.047 4.571 4.571-2.047 4.571-4.571 4.571c-2.525 0-4.571-2.047-4.571-4.571z"></path>
<path d="M4.571 9.905c0-0.842 0.682-1.524 1.524-1.524s1.524 0.682 1.524 1.524c0 0.842-0.682 1.524-1.524 1.524s-1.524-0.682-1.524-1.524z"></path>
<path d="M24.381 8.381c-0.842 0-1.524 0.682-1.524 1.524s0.682 1.524 1.524 1.524c0.842 0 1.524-0.682 1.524-1.524s-0.682-1.524-1.524-1.524z"></path>
<path d="M22.857 26.666c-0.842 0-1.524-0.682-1.524-1.524v-1.523h-1.524c-0.841 0-1.524-0.682-1.524-1.524s0.682-1.524 1.524-1.524h1.524v-1.524c0-0.842 0.682-1.524 1.524-1.524s1.524 0.682 1.524 1.524v1.524l1.524-0c0.842 0 1.524 0.682 1.524 1.524s-0.682 1.524-1.524 1.524l-1.524 0v1.524c0 0.842-0.682 1.524-1.524 1.524z"></path>
<path d="M27.429 0.762h-24.381c-1.683 0-3.048 1.364-3.048 3.048v21.333c0 1.683 1.364 3.048 3.048 3.048h12.995c1.674 1.87 4.107 3.048 6.815 3.048 5.049 0 9.143-4.093 9.143-9.143 0-1.869-0.561-3.608-1.524-5.056v-13.23c0-1.683-1.364-3.048-3.048-3.048zM27.429 3.81v10.366c-1.345-0.778-2.906-1.223-4.571-1.223-2.708 0-5.141 1.177-6.815 3.048h-12.995v-12.19h24.381zM3.048 19.048h11.187c-0.173 0.49-0.306 0.999-0.394 1.524h-10.793v-1.524zM3.048 23.619h10.793c0.088 0.524 0.221 1.034 0.394 1.524h-11.187v-1.524zM22.857 28.19c-3.366 0-6.095-2.729-6.095-6.095s2.729-6.095 6.095-6.095c3.366 0 6.095 2.729 6.095 6.095s-2.729 6.095-6.095 6.095z"></path>
</svg>
