<svg width="20" height="21" viewBox="0 0 20 21" fill="none" xmlns="http://www.w3.org/2000/svg">
<path d="M12.5 9.49023C12.5 9.86107 12.39 10.2236 12.184 10.5319C11.978 10.8403 11.6851 11.0806 11.3425 11.2225C10.9999 11.3644 10.6229 11.4016 10.2592 11.3292C9.89549 11.2569 9.5614 11.0783 9.29917 10.8161C9.03695 10.5538 8.85837 10.2197 8.78603 9.85603C8.71368 9.49231 8.75081 9.11531 8.89273 8.7727C9.03464 8.43009 9.27496 8.13726 9.58331 7.93123C9.89165 7.7252 10.2542 7.61523 10.625 7.61523C11.1223 7.61523 11.5992 7.81278 11.9508 8.16441C12.3025 8.51604 12.5 8.99295 12.5 9.49023ZM17.5 3.86523V17.6152C17.5 17.9468 17.3683 18.2647 17.1339 18.4991C16.8995 18.7335 16.5815 18.8652 16.25 18.8652H5C4.66848 18.8652 4.35054 18.7335 4.11612 18.4991C3.8817 18.2647 3.75 17.9468 3.75 17.6152V15.7402H2.5C2.33424 15.7402 2.17527 15.6744 2.05806 15.5572C1.94085 15.44 1.875 15.281 1.875 15.1152C1.875 14.9495 1.94085 14.7905 2.05806 14.6733C2.17527 14.5561 2.33424 14.4902 2.5 14.4902H3.75V11.3652H2.5C2.33424 11.3652 2.17527 11.2994 2.05806 11.1822C1.94085 11.065 1.875 10.906 1.875 10.7402C1.875 10.5745 1.94085 10.4155 2.05806 10.2983C2.17527 10.1811 2.33424 10.1152 2.5 10.1152H3.75V6.99023H2.5C2.33424 6.99023 2.17527 6.92439 2.05806 6.80718C1.94085 6.68997 1.875 6.53099 1.875 6.36523C1.875 6.19947 1.94085 6.0405 2.05806 5.92329C2.17527 5.80608 2.33424 5.74023 2.5 5.74023H3.75V3.86523C3.75 3.53371 3.8817 3.21577 4.11612 2.98135C4.35054 2.74693 4.66848 2.61523 5 2.61523H16.25C16.5815 2.61523 16.8995 2.74693 17.1339 2.98135C17.3683 3.21577 17.5 3.53371 17.5 3.86523ZM14.875 13.4902C14.3216 12.7483 13.5836 12.164 12.7344 11.7957C13.1998 11.3708 13.5258 10.8151 13.6697 10.2016C13.8137 9.58813 13.7688 8.94544 13.5409 8.35791C13.313 7.77038 12.9129 7.26547 12.3929 6.90943C11.873 6.5534 11.2575 6.36288 10.6273 6.36288C9.99718 6.36288 9.38173 6.5534 8.86178 6.90943C8.34182 7.26547 7.94166 7.77038 7.71379 8.35791C7.48593 8.94544 7.44102 9.58813 7.58495 10.2016C7.72888 10.8151 8.05493 11.3708 8.52031 11.7957C7.6694 12.1633 6.92972 12.7476 6.375 13.4902C6.32575 13.5559 6.28992 13.6306 6.26955 13.7101C6.24918 13.7896 6.24467 13.8724 6.25628 13.9536C6.26789 14.0349 6.29539 14.113 6.3372 14.1837C6.37902 14.2543 6.43434 14.316 6.5 14.3652C6.56566 14.4145 6.64038 14.4503 6.71989 14.4707C6.7994 14.491 6.88214 14.4956 6.96339 14.484C7.04464 14.4723 7.12281 14.4448 7.19343 14.403C7.26406 14.3612 7.32575 14.3059 7.375 14.2402C7.75341 13.7357 8.24409 13.3262 8.8082 13.0441C9.3723 12.7621 9.99432 12.6152 10.625 12.6152C11.2557 12.6152 11.8777 12.7621 12.4418 13.0441C13.0059 13.3262 13.4966 13.7357 13.875 14.2402C13.9745 14.3728 14.1225 14.4605 14.2866 14.484C14.4507 14.5074 14.6174 14.4647 14.75 14.3652C14.8826 14.2658 14.9703 14.1177 14.9937 13.9536C15.0172 13.7895 14.9745 13.6228 14.875 13.4902Z" fill="#0C29FF"/>
</svg>
