<!-- Generated by IcoMoon.io -->
<svg version="1.1" xmlns="http://www.w3.org/2000/svg" width="32" height="32" viewBox="0 0 32 32">
<title>alert</title>
<path d="M14.545 11.636c0-0.803 0.651-1.455 1.455-1.455s1.455 0.651 1.455 1.455v8.727c0 0.803-0.651 1.455-1.455 1.455s-1.455-0.651-1.455-1.455v-8.727z"></path>
<path d="M16 23.273c-0.803 0-1.455 0.651-1.455 1.455s0.651 1.455 1.455 1.455c0.803 0 1.455-0.651 1.455-1.455s-0.651-1.455-1.455-1.455z"></path>
<path d="M11.667 4.86c1.879-3.416 6.788-3.416 8.667 0l10.57 19.218c1.6 2.908-0.504 6.467-3.823 6.467h-22.16c-3.319 0-5.423-3.558-3.824-6.467l10.57-19.218zM17.784 6.262c-0.774-1.407-2.795-1.407-3.569 0l-10.57 19.218c-0.533 0.969 0.168 2.155 1.274 2.155h22.16c1.106 0 1.808-1.186 1.274-2.155l-10.57-19.218z"></path>
</svg>
