<!-- Generated by IcoMoon.io -->
<svg version="1.1" xmlns="http://www.w3.org/2000/svg" width="32" height="32" viewBox="0 0 32 32">
<title>arrowDownLeft</title>
<path d="M0.147 30.754c0.098 0.24 0.244 0.465 0.439 0.66 0.193 0.193 0.415 0.338 0.653 0.436 0.235 0.097 0.492 0.15 0.761 0.15h22c1.105 0 2-0.895 2-2s-0.895-2-2-2h-17.172l24.586-24.586c0.781-0.781 0.781-2.047 0-2.828s-2.047-0.781-2.828 0l-24.586 24.586v-17.172c0-1.105-0.895-2-2-2s-2 0.895-2 2v22c0 0.019 0 0.039 0.001 0.058z"></path>
</svg>
