<svg width="16" height="17" viewBox="0 0 16 17" fill="none" xmlns="http://www.w3.org/2000/svg">
<path opacity="0.2" d="M12 6V12.5H5.5L12 6Z" fill="#000214"/>
<path d="M12.1913 5.53813C12.0999 5.50023 11.9994 5.49027 11.9024 5.50952C11.8054 5.52877 11.7162 5.57635 11.6463 5.64625L8.75003 8.54313L4.35378 4.14625C4.25996 4.05243 4.13272 3.99973 4.00003 3.99973C3.86735 3.99973 3.7401 4.05243 3.64628 4.14625C3.55246 4.24007 3.49976 4.36732 3.49976 4.5C3.49976 4.63269 3.55246 4.75993 3.64628 4.85375L8.04316 9.25L5.14628 12.1463C5.07628 12.2162 5.02859 12.3053 5.00927 12.4023C4.98994 12.4994 4.99985 12.6 5.03772 12.6914C5.0756 12.7828 5.13975 12.8609 5.22204 12.9159C5.30434 12.9708 5.40109 13.0001 5.50003 13H12C12.1326 13 12.2598 12.9473 12.3536 12.8536C12.4474 12.7598 12.5 12.6326 12.5 12.5V6C12.5 5.90111 12.4707 5.80445 12.4157 5.72224C12.3608 5.64002 12.2827 5.57595 12.1913 5.53813ZM11.5 12H6.70691L9.10316 9.60375L11.5 7.20688V12Z" fill="#000214"/>
</svg>
