<!-- Generated by IcoMoon.io -->
<svg version="1.1" xmlns="http://www.w3.org/2000/svg" width="32" height="32" viewBox="0 0 32 32">
<title>arrowTopRight</title>
<path d="M32 24v-21.999c0-0.002 0-0.005 0-0.007-0.002-0.548-0.223-1.044-0.582-1.404-0.003-0.003-0.006-0.006-0.008-0.008-0.191-0.19-0.41-0.333-0.644-0.43-0.236-0.098-0.494-0.152-0.766-0.152h-22c-1.105 0-2 0.895-2 2s0.895 2 2 2h17.172l-24.586 24.586c-0.781 0.781-0.781 2.047 0 2.828s2.047 0.781 2.828 0l24.586-24.586v17.172c0 1.105 0.895 2 2 2s2-0.895 2-2z"></path>
</svg>
