<!-- Generated by IcoMoon.io -->
<svg version="1.1" xmlns="http://www.w3.org/2000/svg" width="32" height="32" viewBox="0 0 32 32">
<title>arrowDownRight</title>
<path d="M29.87 30.927c0.232-0.092 0.449-0.232 0.637-0.419 0.183-0.183 0.321-0.395 0.413-0.621 0.089-0.219 0.139-0.459 0.139-0.71v-20.706c0-1.040-0.843-1.882-1.882-1.882s-1.882 0.843-1.882 1.882v16.162l-23.14-23.14c-0.735-0.735-1.927-0.735-2.662 0s-0.735 1.927 0 2.662l23.14 23.14h-16.162c-1.040 0-1.882 0.843-1.882 1.882s0.843 1.882 1.882 1.882h20.706c0.245 0 0.479-0.047 0.694-0.132z"></path>
</svg>
