<svg width="24" height="24" viewBox="0 0 24 24" fill="none" xmlns="http://www.w3.org/2000/svg">
<path d="M11 17C10.4477 17 10 17.4477 10 18C10 18.5523 10.4477 19 11 19H17C17.5523 19 18 18.5523 18 18C18 17.4477 17.5523 17 17 17H11Z" fill="#1C1C1F"/>
<path fill-rule="evenodd" clip-rule="evenodd" d="M20 22C21.1046 22 22 21.1046 22 20V4C22 2.89543 21.1046 2 20 2H4C2.89543 2 2 2.89543 2 4V20C2 21.1046 2.89543 22 4 22H20ZM4 16H20V20H4V16ZM6 4H4V6H6V4ZM4 8H6V10H4V8ZM4 12H6V14H4V12ZM16 14H8V4H16V14ZM20 14H18V12H20V14ZM18 4V6H20V4H18ZM18 8V10H20V8H18Z" fill="#1C1C1F"/>
</svg>
