<svg width="22" height="22" viewBox="0 0 22 22" fill="none" xmlns="http://www.w3.org/2000/svg">
<path fill-rule="evenodd" clip-rule="evenodd" d="M8 6C8 4.34315 9.34315 3 11 3C12.6569 3 14 4.34315 14 6C14 7.65685 12.6569 9 11 9C9.34315 9 8 7.65685 8 6ZM11 7C10.4477 7 10 6.55228 10 6C10 5.44772 10.4477 5 11 5C11.5523 5 12 5.44772 12 6C12 6.55228 11.5523 7 11 7Z" fill="#1C1C1F"/>
<path fill-rule="evenodd" clip-rule="evenodd" d="M18 12H19.2629C20.8603 12 21.8131 10.2197 20.927 8.8906L16.1874 1.7812C15.4456 0.668405 14.1966 0 12.8592 0H9.14071C7.80329 0 6.55437 0.668405 5.81251 1.7812L1.0729 8.8906C0.186832 10.2197 1.13961 12 2.73701 12H4L4 16C2.34315 16 1 17.3431 1 19C1 20.6569 2.34315 22 4 22H18C19.6569 22 21 20.6569 21 19C21 17.3431 19.6569 16 18 16V12ZM2.73701 10L7.47661 2.8906C7.84754 2.3342 8.472 2 9.14071 2H12.8592C13.5279 2 14.1524 2.3342 14.5233 2.8906L19.2629 10H2.73701ZM14 16V12H16V16H14ZM18 18C18.5523 18 19 18.4477 19 19C19 19.5523 18.5523 20 18 20H4C3.44772 20 3 19.5523 3 19C3 18.4477 3.44772 18 4 18H18ZM8 12V16H6V12H8ZM12 12H10V16H12V12Z" fill="#1C1C1F"/>
</svg>
