<svg width="20" height="20" viewBox="0 0 20 20" fill="none" xmlns="http://www.w3.org/2000/svg">
<path fill-rule="evenodd" clip-rule="evenodd" d="M4.03521 4.48242C4.22873 4.38566 4.38566 4.22873 4.48242 4.03521L6.10559 0.788871C6.47411 0.0518223 7.52592 0.0518214 7.89444 0.78887L9.51761 4.03521C9.61437 4.22873 9.7713 4.38566 9.96482 4.48242L13.2112 6.10559C13.9482 6.47411 13.9482 7.52592 13.2112 7.89444L9.96482 9.51761C9.7713 9.61437 9.61438 9.7713 9.51761 9.96482L7.89444 13.2112C7.52592 13.9482 6.47411 13.9482 6.10559 13.2112L4.48242 9.96482C4.38566 9.7713 4.22873 9.61438 4.03521 9.51761L0.788871 7.89444C0.0518223 7.52592 0.0518214 6.47411 0.78887 6.10559L4.03521 4.48242ZM7.72876 9.0704L7.00002 10.5279L6.27128 9.0704C5.98098 8.48982 5.51022 8.01905 4.92963 7.72876L3.47215 7.00002L4.92963 6.27128C5.51022 5.98098 5.98098 5.51022 6.27128 4.92963L7.00002 3.47215L7.72876 4.92963C8.01905 5.51022 8.48981 5.98098 9.0704 6.27128L10.5279 7.00002L9.0704 7.72876C8.48982 8.01905 8.01905 8.48981 7.72876 9.0704Z" fill="#1C1C1F"/>
<path fill-rule="evenodd" clip-rule="evenodd" d="M12.7019 13.1491C12.8954 13.0523 13.0523 12.8954 13.1491 12.7019L14.1056 10.7889C14.4741 10.0518 15.5259 10.0518 15.8944 10.7889L16.8509 12.7019C16.9477 12.8954 17.1046 13.0523 17.2982 13.1491L19.2112 14.1056C19.9482 14.4741 19.9482 15.5259 19.2112 15.8944L17.2982 16.8509C17.1046 16.9477 16.9477 17.1046 16.8509 17.2982L15.8944 19.2112C15.5259 19.9482 14.4741 19.9482 14.1056 19.2112L13.1491 17.2982C13.0523 17.1046 12.8954 16.9477 12.7019 16.8509L10.7889 15.8944C10.0518 15.5259 10.0518 14.4741 10.7889 14.1056L12.7019 13.1491ZM15.0621 16.4037L15 16.5279L14.9379 16.4037C14.6477 15.8231 14.1769 15.3524 13.5963 15.0621L13.4722 15L13.5963 14.9379C14.1769 14.6477 14.6477 14.1769 14.9379 13.5963L15 13.4722L15.0621 13.5963C15.3524 14.1769 15.8231 14.6477 16.4037 14.9379L16.5279 15L16.4037 15.0621C15.8231 15.3524 15.3524 15.8231 15.0621 16.4037Z" fill="#1C1C1F"/>
</svg>
