<svg width="24" height="24" viewBox="0 0 24 24" fill="none" xmlns="http://www.w3.org/2000/svg">
<path d="M4 20H15V19C14.2322 19 13.4645 18.7071 12.8787 18.1213C12.8391 18.0817 12.8008 18.0412 12.7638 18H4L4 17H12.1708C11.9431 16.3541 11.9431 15.6459 12.1708 15H4L4 14H12.7638C12.8008 13.9588 12.8391 13.9183 12.8787 13.8787L14.7574 12H4V4H20V10.7639C20.0413 10.8008 20.0817 10.8391 20.1213 10.8787L22 12.7574V4C22 2.89543 21.1046 2 20 2H4C2.89543 2 2 2.89543 2 4V18C2 19.1046 2.89543 20 4 20Z" fill="#1C1C1F"/>
<path d="M12 5C10.3431 5 9 6.34315 9 8C9 9.65685 10.3431 11 12 11C13.6569 11 15 9.65685 15 8C15 6.34315 13.6569 5 12 5Z" fill="#1C1C1F"/>
<path d="M5 8C5 7.44772 5.44772 7 6 7C6.55228 7 7 7.44772 7 8C7 8.55228 6.55228 9 6 9C5.44772 9 5 8.55228 5 8Z" fill="#1C1C1F"/>
<path d="M18 7C17.4477 7 17 7.44772 17 8C17 8.55228 17.4477 9 18 9C18.5523 9 19 8.55228 19 8C19 7.44772 18.5523 7 18 7Z" fill="#1C1C1F"/>
<path d="M14.2929 15.2929C13.9024 15.6834 13.9024 16.3166 14.2929 16.7071C14.6834 17.0976 15.3166 17.0976 15.7071 16.7071L17 15.4142V21C17 21.5523 17.4477 22 18 22C18.5523 22 19 21.5523 19 21V15.4142L20.2929 16.7071C20.6834 17.0976 21.3166 17.0976 21.7071 16.7071C22.0976 16.3166 22.0976 15.6834 21.7071 15.2929L18.7071 12.2929C18.5607 12.1464 18.3801 12.0549 18.191 12.0183C18.128 12.0061 18.064 12 18 12C17.8633 12 17.7331 12.0274 17.6144 12.077C17.5875 12.0883 17.561 12.1007 17.535 12.1144C17.4479 12.1602 17.3661 12.2197 17.2929 12.2929L14.2929 15.2929Z" fill="#1C1C1F"/>
</svg>
