<!-- Generated by IcoMoon.io -->
<svg version="1.1" xmlns="http://www.w3.org/2000/svg" width="32" height="32" viewBox="0 0 32 32">
<title>box</title>
<path d="M24.275 0c0.849 0 1.663 0.337 2.263 0.937l3.588 3.588c1.2 1.2 1.875 2.828 1.875 4.525v19.749c0 1.767-1.433 3.2-3.2 3.2h-25.6c-1.767 0-3.2-1.433-3.2-3.2v-19.749c0-1.697 0.674-3.325 1.875-4.525l3.588-3.588c0.6-0.6 1.414-0.937 2.263-0.937h16.549zM14.4 3.2h-6.675l-3.2 3.2h9.874v-3.2zM17.6 3.2v3.2h9.875l-3.2-3.2h-6.675zM3.2 9.6v19.2h25.6v-19.2h-25.6z"></path>
</svg>
