<!-- Generated by IcoMoon.io -->
<svg version="1.1" xmlns="http://www.w3.org/2000/svg" width="32" height="32" viewBox="0 0 32 32">
<title>calendarRefresh</title>
<path d="M6.545 2.909c0-1.607 1.302-2.909 2.909-2.909s2.909 1.302 2.909 2.909h5.818c0-1.607 1.302-2.909 2.909-2.909s2.909 1.302 2.909 2.909c3.213 0 5.818 2.605 5.818 5.818v8.912c-0.732-1.322-1.718-2.496-2.909-3.45v-2.553h-23.273v11.636c0 1.607 1.302 2.909 2.909 2.909h1.824c0.262 1.014 0.66 1.993 1.189 2.909h-3.014c-3.213 0-5.818-2.605-5.818-5.818v-14.545c0-3.213 2.605-5.818 5.818-5.818z"></path>
<path d="M23.037 18.552c-1.098-0.791-2.439-1.175-3.79-1.084s-2.628 0.649-3.611 1.58c-0.983 0.931-1.611 2.175-1.775 3.519s0.145 2.703 0.876 3.843c0.73 1.14 1.835 1.99 3.124 2.403s2.682 0.363 3.939-0.14l1.082 2.7c-1.885 0.755-3.975 0.83-5.909 0.21s-3.591-1.894-4.687-3.605c-1.095-1.71-1.56-3.749-1.313-5.765s1.188-3.883 2.663-5.279c1.475-1.396 3.39-2.235 5.417-2.37s4.037 0.439 5.684 1.626c1.648 1.187 2.83 2.911 3.343 4.876 0.2 0.766 0.294 1.55 0.282 2.331l0.427-0.427c0.568-0.568 1.489-0.568 2.057 0s0.568 1.489 0 2.057l-2.498 2.498c-0.795 0.795-2.084 0.795-2.88 0l-2.498-2.498c-0.568-0.568-0.568-1.489 0-2.057s1.489-0.568 2.057 0l0.425 0.425c0.011-0.534-0.051-1.070-0.188-1.594-0.342-1.31-1.13-2.46-2.229-3.251z"></path>
</svg>
