<svg width="16" height="17" viewBox="0 0 16 17" fill="none" xmlns="http://www.w3.org/2000/svg">
<path opacity="0.2" d="M13.5 3.5V6H2.5V3.5C2.5 3.36739 2.55268 3.24021 2.64645 3.14645C2.74021 3.05268 2.86739 3 3 3H13C13.1326 3 13.2598 3.05268 13.3536 3.14645C13.4473 3.24021 13.5 3.36739 13.5 3.5Z" fill="#000214"/>
<path d="M13 2.5H11.5V2C11.5 1.86739 11.4473 1.74021 11.3536 1.64645C11.2598 1.55268 11.1326 1.5 11 1.5C10.8674 1.5 10.7402 1.55268 10.6464 1.64645C10.5527 1.74021 10.5 1.86739 10.5 2V2.5H5.5V2C5.5 1.86739 5.44732 1.74021 5.35355 1.64645C5.25979 1.55268 5.13261 1.5 5 1.5C4.86739 1.5 4.74021 1.55268 4.64645 1.64645C4.55268 1.74021 4.5 1.86739 4.5 2V2.5H3C2.73478 2.5 2.48043 2.60536 2.29289 2.79289C2.10536 2.98043 2 3.23478 2 3.5V13.5C2 13.7652 2.10536 14.0196 2.29289 14.2071C2.48043 14.3946 2.73478 14.5 3 14.5H13C13.2652 14.5 13.5196 14.3946 13.7071 14.2071C13.8946 14.0196 14 13.7652 14 13.5V3.5C14 3.23478 13.8946 2.98043 13.7071 2.79289C13.5196 2.60536 13.2652 2.5 13 2.5ZM4.5 3.5V4C4.5 4.13261 4.55268 4.25979 4.64645 4.35355C4.74021 4.44732 4.86739 4.5 5 4.5C5.13261 4.5 5.25979 4.44732 5.35355 4.35355C5.44732 4.25979 5.5 4.13261 5.5 4V3.5H10.5V4C10.5 4.13261 10.5527 4.25979 10.6464 4.35355C10.7402 4.44732 10.8674 4.5 11 4.5C11.1326 4.5 11.2598 4.44732 11.3536 4.35355C11.4473 4.25979 11.5 4.13261 11.5 4V3.5H13V5.5H3V3.5H4.5ZM13 13.5H3V6.5H13V13.5Z" fill="#000214"/>
</svg>
