<!-- Generated by IcoMoon.io -->
<svg version="1.1" xmlns="http://www.w3.org/2000/svg" width="32" height="32" viewBox="0 0 32 32">
<title>calendar</title>
<path d="M9.6 16c-1.767 0-3.2 1.433-3.2 3.2s1.433 3.2 3.2 3.2h3.2c1.767 0 3.2-1.433 3.2-3.2s-1.433-3.2-3.2-3.2h-3.2z"></path>
<path d="M6.4 3.2c0-1.767 1.433-3.2 3.2-3.2s3.2 1.433 3.2 3.2h6.4c0-1.767 1.433-3.2 3.2-3.2s3.2 1.433 3.2 3.2c3.535 0 6.4 2.865 6.4 6.4v16c0 3.535-2.865 6.4-6.4 6.4h-19.2c-3.535 0-6.4-2.865-6.4-6.4v-16c0-3.535 2.865-6.4 6.4-6.4zM3.2 12.8v12.8c0 1.767 1.433 3.2 3.2 3.2h19.2c1.767 0 3.2-1.433 3.2-3.2v-12.8h-25.6z"></path>
</svg>
