<!-- Generated by IcoMoon.io -->
<svg version="1.1" xmlns="http://www.w3.org/2000/svg" width="32" height="32" viewBox="0 0 32 32">
<title>card</title>
<path d="M17.6 19.2c-0.884 0-1.6 0.716-1.6 1.6s0.716 1.6 1.6 1.6h6.4c0.884 0 1.6-0.716 1.6-1.6s-0.716-1.6-1.6-1.6h-6.4z"></path>
<path d="M0 6.4c0-1.767 1.433-3.2 3.2-3.2h25.6c1.767 0 3.2 1.433 3.2 3.2v19.2c0 1.767-1.433 3.2-3.2 3.2h-25.6c-1.767 0-3.2-1.433-3.2-3.2v-19.2zM28.8 6.4h-25.6v3.2h25.6v-3.2zM3.2 25.6h25.6v-12.8h-25.6v12.8z"></path>
</svg>
