<svg width="22" height="22" viewBox="0 0 22 22" fill="none" xmlns="http://www.w3.org/2000/svg">
<path fill-rule="evenodd" clip-rule="evenodd" d="M6.99993 0C5.34308 0 3.99993 1.34315 3.99993 3V9.40905C2.77499 9.22542 1.47779 9.80821 0.864551 11.0347L0.658288 11.4472C0.150112 12.4636 0.25978 13.6798 0.94157 14.5889L4.99993 20C5.9442 21.259 7.42614 22 8.99993 22H13.9999V21.9984C14.8224 21.982 15.6379 21.8415 16.4189 21.5811C19.7519 20.4701 22 17.351 22 13.8377V10C22 8.34315 20.6569 7 19 7C18.6097 7 18.2369 7.07453 17.8949 7.21012C17.5482 5.93648 16.3834 5 14.9999 5C14.6097 5 14.2368 5.07452 13.8948 5.21009C13.5481 3.93647 12.3834 3 10.9999 3C10.6493 3 10.3127 3.06015 9.99993 3.17071V3C9.99993 1.34315 8.65678 0 6.99993 0ZM16 11L15.9999 8C15.9999 7.44772 15.5522 7 14.9999 7C14.4476 7 13.9999 7.44772 13.9999 8V11H11.9999V6C11.9999 5.44772 11.5522 5 10.9999 5C10.4476 5 9.99993 5.44772 9.99993 6V11H7.99993V3C7.99993 2.44772 7.55221 2 6.99993 2C6.44764 2 5.99993 2.44772 5.99993 3V13.4142L4.25494 11.6692C3.7723 11.1866 2.95865 11.3186 2.65341 11.9291L2.44714 12.3416C2.27775 12.6804 2.31431 13.0858 2.54157 13.3889L6.59993 18.8C7.16649 19.5554 8.05566 20 8.99993 20H13.8377C14.5001 20 15.1581 19.8932 15.7864 19.6838C18.3027 18.845 20 16.4901 20 13.8377V10C20 9.44772 19.5523 9 19 9C18.4477 9 18 9.44772 18 10V11H16Z" fill="#1C1C1F"/>
</svg>
