<svg width="10" height="10" viewBox="0 0 10 10" fill="none" xmlns="http://www.w3.org/2000/svg">
<path d="M5.5 2.5C5.5 2.22386 5.27614 2 5 2C4.72386 2 4.5 2.22386 4.5 2.5V5.19098C4.5 5.56976 4.714 5.91602 5.05279 6.08541L6.77639 6.94721C7.02338 7.07071 7.32372 6.9706 7.44721 6.72361C7.57071 6.47662 7.4706 6.17628 7.22361 6.05279L5.5 5.19098V2.5Z" fill="#0C29FF"/>
<path fill-rule="evenodd" clip-rule="evenodd" d="M10 5C10 7.76142 7.76142 10 5 10C2.23858 10 0 7.76142 0 5C0 2.23858 2.23858 0 5 0C7.76142 0 10 2.23858 10 5ZM9 5C9 7.20914 7.20914 9 5 9C2.79086 9 1 7.20914 1 5C1 2.79086 2.79086 1 5 1C7.20914 1 9 2.79086 9 5Z" fill="#0C29FF"/>
</svg>
