<!-- Generated by IcoMoon.io -->
<svg version="1.1" xmlns="http://www.w3.org/2000/svg" width="32" height="32" viewBox="0 0 32 32">
<title>copy</title>
<path d="M4.8 0c-2.651 0-4.8 2.149-4.8 4.8v17.6c0 0.884 0.716 1.6 1.6 1.6s1.6-0.716 1.6-1.6v-17.6c0-0.884 0.716-1.6 1.6-1.6h14.4c0.884 0 1.6-0.716 1.6-1.6s-0.716-1.6-1.6-1.6h-14.4z"></path>
<path d="M6.277 8.853v19.947c0 1.767 1.433 3.2 3.2 3.2h19.323c1.767 0 3.2-1.433 3.2-3.2v-19.947c0-1.767-1.433-3.2-3.2-3.2h-19.323c-1.767 0-3.2 1.433-3.2 3.2zM9.477 8.853h19.323v19.947h-19.323v-19.947z"></path>
</svg>
