<!-- Generated by IcoMoon.io -->
<svg version="1.1" xmlns="http://www.w3.org/2000/svg" width="32" height="32" viewBox="0 0 32 32">
<title>cross</title>
<path d="M27.409 31.212c1.050 1.050 2.753 1.050 3.803 0s1.050-2.753 0-3.803l-11.409-11.409 11.409-11.409c1.050-1.050 1.050-2.753 0-3.803s-2.753-1.050-3.803 0l-11.409 11.409-11.409-11.409c-1.050-1.050-2.753-1.050-3.803 0s-1.050 2.753 0 3.803l11.409 11.409-11.409 11.409c-1.050 1.050-1.050 2.753 0 3.803s2.753 1.050 3.803 0l11.409-11.409 11.409 11.409z"></path>
</svg>
