<!-- Generated by IcoMoon.io -->
<svg version="1.1" xmlns="http://www.w3.org/2000/svg" width="32" height="32" viewBox="0 0 32 32">
<title>crown</title>
<path d="M20.364 7.273c0 1.578-0.837 2.96-2.092 3.726l2.064 2.064c0.885 0.885 2.238 1.105 3.358 0.545l0.799-0.4c-0.755-0.785-1.22-1.851-1.22-3.026 0-2.41 1.954-4.364 4.364-4.364s4.364 1.954 4.364 4.364c0 2.051-1.415 3.772-3.322 4.239l-1.041 8.852v2.909c0 1.607-1.302 2.909-2.909 2.909h-17.455c-1.607 0-2.909-1.302-2.909-2.909v-2.909l-1.041-8.852c-1.907-0.467-3.322-2.188-3.322-4.239 0-2.41 1.954-4.364 4.364-4.364s4.364 1.954 4.364 4.364c0 1.175-0.465 2.242-1.22 3.026l0.799 0.4c1.12 0.56 2.473 0.34 3.358-0.545l2.064-2.064c-1.255-0.766-2.092-2.149-2.092-3.726 0-2.41 1.954-4.364 4.364-4.364s4.364 1.954 4.364 4.364zM16 8.727c0.803 0 1.455-0.651 1.455-1.455s-0.651-1.455-1.455-1.455c-0.803 0-1.455 0.651-1.455 1.455s0.651 1.455 1.455 1.455zM24.995 16.21c-2.24 1.12-4.945 0.681-6.716-1.090l-2.279-2.279-2.279 2.279c-1.771 1.771-4.476 2.21-6.716 1.090l-0.578-0.289 0.523 4.443h18.099l0.523-4.443-0.577 0.289zM7.273 23.273v2.909h17.455v-2.909h-17.455zM4.364 11.636c0.803 0 1.455-0.651 1.455-1.455s-0.651-1.455-1.455-1.455c-0.803 0-1.455 0.651-1.455 1.455s0.651 1.455 1.455 1.455zM27.636 11.636c0.803 0 1.455-0.651 1.455-1.455s-0.651-1.455-1.455-1.455c-0.803 0-1.455 0.651-1.455 1.455s0.651 1.455 1.455 1.455z"></path>
</svg>
