<!-- Generated by IcoMoon.io -->
<svg version="1.1" xmlns="http://www.w3.org/2000/svg" width="32" height="32" viewBox="0 0 32 32">
<title>desktopWebBrowser</title>
<path d="M5.333 6.095c0-0.842 0.682-1.524 1.524-1.524s1.524 0.682 1.524 1.524c0 0.842-0.682 1.524-1.524 1.524s-1.524-0.682-1.524-1.524z"></path>
<path d="M9.905 6.095c0-0.842 0.682-1.524 1.524-1.524s1.524 0.682 1.524 1.524c0 0.842-0.682 1.524-1.524 1.524s-1.524-0.682-1.524-1.524z"></path>
<path d="M14.476 6.095c0-0.842 0.682-1.524 1.524-1.524s1.524 0.682 1.524 1.524c0 0.842-0.682 1.524-1.524 1.524s-1.524-0.682-1.524-1.524z"></path>
<path d="M3.81 0c-1.683 0-3.048 1.364-3.048 3.048v18.286c0 1.683 1.364 3.048 3.048 3.048h10.273c-0.208 1.064 0.778 2.053 1.893 1.755l1.435-0.384 1.248 4.656c0.218 0.813 1.053 1.295 1.866 1.078l5.888-1.578c0.813-0.218 1.295-1.053 1.078-1.866l-0.981-3.66h1.681c1.683 0 3.048-1.364 3.048-3.048v-18.286c0-1.683-1.364-3.048-3.048-3.048h-24.381zM28.19 3.048v6.095h-24.381v-6.095h24.381zM3.81 21.333v-9.143h24.381v8.113l-7.877-6.057c-0.795-0.612-1.954-0.301-2.337 0.626l-2.668 6.461h-11.499zM20.034 17.875l3.874 2.979-1.398 0.375 1.642 6.128-2.944 0.789-1.642-6.128-1.398 0.375 1.865-4.518z"></path>
</svg>
