<svg width="33" height="33" viewBox="0 0 33 33" fill="none" xmlns="http://www.w3.org/2000/svg">
<path d="M10.9478 30.3301H22.9478C23.7434 30.3301 24.5065 30.014 25.0691 29.4514C25.6317 28.8888 25.9478 28.1257 25.9478 27.3301V5.33008C25.9478 4.53443 25.6317 3.77137 25.0691 3.20876C24.5065 2.64615 23.7434 2.33008 22.9478 2.33008H10.9478C10.1521 2.33008 9.38904 2.64615 8.82643 3.20876C8.26382 3.77137 7.94775 4.53443 7.94775 5.33008V27.3301C7.94775 28.1257 8.26382 28.8888 8.82643 29.4514C9.38904 30.014 10.1521 30.3301 10.9478 30.3301ZM9.94775 5.33008C9.94775 5.06486 10.0531 4.81051 10.2406 4.62297C10.4282 4.43543 10.6825 4.33008 10.9478 4.33008H22.9478C23.213 4.33008 23.4673 4.43543 23.6549 4.62297C23.8424 4.81051 23.9478 5.06486 23.9478 5.33008V27.3301C23.9478 27.5953 23.8424 27.8496 23.6549 28.0372C23.4673 28.2247 23.213 28.3301 22.9478 28.3301H10.9478C10.6825 28.3301 10.4282 28.2247 10.2406 28.0372C10.0531 27.8496 9.94775 27.5953 9.94775 27.3301V5.33008ZM15.4478 24.8301C15.4478 24.5334 15.5357 24.2434 15.7006 23.9967C15.8654 23.75 16.0996 23.5578 16.3737 23.4443C16.6478 23.3307 16.9494 23.301 17.2404 23.3589C17.5314 23.4168 17.7986 23.5596 18.0084 23.7694C18.2182 23.9792 18.3611 24.2465 18.4189 24.5374C18.4768 24.8284 18.4471 25.13 18.3336 25.4041C18.22 25.6782 18.0278 25.9125 17.7811 26.0773C17.5344 26.2421 17.2444 26.3301 16.9478 26.3301C16.5499 26.3301 16.1684 26.172 15.8871 25.8907C15.6058 25.6094 15.4478 25.2279 15.4478 24.8301Z" fill="#0C29FF"/>
</svg>
