<svg width="32" height="32" viewBox="0 0 32 32" fill="none" xmlns="http://www.w3.org/2000/svg">
<path d="M22 30H10C9.20435 30 8.44129 29.6839 7.87868 29.1213C7.31607 28.5587 7 27.7956 7 27V5C7 4.20435 7.31607 3.44129 7.87868 2.87868C8.44129 2.31607 9.20435 2 10 2H22C22.7956 2 23.5587 2.31607 24.1213 2.87868C24.6839 3.44129 25 4.20435 25 5V27C25 27.7956 24.6839 28.5587 24.1213 29.1213C23.5587 29.6839 22.7956 30 22 30ZM16 23C15.7033 23 15.4133 23.088 15.1666 23.2528C14.92 23.4176 14.7277 23.6519 14.6142 23.926C14.5006 24.2001 14.4709 24.5017 14.5288 24.7926C14.5867 25.0836 14.7296 25.3509 14.9393 25.5607C15.1491 25.7704 15.4164 25.9133 15.7074 25.9712C15.9983 26.0291 16.2999 25.9994 16.574 25.8858C16.8481 25.7723 17.0824 25.58 17.2472 25.3334C17.412 25.0867 17.5 24.7967 17.5 24.5C17.5 24.1022 17.342 23.7206 17.0607 23.4393C16.7794 23.158 16.3978 23 16 23Z" fill="black"/>
</svg>
