<!-- Generated by IcoMoon.io -->
<svg version="1.1" xmlns="http://www.w3.org/2000/svg" width="32" height="32" viewBox="0 0 32 32">
<title>djamo</title>
<path d="M25.326 23.962h6.674l-4.206 7.579h-7.439c-3.267 0-4.675-0.715-4.71-2.827-1.947 2.214-4.414 3.287-7.439 3.287-2.798 0-4.971-1.124-6.552-3.372-1.529-2.282-1.999-5.16-1.408-8.617 1.443-8.209 6.848-12.279 16.233-12.279h0.382l-1.564 7.323h-0.469c-2.555 0-4.293 1.873-4.797 5.211-0.382 2.367 0.643 3.917 2.642 3.917 2.033 0 3.146-1.465 3.945-5.16l4.084-19.023h9.82l-5.197 23.962z"></path>
</svg>
