<!-- Generated by IcoMoon.io -->
<svg version="1.1" xmlns="http://www.w3.org/2000/svg" width="32" height="32" viewBox="0 0 32 32">
<title>download</title>
<path d="M18 2c0-1.105-0.895-2-2-2s-2 0.895-2 2v15.172l-4.586-4.586c-0.781-0.781-2.047-0.781-2.828 0s-0.781 2.047 0 2.828l8 8c0.212 0.212 0.461 0.367 0.726 0.464 0.215 0.079 0.447 0.122 0.689 0.122 0.262 0 0.511-0.050 0.74-0.141 0.245-0.098 0.475-0.246 0.674-0.444l8-8c0.781-0.781 0.781-2.047 0-2.828s-2.047-0.781-2.828 0l-4.586 4.586v-15.172z"></path>
<path d="M4 22c0-1.105-0.895-2-2-2s-2 0.895-2 2v4c0 3.314 2.686 6 6 6h20c3.314 0 6-2.686 6-6v-4c0-1.105-0.895-2-2-2s-2 0.895-2 2v4c0 1.105-0.895 2-2 2h-20c-1.105 0-2-0.895-2-2v-4z"></path>
</svg>
