<svg width="20" height="20" viewBox="0 0 20 20" fill="none" xmlns="http://www.w3.org/2000/svg">
<path fill-rule="evenodd" clip-rule="evenodd" d="M10 17.7639V17H12C13.1046 17 14 16.1046 14 15V12H12V15H10V5H12V8H14V5C14 3.89543 13.1046 3 12 3H10V2.23604C10 0.749275 8.43537 -0.217715 7.10557 0.447186L1.10557 3.44718C0.428005 3.78597 0 4.47849 0 5.23604V14.7639C0 15.5214 0.428006 16.214 1.10557 16.5528L7.10557 19.5528C8.43538 20.2177 10 19.2507 10 17.7639ZM8 2.23604L2 5.23604L2 14.7639L8 17.7639V2.23604Z" fill="#1C1C1F"/>
<path d="M17.7071 12.7071C17.3166 13.0976 16.6834 13.0976 16.2929 12.7071C15.9024 12.3166 15.9024 11.6834 16.2929 11.2929L16.5858 11H13C12.4477 11 12 10.5523 12 10C12 9.44772 12.4477 9 13 9H16.5858L16.2929 8.70711C15.9024 8.31658 15.9024 7.68342 16.2929 7.29289C16.6834 6.90237 17.3166 6.90237 17.7071 7.29289L19.4243 9.01005C19.4765 9.06229 19.5238 9.11764 19.566 9.17549C19.8281 9.35578 20 9.65782 20 10C20 10.3422 19.8281 10.6442 19.566 10.8245C19.5238 10.8824 19.4765 10.9377 19.4243 10.9899L17.7071 12.7071Z" fill="#1C1C1F"/>
</svg>
