<!-- Generated by IcoMoon.io -->
<svg version="1.1" xmlns="http://www.w3.org/2000/svg" width="32" height="32" viewBox="0 0 32 32">
<title>eye</title>
<path d="M22.4 16c0-3.535-2.865-6.4-6.4-6.4s-6.4 2.865-6.4 6.4c0 3.535 2.865 6.4 6.4 6.4s6.4-2.865 6.4-6.4zM19.2 16c0 1.767-1.433 3.2-3.2 3.2s-3.2-1.433-3.2-3.2 1.433-3.2 3.2-3.2c1.767 0 3.2 1.433 3.2 3.2z"></path>
<path d="M0.422 14.735c-0.274 0.821-0.274 1.709 0 2.531 1.73 5.191 5.993 9.138 11.302 10.466l0.271 0.068c2.63 0.657 5.381 0.657 8.011 0l0.271-0.068c5.309-1.327 9.571-5.275 11.302-10.466 0.274-0.821 0.274-1.709 0-2.531-1.73-5.191-5.993-9.138-11.302-10.466l-0.271-0.068c-2.63-0.657-5.381-0.657-8.011 0l-0.271 0.068c-5.309 1.327-9.571 5.274-11.302 10.466zM12.499 7.374l0.271-0.068c2.12-0.53 4.338-0.53 6.458 0l0.272 0.068c4.247 1.062 7.657 4.22 9.042 8.373 0.055 0.164 0.055 0.342 0 0.507-1.384 4.153-4.795 7.311-9.042 8.373l-0.272 0.068c-2.12 0.53-4.338 0.53-6.458 0l-0.271-0.068c-4.247-1.062-7.657-4.22-9.042-8.373-0.055-0.164-0.055-0.342 0-0.507 1.384-4.153 4.795-7.311 9.042-8.373z"></path>
</svg>
