<svg width="32" height="32" viewBox="0 0 32 32" fill="none" xmlns="http://www.w3.org/2000/svg">
<path d="M0.638275 9.98814C1.05229 9.98814 1.27655 9.74663 1.27655 9.33261V4.69218C1.27655 2.4496 2.4496 1.27655 4.69218 1.27655H9.34986C9.76388 1.27655 10.0054 1.05229 10.0054 0.638275C10.0054 0.224259 9.76388 0 9.34986 0H4.65768C1.60431 0 0 1.58706 0 4.62318V9.33261C0 9.74663 0.224259 9.98814 0.638275 9.98814ZM31.3617 9.98814C31.7757 9.98814 32 9.74663 32 9.33261V4.62318C32 1.62156 30.4129 0 27.3596 0H22.6501C22.2361 0 21.9946 0.224259 21.9946 0.638275C21.9946 1.05229 22.2361 1.27655 22.6501 1.27655H27.3078C29.4814 1.27655 30.7234 2.4496 30.7234 4.69218V9.33261C30.7234 9.74663 30.9477 9.98814 31.3617 9.98814ZM14.5941 18.3202H14.7493C16.1466 18.3202 16.8539 17.6302 16.8539 16.2156V10.9197C16.8539 10.5229 16.6642 10.3332 16.2674 10.3332C15.8879 10.3332 15.6809 10.5229 15.6809 10.9197V16.3709C15.6809 16.8367 15.3013 17.1299 14.9218 17.1299H14.3353C14.0075 17.1299 13.766 17.3714 13.766 17.6992C13.766 18.1132 14.0248 18.3202 14.5941 18.3202ZM9.79838 14.3526C10.3159 14.3526 10.6437 14.0248 10.6437 13.5073V11.2129C10.6437 10.6782 10.3159 10.3504 9.79838 10.3504C9.29811 10.3504 8.97035 10.6954 8.97035 11.2129V13.5073C8.97035 14.0248 9.29811 14.3526 9.79838 14.3526ZM22.0464 14.3526C22.5466 14.3526 22.8744 14.0248 22.8744 13.5073V11.2129C22.8744 10.6954 22.5466 10.3504 22.0464 10.3504C21.5288 10.3504 21.1838 10.6782 21.1838 11.2129V13.5073C21.1838 14.0248 21.5288 14.3526 22.0464 14.3526ZM15.8534 23.5989C17.7509 23.5989 19.6485 22.8054 21.0458 21.4081C21.1493 21.3218 21.2528 21.1666 21.2528 20.9423C21.2528 20.5973 20.9941 20.373 20.6836 20.373C20.4938 20.373 20.3385 20.4248 20.1143 20.6663C19.0792 21.7013 17.4749 22.4431 15.8534 22.4431C14.2318 22.4431 12.6447 21.7013 11.5925 20.6663C11.3854 20.442 11.2302 20.373 11.0232 20.373C10.7127 20.373 10.4539 20.5973 10.4539 20.9423C10.4539 21.1493 10.5574 21.3046 10.6609 21.4081C12.0237 22.8226 13.9558 23.5989 15.8534 23.5989ZM4.65768 32H9.34986C9.76388 32 10.0054 31.7757 10.0054 31.3617C10.0054 30.9477 9.76388 30.7234 9.34986 30.7234H4.69218C2.4496 30.7234 1.27655 29.5504 1.27655 27.2906V22.6674C1.27655 22.2534 1.05229 21.9946 0.638275 21.9946C0.224259 21.9946 0 22.2534 0 22.6674V27.3596C0 30.4129 1.60431 32 4.65768 32ZM22.6501 32H27.3596C30.4129 32 32 30.3612 32 27.3596V22.6674C32 22.2534 31.7757 21.9946 31.3617 21.9946C30.9477 21.9946 30.7234 22.2534 30.7234 22.6674V27.2906C30.7234 29.5504 29.4814 30.7234 27.3078 30.7234H22.6501C22.2361 30.7234 21.9946 30.9477 21.9946 31.3617C21.9946 31.7757 22.2361 32 22.6501 32Z" fill="#0C29FF"/>
</svg>
