<svg width="32" height="32" viewBox="0 0 32 32" fill="none" xmlns="http://www.w3.org/2000/svg">
<path d="M9.5571 16C9.56426 18.6231 8.95813 21.2115 7.7871 23.5588C7.73121 23.6804 7.65144 23.7897 7.55253 23.8799C7.45362 23.9702 7.33758 24.0397 7.2113 24.0843C7.08503 24.1289 6.95108 24.1477 6.81741 24.1395C6.68375 24.1313 6.55308 24.0964 6.43317 24.0368C6.31326 23.9772 6.20654 23.8941 6.11936 23.7924C6.03217 23.6908 5.96628 23.5726 5.92561 23.445C5.88494 23.3175 5.87032 23.183 5.8826 23.0496C5.89488 22.9163 5.93382 22.7868 5.9971 22.6688C7.0296 20.5977 7.56381 18.3141 7.5571 16C7.55476 14.6506 7.85704 13.318 8.44141 12.1016C9.02578 10.8853 9.87717 9.8165 10.9321 8.975C11.1391 8.80924 11.4035 8.73251 11.6671 8.7617C11.9308 8.79088 12.172 8.92359 12.3377 9.13062C12.5035 9.33766 12.5802 9.60206 12.551 9.86567C12.5218 10.1293 12.3891 10.3705 12.1821 10.5363C11.3614 11.1906 10.6991 12.0218 10.2446 12.9678C9.79002 13.9139 9.55503 14.9504 9.5571 16ZM16.5571 15C16.2919 15 16.0375 15.1054 15.85 15.2929C15.6625 15.4804 15.5571 15.7348 15.5571 16C15.5569 19.896 14.5677 23.7282 12.6821 27.1375C12.5535 27.3696 12.5223 27.6432 12.5954 27.8983C12.6686 28.1533 12.84 28.3689 13.0721 28.4975C13.3042 28.6261 13.5778 28.6573 13.8329 28.5842C14.0879 28.511 14.3035 28.3396 14.4321 28.1075C16.4816 24.4011 17.5568 20.2353 17.5571 16C17.5571 15.7348 17.4517 15.4804 17.2642 15.2929C17.0767 15.1054 16.8223 15 16.5571 15ZM16.5571 11C15.231 11 13.9593 11.5268 13.0216 12.4645C12.0839 13.4021 11.5571 14.6739 11.5571 16C11.5571 16.2652 11.6625 16.5196 11.85 16.7071C12.0375 16.8946 12.2919 17 12.5571 17C12.8223 17 13.0767 16.8946 13.2642 16.7071C13.4517 16.5196 13.5571 16.2652 13.5571 16C13.5571 15.2044 13.8732 14.4413 14.4358 13.8787C14.9984 13.3161 15.7615 13 16.5571 13C17.3528 13 18.1158 13.3161 18.6784 13.8787C19.241 14.4413 19.5571 15.2044 19.5571 16C19.5675 19.9762 18.6917 23.9047 16.9934 27.5C16.9373 27.6191 16.9052 27.7481 16.899 27.8795C16.8928 28.011 16.9126 28.1424 16.9571 28.2663C17.0017 28.3901 17.0702 28.504 17.1588 28.6014C17.2474 28.6987 17.3543 28.7777 17.4734 28.8337C17.5924 28.8898 17.7214 28.9219 17.8529 28.9281C17.9844 28.9343 18.1158 28.9146 18.2396 28.87C18.3635 28.8254 18.4773 28.7569 18.5747 28.6683C18.6721 28.5797 18.751 28.4728 18.8071 28.3538C20.63 24.4912 21.5695 20.2711 21.5571 16C21.5571 14.6739 21.0303 13.4021 20.0926 12.4645C19.155 11.5268 17.8832 11 16.5571 11ZM16.5571 3C13.1104 3.00364 9.80592 4.37445 7.36874 6.81163C4.93155 9.24882 3.56074 12.5533 3.5571 16C3.55896 17.2487 3.34759 18.4886 2.9321 19.6663C2.84375 19.9164 2.85839 20.1914 2.97278 20.4307C3.08718 20.6701 3.29197 20.8541 3.5421 20.9425C3.79224 21.0308 4.06722 21.0162 4.30656 20.9018C4.54591 20.7874 4.73 20.5826 4.81835 20.3325C5.30895 18.9408 5.55877 17.4756 5.5571 16C5.5571 13.0826 6.71603 10.2847 8.77893 8.22183C10.8418 6.15893 13.6397 5 16.5571 5C19.4745 5 22.2724 6.15893 24.3353 8.22183C26.3982 10.2847 27.5571 13.0826 27.5571 16C27.5576 18.2848 27.3361 20.5643 26.8959 22.8062C26.8704 22.9351 26.8706 23.0677 26.8963 23.1965C26.9221 23.3253 26.9731 23.4478 27.0462 23.5569C27.1193 23.666 27.2132 23.7596 27.3226 23.8325C27.4319 23.9053 27.5545 23.9558 27.6834 23.9813C27.7472 23.9936 27.8121 23.9999 27.8771 24C28.1085 23.9998 28.3327 23.9193 28.5114 23.7722C28.6901 23.6252 28.8123 23.4208 28.8571 23.1938C29.3228 20.8242 29.5572 18.4149 29.5571 16C29.5531 12.5534 28.1822 9.24911 25.7451 6.812C23.308 4.37488 20.0037 3.00397 16.5571 3ZM12.3571 19.0212C12.0978 18.9697 11.8285 19.0229 11.6083 19.1693C11.3881 19.3157 11.2349 19.5434 11.1821 19.8025C10.7763 21.7995 10.0499 23.7177 9.03085 25.4825C8.89825 25.7122 8.86233 25.9853 8.93102 26.2415C8.9997 26.4977 9.16736 26.7161 9.3971 26.8487C9.62685 26.9814 9.89986 27.0173 10.1561 26.9486C10.4123 26.8799 10.6307 26.7122 10.7634 26.4825C11.8895 24.531 12.6916 22.4097 13.1384 20.2013C13.1646 20.0725 13.1653 19.9398 13.1402 19.8107C13.1152 19.6817 13.0649 19.5589 12.9924 19.4493C12.9198 19.3397 12.8263 19.2455 12.7173 19.172C12.6083 19.0986 12.4859 19.0473 12.3571 19.0212ZM16.5571 7C16.181 7.00008 15.8053 7.02346 15.4321 7.07C15.1739 7.10877 14.9411 7.247 14.7834 7.45516C14.6257 7.66331 14.5558 7.92488 14.5884 8.18395C14.6211 8.44303 14.7537 8.67905 14.9581 8.84159C15.1625 9.00412 15.4223 9.08027 15.6821 9.05375C16.6673 8.93125 17.6672 9.01939 18.6157 9.31234C19.5642 9.60529 20.4397 10.0964 21.1842 10.7531C21.9287 11.4098 22.5252 12.2171 22.9343 13.1216C23.3434 14.0262 23.5557 15.0073 23.5571 16C23.5568 17.2954 23.4767 18.5895 23.3171 19.875C23.2996 20.0057 23.3081 20.1386 23.3421 20.2661C23.3761 20.3935 23.4351 20.513 23.5155 20.6175C23.5959 20.7221 23.6962 20.8097 23.8106 20.8754C23.925 20.941 24.0513 20.9834 24.1821 21C24.2236 21.005 24.2653 21.0075 24.3071 21.0075C24.5503 21.007 24.785 20.9178 24.9672 20.7568C25.1494 20.5957 25.2667 20.3738 25.2971 20.1325C25.4657 18.764 25.5492 17.3863 25.5471 16.0075C25.5464 13.6218 24.5996 11.3337 22.9143 9.64514C21.229 7.95655 18.9428 7.0053 16.5571 7ZM23.7984 23.0312C23.6711 22.9984 23.5387 22.9909 23.4086 23.0092C23.2784 23.0275 23.1532 23.0713 23.04 23.138C22.9268 23.2048 22.8279 23.2932 22.7489 23.3982C22.6699 23.5032 22.6124 23.6227 22.5796 23.75C22.3971 24.4613 22.1859 25.175 21.9546 25.875C21.87 26.1258 21.8883 26.3999 22.0054 26.6373C22.1226 26.8747 22.3291 27.0559 22.5796 27.1413C22.6822 27.1762 22.7899 27.1939 22.8984 27.1938C23.1079 27.1936 23.3121 27.1276 23.4821 27.0052C23.6521 26.8827 23.7793 26.7099 23.8459 26.5112C24.0959 25.7712 24.3196 25.0112 24.5146 24.255C24.5481 24.1278 24.5562 23.9952 24.5384 23.8648C24.5206 23.7345 24.4772 23.6089 24.4108 23.4954C24.3444 23.3818 24.2562 23.2825 24.1513 23.203C24.0464 23.1236 23.9269 23.0657 23.7996 23.0325L23.7984 23.0312Z" fill="#0C29FF"/>
</svg>
