<!-- Generated by IcoMoon.io -->
<svg version="1.1" xmlns="http://www.w3.org/2000/svg" width="32" height="32" viewBox="0 0 32 32">
<title>fingerprint</title>
<path d="M17.455 2.909h-2.909c-2.906 0-5.481 1.421-7.067 3.606-0.329 0.453-0.837 0.758-1.397 0.758-1.112 0-1.858-1.128-1.243-2.055 2.083-3.144 5.653-5.218 9.708-5.218h2.909c6.427 0 11.636 5.21 11.636 11.636v8.727c0 5.935-4.443 10.832-10.185 11.547-0.797 0.099-1.452-0.562-1.452-1.365s0.656-1.442 1.448-1.574c4.131-0.69 7.279-4.281 7.279-8.608v-8.727c0-4.82-3.907-8.727-8.727-8.727z"></path>
<path d="M14.545 30.545c0-0.803-0.656-1.442-1.448-1.574-4.131-0.69-7.279-4.281-7.279-8.608v-8.727c0-0.765-0.576-1.455-1.341-1.455h-0.221c-0.718 0-1.333 0.535-1.346 1.254-0.001 0.067-0.002 0.134-0.002 0.201v8.727c0 5.935 4.443 10.832 10.185 11.547 0.797 0.099 1.452-0.562 1.452-1.365z"></path>
<path d="M23.273 17.455c-0.803 0-1.455-0.651-1.455-1.455v-2.909c0-3.213-2.605-5.818-5.818-5.818-2.296 0-4.281 1.33-5.228 3.261-0.305 0.622-0.892 1.102-1.584 1.102-0.939 0-1.66-0.853-1.317-1.727 1.272-3.247 4.432-5.546 8.129-5.546 4.82 0 8.727 3.907 8.727 8.727v2.909c0 0.803-0.651 1.455-1.455 1.455z"></path>
<path d="M22.812 20.364c-0.693 0-1.28 0.48-1.584 1.102-0.946 1.931-2.932 3.261-5.228 3.261-3.213 0-5.818-2.605-5.818-5.818v-2.909c0-0.803-0.651-1.455-1.455-1.455s-1.455 0.651-1.455 1.455v2.909c0 4.82 3.907 8.727 8.727 8.727 3.697 0 6.858-2.299 8.129-5.546 0.342-0.874-0.378-1.727-1.317-1.727z"></path>
<path d="M16 18.909c0.803 0 1.455-0.651 1.455-1.455v-2.909c0-0.803-0.651-1.455-1.455-1.455-0.29 0-0.559 0.085-0.786 0.23-0.198 0.127-0.393 0.285-0.59 0.444-0.476 0.385-0.965 0.78-1.533 0.78-0.803 0-1.478-0.669-1.215-1.428 0.592-1.709 2.215-2.935 4.125-2.935 2.41 0 4.364 1.954 4.364 4.364v2.909c0 2.41-1.954 4.364-4.364 4.364-1.91 0-3.533-1.227-4.125-2.935-0.263-0.759 0.412-1.428 1.215-1.428 0.568 0 1.057 0.395 1.533 0.78 0.197 0.159 0.392 0.317 0.59 0.444 0.227 0.146 0.496 0.23 0.786 0.23z"></path>
</svg>
