<svg width="22" height="18" viewBox="0 0 22 18" fill="none" xmlns="http://www.w3.org/2000/svg">
<path d="M2.46278 0H10.841V3.87977H5.26358L4.97384 5.83284C5.57746 5.72727 6.06036 5.70088 6.27767 5.70088C8.42656 5.70088 9.77867 6.59824 10.5272 7.44282C11.2515 8.2346 12 9.58064 12 11.6129C12 13.7243 11.2274 15.1496 10.4547 16.0205C8.95775 17.7097 6.97787 18 5.4326 18C2.99396 18 1.30382 17.3138 0 16.4164L0.627767 12.1408C1.47284 12.9853 2.29376 13.434 2.55936 13.566C3.2837 13.9355 4.17706 14.173 4.97384 14.173C5.81891 14.173 6.59155 13.8563 7.07445 13.3021C7.43662 12.8798 7.70221 12.2463 7.70221 11.5073C7.70221 10.5836 7.29175 9.95015 6.92958 9.60704C6.06036 8.76246 4.56338 8.73607 4.03219 8.73607C2.89738 8.73607 1.93159 9 1.06237 9.47507L2.46278 0Z" fill="#0C29FF"/>
<path d="M12.1843 15.2336L13.4963 14.2369C13.7966 14.0087 14.2032 14.0087 14.5035 14.2369L17.91 16.8248C18.581 17.3346 19.4837 16.6496 19.2291 15.8249L19.2285 15.8231L17.9274 11.6358C17.8126 11.2666 17.9383 10.8622 18.2386 10.6341L21.6456 8.04574C22.3161 7.53559 21.9715 6.4262 21.1423 6.42541H16.9308C16.5596 6.42541 16.2307 6.17548 16.1159 5.80633L14.8148 1.61896C14.5583 0.793605 13.4417 0.793754 13.185 1.61896L11.8839 5.80633C11.7692 6.17548 11.4402 6.42541 11.069 6.42541H10.9329C11.0542 6.54048 11.1666 6.65704 11.2702 6.77362C11.5701 7.10228 11.8666 7.50281 12.1273 7.97903C12.4595 7.82195 12.7567 7.5924 12.998 7.30612C13.137 7.14118 13.2575 6.9574 13.3555 6.7578L13.3634 6.74152C13.4221 6.61993 13.4725 6.49255 13.5136 6.36005L13.9999 4.79511L14.4862 6.36005C14.5274 6.49255 14.5777 6.61993 14.6364 6.74152C14.7358 6.94741 14.8591 7.1367 15.0019 7.30612C15.2524 7.60339 15.5632 7.83949 15.911 7.9968C16.1092 8.08646 16.3195 8.15052 16.5374 8.18574C16.6662 8.20653 16.7976 8.21727 16.9308 8.21727H18.5045L17.2314 9.18445C17.1236 9.26634 17.0233 9.3558 16.9308 9.45174C16.7743 9.6142 16.6402 9.79526 16.5302 9.98962C16.3373 10.3307 16.2186 10.7127 16.183 11.1072C16.1627 11.332 16.1694 11.5609 16.2047 11.7885C16.2228 11.9054 16.2485 12.022 16.282 12.1375C16.287 12.1549 16.2922 12.1722 16.2976 12.1895L16.7839 13.7544L15.5108 12.7872C15.403 12.7054 15.2906 12.6333 15.1748 12.571C14.9787 12.4655 14.7726 12.3881 14.5618 12.3388C14.192 12.2523 13.8078 12.2523 13.438 12.3388C13.2741 12.3771 13.113 12.4325 12.9572 12.5048C12.852 13.5811 12.5614 14.4867 12.1843 15.2336Z" fill="#0C29FF"/>
</svg>
