<svg width="16" height="17" viewBox="0 0 16 17" fill="none" xmlns="http://www.w3.org/2000/svg">
<path opacity="0.2" d="M13.5 3.50001V7.50001C12.2569 8.57689 11.1106 8.64939 10 8.34251V4.34251C11.11 4.64939 12.2569 4.57689 13.5 3.50001ZM6 6.65751V2.65751C4.89 2.35064 3.74312 2.42314 2.5 3.50001V7.50001C3.74312 6.42376 4.88937 6.35064 6 6.65751V10.1575C7.35125 10.5325 8.64875 11.47 10 11.845V8.34501C8.64875 7.97001 7.35125 7.03251 6 6.65751Z" fill="#000214"/>
<path d="M13.7075 3.04688C13.6202 3.00724 13.5234 2.99354 13.4285 3.00739C13.3337 3.02124 13.2448 3.06206 13.1725 3.125C11.4225 4.63875 9.94 3.905 8.22188 3.05438C6.44188 2.1725 4.42375 1.17438 2.1725 3.125C2.11871 3.17163 2.0755 3.2292 2.04575 3.29387C2.016 3.35854 2.0004 3.42882 2 3.5V14C2 14.1326 2.05268 14.2598 2.14645 14.3536C2.24021 14.4473 2.36739 14.5 2.5 14.5C2.63261 14.5 2.75979 14.4473 2.85355 14.3536C2.94732 14.2598 3 14.1326 3 14V11.2356C4.67438 9.91313 6.11687 10.6263 7.77812 11.4488C9.55875 12.3294 11.5763 13.3275 13.8275 11.3781C13.8813 11.3315 13.9245 11.2739 13.9543 11.2093C13.984 11.1446 13.9996 11.0743 14 11.0031V3.5C13.9997 3.40441 13.9719 3.31093 13.9201 3.23062C13.8682 3.15031 13.7945 3.08654 13.7075 3.04688ZM5.5 9.54375C5.30507 9.51481 5.10831 9.49998 4.91125 9.49938C4.2384 9.50074 3.57829 9.68293 3 10.0269V7.73625C3.875 7.045 4.6875 6.91 5.5 7.05625V9.54375ZM5.5 6.04375C4.63568 5.90898 3.75144 6.0803 3 6.52813V3.73625C3.875 3.045 4.6875 2.91063 5.5 3.05688V6.04375ZM9.5 11.1456C9.08375 10.9788 8.66062 10.7706 8.22188 10.5531C7.67063 10.28 7.09688 9.99688 6.5 9.7925V7.355C6.91625 7.52125 7.33938 7.73 7.77812 7.9475C8.32937 8.22063 8.90312 8.50375 9.5 8.70813V11.1456ZM9.5 7.64563C9.08375 7.47875 8.66062 7.27063 8.22188 7.0525C7.67063 6.78 7.09688 6.49625 6.5 6.29188V3.35438C6.91625 3.52063 7.33938 3.72938 7.77812 3.94688C8.32937 4.21938 8.90312 4.50313 9.5 4.7075V7.64563ZM13 10.7656C12.125 11.4569 11.3125 11.5913 10.5 11.445V8.9575C10.6949 8.98665 10.8917 9.00169 11.0887 9.0025C11.7617 9.00042 12.4218 8.81759 13 8.47313V10.7656ZM13 7.26563C12.125 7.95688 11.3125 8.09188 10.5 7.94563V4.95875C11.3642 5.09376 12.2485 4.92266 13 4.475V7.26563Z" fill="#000214"/>
</svg>
