<svg width="20" height="20" viewBox="0 0 20 20" fill="none" xmlns="http://www.w3.org/2000/svg">
<path d="M10.0001 6C11.061 6 12.0784 6.42143 12.8285 7.17157C13.5787 7.92172 14.0001 8.93913 14.0001 10C14.0001 11.0609 13.5787 12.0783 12.8285 12.8284C12.0784 13.5786 11.061 14 10.0001 14C8.93922 14 7.9218 13.5786 7.17166 12.8284C6.42151 12.0783 6.00008 11.0609 6.00008 10C6.00008 8.93913 6.42151 7.92172 7.17166 7.17157C7.9218 6.42143 8.93922 6 10.0001 6ZM10.0001 8C9.46965 8 8.96094 8.21071 8.58587 8.58579C8.2108 8.96086 8.00008 9.46957 8.00008 10C8.00008 10.5304 8.2108 11.0391 8.58587 11.4142C8.96094 11.7893 9.46965 12 10.0001 12C10.5305 12 11.0392 11.7893 11.4143 11.4142C11.7894 11.0391 12.0001 10.5304 12.0001 10C12.0001 9.46957 11.7894 8.96086 11.4143 8.58579C11.0392 8.21071 10.5305 8 10.0001 8ZM8.00008 20C7.75008 20 7.54008 19.82 7.50008 19.58L7.13008 16.93C6.50008 16.68 5.96008 16.34 5.44008 15.94L2.95008 16.95C2.73008 17.03 2.46008 16.95 2.34008 16.73L0.340084 13.27C0.210084 13.05 0.270084 12.78 0.460084 12.63L2.57008 10.97L2.50008 10L2.57008 9L0.460084 7.37C0.270084 7.22 0.210084 6.95 0.340084 6.73L2.34008 3.27C2.46008 3.05 2.73008 2.96 2.95008 3.05L5.44008 4.05C5.96008 3.66 6.50008 3.32 7.13008 3.07L7.50008 0.42C7.54008 0.18 7.75008 0 8.00008 0H12.0001C12.2501 0 12.4601 0.18 12.5001 0.42L12.8701 3.07C13.5001 3.32 14.0401 3.66 14.5601 4.05L17.0501 3.05C17.2701 2.96 17.5401 3.05 17.6601 3.27L19.6601 6.73C19.7901 6.95 19.7301 7.22 19.5401 7.37L17.4301 9L17.5001 10L17.4301 11L19.5401 12.63C19.7301 12.78 19.7901 13.05 19.6601 13.27L17.6601 16.73C17.5401 16.95 17.2701 17.04 17.0501 16.95L14.5601 15.95C14.0401 16.34 13.5001 16.68 12.8701 16.93L12.5001 19.58C12.4601 19.82 12.2501 20 12.0001 20H8.00008ZM9.25008 2L8.88008 4.61C7.68008 4.86 6.62008 5.5 5.85008 6.39L3.44008 5.35L2.69008 6.65L4.80008 8.2C4.40008 9.37 4.40008 10.64 4.80008 11.8L2.68008 13.36L3.43008 14.66L5.86008 13.62C6.63008 14.5 7.68008 15.14 8.87008 15.38L9.24008 18H10.7601L11.1301 15.39C12.3201 15.14 13.3701 14.5 14.1401 13.62L16.5701 14.66L17.3201 13.36L15.2001 11.81C15.6001 10.64 15.6001 9.37 15.2001 8.2L17.3101 6.65L16.5601 5.35L14.1501 6.39C13.3801 5.5 12.3201 4.86 11.1201 4.62L10.7501 2H9.25008Z" fill="black"/>
</svg>
