<svg width="16" height="17" viewBox="0 0 16 17" fill="none" xmlns="http://www.w3.org/2000/svg">
<g clip-path="url(#clip0_1942_12102)">
<path opacity="0.2" d="M1 9.99999H3V13.5H1C0.867392 13.5 0.740215 13.4473 0.646447 13.3535C0.552678 13.2598 0.5 13.1326 0.5 13V10.5C0.5 10.3674 0.552678 10.2402 0.646447 10.1464C0.740215 10.0527 0.867392 9.99999 1 9.99999ZM12.75 3.99999C12.4905 4.00015 12.2344 4.05801 12 4.16937C11.983 3.79403 11.8456 3.43414 11.6082 3.14292C11.3708 2.8517 11.046 2.64461 10.6818 2.55229C10.3176 2.45996 9.93338 2.4873 9.58593 2.63026C9.23847 2.77322 8.94625 3.02421 8.75248 3.3461C8.55871 3.668 8.47369 4.04372 8.50998 4.41768C8.54627 4.79164 8.70196 5.14399 8.95401 5.42262C9.20606 5.70125 9.5411 5.89136 9.90956 5.96484C10.278 6.03831 10.6604 5.99125 11 5.83062C11.0158 6.17286 11.1317 6.50294 11.3333 6.77992C11.5349 7.05691 11.8134 7.26862 12.1343 7.3888C12.4551 7.50897 12.8042 7.53233 13.1382 7.45598C13.4721 7.37962 13.7764 7.20691 14.0131 6.95926C14.2499 6.71161 14.4087 6.39991 14.47 6.06283C14.5312 5.72574 14.4922 5.37809 14.3577 5.06299C14.2232 4.74789 13.9991 4.4792 13.7133 4.29024C13.4276 4.10128 13.0926 4.00036 12.75 3.99999Z" fill="#000214"/>
<path d="M14.3956 9.31625C14.2096 9.1731 13.993 9.07478 13.7628 9.02892C13.5325 8.98307 13.2948 8.99093 13.0681 9.05188L10.4531 9.65313C10.514 9.39612 10.5158 9.12868 10.4586 8.87085C10.4014 8.61301 10.2866 8.37147 10.1227 8.16433C9.95887 7.95719 9.75026 7.78983 9.51253 7.67477C9.2748 7.55972 9.01411 7.49997 8.75 7.5H5.62125C5.3585 7.49934 5.09822 7.55076 4.85546 7.65127C4.61269 7.75179 4.39225 7.89942 4.20687 8.08563L2.79312 9.5H1C0.734784 9.5 0.48043 9.60536 0.292893 9.7929C0.105357 9.98043 0 10.2348 0 10.5L0 13C0 13.2652 0.105357 13.5196 0.292893 13.7071C0.48043 13.8946 0.734784 14 1 14H7.5C7.54088 14 7.58161 13.995 7.62125 13.985L11.6213 12.985C11.6467 12.9789 11.6716 12.9706 11.6956 12.96L14.125 11.9263L14.1525 11.9138C14.386 11.7971 14.5859 11.6229 14.7335 11.4076C14.881 11.1923 14.9713 10.943 14.9959 10.6831C15.0205 10.4233 14.9785 10.1615 14.8739 9.92233C14.7693 9.68319 14.6056 9.47462 14.3981 9.31625H14.3956ZM1 10.5H2.5V13H1V10.5ZM13.7144 11.0131L11.3394 12.0244L7.4375 13H3.5V10.2069L4.91437 8.79313C5.0069 8.69986 5.11703 8.62592 5.23839 8.5756C5.35974 8.52528 5.48988 8.49958 5.62125 8.5H8.75C8.94891 8.5 9.13968 8.57902 9.28033 8.71967C9.42098 8.86032 9.5 9.05109 9.5 9.25C9.5 9.44891 9.42098 9.63968 9.28033 9.78033C9.13968 9.92098 8.94891 10 8.75 10H7C6.86739 10 6.74021 10.0527 6.64645 10.1464C6.55268 10.2402 6.5 10.3674 6.5 10.5C6.5 10.6326 6.55268 10.7598 6.64645 10.8536C6.74021 10.9473 6.86739 11 7 11H9C9.03763 10.9999 9.07514 10.9957 9.11187 10.9875L13.2994 10.0244L13.3188 10.0194C13.4466 9.98389 13.583 9.99693 13.7018 10.056C13.8206 10.1151 13.9134 10.216 13.9622 10.3393C14.0111 10.4626 14.0126 10.5997 13.9665 10.7241C13.9204 10.8485 13.8299 10.9514 13.7125 11.0131H13.7144ZM10.25 6.5C10.3735 6.50014 10.4969 6.49011 10.6187 6.47C10.7558 6.87722 11.0067 7.23666 11.3416 7.50584C11.6765 7.77502 12.0815 7.94268 12.5086 7.98899C12.9358 8.0353 13.3673 7.95833 13.7521 7.76718C14.1369 7.57603 14.459 7.27869 14.6801 6.91032C14.9013 6.54194 15.0124 6.11794 15.0002 5.68844C14.9881 5.25894 14.8532 4.8419 14.6115 4.48662C14.3699 4.13135 14.0315 3.8527 13.6365 3.68362C13.2415 3.51454 12.8064 3.4621 12.3825 3.5325C12.2505 3.14015 12.0128 2.79183 11.6956 2.52586C11.3784 2.25989 10.994 2.08659 10.5846 2.02502C10.1752 1.96346 9.75684 2.01602 9.37543 2.17692C8.99402 2.33782 8.66439 2.60082 8.42282 2.93698C8.18125 3.27314 8.0371 3.66943 8.00623 4.08224C7.97537 4.49504 8.05898 4.90836 8.24788 5.27671C8.43677 5.64506 8.72362 5.95415 9.07686 6.16998C9.43011 6.38581 9.83604 6.50001 10.25 6.5ZM14 5.75C14 5.99723 13.9267 6.2389 13.7893 6.44446C13.652 6.65003 13.4568 6.81024 13.2284 6.90485C12.9999 6.99946 12.7486 7.02421 12.5061 6.97598C12.2637 6.92775 12.0409 6.8087 11.8661 6.63388C11.6913 6.45907 11.5722 6.23634 11.524 5.99386C11.4758 5.75139 11.5005 5.50005 11.5952 5.27165C11.6898 5.04324 11.85 4.84802 12.0555 4.71066C12.2611 4.57331 12.5028 4.5 12.75 4.5C13.0815 4.5 13.3995 4.6317 13.6339 4.86612C13.8683 5.10054 14 5.41848 14 5.75ZM10.25 3C10.5227 3.00014 10.7879 3.08944 11.0051 3.2543C11.2223 3.41916 11.3796 3.65052 11.4531 3.91313C11.197 4.09331 10.9814 4.32496 10.82 4.59326C10.6585 4.86156 10.5549 5.1606 10.5156 5.47125C10.4283 5.4901 10.3393 5.49974 10.25 5.5C9.91848 5.5 9.60054 5.36831 9.36612 5.13388C9.1317 4.89946 9 4.58152 9 4.25C9 3.91848 9.1317 3.60054 9.36612 3.36612C9.60054 3.1317 9.91848 3 10.25 3Z" fill="#000214"/>
</g>
<defs>
<clipPath id="clip0_1942_12102">
<rect width="16" height="16" fill="white" transform="translate(0 0.5)"/>
</clipPath>
</defs>
</svg>
