<svg width="22" height="24" viewBox="0 0 22 24" fill="none" xmlns="http://www.w3.org/2000/svg">
<path fill-rule="evenodd" clip-rule="evenodd" d="M11 3C9.34315 3 8 4.34315 8 6C8 7.65685 9.34315 9 11 9C12.6569 9 14 7.65685 14 6C14 4.34315 12.6569 3 11 3ZM10 6C10 6.55228 10.4477 7 11 7C11.5523 7 12 6.55228 12 6C12 5.44772 11.5523 5 11 5C10.4477 5 10 5.44772 10 6Z" fill="#1C1C1F"/>
<path d="M8 19C8 20.1046 7.10457 21 6 21C4.89543 21 4 20.1046 4 19C4 17.8954 4.89543 17 6 17C7.10457 17 8 17.8954 8 19Z" fill="#1C1C1F"/>
<path d="M13 19C13 20.1046 12.1046 21 11 21C9.89543 21 9 20.1046 9 19C9 17.8954 9.89543 17 11 17C12.1046 17 13 17.8954 13 19Z" fill="#1C1C1F"/>
<path d="M18 19C18 20.1046 17.1046 21 16 21C14.8954 21 14 20.1046 14 19C14 17.8954 14.8954 17 16 17C17.1046 17 18 17.8954 18 19Z" fill="#1C1C1F"/>
<path fill-rule="evenodd" clip-rule="evenodd" d="M4 14.126V12H2.73701C1.13961 12 0.186832 10.2197 1.0729 8.8906L5.81251 1.7812C6.55437 0.668405 7.80329 0 9.14071 0H12.8592C14.1966 0 15.4456 0.668405 16.1874 1.7812L20.927 8.8906C21.8131 10.2197 20.8603 12 19.2629 12H18V14.126C19.7252 14.5701 21 16.1362 21 18V20C21 22.2091 19.2091 24 17 24H5C2.79086 24 1 22.2091 1 20V18C1 16.1362 2.27477 14.5701 4 14.126ZM7.47661 2.8906L2.73701 10H19.2629L14.5233 2.8906C14.1524 2.3342 13.5279 2 12.8592 2H9.14071C8.472 2 7.84754 2.3342 7.47661 2.8906ZM6 12H8V14H6V12ZM5 16C3.89543 16 3 16.8954 3 18V20C3 21.1046 3.89543 22 5 22H17C18.1046 22 19 21.1046 19 20V18C19 16.8954 18.1046 16 17 16H5ZM16 14V12H14V14H16ZM12 14V12H10V14H12Z" fill="#1C1C1F"/>
</svg>
