<svg width="57" height="56" viewBox="0 0 57 56" fill="none" xmlns="http://www.w3.org/2000/svg">
<path d="M43.375 24.5C43.375 24.7321 43.2828 24.9546 43.1187 25.1187C42.9546 25.2828 42.7321 25.375 42.5 25.375H33.75C33.5179 25.375 33.2954 25.2828 33.1313 25.1187C32.9672 24.9546 32.875 24.7321 32.875 24.5C32.875 24.2679 32.9672 24.0454 33.1313 23.8813C33.2954 23.7172 33.5179 23.625 33.75 23.625H42.5C42.7321 23.625 42.9546 23.7172 43.1187 23.8813C43.2828 24.0454 43.375 24.2679 43.375 24.5ZM42.5 30.625H33.75C33.5179 30.625 33.2954 30.7172 33.1313 30.8813C32.9672 31.0454 32.875 31.2679 32.875 31.5C32.875 31.7321 32.9672 31.9546 33.1313 32.1187C33.2954 32.2828 33.5179 32.375 33.75 32.375H42.5C42.7321 32.375 42.9546 32.2828 43.1187 32.1187C43.2828 31.9546 43.375 31.7321 43.375 31.5C43.375 31.2679 43.2828 31.0454 43.1187 30.8813C42.9546 30.7172 42.7321 30.625 42.5 30.625ZM50.375 12.25V43.75C50.375 44.4462 50.0984 45.1139 49.6062 45.6062C49.1139 46.0984 48.4462 46.375 47.75 46.375H9.25C8.55381 46.375 7.88613 46.0984 7.39384 45.6062C6.90156 45.1139 6.625 44.4462 6.625 43.75V12.25C6.625 11.5538 6.90156 10.8861 7.39384 10.3938C7.88613 9.90156 8.55381 9.625 9.25 9.625H47.75C48.4462 9.625 49.1139 9.90156 49.6062 10.3938C50.0984 10.8861 50.375 11.5538 50.375 12.25ZM48.625 12.25C48.625 12.0179 48.5328 11.7954 48.3687 11.6313C48.2046 11.4672 47.9821 11.375 47.75 11.375H9.25C9.01794 11.375 8.79538 11.4672 8.63128 11.6313C8.46719 11.7954 8.375 12.0179 8.375 12.25V43.75C8.375 43.9821 8.46719 44.2046 8.63128 44.3687C8.79538 44.5328 9.01794 44.625 9.25 44.625H47.75C47.9821 44.625 48.2046 44.5328 48.3687 44.3687C48.5328 44.2046 48.625 43.9821 48.625 43.75V12.25ZM29.3466 36.5312C29.3803 36.644 29.391 36.7624 29.3779 36.8794C29.3648 36.9964 29.3283 37.1095 29.2705 37.212C29.2126 37.3146 29.1347 37.4044 29.0414 37.4761C28.948 37.5478 28.8412 37.5999 28.7272 37.6294C28.6133 37.6588 28.4945 37.665 28.3781 37.6474C28.2617 37.6299 28.1501 37.5891 28.0498 37.5274C27.9496 37.4658 27.8628 37.3845 27.7947 37.2885C27.7266 37.1925 27.6785 37.0837 27.6534 36.9688C26.9819 34.3438 24.3438 32.375 21.5 32.375C18.6562 32.375 16.0313 34.3438 15.3466 36.9688C15.2981 37.1565 15.1887 37.3228 15.0354 37.4415C14.8822 37.5603 14.6939 37.6249 14.5 37.625C14.4262 37.6251 14.3526 37.6155 14.2812 37.5966C14.0568 37.5384 13.8646 37.3935 13.7469 37.1938C13.6292 36.9941 13.5956 36.7558 13.6534 36.5312C13.9655 35.39 14.5287 34.3329 15.3019 33.4374C16.0752 32.5419 17.0389 31.8306 18.1225 31.3556C17.0241 30.6296 16.189 29.569 15.7408 28.331C15.2926 27.093 15.2553 25.7435 15.6343 24.4826C16.0134 23.2217 16.7887 22.1165 17.8452 21.3309C18.9018 20.5453 20.1834 20.121 21.5 20.121C22.8166 20.121 24.0982 20.5453 25.1548 21.3309C26.2113 22.1165 26.9866 23.2217 27.3657 24.4826C27.7447 25.7435 27.7074 27.093 27.2592 28.331C26.811 29.569 25.9759 30.6296 24.8775 31.3556C25.9618 31.8296 26.9261 32.5405 27.6995 33.4362C28.4729 34.3318 29.0357 35.3895 29.3466 36.5312ZM21.5 30.625C22.3653 30.625 23.2112 30.3684 23.9306 29.8877C24.6501 29.4069 25.2108 28.7237 25.542 27.9242C25.8731 27.1248 25.9597 26.2451 25.7909 25.3965C25.6221 24.5478 25.2054 23.7683 24.5936 23.1564C23.9817 22.5446 23.2022 22.1279 22.3535 21.9591C21.5049 21.7903 20.6252 21.8769 19.8258 22.208C19.0263 22.5392 18.3431 23.0999 17.8623 23.8194C17.3816 24.5388 17.125 25.3847 17.125 26.25C17.125 27.4103 17.5859 28.5231 18.4064 29.3436C19.2269 30.1641 20.3397 30.625 21.5 30.625Z" fill="#515451"/>
</svg>
