<svg width="24" height="24" viewBox="0 0 24 24" fill="none" xmlns="http://www.w3.org/2000/svg">
<path fill-rule="evenodd" clip-rule="evenodd" d="M14.7518 11.9845C13.6818 11.8508 12.9105 10.8928 13.0081 9.8189L13.508 4.32031L6.24255 11.5858L9.28275 12.0201C10.3368 12.1707 11.0881 13.1207 10.9917 14.181L10.4661 19.9624L18.5105 12.4544L14.7518 11.9845ZM8.99991 14L8.23712 22.3907C8.15398 23.3051 9.24403 23.8388 9.91533 23.2122L21.4375 12.4582C22.0576 11.8795 21.7209 10.8401 20.8792 10.7349L14.9999 9.99997L15.7498 1.75068C15.8345 0.819223 14.7082 0.29168 14.0468 0.953035L3.41412 11.5858C2.83143 12.1684 3.16404 13.1663 3.9798 13.2828L8.99991 14Z" fill="#1C1C1F"/>
</svg>
