<svg width="48" height="48" viewBox="0 0 48 48" fill="none" xmlns="http://www.w3.org/2000/svg">
<path d="M37.5 42H28.2262C29.7841 40.609 31.2532 39.1217 32.625 37.5469C37.7719 31.6275 40.5 25.3875 40.5 19.5C40.5 15.1239 38.7616 10.9271 35.6673 7.83274C32.5729 4.73839 28.3761 3 24 3C19.6239 3 15.4271 4.73839 12.3327 7.83274C9.23839 10.9271 7.5 15.1239 7.5 19.5C7.5 25.3875 10.2206 31.6275 15.375 37.5469C16.7468 39.1217 18.2159 40.609 19.7738 42H10.5C10.1022 42 9.72064 42.158 9.43934 42.4393C9.15804 42.7206 9 43.1022 9 43.5C9 43.8978 9.15804 44.2794 9.43934 44.5607C9.72064 44.842 10.1022 45 10.5 45H37.5C37.8978 45 38.2794 44.842 38.5607 44.5607C38.842 44.2794 39 43.8978 39 43.5C39 43.1022 38.842 42.7206 38.5607 42.4393C38.2794 42.158 37.8978 42 37.5 42ZM24 13.5C25.1867 13.5 26.3467 13.8519 27.3334 14.5112C28.3201 15.1705 29.0892 16.1075 29.5433 17.2039C29.9974 18.3003 30.1162 19.5067 29.8847 20.6705C29.6532 21.8344 29.0818 22.9035 28.2426 23.7426C27.4035 24.5818 26.3344 25.1532 25.1705 25.3847C24.0067 25.6162 22.8003 25.4974 21.7039 25.0433C20.6075 24.5892 19.6705 23.8201 19.0112 22.8334C18.3519 21.8467 18 20.6867 18 19.5C18 17.9087 18.6321 16.3826 19.7574 15.2574C20.8826 14.1321 22.4087 13.5 24 13.5Z" fill="#0C29FF"/>
</svg>
