<svg width="20" height="18" viewBox="0 0 20 18" fill="none" xmlns="http://www.w3.org/2000/svg">
<path d="M10 3C8.34315 3 7 4.34315 7 6C7 7.65685 8.34315 9 10 9C11.6569 9 13 7.65685 13 6C13 4.34315 11.6569 3 10 3Z" fill="#1C1C1F"/>
<path d="M3 6C3 5.44772 3.44772 5 4 5C4.55228 5 5 5.44772 5 6C5 6.55228 4.55228 7 4 7C3.44772 7 3 6.55228 3 6Z" fill="#1C1C1F"/>
<path d="M16 5C15.4477 5 15 5.44772 15 6C15 6.55228 15.4477 7 16 7C16.5523 7 17 6.55228 17 6C17 5.44772 16.5523 5 16 5Z" fill="#1C1C1F"/>
<path fill-rule="evenodd" clip-rule="evenodd" d="M20 2C20 0.895431 19.1046 0 18 0H2C0.895431 0 0 0.89543 0 2V16C0 17.1046 0.895431 18 2 18H18C19.1046 18 20 17.1046 20 16V2ZM2 12L2 13H18V12H2ZM2 10H18V2H2V10ZM18 16V15H2L2 16H18Z" fill="#1C1C1F"/>
</svg>
