<svg width="24" height="24" viewBox="0 0 24 24" fill="none" xmlns="http://www.w3.org/2000/svg">
<path d="M12.1766 9.5H11.1405V10.6396C10.6225 10.7363 10.2012 10.9643 9.87656 11.3234C9.53121 11.7033 9.35854 12.1903 9.35854 12.7842C9.35854 13.2815 9.50704 13.6821 9.80404 13.9861C10.032 14.2347 10.4118 14.4488 10.9437 14.6284L11.5549 14.8356C11.7691 14.9047 11.9245 14.9737 12.0212 15.0428C12.1593 15.1464 12.2284 15.2777 12.2284 15.4365C12.2284 15.6023 12.1662 15.7473 12.0419 15.8716C11.883 16.0305 11.6585 16.1099 11.3685 16.1099C11.0715 16.1099 10.7572 16.0305 10.4257 15.8716C10.1977 15.7611 9.95944 15.585 9.71079 15.3433L8.96484 16.7316C9.26875 16.9733 9.60374 17.1702 9.9698 17.3221C10.3566 17.481 10.7468 17.5638 11.1405 17.5708V18.6897H12.1766V17.519C12.6946 17.3877 13.109 17.1632 13.4198 16.8455C13.8066 16.438 14 15.9165 14 15.2811C14 14.7769 13.8273 14.3556 13.482 14.0171C13.2195 13.7616 12.8189 13.544 12.2802 13.3644L11.7414 13.1779C11.5411 13.1089 11.3823 13.0225 11.2649 12.9189C11.1682 12.8222 11.1198 12.7083 11.1198 12.577C11.1198 12.4389 11.1716 12.3249 11.2752 12.2351C11.4064 12.1108 11.6137 12.0487 11.8968 12.0487C12.2836 12.0487 12.6704 12.1972 13.0572 12.4942L13.741 11.168C13.2022 10.8434 12.6808 10.6673 12.1766 10.6396V9.5Z" fill="#1C1C1F"/>
<path fill-rule="evenodd" clip-rule="evenodd" d="M7.85815 7.21623C7.33348 7.45455 6.83312 7.75021 6.36674 8.1L5.41436 8.81429C4.80791 9.26912 4.26919 9.80784 3.81436 10.4143L3.27311 11.136C2.14885 12.635 1.74321 14.5536 2.16454 16.3794C2.6807 18.6161 4.36265 20.4008 6.56486 21.0485L7.23667 21.2461C10.02 22.0647 12.9802 22.0647 15.7635 21.2461L16.4353 21.0485C18.6375 20.4008 20.3194 18.6161 20.8356 16.3794C21.2569 14.5536 20.8513 12.635 19.727 11.136L19.1858 10.4143C18.731 9.80784 18.1922 9.26912 17.5858 8.81429L16.9196 8.31465C17.8314 8.55588 18.7064 8.93326 19.514 9.438L20.97 10.348L22.03 8.652L20.574 7.742C19.0985 6.81984 17.4372 6.2486 15.7176 6.06486L16.2387 5.02275C16.3948 4.71059 16.3336 4.33357 16.0868 4.08679C13.5536 1.55359 9.44649 1.55359 6.91329 4.08679C6.66651 4.33357 6.60532 4.71059 6.76141 5.02275L7.85815 7.21623ZM8.96982 4.96743C10.4905 3.92671 12.5096 3.92671 14.0303 4.96743L13.4869 6.05414L13.3974 6.0243C12.1658 5.61377 10.8343 5.61377 9.60268 6.0243L9.51317 6.05414L8.96982 4.96743ZM11.1667 8.5H11.8334C13.1316 8.5 14.3948 8.92107 15.4334 9.7L16.3858 10.4143C16.8406 10.7554 17.2447 11.1595 17.5858 11.6143L18.127 12.3359C18.8976 13.3633 19.1756 14.6783 18.8868 15.9297C18.5331 17.4626 17.3803 18.6858 15.871 19.1297L15.1991 19.3273C12.7842 20.0376 10.2159 20.0376 7.80101 19.3273L7.12919 19.1297C5.61985 18.6858 4.46709 17.4626 4.11333 15.9297C3.82456 14.6783 4.10257 13.3633 4.87311 12.3359L5.41436 11.6143C5.75548 11.1595 6.15952 10.7554 6.61436 10.4143L7.56674 9.7C8.60531 8.92107 9.86852 8.5 11.1667 8.5Z" fill="#1C1C1F"/>
</svg>
