<!-- Generated by IcoMoon.io -->
<svg version="1.1" xmlns="http://www.w3.org/2000/svg" width="32" height="32" viewBox="0 0 32 32">
<title>noteText</title>
<path d="M9.6 8c-0.884 0-1.6 0.716-1.6 1.6s0.716 1.6 1.6 1.6h12.8c0.884 0 1.6-0.716 1.6-1.6s-0.716-1.6-1.6-1.6h-12.8z"></path>
<path d="M8 16c0-0.884 0.716-1.6 1.6-1.6h12.8c0.884 0 1.6 0.716 1.6 1.6s-0.716 1.6-1.6 1.6h-12.8c-0.884 0-1.6-0.716-1.6-1.6z"></path>
<path d="M9.6 20.8c-0.884 0-1.6 0.716-1.6 1.6s0.716 1.6 1.6 1.6h9.6c0.884 0 1.6-0.716 1.6-1.6s-0.716-1.6-1.6-1.6h-9.6z"></path>
<path d="M3.2 3.2v25.6c0 1.767 1.433 3.2 3.2 3.2h19.2c1.767 0 3.2-1.433 3.2-3.2v-25.6c0-1.767-1.433-3.2-3.2-3.2h-19.2c-1.767 0-3.2 1.433-3.2 3.2zM6.4 3.2h19.2v25.6h-19.2v-25.6z"></path>
</svg>
