<!-- Generated by IcoMoon.io -->
<svg version="1.1" xmlns="http://www.w3.org/2000/svg" width="32" height="32" viewBox="0 0 32 32">
<title>notificationFilled</title>
<path d="M12 6.667c0-2.209 1.791-4 4-4s4 1.791 4 4v0.975c1.976 1.025 3.534 2.796 4.259 5.012l0.703 2.149c0.15 0.458 0.384 0.885 0.689 1.258l1.504 1.838c0.546 0.667 0.844 1.503 0.844 2.365 0 2.063-1.672 3.735-3.735 3.735h-16.53c-2.063 0-3.735-1.672-3.735-3.735 0-0.862 0.298-1.698 0.844-2.365l1.504-1.838c0.305-0.373 0.539-0.8 0.689-1.258l0.703-2.149c0.725-2.216 2.283-3.987 4.259-5.012v-0.975z"></path>
<path d="M17.333 29.333c2.209 0 4-1.791 4-4h-10.667c0 2.209 1.791 4 4 4h2.667z"></path>
<path d="M26.667 8c0 2.946-2.388 5.333-5.333 5.333s-5.333-2.388-5.333-5.333c0-2.946 2.388-5.333 5.333-5.333s5.333 2.388 5.333 5.333z"></path>
</svg>
