<!-- Generated by IcoMoon.io -->
<svg version="1.1" xmlns="http://www.w3.org/2000/svg" width="32" height="32" viewBox="0 0 32 32">
<title>notification</title>
<path d="M20.8 5.878c3.784 1.798 6.4 5.654 6.4 10.122v0.127c0 0.644 0.191 1.274 0.548 1.81l1.971 2.956c0.444 0.666 0.681 1.449 0.681 2.25 0 2.24-1.816 4.056-4.056 4.056h-3.009c-1.235 2.825-4.054 4.8-7.334 4.8s-6.1-1.975-7.334-4.8h-3.009c-2.24 0-4.056-1.816-4.056-4.056 0-0.801 0.237-1.584 0.681-2.25l1.971-2.956c0.357-0.536 0.548-1.166 0.548-1.81v-0.127c-0-4.468 2.616-8.325 6.4-10.122v-1.078c0-2.651 2.149-4.8 4.8-4.8s4.8 2.149 4.8 4.8v1.078zM17.6 4.8c0-0.884-0.716-1.6-1.6-1.6s-1.6 0.716-1.6 1.6h3.2zM19.578 27.2h-7.156c0.879 0.982 2.156 1.6 3.578 1.6s2.699-0.618 3.578-1.6zM26.344 24c0.473 0 0.856-0.383 0.856-0.856 0-0.169-0.050-0.334-0.144-0.475l-1.971-2.956c-0.708-1.062-1.086-2.309-1.086-3.585v-0.127c0-4.418-3.582-8-8-8s-8 3.582-8 8v0.127c0 1.276-0.378 2.524-1.086 3.585l-1.971 2.956c-0.094 0.141-0.144 0.306-0.144 0.475 0 0.473 0.383 0.856 0.856 0.856h20.687z"></path>
</svg>
