<svg width="24" height="24" viewBox="0 0 24 24" fill="none" xmlns="http://www.w3.org/2000/svg">
<path d="M9 5C9 3.34315 10.3431 2 12 2C13.6569 2 15 3.34315 15 5V5.73127C16.482 6.50013 17.6506 7.82844 18.1946 9.49054L18.7221 11.1024C18.8346 11.4462 19.0098 11.7661 19.2388 12.046L20.3668 13.4246C20.7763 13.9251 21 14.5519 21 15.1986C21 16.7458 19.7458 18 18.1986 18H5.80141C4.25423 18 3 16.7458 3 15.1986C3 14.5519 3.22373 13.9251 3.63324 13.4246L4.7612 12.046C4.99024 11.7661 5.16544 11.4461 5.27794 11.1024L5.80545 9.49056C6.34941 7.82845 7.51802 6.50013 9 5.73128V5Z" fill="#1C1C1F"/>
<path d="M13 22C14.6569 22 16 20.6569 16 19H8C8 20.6569 9.34315 22 11 22H13Z" fill="#1C1C1F"/>
</svg>
