<!-- Generated by IcoMoon.io -->
<svg version="1.1" xmlns="http://www.w3.org/2000/svg" width="32" height="32" viewBox="0 0 32 32">
<title>numpad</title>
<path d="M16 0c-1.607 0-2.909 1.302-2.909 2.909s1.302 2.909 2.909 2.909c1.607 0 2.909-1.302 2.909-2.909s-1.302-2.909-2.909-2.909z"></path>
<path d="M16 8.727c-1.607 0-2.909 1.302-2.909 2.909s1.302 2.909 2.909 2.909c1.607 0 2.909-1.302 2.909-2.909s-1.302-2.909-2.909-2.909z"></path>
<path d="M13.091 20.364c0-1.607 1.302-2.909 2.909-2.909s2.909 1.302 2.909 2.909c0 1.607-1.302 2.909-2.909 2.909s-2.909-1.302-2.909-2.909z"></path>
<path d="M16 26.182c-1.607 0-2.909 1.302-2.909 2.909s1.302 2.909 2.909 2.909c1.607 0 2.909-1.302 2.909-2.909s-1.302-2.909-2.909-2.909z"></path>
<path d="M4.364 11.636c0-1.607 1.302-2.909 2.909-2.909s2.909 1.302 2.909 2.909c0 1.607-1.302 2.909-2.909 2.909s-2.909-1.302-2.909-2.909z"></path>
<path d="M7.273 0c-1.607 0-2.909 1.302-2.909 2.909s1.302 2.909 2.909 2.909c1.607 0 2.909-1.302 2.909-2.909s-1.302-2.909-2.909-2.909z"></path>
<path d="M4.364 20.364c0-1.607 1.302-2.909 2.909-2.909s2.909 1.302 2.909 2.909c0 1.607-1.302 2.909-2.909 2.909s-2.909-1.302-2.909-2.909z"></path>
<path d="M24.727 8.727c-1.607 0-2.909 1.302-2.909 2.909s1.302 2.909 2.909 2.909c1.607 0 2.909-1.302 2.909-2.909s-1.302-2.909-2.909-2.909z"></path>
<path d="M21.818 2.909c0-1.607 1.302-2.909 2.909-2.909s2.909 1.302 2.909 2.909c0 1.607-1.302 2.909-2.909 2.909s-2.909-1.302-2.909-2.909z"></path>
<path d="M24.727 17.455c-1.607 0-2.909 1.302-2.909 2.909s1.302 2.909 2.909 2.909c1.607 0 2.909-1.302 2.909-2.909s-1.302-2.909-2.909-2.909z"></path>
</svg>
