<!-- Generated by IcoMoon.io -->
<svg version="1.1" xmlns="http://www.w3.org/2000/svg" width="32" height="32" viewBox="0 0 32 32">
<title>password</title>
<path d="M26.182 10.182c1.607 0 2.909 1.302 2.909 2.909v5.818c0 1.607-1.302 2.909-2.909 2.909h-20.364c-1.607 0-2.909-1.302-2.909-2.909v-5.818c0-1.607 1.302-2.909 2.909-2.909h20.364zM5.818 7.273c-3.213 0-5.818 2.605-5.818 5.818v5.818c0 3.213 2.605 5.818 5.818 5.818h20.364c3.213 0 5.818-2.605 5.818-5.818v-5.818c0-3.213-2.605-5.818-5.818-5.818h-20.364z"></path>
<path d="M11.636 16c0 1.607-1.302 2.909-2.909 2.909s-2.909-1.302-2.909-2.909c0-1.607 1.302-2.909 2.909-2.909s2.909 1.302 2.909 2.909z"></path>
<path d="M26.182 16c0 1.607-1.302 2.909-2.909 2.909s-2.909-1.302-2.909-2.909c0-1.607 1.302-2.909 2.909-2.909s2.909 1.302 2.909 2.909z"></path>
<path d="M18.909 16c0 1.607-1.302 2.909-2.909 2.909s-2.909-1.302-2.909-2.909 1.302-2.909 2.909-2.909c1.607 0 2.909 1.302 2.909 2.909z"></path>
</svg>
