<svg width="24" height="24" viewBox="0 0 24 24" fill="none" xmlns="http://www.w3.org/2000/svg">
<g clip-path="url(#clip0_5696_2323)">
<path fill-rule="evenodd" clip-rule="evenodd" d="M12.7084 11H4V3H20V9.25204C20.7095 9.43466 21.381 9.71218 22 10.0703V3C22 1.89543 21.1046 1 20 1H4C2.89543 1 2 1.89543 2 3V11V14V17C2 18.1046 2.89543 19 4 19H8C8.55228 19 9 18.5523 9 18C9 17.4477 8.55228 17 8 17H4L4 16H10.0619C10.149 15.3014 10.3262 14.6307 10.5815 14H4L4 13H11.0703C11.5057 12.2472 12.0604 11.5719 12.7084 11ZM12 4C10.3431 4 9 5.34315 9 7C9 8.65685 10.3431 10 12 10C13.6569 10 15 8.65685 15 7C15 5.34315 13.6569 4 12 4ZM6 6C5.44772 6 5 6.44772 5 7C5 7.55228 5.44772 8 6 8C6.55228 8 7 7.55228 7 7C7 6.44772 6.55228 6 6 6ZM17 7C17 6.44772 17.4477 6 18 6C18.5523 6 19 6.44772 19 7C19 7.55228 18.5523 8 18 8C17.4477 8 17 7.55228 17 7ZM18.2675 13.009C17.3388 12.9467 16.4174 13.2103 15.6622 13.7543C14.9069 14.2983 14.365 15.0887 14.1298 15.9893C14.0357 16.3494 13.9931 16.7181 14.0009 17.0849L14.2929 16.7929C14.6834 16.4024 15.3166 16.4024 15.7071 16.7929C16.0976 17.1834 16.0976 17.8166 15.7071 18.2071L13.9899 19.9243C13.4432 20.471 12.5568 20.471 12.0101 19.9243L10.2929 18.2071C9.90237 17.8166 9.90237 17.1834 10.2929 16.7929C10.6834 16.4024 11.3166 16.4024 11.7071 16.7929L12.0006 17.0864C11.9929 16.5497 12.0571 16.0107 12.1947 15.484C12.5474 14.1331 13.3603 12.9475 14.4932 12.1315C15.6262 11.3154 17.0082 10.9201 18.4013 11.0134C19.7944 11.1068 21.1113 11.6832 22.1252 12.6431C23.1391 13.6031 23.7864 14.8865 23.9557 16.2725C24.125 17.6584 23.8057 19.06 23.0527 20.2358C22.2997 21.4115 21.1603 22.2879 19.8306 22.7139C18.501 23.1399 17.0644 23.0889 15.7683 22.5695L16.5122 20.713C17.3763 21.0592 18.334 21.0933 19.2204 20.8093C20.1068 20.5253 20.8665 19.941 21.3685 19.1572C21.8704 18.3733 22.0833 17.4389 21.9705 16.515C21.8576 15.591 21.426 14.7354 20.7501 14.0954C20.0742 13.4554 19.1963 13.0712 18.2675 13.009Z" fill="#1C1C1F"/>
</g>
<defs>
<clipPath id="clip0_5696_2323">
<rect width="24" height="24" fill="white"/>
</clipPath>
</defs>
</svg>
