<!-- Generated by IcoMoon.io -->
<svg version="1.1" xmlns="http://www.w3.org/2000/svg" width="32" height="32" viewBox="0 0 32 32">
<title>pencil</title>
<path d="M23.23 1.196c0.657-0.66 1.726-0.661 2.384-0.002l4.352 4.353c0.658 0.658 0.658 1.724 0 2.382l-2.664 2.664c-0.66 0.66-1.732 0.657-2.388-0.006l-4.323-4.371c-0.651-0.658-0.649-1.717 0.004-2.373l2.635-2.646z"></path>
<path d="M19.003 7.932l4.363 4.363c0.654 0.655 0.658 1.715 0.008 2.374l-15.173 15.383c-0.316 0.321-0.748 0.502-1.199 0.502h-4.348c-0.93 0-1.684-0.754-1.684-1.684l0-4.588c0-0.447 0.177-0.875 0.493-1.191l15.158-15.158c0.658-0.658 1.724-0.658 2.382 0zM17.812 11.505l-13.474 13.474-0 2.207h1.96l13.504-13.691-1.99-1.989z"></path>
</svg>
