<svg width="24" height="24" viewBox="0 0 24 24" fill="none" xmlns="http://www.w3.org/2000/svg">
<path fill-rule="evenodd" clip-rule="evenodd" d="M13.9903 7.22991C13.9967 7.15382 14 7.07717 14 7C14 4.79086 11.3137 3 8 3C4.68629 3 2 4.79086 2 7C2 7.53045 2.15488 8.03678 2.43614 8.5C2.15488 8.96322 2 9.46955 2 10C2 10.5305 2.15488 11.0368 2.43614 11.5C2.15488 11.9632 2 12.4696 2 13C2 15.2091 4.68629 17 8 17C8.70491 17 9.38144 16.919 10.0097 16.7701C10.0033 16.8462 10 16.9228 10 17C10 19.2091 12.6863 21 16 21C19.3137 21 22 19.2091 22 17C22 16.4695 21.8451 15.9632 21.5639 15.5C21.8451 15.0368 22 14.5305 22 14C22 13.4695 21.8451 12.9632 21.5639 12.5C21.8451 12.0368 22 11.5305 22 11C22 8.79086 19.3137 7 16 7C15.2951 7 14.6186 7.08104 13.9903 7.22991ZM10.0097 10.7701C9.38144 10.919 8.70491 11 8 11C6.46343 11 5.06177 10.6149 4.00029 9.98165L4 10C4 10.2278 4.13854 10.6788 4.86676 11.1643C5.581 11.6405 6.68292 12 8 12C8.65939 12 9.44387 11.7905 10.0629 11.5814C10.0215 11.3916 10 11.1975 10 11C10 10.9228 10.0033 10.8462 10.0097 10.7701ZM10.0838 14.6701C10.0287 14.4522 10 14.2283 10 14C10 13.9228 10.0033 13.8462 10.0097 13.7701C9.38144 13.919 8.70491 14 8 14C6.46343 14 5.06177 13.6149 4.00029 12.9817L4 13C4 13.2278 4.13854 13.6788 4.86676 14.1643C5.581 14.6405 6.68292 15 8 15C8.78265 15 9.48933 14.8731 10.0838 14.6701ZM12 7C12 7.2278 11.8615 7.67885 11.1332 8.16433C10.419 8.64049 9.31708 9 8 9C6.68292 9 5.581 8.64049 4.86676 8.16433C4.13854 7.67885 4 7.2278 4 7C4 6.7722 4.13854 6.32115 4.86676 5.83567C5.581 5.35951 6.68292 5 8 5C9.31708 5 10.419 5.35951 11.1332 5.83567C11.8615 6.32115 12 6.7722 12 7ZM19.1332 12.1643C19.8615 11.6788 20 11.2278 20 11C20 10.7722 19.8615 10.3212 19.1332 9.83567C18.419 9.35951 17.3171 9 16 9C14.6829 9 13.581 9.35951 12.8668 9.83567C12.1385 10.3212 12 10.7722 12 11C12 11.2278 12.1385 11.6788 12.8668 12.1643C13.581 12.6405 14.6829 13 16 13C17.3171 13 18.419 12.6405 19.1332 12.1643ZM16 15C17.5366 15 18.9382 14.6149 19.9997 13.9817L20 14C20 14.2278 19.8615 14.6788 19.1332 15.1643C18.419 15.6405 17.3171 16 16 16C14.6829 16 13.581 15.6405 12.8668 15.1643C12.1385 14.6788 12 14.2278 12 14L12.0003 13.9817C13.0618 14.6149 14.4634 15 16 15ZM11.9657 13.9609L12.0003 13.9817C11.9887 13.9748 11.9772 13.9678 11.9657 13.9609ZM12.0003 16.9817L12 17C12 17.2278 12.1385 17.6788 12.8668 18.1643C13.581 18.6405 14.6829 19 16 19C17.3171 19 18.419 18.6405 19.1332 18.1643C19.8615 17.6788 20 17.2278 20 17L19.9997 16.9817C18.9382 17.6149 17.5366 18 16 18C14.4634 18 13.0618 17.6149 12.0003 16.9817Z" fill="#1C1C1F"/>
</svg>
