<!-- Generated by IcoMoon.io -->
<svg version="1.1" xmlns="http://www.w3.org/2000/svg" width="32" height="32" viewBox="0 0 32 32">
<title>pennies</title>
<path d="M19.184 8.368c0.010-0.122 0.016-0.244 0.016-0.368 0-3.535-4.298-6.4-9.6-6.4s-9.6 2.865-9.6 6.4c0 0.849 0.248 1.659 0.698 2.4-0.45 0.741-0.698 1.551-0.698 2.4s0.248 1.659 0.698 2.4c-0.45 0.741-0.698 1.551-0.698 2.4 0 3.535 4.298 6.4 9.6 6.4 1.128 0 2.21-0.13 3.216-0.368-0.010 0.122-0.016 0.244-0.016 0.368 0 3.535 4.298 6.4 9.6 6.4s9.6-2.865 9.6-6.4c0-0.849-0.248-1.659-0.698-2.4 0.45-0.741 0.698-1.551 0.698-2.4s-0.248-1.659-0.698-2.4c0.45-0.741 0.698-1.551 0.698-2.4 0-3.535-4.298-6.4-9.6-6.4-1.128 0-2.21 0.13-3.216 0.368zM12.816 14.032c-1.005 0.238-2.088 0.368-3.216 0.368-2.458 0-4.701-0.616-6.4-1.629l-0 0.029c0 0.364 0.222 1.086 1.387 1.863 1.143 0.762 2.906 1.337 5.013 1.337 1.055 0 2.31-0.335 3.301-0.67-0.066-0.304-0.101-0.614-0.101-0.93 0-0.123 0.005-0.246 0.016-0.368zM12.934 20.272c-0.088-0.349-0.134-0.707-0.134-1.072 0-0.124 0.005-0.246 0.016-0.368-1.005 0.238-2.088 0.368-3.216 0.368-2.458 0-4.701-0.616-6.4-1.629l-0 0.029c0 0.364 0.222 1.086 1.387 1.863 1.143 0.762 2.906 1.337 5.013 1.337 1.252 0 2.383-0.203 3.334-0.528zM16 8c0 0.364-0.222 1.086-1.387 1.863-1.143 0.762-2.906 1.337-5.013 1.337s-3.87-0.575-5.013-1.337c-1.165-0.777-1.387-1.498-1.387-1.863s0.222-1.086 1.387-1.863c1.143-0.762 2.906-1.337 5.013-1.337s3.87 0.575 5.013 1.337c1.165 0.777 1.387 1.498 1.387 1.863zM27.413 16.263c1.165-0.777 1.387-1.498 1.387-1.863s-0.222-1.086-1.387-1.863c-1.143-0.762-2.906-1.337-5.013-1.337s-3.87 0.575-5.013 1.337c-1.165 0.777-1.387 1.498-1.387 1.863s0.222 1.086 1.387 1.863c1.143 0.762 2.906 1.337 5.013 1.337s3.87-0.575 5.013-1.337zM22.4 20.8c2.459 0 4.701-0.616 6.4-1.629l0 0.029c0 0.364-0.222 1.086-1.387 1.863-1.143 0.762-2.906 1.337-5.013 1.337s-3.87-0.575-5.013-1.337c-1.165-0.777-1.387-1.498-1.387-1.863l0-0.029c1.698 1.013 3.941 1.629 6.4 1.629zM15.945 19.137l0.055 0.033c-0.018-0.011-0.037-0.022-0.055-0.033zM16 23.971l-0 0.029c0 0.364 0.222 1.086 1.387 1.863 1.143 0.762 2.906 1.337 5.013 1.337s3.87-0.575 5.013-1.337c1.165-0.777 1.387-1.498 1.387-1.863l-0-0.029c-1.698 1.013-3.941 1.629-6.4 1.629s-4.701-0.616-6.4-1.629z"></path>
</svg>
