<svg width="24" height="24" viewBox="0 0 24 24" fill="none" xmlns="http://www.w3.org/2000/svg">
<path d="M20.8463 14.8557L16.4306 12.8766L16.4194 12.871C16.19 12.7728 15.9397 12.7333 15.6912 12.7562C15.4427 12.7792 15.2038 12.8637 14.9963 13.0022C14.9718 13.0184 14.9484 13.0359 14.9259 13.0547L12.6441 15.0001C11.1984 14.2979 9.70595 12.8166 9.00376 11.3897L10.9519 9.07318C10.9706 9.04974 10.9884 9.0263 11.0053 9.00099C11.1407 8.79409 11.2229 8.55692 11.2445 8.31059C11.2661 8.06427 11.2264 7.81642 11.1291 7.58912C11.1287 7.58538 11.1287 7.58161 11.1291 7.57787L9.14438 3.1538C9.0157 2.85687 8.79444 2.60951 8.51362 2.44865C8.2328 2.2878 7.9075 2.22208 7.58626 2.2613C6.31592 2.42847 5.14986 3.05234 4.30588 4.01639C3.4619 4.98045 2.99771 6.21876 3.00001 7.50005C3.00001 14.9438 9.05626 21.0001 16.5 21.0001C17.7813 21.0023 19.0196 20.5382 19.9837 19.6942C20.9477 18.8502 21.5716 17.6841 21.7388 16.4138C21.778 16.0926 21.7123 15.7673 21.5514 15.4864C21.3906 15.2056 21.1432 14.9844 20.8463 14.8557ZM16.5 19.5001C13.3185 19.4966 10.2682 18.2312 8.01856 15.9815C5.76888 13.7318 4.50348 10.6816 4.50001 7.50005C4.49648 6.58458 4.82631 5.69911 5.42789 5.00903C6.02947 4.31895 6.86167 3.87143 7.76907 3.75005C7.7687 3.7538 7.7687 3.75756 7.76907 3.7613L9.73782 8.16755L7.80001 10.4869C7.78034 10.5096 7.76247 10.5337 7.74657 10.5591C7.60549 10.7756 7.52273 11.0249 7.5063 11.2827C7.48988 11.5406 7.54035 11.7984 7.65282 12.031C8.5022 13.7682 10.2525 15.5054 12.0084 16.3538C12.2428 16.4652 12.502 16.5139 12.7608 16.4952C13.0196 16.4765 13.2692 16.3909 13.485 16.2469C13.5093 16.2307 13.5325 16.2128 13.5544 16.1935L15.8334 14.2501L20.2397 16.2244C20.2397 16.2244 20.2472 16.2244 20.25 16.2244C20.1299 17.1329 19.683 17.9666 18.9928 18.5695C18.3026 19.1724 17.4164 19.5032 16.5 19.5001ZM13.5 6.75005C13.5 6.55114 13.579 6.36038 13.7197 6.21972C13.8603 6.07907 14.0511 6.00005 14.25 6.00005H16.5V3.75005C16.5 3.55114 16.579 3.36038 16.7197 3.21972C16.8603 3.07907 17.0511 3.00005 17.25 3.00005C17.4489 3.00005 17.6397 3.07907 17.7803 3.21972C17.921 3.36038 18 3.55114 18 3.75005V6.00005H20.25C20.4489 6.00005 20.6397 6.07907 20.7803 6.21972C20.921 6.36038 21 6.55114 21 6.75005C21 6.94897 20.921 7.13973 20.7803 7.28038C20.6397 7.42104 20.4489 7.50005 20.25 7.50005H18V9.75005C18 9.94897 17.921 10.1397 17.7803 10.2804C17.6397 10.421 17.4489 10.5001 17.25 10.5001C17.0511 10.5001 16.8603 10.421 16.7197 10.2804C16.579 10.1397 16.5 9.94897 16.5 9.75005V7.50005H14.25C14.0511 7.50005 13.8603 7.42104 13.7197 7.28038C13.579 7.13973 13.5 6.94897 13.5 6.75005Z" fill="black"/>
</svg>
