<svg width="32" height="32" viewBox="0 0 32 32" fill="none" xmlns="http://www.w3.org/2000/svg">
<path d="M19.2925 12.7075C19.1995 12.6146 19.1258 12.5043 19.0754 12.3829C19.0251 12.2615 18.9992 12.1314 18.9992 12C18.9992 11.8686 19.0251 11.7385 19.0754 11.6171C19.1258 11.4957 19.1995 11.3854 19.2925 11.2925L23.5863 7H21C20.7348 7 20.4804 6.89464 20.2929 6.70711C20.1054 6.51957 20 6.26522 20 6C20 5.73478 20.1054 5.48043 20.2929 5.29289C20.4804 5.10536 20.7348 5 21 5H26C26.2652 5 26.5196 5.10536 26.7071 5.29289C26.8946 5.48043 27 5.73478 27 6V11C27 11.2652 26.8946 11.5196 26.7071 11.7071C26.5196 11.8946 26.2652 12 26 12C25.7348 12 25.4804 11.8946 25.2929 11.7071C25.1054 11.5196 25 11.2652 25 11V8.41375L20.7075 12.7075C20.6146 12.8005 20.5043 12.8742 20.3829 12.9246C20.2615 12.9749 20.1314 13.0008 20 13.0008C19.8686 13.0008 19.7385 12.9749 19.6171 12.9246C19.4957 12.8742 19.3854 12.8005 19.2925 12.7075ZM27.7925 19.8075L21.9038 17.1687L21.8875 17.1612C21.5818 17.0305 21.2483 16.978 20.9172 17.0086C20.5861 17.0391 20.2679 17.1518 19.9913 17.3362C19.9587 17.3578 19.9274 17.3811 19.8975 17.4062L16.8588 20C14.9313 19.0637 12.9413 17.0887 12.005 15.1862L14.6025 12.0975C14.6275 12.0662 14.6513 12.035 14.6738 12.0012C14.8543 11.7254 14.9638 11.4092 14.9926 11.0807C15.0214 10.7523 14.9685 10.4218 14.8388 10.1187V10.1037L12.1925 4.205C12.0209 3.80908 11.7259 3.47927 11.3515 3.2648C10.9771 3.05033 10.5433 2.9627 10.115 3.015C8.42122 3.23788 6.86648 4.06971 5.74117 5.35512C4.61586 6.64053 3.99694 8.29161 4 10C4 19.925 12.075 28 22 28C23.7084 28.0031 25.3595 27.3841 26.6449 26.2588C27.9303 25.1335 28.7621 23.5788 28.985 21.885C29.0374 21.4568 28.95 21.0232 28.7357 20.6488C28.5215 20.2744 28.1919 19.9793 27.7963 19.8075H27.7925Z" fill="#000214"/>
</svg>
