<svg width="33" height="33" viewBox="0 0 33 33" fill="none" xmlns="http://www.w3.org/2000/svg">
<path d="M19.7251 13.3921C19.6322 13.2993 19.5584 13.189 19.5081 13.0676C19.4577 12.9462 19.4318 12.816 19.4318 12.6846C19.4318 12.5532 19.4577 12.4231 19.5081 12.3017C19.5584 12.1803 19.6322 12.07 19.7251 11.9771L24.0189 7.68462H21.4326C21.1674 7.68462 20.9131 7.57927 20.7255 7.39173C20.538 7.20419 20.4326 6.94984 20.4326 6.68462C20.4326 6.41941 20.538 6.16505 20.7255 5.97752C20.9131 5.78998 21.1674 5.68462 21.4326 5.68462H26.4326C26.6978 5.68462 26.9522 5.78998 27.1397 5.97752C27.3273 6.16505 27.4326 6.41941 27.4326 6.68462V11.6846C27.4326 11.9498 27.3273 12.2042 27.1397 12.3917C26.9522 12.5793 26.6978 12.6846 26.4326 12.6846C26.1674 12.6846 25.9131 12.5793 25.7255 12.3917C25.538 12.2042 25.4326 11.9498 25.4326 11.6846V9.09837L21.1401 13.3921C21.0473 13.4851 20.937 13.5589 20.8156 13.6092C20.6942 13.6595 20.564 13.6854 20.4326 13.6854C20.3012 13.6854 20.1711 13.6595 20.0497 13.6092C19.9283 13.5589 19.818 13.4851 19.7251 13.3921ZM29.4176 22.5696C29.1947 24.2634 28.3629 25.8181 27.0775 26.9435C25.7921 28.0688 24.141 28.6877 22.4326 28.6846C12.5076 28.6846 4.43263 20.6096 4.43263 10.6846C4.42957 8.97624 5.04849 7.32515 6.1738 6.03974C7.2991 4.75433 8.85384 3.92251 10.5476 3.69962C10.9758 3.64723 11.4094 3.73467 11.7838 3.94891C12.1582 4.16314 12.4534 4.49269 12.6251 4.88837L15.2651 10.7834V10.7984C15.3965 11.1014 15.4507 11.4323 15.423 11.7615C15.3953 12.0906 15.2865 12.4078 15.1064 12.6846C15.0839 12.7184 15.0601 12.7496 15.0351 12.7809L12.4326 15.8659C13.3689 17.7684 15.3589 19.7409 17.2864 20.6796L20.3289 18.0909C20.3588 18.0658 20.3901 18.0424 20.4226 18.0209C20.6989 17.8356 21.0172 17.7226 21.3485 17.692C21.6797 17.6614 22.0133 17.7143 22.3189 17.8459L22.3351 17.8534L28.2239 20.4921C28.6205 20.6631 28.9511 20.9578 29.1663 21.3323C29.3815 21.7068 29.4696 22.1409 29.4176 22.5696ZM27.4326 22.3196C27.4326 22.3196 27.4239 22.3196 27.4189 22.3196L21.5439 19.6871L18.5001 22.2771C18.4706 22.3021 18.4397 22.3255 18.4076 22.3471C18.1198 22.5391 17.7871 22.6532 17.4421 22.6782C17.097 22.7032 16.7513 22.6382 16.4389 22.4896C14.0976 21.3584 11.7639 19.0421 10.6314 16.7259C10.4814 16.4157 10.4141 16.072 10.436 15.7282C10.4579 15.3844 10.5683 15.052 10.7564 14.7634C10.7776 14.7295 10.8014 14.6973 10.8276 14.6671L13.4326 11.5784L10.8076 5.70337C10.8071 5.69839 10.8071 5.69336 10.8076 5.68837C9.59545 5.8465 8.48248 6.44108 7.67714 7.36077C6.87181 8.28046 6.42935 9.46218 6.43263 10.6846C6.43726 14.9267 8.12446 18.9936 11.124 21.9932C14.1236 24.9928 18.1906 26.68 22.4326 26.6846C23.6543 26.6888 24.8357 26.2479 25.756 25.4443C26.6762 24.6407 27.2722 23.5295 27.4326 22.3184V22.3196Z" fill="#0C29FF"/>
</svg>
