<!-- Generated by IcoMoon.io -->
<svg version="1.1" xmlns="http://www.w3.org/2000/svg" width="32" height="32" viewBox="0 0 32 32">
<title>profile</title>
<path d="M0 16c0-8.837 7.163-16 16-16s16 7.163 16 16c0 8.836-7.164 16-16 16s-16-7.164-16-16zM4.912 22.4c1.408-2.435 3.596-4.363 6.222-5.443-0.956-1.118-1.534-2.57-1.534-4.157 0-3.535 2.865-6.4 6.4-6.4s6.4 2.865 6.4 6.4c0 1.587-0.578 3.039-1.534 4.157 2.626 1.080 4.813 3.008 6.222 5.443 1.089-1.883 1.712-4.069 1.712-6.4 0-7.069-5.731-12.8-12.8-12.8s-12.8 5.731-12.8 12.8c0 2.332 0.623 4.517 1.712 6.4zM7.099 25.198c2.304 2.23 5.442 3.602 8.901 3.602s6.598-1.372 8.901-3.602c-1.425-3.517-4.873-5.998-8.901-5.998s-7.477 2.481-8.901 5.998zM12.8 12.8c0 1.767 1.433 3.2 3.2 3.2s3.2-1.433 3.2-3.2-1.433-3.2-3.2-3.2c-1.767 0-3.2 1.433-3.2 3.2z"></path>
</svg>
