<svg width="24" height="24" viewBox="0 0 24 24" fill="none" xmlns="http://www.w3.org/2000/svg">
<path fill-rule="evenodd" clip-rule="evenodd" d="M19.743 5.67132C21.1537 7.39518 22 9.59875 22 12C22 17.5228 17.5228 22 12 22C9.59875 22 7.39518 21.1537 5.67132 19.743L5.63614 19.7782L4.95657 19.0986C4.93811 19.0803 4.91972 19.0619 4.9014 19.0434L4.22192 18.364L4.2571 18.3288C2.84638 16.6049 2 14.4013 2 12C2 6.47715 6.47715 2 12 2C14.4013 2 16.6049 2.84638 18.3288 4.2571L18.3641 4.22182L19.7783 5.63603L19.743 5.67132ZM20 12C20 16.4183 16.4183 20 12 20C10.1513 20 8.44908 19.3729 7.09441 18.3199L18.3199 7.09441C19.3729 8.44908 20 10.1513 20 12ZM5.68018 16.9057L16.9057 5.68018C15.551 4.6271 13.8487 4 12 4C7.58172 4 4 7.58172 4 12C4 13.8487 4.6271 15.551 5.68018 16.9057Z" fill="#1C1C1F"/>
</svg>
