<svg width="24" height="24" viewBox="0 0 24 24" fill="none" xmlns="http://www.w3.org/2000/svg">
<path d="M9.75 3.9375H5.25C4.9019 3.9375 4.56806 4.07578 4.32192 4.32192C4.07578 4.56806 3.9375 4.9019 3.9375 5.25V9.75C3.9375 9.92236 3.97145 10.093 4.03741 10.2523C4.10337 10.4115 4.20005 10.5562 4.32192 10.6781C4.4438 10.8 4.58849 10.8966 4.74773 10.9626C4.90697 11.0286 5.07764 11.0625 5.25 11.0625H9.75C9.92236 11.0625 10.093 11.0286 10.2523 10.9626C10.4115 10.8966 10.5562 10.8 10.6781 10.6781C10.8 10.5562 10.8966 10.4115 10.9626 10.2523C11.0286 10.093 11.0625 9.92236 11.0625 9.75V5.25C11.0625 5.07764 11.0286 4.90697 10.9626 4.74773C10.8966 4.58849 10.8 4.4438 10.6781 4.32192C10.5562 4.20005 10.4115 4.10337 10.2523 4.03741C10.093 3.97145 9.92236 3.9375 9.75 3.9375ZM9.9375 9.75C9.9375 9.79973 9.91775 9.84742 9.88258 9.88258C9.84742 9.91775 9.79973 9.9375 9.75 9.9375H5.25C5.20027 9.9375 5.15258 9.91775 5.11742 9.88258C5.08225 9.84742 5.0625 9.79973 5.0625 9.75V5.25C5.0625 5.20027 5.08225 5.15258 5.11742 5.11742C5.15258 5.08225 5.20027 5.0625 5.25 5.0625H9.75C9.79973 5.0625 9.84742 5.08225 9.88258 5.11742C9.91775 5.15258 9.9375 5.20027 9.9375 5.25V9.75ZM9.75 12.9375H5.25C4.9019 12.9375 4.56806 13.0758 4.32192 13.3219C4.07578 13.5681 3.9375 13.9019 3.9375 14.25V18.75C3.9375 19.0981 4.07578 19.4319 4.32192 19.6781C4.56806 19.9242 4.9019 20.0625 5.25 20.0625H9.75C9.92236 20.0625 10.093 20.0286 10.2523 19.9626C10.4115 19.8966 10.5562 19.8 10.6781 19.6781C10.8 19.5562 10.8966 19.4115 10.9626 19.2523C11.0286 19.093 11.0625 18.9224 11.0625 18.75V14.25C11.0625 14.0776 11.0286 13.907 10.9626 13.7477C10.8966 13.5885 10.8 13.4438 10.6781 13.3219C10.5562 13.2 10.4115 13.1034 10.2523 13.0374C10.093 12.9714 9.92236 12.9375 9.75 12.9375ZM9.9375 18.75C9.9375 18.7997 9.91775 18.8474 9.88258 18.8826C9.84742 18.9177 9.79973 18.9375 9.75 18.9375H5.25C5.20027 18.9375 5.15258 18.9177 5.11742 18.8826C5.08225 18.8474 5.0625 18.7997 5.0625 18.75V14.25C5.0625 14.2003 5.08225 14.1526 5.11742 14.1174C5.15258 14.0823 5.20027 14.0625 5.25 14.0625H9.75C9.79973 14.0625 9.84742 14.0823 9.88258 14.1174C9.91775 14.1526 9.9375 14.2003 9.9375 14.25V18.75ZM18.75 3.9375H14.25C13.9019 3.9375 13.5681 4.07578 13.3219 4.32192C13.0758 4.56806 12.9375 4.9019 12.9375 5.25V9.75C12.9375 9.92236 12.9714 10.093 13.0374 10.2523C13.1034 10.4115 13.2 10.5562 13.3219 10.6781C13.4438 10.8 13.5885 10.8966 13.7477 10.9626C13.907 11.0286 14.0776 11.0625 14.25 11.0625H18.75C18.9224 11.0625 19.093 11.0286 19.2523 10.9626C19.4115 10.8966 19.5562 10.8 19.6781 10.6781C19.8 10.5562 19.8966 10.4115 19.9626 10.2523C20.0286 10.093 20.0625 9.92236 20.0625 9.75V5.25C20.0625 4.9019 19.9242 4.56806 19.6781 4.32192C19.4319 4.07578 19.0981 3.9375 18.75 3.9375ZM18.9375 9.75C18.9375 9.79973 18.9177 9.84742 18.8826 9.88258C18.8474 9.91775 18.7997 9.9375 18.75 9.9375H14.25C14.2003 9.9375 14.1526 9.91775 14.1174 9.88258C14.0823 9.84742 14.0625 9.79973 14.0625 9.75V5.25C14.0625 5.20027 14.0823 5.15258 14.1174 5.11742C14.1526 5.08225 14.2003 5.0625 14.25 5.0625H18.75C18.7997 5.0625 18.8474 5.08225 18.8826 5.11742C18.9177 5.15258 18.9375 5.20027 18.9375 5.25V9.75ZM12.9375 16.5V13.5C12.9375 13.3508 12.9968 13.2077 13.1023 13.1023C13.2077 12.9968 13.3508 12.9375 13.5 12.9375C13.6492 12.9375 13.7923 12.9968 13.8977 13.1023C14.0032 13.2077 14.0625 13.3508 14.0625 13.5V16.5C14.0625 16.6492 14.0032 16.7923 13.8977 16.8977C13.7923 17.0032 13.6492 17.0625 13.5 17.0625C13.3508 17.0625 13.2077 17.0032 13.1023 16.8977C12.9968 16.7923 12.9375 16.6492 12.9375 16.5ZM20.0625 15C20.0625 15.1492 20.0032 15.2923 19.8977 15.3977C19.7923 15.5032 19.6492 15.5625 19.5 15.5625H17.0625V19.5C17.0625 19.6492 17.0032 19.7923 16.8977 19.8977C16.7923 20.0032 16.6492 20.0625 16.5 20.0625H13.5C13.3508 20.0625 13.2077 20.0032 13.1023 19.8977C12.9968 19.7923 12.9375 19.6492 12.9375 19.5C12.9375 19.3508 12.9968 19.2077 13.1023 19.1023C13.2077 18.9968 13.3508 18.9375 13.5 18.9375H15.9375V13.5C15.9375 13.3508 15.9968 13.2077 16.1023 13.1023C16.2077 12.9968 16.3508 12.9375 16.5 12.9375C16.6492 12.9375 16.7923 12.9968 16.8977 13.1023C17.0032 13.2077 17.0625 13.3508 17.0625 13.5V14.4375H19.5C19.6492 14.4375 19.7923 14.4968 19.8977 14.6023C20.0032 14.7077 20.0625 14.8508 20.0625 15ZM20.0625 18V19.5C20.0625 19.6492 20.0032 19.7923 19.8977 19.8977C19.7923 20.0032 19.6492 20.0625 19.5 20.0625C19.3508 20.0625 19.2077 20.0032 19.1023 19.8977C18.9968 19.7923 18.9375 19.6492 18.9375 19.5V18C18.9375 17.8508 18.9968 17.7077 19.1023 17.6023C19.2077 17.4968 19.3508 17.4375 19.5 17.4375C19.6492 17.4375 19.7923 17.4968 19.8977 17.6023C20.0032 17.7077 20.0625 17.8508 20.0625 18Z" fill="white"/>
</svg>
