<svg width="40" height="40" viewBox="0 0 40 40" fill="none" xmlns="http://www.w3.org/2000/svg">
<g clip-path="url(#clip0_223_3721)">
<path d="M0 0V18.2609H18.2609V0H0ZM15.6522 15.6522H2.60867V2.60867H15.6522V15.6522Z" fill="black"/>
<path d="M13.0429 5.21777H5.2168V13.0439H13.0429V5.21777Z" fill="black"/>
<path d="M21.7383 0V18.2609H39.9991V0H21.7383ZM37.3905 15.6522H24.347V2.60867H37.3905V15.6522Z" fill="black"/>
<path d="M34.7831 5.21777H26.957V13.0439H34.7831V5.21777Z" fill="black"/>
<path d="M0 21.7393V40.0001H18.2609V21.7393H0ZM15.6522 37.3914H2.60867V24.3479H15.6522V37.3914Z" fill="black"/>
<path d="M13.0429 26.9561H5.2168V34.7821H13.0429V26.9561Z" fill="black"/>
<path d="M26.9556 24.3479V21.7393H21.7383V40.0001H26.9556V37.3914H24.347V32.174H26.9556V29.5654H24.347V24.3479H26.9556Z" fill="black"/>
<path d="M40.0003 21.7393H37.3916V24.3479H40.0003V21.7393Z" fill="black"/>
<path d="M37.391 27.8262V37.3914H34.7822V40.0001H39.9996V27.8262H37.391Z" fill="black"/>
<path d="M34.7829 21.7393H29.5654V24.3479H34.7829V21.7393Z" fill="black"/>
<path d="M34.7828 29.5648V26.9561H29.5654V34.7821H34.7828V32.1735H32.1741V29.5648H34.7828Z" fill="black"/>
<path d="M32.1741 37.3916H29.5654V40.0003H32.1741V37.3916Z" fill="black"/>
</g>
<defs>
<clipPath id="clip0_223_3721">
<rect width="40" height="40" fill="white"/>
</clipPath>
</defs>
</svg>
