<svg width="24" height="24" viewBox="0 0 24 24" fill="none" xmlns="http://www.w3.org/2000/svg">
<g clip-path="url(#clip0_372_1571)">
<path d="M5 8C5 7.44772 5.44772 7 6 7C6.55228 7 7 7.44772 7 8C7 8.55228 6.55228 9 6 9C5.44772 9 5 8.55228 5 8Z" fill="#0C29FF"/>
<path d="M17 8C17 7.44772 17.4477 7 18 7C18.5523 7 19 7.44772 19 8C19 8.55228 18.5523 9 18 9C17.4477 9 17 8.55228 17 8Z" fill="#0C29FF"/>
<path d="M4 4H20V11.0718C20.2315 11.2055 20.4571 11.3512 20.6757 11.5086C21.1256 11.8327 21.5377 12.2005 21.9069 12.6048C21.9674 12.414 22 12.2108 22 12V4C22 2.89543 21.1046 2 20 2H4C2.89543 2 2 2.89543 2 4V12C2 13.1046 2.89543 14 4 14H9.07181C9.4552 13.3359 9.93479 12.7257 10.4997 12.1908C10.5683 12.1259 10.6379 12.0623 10.7085 12H4V4Z" fill="#0C29FF"/>
<path d="M4 4H20V11.0718C20.2315 11.2055 20.4571 11.3512 20.6757 11.5086C21.1638 11.8602 21.6073 12.2632 22 12.7085V4C22 2.89543 21.1046 2 20 2H4C2.89543 2 2 2.89543 2 4V15C2 16.1046 2.89543 17 4 17H8.06276C8.14984 16.3088 8.32613 15.637 8.58381 15H4V4Z" fill="#0C29FF"/>
<path d="M4 4H20V11.0718C20.2315 11.2055 20.4571 11.3512 20.6757 11.5086C21.1638 11.8602 21.6073 12.2632 22 12.7085V4C22 2.89543 21.1046 2 20 2H4C2.89543 2 2 2.89543 2 4V18C2 19.1046 2.89543 20 4 20H8.25405C8.08588 19.3487 7.99999 18.6767 8 18H4V4Z" fill="#0C29FF"/>
<path d="M12 5C10.3431 5 9 6.34315 9 8C9 9.65685 10.3431 11 12 11C12.0443 11 12.0884 10.999 12.1322 10.9971C12.7118 10.677 13.3295 10.4298 13.9712 10.2615C14.6017 9.71155 15 8.90229 15 8C15 6.34315 13.6569 5 12 5Z" fill="#0C29FF"/>
<path d="M15.7325 14.009C16.6612 13.9467 17.5826 14.2103 18.3378 14.7543C19.0931 15.2983 19.635 16.0887 19.8702 16.9893C19.9643 17.3494 20.0069 17.7181 19.9991 18.0849L19.7071 17.7929C19.3166 17.4024 18.6834 17.4024 18.2929 17.7929C17.9024 18.1834 17.9024 18.8166 18.2929 19.2071L20.0101 20.9243C20.5568 21.471 21.4432 21.471 21.9899 20.9243L23.7071 19.2071C24.0976 18.8166 24.0976 18.1834 23.7071 17.7929C23.3166 17.4024 22.6834 17.4024 22.2929 17.7929L21.9994 18.0864C22.0071 17.5497 21.9429 17.0107 21.8053 16.484C21.4526 15.1331 20.6397 13.9475 19.5068 13.1315C18.3738 12.3154 16.9918 11.9201 15.5987 12.0134C14.2056 12.1068 12.8887 12.6832 11.8748 13.6431C10.8609 14.6031 10.2136 15.8865 10.0443 17.2725C9.87498 18.6584 10.1943 20.06 10.9473 21.2358C11.7003 22.4115 12.8397 23.2879 14.1694 23.7139C15.499 24.1399 16.9356 24.0889 18.2317 23.5695L17.4878 21.713C16.6237 22.0592 15.666 22.0933 14.7796 21.8093C13.8932 21.5253 13.1335 20.941 12.6315 20.1572C12.1296 19.3733 11.9167 18.4389 12.0295 17.515C12.1424 16.591 12.574 15.7354 13.2499 15.0954C13.9258 14.4554 14.8037 14.0712 15.7325 14.009Z" fill="#0C29FF"/>
</g>
<defs>
<clipPath id="clip0_372_1571">
<rect width="24" height="24" fill="white"/>
</clipPath>
</defs>
</svg>
