<!-- Generated by IcoMoon.io -->
<svg version="1.1" xmlns="http://www.w3.org/2000/svg" width="32" height="32" viewBox="0 0 32 32">
<title>replaceCard</title>
<path d="M3.048 3.81h24.381v3.048h-24.381v-3.048zM0 3.81c0-1.683 1.364-3.048 3.048-3.048h24.381c1.683 0 3.048 1.364 3.048 3.048v11.682c0 1.543-1.251 2.794-2.794 2.794-0.871 0-1.666-0.44-2.339-0.993-0.985-0.81-2.227-1.293-3.575-1.293-2.149 0-4.025 1.226-5.028 3.048h1.241c0.753 0 1.184 0.86 0.731 1.463l-2.743 3.657c-0.366 0.488-1.097 0.488-1.463 0l-2.743-3.657c-0.452-0.603-0.022-1.463 0.731-1.463h1.061c1.195-3.551 4.421-6.095 8.212-6.095 2.23 0 4.265 0.88 5.805 2.328v-3.852h-24.671v10.667h7.256c0.802 0 1.451 0.682 1.451 1.524s-0.65 1.524-1.451 1.524h-7.256c-1.603 0-2.902-1.364-2.902-3.048v-18.286zM26.797 25.143c-1.004 1.822-2.88 3.048-5.028 3.048-1.367 0-2.623-0.496-3.615-1.326-0.643-0.538-1.409-0.96-2.248-0.96-0.97 0-1.606 0.996-1.031 1.777 1.592 2.163 4.088 3.556 6.893 3.556 3.791 0 7.017-2.544 8.212-6.095h0.953c0.753 0 1.184-0.86 0.731-1.463l-2.743-3.657c-0.366-0.488-1.097-0.488-1.463 0l-2.743 3.657c-0.452 0.603-0.022 1.463 0.731 1.463h1.349z"></path>
</svg>
