<!-- Generated by IcoMoon.io -->
<svg version="1.1" xmlns="http://www.w3.org/2000/svg" width="32" height="32" viewBox="0 0 32 32">
<title>resetPassword</title>
<path d="M7.273 3.636h17.455c1.607 0 2.909 1.302 2.909 2.909v5.818c0 1.491-1.122 2.721-2.569 2.889 0.638 0.793 1.17 1.669 1.582 2.604 2.268-0.794 3.896-2.953 3.896-5.493v-5.818c0-3.213-2.605-5.818-5.818-5.818h-17.455c-3.213 0-5.818 2.605-5.818 5.818v5.818c0 2.54 1.627 4.699 3.896 5.493 0.41-0.931 0.941-1.807 1.582-2.604-1.446-0.169-2.569-1.398-2.569-2.889v-5.818c0-1.607 1.302-2.909 2.909-2.909z"></path>
<path d="M15.611 16.74c1.351-0.091 2.691 0.293 3.79 1.084s1.887 1.941 2.229 3.251c0.137 0.524 0.199 1.060 0.188 1.594l-0.425-0.425c-0.568-0.568-1.489-0.568-2.057 0s-0.568 1.489 0 2.057l2.498 2.498c0.795 0.795 2.084 0.795 2.88 0l2.498-2.498c0.568-0.568 0.568-1.489 0-2.057s-1.489-0.568-2.057 0l-0.427 0.427c0.011-0.781-0.082-1.565-0.282-2.331-0.513-1.965-1.695-3.689-3.343-4.876s-3.658-1.762-5.684-1.626c-2.026 0.136-3.942 0.974-5.417 2.37s-2.416 3.263-2.663 5.279c-0.246 2.016 0.218 4.055 1.313 5.765s2.753 2.985 4.687 3.605 4.024 0.545 5.909-0.21l-1.082-2.7c-1.257 0.504-2.65 0.553-3.939 0.14s-2.394-1.263-3.124-2.403c-0.73-1.14-1.040-2.499-0.876-3.843s0.792-2.588 1.775-3.519 2.26-1.49 3.611-1.58z"></path>
<path d="M11.636 9.455c0 1.607-1.302 2.909-2.909 2.909s-2.909-1.302-2.909-2.909c0-1.607 1.302-2.909 2.909-2.909s2.909 1.302 2.909 2.909z"></path>
<path d="M26.182 9.455c0 1.607-1.302 2.909-2.909 2.909s-2.909-1.302-2.909-2.909c0-1.607 1.302-2.909 2.909-2.909s2.909 1.302 2.909 2.909z"></path>
<path d="M18.909 9.455c0 1.607-1.302 2.909-2.909 2.909s-2.909-1.302-2.909-2.909 1.302-2.909 2.909-2.909c1.607 0 2.909 1.302 2.909 2.909z"></path>
</svg>
