<svg width="24" height="24" viewBox="0 0 24 24" fill="none" xmlns="http://www.w3.org/2000/svg">
<path d="M10.5987 6.01345C11.9918 5.92005 13.3738 6.31543 14.5068 7.13146C15.6397 7.94749 16.4526 9.13308 16.8053 10.484C16.9666 11.1016 17.0271 11.7362 16.989 12.364L16.3138 11.4188C15.9928 10.9694 15.3683 10.8653 14.9188 11.1863C14.4694 11.5073 14.3653 12.1318 14.6863 12.5813L16.671 15.3597C17.3224 16.2717 18.6778 16.2717 19.3292 15.3597L21.3138 12.5813C21.6348 12.1318 21.5307 11.5073 21.0813 11.1863C20.6319 10.8653 20.0074 10.9694 19.6863 11.4188L18.9903 12.3932C19.0301 11.5862 18.9476 10.772 18.7404 9.97867C18.2701 8.17744 17.1862 6.59665 15.6757 5.50861C14.1651 4.42057 12.3224 3.8934 10.4649 4.01793C8.60743 4.14245 6.85155 4.91087 5.49972 6.19081C4.1479 7.47075 3.28478 9.18207 3.05904 11.03C2.83331 12.8779 3.2591 14.7466 4.26306 16.3143C5.26702 17.8821 6.78629 19.0506 8.55916 19.6186C10.332 20.1866 12.2475 20.1185 13.9755 19.4261L13.2317 17.5695C11.9356 18.0889 10.499 18.1399 9.16937 17.7139C7.83972 17.2879 6.70027 16.4115 5.9473 15.2358C5.19433 14.06 4.87499 12.6584 5.04429 11.2725C5.21359 9.88655 5.86093 8.60306 6.8748 7.64311C7.88867 6.68315 9.20558 6.10684 10.5987 6.01345Z" fill="#1C1C1F"/>
</svg>
