<svg width="16" height="16" viewBox="0 0 16 16" fill="none" xmlns="http://www.w3.org/2000/svg">
<path d="M11.7715 6.51586C11.9736 6.29139 11.9625 5.94741 11.7463 5.73645C11.5199 5.51547 11.1559 5.52449 10.9407 5.7564L7.91475 9.01698C7.61584 9.33908 7.11307 9.35978 6.78869 9.06335L5.7286 8.09461C5.5067 7.89183 5.16511 7.89744 4.94998 8.10739C4.72164 8.33024 4.72202 8.69753 4.95083 8.9199L6.83815 10.7541C7.16357 11.0704 7.68661 11.0529 7.99024 10.7157L11.7715 6.51586Z" fill="#31B67A"/>
<path fill-rule="evenodd" clip-rule="evenodd" d="M16 8C16 12.4183 12.4183 16 8 16C3.58172 16 0 12.4183 0 8C0 3.58172 3.58172 0 8 0C12.4183 0 16 3.58172 16 8ZM14.6667 8C14.6667 11.6819 11.6819 14.6667 8 14.6667C4.3181 14.6667 1.33333 11.6819 1.33333 8C1.33333 4.3181 4.3181 1.33333 8 1.33333C11.6819 1.33333 14.6667 4.3181 14.6667 8Z" fill="#31B67A"/>
</svg>
