<svg width="24" height="24" viewBox="0 0 24 24" fill="none" xmlns="http://www.w3.org/2000/svg">
<path d="M17.2322 9.40917C17.5354 9.07246 17.5187 8.55649 17.1944 8.24005C16.8548 7.90858 16.3088 7.9221 15.9859 8.26997L11.4471 13.1608C10.9987 13.644 10.2446 13.6751 9.75798 13.2304L8.16785 11.7773C7.835 11.4731 7.32262 11.4815 6.99992 11.7965C6.6574 12.1307 6.65798 12.6817 7.00119 13.0152L9.83217 15.7665C10.3203 16.2409 11.1049 16.2148 11.5603 15.7089L17.2322 9.40917Z" fill="#1C1C1F"/>
<path fill-rule="evenodd" clip-rule="evenodd" d="M22 12C22 17.5228 17.5228 22 12 22C6.47715 22 2 17.5228 2 12C2 6.47715 6.47715 2 12 2C17.5228 2 22 6.47715 22 12ZM20 12C20 16.4183 16.4183 20 12 20C7.58172 20 4 16.4183 4 12C4 7.58172 7.58172 4 12 4C16.4183 4 20 7.58172 20 12Z" fill="#1C1C1F"/>
</svg>
