<svg width="24" height="24" viewBox="0 0 24 24" fill="none" xmlns="http://www.w3.org/2000/svg">
<circle cx="12" cy="12" r="12" fill="#E0E4FF"/>
<path fill-rule="evenodd" clip-rule="evenodd" d="M12 9.59995C12.6628 9.59995 13.2 10.1372 13.2 10.8V18C13.2 18.6627 12.6628 19.2 12 19.2C11.3373 19.2 10.8 18.6627 10.8 18V10.8C10.8 10.1372 11.3373 9.59995 12 9.59995Z" fill="#0C29FF"/>
<path fill-rule="evenodd" clip-rule="evenodd" d="M12.2 4.79995C12.7523 4.79995 13.2 5.24767 13.2 5.79995V6.19995C13.2 6.75224 12.7523 7.19995 12.2 7.19995H11.8C11.2478 7.19995 10.8 6.75224 10.8 6.19995V5.79995C10.8 5.24767 11.2478 4.79995 11.8 4.79995H12.2Z" fill="#0C29FF"/>
</svg>
