<svg width="24" height="24" viewBox="0 0 24 24" fill="none" xmlns="http://www.w3.org/2000/svg">
<path d="M0 12C0 5.37258 5.37258 0 12 0C18.6274 0 24 5.37258 24 12C24 18.6274 18.6274 24 12 24C5.37258 24 0 18.6274 0 12Z" fill="#EBFAF3"/>
<path fill-rule="evenodd" clip-rule="evenodd" d="M17.4195 8.40466C17.7438 8.7211 17.7605 9.23707 17.4573 9.57378L11.7854 15.8735C11.33 16.3794 10.5454 16.4055 10.0573 15.9312L7.22629 13.1798C6.88308 12.8463 6.8825 12.2953 7.22502 11.9611C7.54772 11.6461 8.06009 11.6377 8.39295 11.9419L9.98308 13.395C10.4697 13.8397 11.2238 13.8086 11.6722 13.3255L16.211 8.43458C16.5339 8.08672 17.0799 8.0732 17.4195 8.40466Z" fill="#31B67A"/>
</svg>
