<svg width="24" height="24" viewBox="0 0 24 24" fill="none" xmlns="http://www.w3.org/2000/svg">
<path d="M16.2426 7.75734C16.6332 8.14786 16.6332 8.78103 16.2426 9.17155L13.4142 12L16.2426 14.8284C16.6331 15.2189 16.6331 15.8521 16.2426 16.2426C15.8521 16.6332 15.2189 16.6332 14.8284 16.2426L12 13.4142L9.17156 16.2426C8.78104 16.6331 8.14787 16.6331 7.75735 16.2426C7.36682 15.8521 7.36682 15.2189 7.75735 14.8284L10.5858 12L7.75732 9.17156C7.3668 8.78104 7.3668 8.14787 7.75732 7.75735C8.14784 7.36682 8.78101 7.36682 9.17153 7.75735L12 10.5858L14.8284 7.75734C15.2189 7.36681 15.8521 7.36681 16.2426 7.75734Z" fill="#1C1C1F"/>
<path fill-rule="evenodd" clip-rule="evenodd" d="M12 22C17.5228 22 22 17.5228 22 12C22 6.47715 17.5228 2 12 2C6.47715 2 2 6.47715 2 12C2 17.5228 6.47715 22 12 22ZM12 20C16.4183 20 20 16.4183 20 12C20 7.58172 16.4183 4 12 4C7.58172 4 4 7.58172 4 12C4 16.4183 7.58172 20 12 20Z" fill="#1C1C1F"/>
</svg>
