<svg width="24" height="24" viewBox="0 0 24 24" fill="none" xmlns="http://www.w3.org/2000/svg">
<g clip-path="url(#clip0_3059_3848)">
<path d="M24 12C24 18.6274 18.6274 24 12 24C5.37258 24 0 18.6274 0 12C0 5.37258 5.37258 0 12 0C18.6274 0 24 5.37258 24 12Z" fill="#FFECEB"/>
<path d="M16.2427 9.17158C16.6332 8.78106 16.6332 8.1479 16.2427 7.75737C15.8522 7.36685 15.219 7.36685 14.8285 7.75737L12 10.5859L9.17146 7.75738C8.78094 7.36686 8.14777 7.36686 7.75725 7.75738C7.36672 8.1479 7.36672 8.78107 7.75725 9.17159L10.5857 12.0001L7.7574 14.8284C7.36687 15.219 7.36687 15.8521 7.7574 16.2427C8.14792 16.6332 8.78109 16.6332 9.17161 16.2427L12 13.4143L14.8283 16.2427C15.2188 16.6332 15.852 16.6332 16.2425 16.2427C16.6331 15.8521 16.6331 15.219 16.2425 14.8284L13.4142 12.0001L16.2427 9.17158Z" fill="#FD3C2D"/>
</g>
<defs>
<clipPath id="clip0_3059_3848">
<rect width="24" height="24" fill="white"/>
</clipPath>
</defs>
</svg>
