<svg width="24" height="24" viewBox="0 0 24 24" fill="none" xmlns="http://www.w3.org/2000/svg">
<path d="M20.8125 3.75V7.5C20.8125 7.64918 20.7532 7.79226 20.6477 7.89775C20.5423 8.00324 20.3992 8.0625 20.25 8.0625C20.1008 8.0625 19.9577 8.00324 19.8523 7.89775C19.7468 7.79226 19.6875 7.64918 19.6875 7.5V4.3125H16.5C16.3508 4.3125 16.2077 4.25324 16.1023 4.14775C15.9968 4.04226 15.9375 3.89918 15.9375 3.75C15.9375 3.60082 15.9968 3.45774 16.1023 3.35225C16.2077 3.24676 16.3508 3.1875 16.5 3.1875H20.25C20.3992 3.1875 20.5423 3.24676 20.6477 3.35225C20.7532 3.45774 20.8125 3.60082 20.8125 3.75ZM7.5 19.6875H4.3125V16.5C4.3125 16.3508 4.25324 16.2077 4.14775 16.1023C4.04226 15.9968 3.89918 15.9375 3.75 15.9375C3.60082 15.9375 3.45774 15.9968 3.35225 16.1023C3.24676 16.2077 3.1875 16.3508 3.1875 16.5V20.25C3.1875 20.3992 3.24676 20.5423 3.35225 20.6477C3.45774 20.7532 3.60082 20.8125 3.75 20.8125H7.5C7.64918 20.8125 7.79226 20.7532 7.89775 20.6477C8.00324 20.5423 8.0625 20.3992 8.0625 20.25C8.0625 20.1008 8.00324 19.9577 7.89775 19.8523C7.79226 19.7468 7.64918 19.6875 7.5 19.6875ZM20.25 15.9375C20.1008 15.9375 19.9577 15.9968 19.8523 16.1023C19.7468 16.2077 19.6875 16.3508 19.6875 16.5V19.6875H16.5C16.3508 19.6875 16.2077 19.7468 16.1023 19.8523C15.9968 19.9577 15.9375 20.1008 15.9375 20.25C15.9375 20.3992 15.9968 20.5423 16.1023 20.6477C16.2077 20.7532 16.3508 20.8125 16.5 20.8125H20.25C20.3992 20.8125 20.5423 20.7532 20.6477 20.6477C20.7532 20.5423 20.8125 20.3992 20.8125 20.25V16.5C20.8125 16.3508 20.7532 16.2077 20.6477 16.1023C20.5423 15.9968 20.3992 15.9375 20.25 15.9375ZM3.75 8.0625C3.89918 8.0625 4.04226 8.00324 4.14775 7.89775C4.25324 7.79226 4.3125 7.64918 4.3125 7.5V4.3125H7.5C7.64918 4.3125 7.79226 4.25324 7.89775 4.14775C8.00324 4.04226 8.0625 3.89918 8.0625 3.75C8.0625 3.60082 8.00324 3.45774 7.89775 3.35225C7.79226 3.24676 7.64918 3.1875 7.5 3.1875H3.75C3.60082 3.1875 3.45774 3.24676 3.35225 3.35225C3.24676 3.45774 3.1875 3.60082 3.1875 3.75V7.5C3.1875 7.64918 3.24676 7.79226 3.35225 7.89775C3.45774 8.00324 3.60082 8.0625 3.75 8.0625ZM15.75 17.0625H8.25C7.9019 17.0625 7.56806 16.9242 7.32192 16.6781C7.07578 16.4319 6.9375 16.0981 6.9375 15.75V8.25C6.9375 7.9019 7.07578 7.56806 7.32192 7.32192C7.56806 7.07578 7.9019 6.9375 8.25 6.9375H15.75C16.0981 6.9375 16.4319 7.07578 16.6781 7.32192C16.9242 7.56806 17.0625 7.9019 17.0625 8.25V15.75C17.0625 16.0981 16.9242 16.4319 16.6781 16.6781C16.4319 16.9242 16.0981 17.0625 15.75 17.0625ZM15.9375 8.25C15.9375 8.20027 15.9177 8.15258 15.8826 8.11742C15.8474 8.08225 15.7997 8.0625 15.75 8.0625H8.25C8.20027 8.0625 8.15258 8.08225 8.11742 8.11742C8.08225 8.15258 8.0625 8.20027 8.0625 8.25V15.75C8.0625 15.7997 8.08225 15.8474 8.11742 15.8826C8.15258 15.9177 8.20027 15.9375 8.25 15.9375H15.75C15.7997 15.9375 15.8474 15.9177 15.8826 15.8826C15.9177 15.8474 15.9375 15.7997 15.9375 15.75V8.25Z" fill="white"/>
</svg>
