<svg width="14" height="16" viewBox="0 0 14 16" fill="none" xmlns="http://www.w3.org/2000/svg">
<path fill-rule="evenodd" clip-rule="evenodd" d="M10.8333 6.00008C12.306 6.00008 13.4999 4.80617 13.4999 3.33341C13.4999 1.86066 12.306 0.666748 10.8333 0.666748C9.36049 0.666748 8.16659 1.86066 8.16659 3.33341C8.16659 3.58579 8.20164 3.82998 8.26716 4.06137L5.38858 6.11751C4.90577 5.63315 4.23784 5.33341 3.49992 5.33341C2.02716 5.33341 0.833252 6.52732 0.833252 8.00008C0.833252 9.47284 2.02716 10.6667 3.49992 10.6667C4.23784 10.6667 4.90577 10.367 5.38858 9.88266L8.26716 11.9388C8.20164 12.1702 8.16659 12.4144 8.16659 12.6667C8.16659 14.1395 9.36049 15.3334 10.8333 15.3334C12.306 15.3334 13.4999 14.1395 13.4999 12.6667C13.4999 11.194 12.306 10.0001 10.8333 10.0001C10.0953 10.0001 9.42743 10.2998 8.94462 10.7841L6.06602 8.72801C6.13153 8.49662 6.16659 8.25245 6.16659 8.00008C6.16659 7.74772 6.13153 7.50354 6.06602 7.27215L8.94462 5.21601C9.42743 5.70036 10.0953 6.00008 10.8333 6.00008ZM10.8333 4.66675C11.5696 4.66675 12.1666 4.06979 12.1666 3.33341C12.1666 2.59703 11.5696 2.00008 10.8333 2.00008C10.0969 2.00008 9.49992 2.59703 9.49992 3.33341C9.49992 4.06979 10.0969 4.66675 10.8333 4.66675ZM10.8333 14.0001C11.5696 14.0001 12.1666 13.4031 12.1666 12.6667C12.1666 11.9304 11.5696 11.3334 10.8333 11.3334C10.0969 11.3334 9.49992 11.9304 9.49992 12.6667C9.49992 13.4031 10.0969 14.0001 10.8333 14.0001ZM4.83325 8.00008C4.83325 8.73646 4.2363 9.33341 3.49992 9.33341C2.76354 9.33341 2.16659 8.73646 2.16659 8.00008C2.16659 7.2637 2.76354 6.66675 3.49992 6.66675C4.2363 6.66675 4.83325 7.2637 4.83325 8.00008Z" fill="white"/>
</svg>
