<svg width="20" height="22" viewBox="0 0 20 22" fill="none" xmlns="http://www.w3.org/2000/svg">
<path fill-rule="evenodd" clip-rule="evenodd" d="M0 6.97538C0 6.33451 0.153983 5.70303 0.448982 5.13411L2.55144 1.07937C2.89528 0.416249 3.57999 0 4.32695 0H15.6731C16.42 0 17.1047 0.416248 17.4486 1.07937L19.551 5.13411C19.846 5.70303 20 6.33451 20 6.97537V8C20 9.86384 18.7252 11.4299 17 11.874V14C18.1046 14 19 14.8954 19 16V20C19 21.1046 18.1046 22 17 22H3C1.89543 22 1 21.1046 1 20V16C1 14.8954 1.89543 14 3 14V11.874C1.27477 11.4299 0 9.86384 0 8V6.97538ZM13.1666 2H15.6731L17.7471 6H13.8221C13.8213 5.95104 13.8169 5.90143 13.8085 5.85144L13.1666 2ZM11.1779 2H8.82209C8.82131 2.04896 8.81688 2.09857 8.80855 2.14856L8.16664 6H11.8333L11.1914 2.14856C11.1831 2.09857 11.1786 2.04896 11.1779 2ZM6.17786 6C6.17863 5.95104 6.18307 5.90143 6.1914 5.85144L6.83331 2H4.32695L2.25288 6H6.17786ZM2 8C2 9.10457 2.89543 10 4 10C5.10457 10 6 9.10457 6 8H2ZM8 8C8 9.10457 8.89543 10 10 10C11.1046 10 12 9.10457 12 8H8ZM14 8C14 9.10457 14.8954 10 16 10C17.1046 10 18 9.10457 18 8H14ZM15 11.874C14.2138 11.6716 13.5211 11.2362 13 10.6458C12.2671 11.4762 11.1947 12 10 12C8.80531 12 7.73295 11.4762 7 10.6458C6.4789 11.2362 5.78622 11.6716 5 11.874V14H15V11.874ZM3 16V20H17V16H3Z" fill="#1C1C1F"/>
</svg>
