<svg width="24" height="24" viewBox="0 0 24 24" fill="none" xmlns="http://www.w3.org/2000/svg">
<mask id="path-1-inside-1_438_314" fill="white">
<path fill-rule="evenodd" clip-rule="evenodd" d="M12 6.47215L11.4325 8.21886C11.0308 9.45493 9.87896 10.2918 8.57929 10.2918H6.74269L8.22853 11.3713C9.27999 12.1353 9.71996 13.4894 9.31834 14.7254L8.7508 16.4722L10.2366 15.3926C11.2881 14.6287 12.7119 14.6287 13.7634 15.3926L15.2492 16.4722L14.6817 14.7254C14.28 13.4894 14.72 12.1353 15.7715 11.3713L17.2573 10.2918H15.4207C14.121 10.2918 12.9692 9.45493 12.5675 8.21886L12 6.47215ZM12.9511 2.92707C12.6517 2.00576 11.3483 2.00576 11.0489 2.92707L9.53034 7.60083C9.39647 8.01285 9.01251 8.29181 8.57929 8.29181H3.665C2.69628 8.29181 2.2935 9.53143 3.07722 10.1008L7.05296 12.9894C7.40344 13.244 7.5501 13.6954 7.41623 14.1074L5.89763 18.7812C5.59828 19.7025 6.65276 20.4686 7.43647 19.8992L11.4122 17.0107C11.7627 16.756 12.2373 16.756 12.5878 17.0107L16.5635 19.8992C17.3472 20.4686 18.4017 19.7025 18.1024 18.7812L16.5838 14.1074C16.4499 13.6954 16.5965 13.244 16.947 12.9894L20.9228 10.1008C21.7065 9.53143 21.3037 8.29181 20.335 8.29181H15.4207C14.9875 8.29181 14.6035 8.01285 14.4697 7.60083L12.9511 2.92707Z"/>
</mask>
<path d="M11.4325 8.21886L9.53034 7.60083V7.60083L11.4325 8.21886ZM12 6.47215L13.9021 5.85412L12 1.57356e-05L10.0979 5.85412L12 6.47215ZM6.74269 10.2918V8.29181H0.587318L5.56711 11.9098L6.74269 10.2918ZM8.22853 11.3713L7.05296 12.9894H7.05296L8.22853 11.3713ZM9.31834 14.7254L11.2205 15.3435L11.2205 15.3435L9.31834 14.7254ZM8.7508 16.4722L6.84869 15.8541L4.94657 21.7082L9.92637 18.0902L8.7508 16.4722ZM10.2366 15.3926L9.06107 13.7746L9.06107 13.7746L10.2366 15.3926ZM13.7634 15.3926L14.9389 13.7746H14.9389L13.7634 15.3926ZM15.2492 16.4722L14.0736 18.0902L19.0534 21.7082L17.1513 15.8541L15.2492 16.4722ZM14.6817 14.7254L16.5838 14.1074L14.6817 14.7254ZM15.7715 11.3713L16.947 12.9894L16.947 12.9894L15.7715 11.3713ZM17.2573 10.2918L18.4329 11.9098L23.4127 8.29181H17.2573V10.2918ZM12.5675 8.21886L10.6654 8.8369L12.5675 8.21886ZM11.0489 2.92707L12.9511 3.5451V3.5451L11.0489 2.92707ZM12.9511 2.92707L11.0489 3.5451V3.5451L12.9511 2.92707ZM9.53034 7.60083L7.62823 6.98279L7.62823 6.9828L9.53034 7.60083ZM3.07722 10.1008L4.25279 8.48279L4.25279 8.48279L3.07722 10.1008ZM7.05296 12.9894L5.87739 14.6074L5.87739 14.6074L7.05296 12.9894ZM7.41623 14.1074L5.51411 13.4894H5.51411L7.41623 14.1074ZM5.89763 18.7812L7.79974 19.3992L5.89763 18.7812ZM7.43647 19.8992L6.2609 18.2812L6.2609 18.2812L7.43647 19.8992ZM11.4122 17.0107L12.5878 18.6287H12.5878L11.4122 17.0107ZM12.5878 17.0107L11.4122 18.6287H11.4122L12.5878 17.0107ZM16.5635 19.8992L15.3879 21.5172H15.388L16.5635 19.8992ZM18.1024 18.7812L16.2002 19.3992V19.3992L18.1024 18.7812ZM16.5838 14.1074L18.4859 13.4894L18.4859 13.4894L16.5838 14.1074ZM16.947 12.9894L15.7715 11.3713L15.7715 11.3713L16.947 12.9894ZM20.9228 10.1008L19.7472 8.48279H19.7472L20.9228 10.1008ZM14.4697 7.60083L16.3718 6.9828L16.3718 6.98279L14.4697 7.60083ZM13.3346 8.8369L13.9021 7.09019L10.0979 5.85412L9.53034 7.60083L13.3346 8.8369ZM8.57929 12.2918C10.7454 12.2918 12.6652 10.897 13.3346 8.8369L9.53034 7.60083C9.39647 8.01285 9.01251 8.29181 8.57929 8.29181V12.2918ZM6.74269 12.2918H8.57929V8.29181H6.74269V12.2918ZM9.4041 9.7533L7.91826 8.67378L5.56711 11.9098L7.05296 12.9894L9.4041 9.7533ZM11.2205 15.3435C11.8898 13.2834 11.1565 11.0265 9.4041 9.7533L7.05296 12.9894C7.40344 13.244 7.5501 13.6954 7.41623 14.1074L11.2205 15.3435ZM10.6529 17.0902L11.2205 15.3435L7.41623 14.1074L6.84869 15.8541L10.6529 17.0902ZM9.06107 13.7746L7.57523 14.8541L9.92637 18.0902L11.4122 17.0107L9.06107 13.7746ZM14.9389 13.7746C13.1865 12.5014 10.8135 12.5014 9.06107 13.7746L11.4122 17.0107C11.7627 16.756 12.2373 16.756 12.5878 17.0107L14.9389 13.7746ZM16.4248 14.8541L14.9389 13.7746L12.5878 17.0107L14.0736 18.0902L16.4248 14.8541ZM12.7795 15.3435L13.3471 17.0902L17.1513 15.8541L16.5838 14.1074L12.7795 15.3435ZM14.5959 9.7533C12.8435 11.0265 12.1102 13.2834 12.7795 15.3435L16.5838 14.1074C16.4499 13.6954 16.5965 13.244 16.947 12.9894L14.5959 9.7533ZM16.0817 8.67378L14.5959 9.7533L16.947 12.9894L18.4329 11.9098L16.0817 8.67378ZM15.4207 12.2918H17.2573V8.29181H15.4207V12.2918ZM10.6654 8.8369C11.3348 10.897 13.2546 12.2918 15.4207 12.2918V8.29181C14.9875 8.29181 14.6035 8.01285 14.4697 7.60083L10.6654 8.8369ZM10.0979 7.09018L10.6654 8.8369L14.4697 7.60083L13.9021 5.85412L10.0979 7.09018ZM12.9511 3.5451C12.6517 4.46641 11.3483 4.46642 11.0489 3.5451L14.8532 2.30903C13.9551 -0.454906 10.0449 -0.454892 9.14683 2.30903L12.9511 3.5451ZM11.4325 8.21886L12.9511 3.5451L9.14683 2.30903L7.62823 6.98279L11.4325 8.21886ZM8.57929 10.2918C9.87896 10.2918 11.0308 9.45493 11.4325 8.21886L7.62823 6.9828C7.7621 6.57077 8.14606 6.29181 8.57929 6.29181V10.2918ZM3.665 10.2918H8.57929V6.29181H3.665V10.2918ZM4.25279 8.48279C5.0365 9.0522 4.63373 10.2918 3.665 10.2918V6.29181C0.758832 6.29181 -0.449494 10.0107 1.90165 11.7189L4.25279 8.48279ZM8.22853 11.3713L4.25279 8.48279L1.90165 11.7189L5.87739 14.6074L8.22853 11.3713ZM9.31834 14.7254C9.71996 13.4894 9.27999 12.1353 8.22853 11.3713L5.87739 14.6074C5.5269 14.3528 5.38024 13.9014 5.51411 13.4894L9.31834 14.7254ZM7.79974 19.3992L9.31834 14.7254L5.51411 13.4894L3.99552 18.1631L7.79974 19.3992ZM6.2609 18.2812C7.04461 17.7118 8.0991 18.4779 7.79974 19.3992L3.99552 18.1631C3.09746 20.9271 6.26091 23.2254 8.61205 21.5172L6.2609 18.2812ZM10.2366 15.3926L6.2609 18.2812L8.61204 21.5172L12.5878 18.6287L10.2366 15.3926ZM13.7634 15.3926C12.7119 14.6287 11.2881 14.6287 10.2366 15.3926L12.5878 18.6287C12.2373 18.8833 11.7627 18.8833 11.4122 18.6287L13.7634 15.3926ZM17.7391 18.2812L13.7634 15.3926L11.4122 18.6287L15.3879 21.5172L17.7391 18.2812ZM16.2002 19.3992C15.9009 18.4779 16.9554 17.7118 17.7391 18.2812L15.388 21.5172C17.7391 23.2254 20.9025 20.9271 20.0045 18.1631L16.2002 19.3992ZM14.6817 14.7254L16.2002 19.3992L20.0045 18.1631L18.4859 13.4894L14.6817 14.7254ZM15.7715 11.3713C14.72 12.1353 14.28 13.4894 14.6817 14.7254L18.4859 13.4894C18.6198 13.9014 18.4731 14.3528 18.1226 14.6074L15.7715 11.3713ZM19.7472 8.48279L15.7715 11.3713L18.1226 14.6074L22.0983 11.7189L19.7472 8.48279ZM20.335 10.2918C19.3663 10.2918 18.9635 9.0522 19.7472 8.48279L22.0983 11.7189C24.4495 10.0107 23.2412 6.29181 20.335 6.29181V10.2918ZM15.4207 10.2918H20.335V6.29181H15.4207V10.2918ZM12.5675 8.21886C12.9692 9.45493 14.121 10.2918 15.4207 10.2918V6.29181C15.8539 6.29181 16.2379 6.57077 16.3718 6.9828L12.5675 8.21886ZM11.0489 3.5451L12.5675 8.21886L16.3718 6.98279L14.8532 2.30903L11.0489 3.5451Z" fill="#1C1C1F" mask="url(#path-1-inside-1_438_314)"/>
</svg>
