<!-- Generated by IcoMoon.io -->
<svg version="1.1" xmlns="http://www.w3.org/2000/svg" width="32" height="32" viewBox="0 0 32 32">
<title>starFilled</title>
<path d="M17.522 2.283c-0.479-1.474-2.564-1.474-3.043 0l-2.43 7.478c-0.214 0.659-0.829 1.106-1.522 1.106h-7.863c-1.55 0-2.194 1.983-0.94 2.894l6.361 4.622c0.561 0.407 0.795 1.13 0.581 1.789l-2.43 7.478c-0.479 1.474 1.208 2.7 2.462 1.789l6.361-4.622c0.561-0.408 1.32-0.408 1.881 0l6.361 4.622c1.254 0.911 2.941-0.315 2.462-1.789l-2.43-7.478c-0.214-0.659 0.020-1.381 0.581-1.789l6.361-4.622c1.254-0.911 0.609-2.894-0.94-2.894h-7.863c-0.693 0-1.308-0.446-1.522-1.106l-2.43-7.478z"></path>
</svg>
