<svg width="24" height="24" viewBox="0 0 24 24" fill="none" xmlns="http://www.w3.org/2000/svg">
<path fill-rule="evenodd" clip-rule="evenodd" d="M6.03521 6.48242C6.22873 6.38566 6.38566 6.22873 6.48242 6.03521L8.10559 2.78887C8.47411 2.05182 9.52592 2.05182 9.89444 2.78887L11.5176 6.03521C11.6144 6.22873 11.7713 6.38566 11.9648 6.48242L15.2112 8.10559C15.9482 8.47411 15.9482 9.52592 15.2112 9.89444L11.9648 11.5176C11.7713 11.6144 11.6144 11.7713 11.5176 11.9648L9.89444 15.2112C9.52592 15.9482 8.47411 15.9482 8.10559 15.2112L6.48242 11.9648C6.38566 11.7713 6.22873 11.6144 6.03521 11.5176L2.78887 9.89444C2.05182 9.52592 2.05182 8.47411 2.78887 8.10559L6.03521 6.48242ZM9.72876 11.0704L9.00002 12.5279L8.27128 11.0704C7.98098 10.4898 7.51022 10.019 6.92963 9.72876L5.47215 9.00002L6.92963 8.27128C7.51022 7.98098 7.98098 7.51022 8.27128 6.92963L9.00002 5.47215L9.72876 6.92963C10.019 7.51022 10.4898 7.98098 11.0704 8.27128L12.5279 9.00002L11.0704 9.72876C10.4898 10.019 10.019 10.4898 9.72876 11.0704Z" fill="#1C1C1F"/>
<path fill-rule="evenodd" clip-rule="evenodd" d="M14.7019 15.1491C14.8954 15.0523 15.0523 14.8954 15.1491 14.7019L16.1056 12.7889C16.4741 12.0518 17.5259 12.0518 17.8944 12.7889L18.8509 14.7019C18.9477 14.8954 19.1046 15.0523 19.2982 15.1491L21.2112 16.1056C21.9482 16.4741 21.9482 17.5259 21.2112 17.8944L19.2982 18.8509C19.1046 18.9477 18.9477 19.1046 18.8509 19.2982L17.8944 21.2112C17.5259 21.9482 16.4741 21.9482 16.1056 21.2112L15.1491 19.2982C15.0523 19.1046 14.8954 18.9477 14.7019 18.8509L12.7889 17.8944C12.0518 17.5259 12.0518 16.4741 12.7889 16.1056L14.7019 15.1491ZM17.0621 18.4037L17 18.5279L16.9379 18.4037C16.6477 17.8231 16.1769 17.3524 15.5963 17.0621L15.4722 17L15.5963 16.9379C16.1769 16.6477 16.6477 16.1769 16.9379 15.5963L17 15.4722L17.0621 15.5963C17.3524 16.1769 17.8231 16.6477 18.4037 16.9379L18.5279 17L18.4037 17.0621C17.8231 17.3524 17.3524 17.8231 17.0621 18.4037Z" fill="#1C1C1F"/>
</svg>
