<!-- Generated by IcoMoon.io -->
<svg version="1.1" xmlns="http://www.w3.org/2000/svg" width="32" height="32" viewBox="0 0 32 32">
<title>star</title>
<path d="M15.092 10.75v0zM16 7.955l3.043-0.989-3.043-9.367-3.043 9.367 3.043 0.989zM7.588 14.067v-3.2h-9.849l7.968 5.789 1.881-2.589zM9.966 15.794v0zM11.709 21.161v0zM10.801 23.956l-3.043-0.989-3.043 9.367 7.968-5.789-1.881-2.589zM13.179 22.228v0zM18.821 22.228v0zM21.199 23.956l-1.881 2.589 7.968 5.789-3.043-9.367-3.043 0.989zM20.291 21.161v0zM22.034 15.794v0zM24.412 14.067l1.881 2.589 7.968-5.789h-9.849v3.2zM16.908 10.75v0zM14.478 2.283v0zM17.522 2.283v0zM12.049 9.761v0zM1.724 13.761v0zM8.085 18.383v0zM8.666 20.172v0zM6.236 27.65v0zM8.698 29.439v0zM15.060 24.817v0zM16.94 24.817v0zM23.302 29.439v0zM25.764 27.65v0zM23.334 20.172v0zM23.915 18.383v0zM30.276 13.761v0zM19.952 9.761v0zM18.135 11.739l0.908-2.795-6.087-1.978-0.908 2.795 6.087 1.978zM10.527 17.267c3.466 0 6.537-2.232 7.608-5.528l-6.087-1.978c-0.214 0.659-0.829 1.106-1.522 1.106v6.4zM7.588 17.267h2.939v-6.4h-2.939v6.4zM11.847 13.205l-2.377-1.727-3.762 5.178 2.377 1.727 3.762-5.178zM14.753 22.15c1.071-3.296-0.102-6.907-2.906-8.944l-3.762 5.178c0.561 0.407 0.795 1.13 0.581 1.789l6.087 1.978zM13.845 24.944l0.908-2.795-6.087-1.978-0.908 2.795 6.087 1.978zM11.298 19.639l-2.377 1.727 3.762 5.178 2.377-1.727-3.762-5.178zM20.702 19.639c-2.804-2.037-6.601-2.037-9.405 0l3.762 5.178c0.561-0.408 1.32-0.408 1.881 0l3.762-5.178zM23.080 21.367l-2.377-1.727-3.762 5.178 2.377 1.727 3.762-5.178zM17.247 22.15l0.908 2.795 6.087-1.978-0.908-2.795-6.087 1.978zM20.153 13.205c-2.804 2.037-3.977 5.648-2.906 8.944l6.087-1.978c-0.214-0.659 0.020-1.381 0.581-1.789l-3.762-5.178zM22.531 11.478l-2.377 1.727 3.762 5.178 2.377-1.727-3.762-5.178zM21.473 17.267h2.939v-6.4h-2.939v6.4zM13.865 11.739c1.071 3.296 4.143 5.528 7.608 5.528v-6.4c-0.693 0-1.308-0.446-1.522-1.106l-6.087 1.978zM12.957 8.944l0.908 2.795 6.087-1.978-0.908-2.795-6.087 1.978zM17.522 3.272c-0.479 1.474-2.564 1.474-3.043 0l6.087-1.978c-1.437-4.422-7.693-4.422-9.13 0l6.087 1.978zM15.092 10.75l2.43-7.478-6.087-1.978-2.43 7.478 6.087 1.978zM10.527 14.067c2.079 0 3.922-1.339 4.565-3.317l-6.087-1.978c0.214-0.659 0.829-1.106 1.522-1.106v6.4zM2.664 14.067h7.863v-6.4h-7.863v6.4zM3.604 11.172c1.254 0.911 0.61 2.894-0.94 2.894v-6.4c-4.65 0-6.583 5.95-2.821 8.683l3.762-5.178zM9.966 15.794l-6.361-4.622-3.762 5.178 6.361 4.622 3.762-5.178zM11.709 21.161c0.643-1.978-0.061-4.144-1.744-5.367l-3.762 5.178c-0.561-0.407-0.795-1.13-0.581-1.789l6.087 1.978zM9.28 28.639l2.43-7.478-6.087-1.978-2.43 7.478 6.087 1.978zM6.817 26.85c1.254-0.911 2.941 0.315 2.462 1.789l-6.087-1.978c-1.437 4.422 3.625 8.1 7.386 5.367l-3.762-5.178zM13.179 22.228l-6.361 4.622 3.762 5.178 6.361-4.622-3.762-5.178zM18.821 22.228c-1.682-1.222-3.96-1.222-5.643 0l3.762 5.178c-0.561 0.407-1.32 0.407-1.881 0l3.762-5.178zM25.183 26.85l-6.361-4.622-3.762 5.178 6.361 4.622 3.762-5.178zM22.72 28.639c-0.479-1.474 1.208-2.7 2.462-1.789l-3.762 5.178c3.762 2.733 8.823-0.944 7.386-5.367l-6.087 1.978zM20.291 21.161l2.43 7.478 6.087-1.978-2.43-7.478-6.087 1.978zM22.034 15.794c-1.682 1.222-2.386 3.389-1.744 5.367l6.087-1.978c0.214 0.659-0.020 1.381-0.581 1.789l-3.762-5.178zM28.396 11.172l-6.361 4.622 3.762 5.178 6.361-4.622-3.762-5.178zM29.336 14.067c-1.55 0-2.194-1.983-0.94-2.894l3.762 5.178c3.762-2.733 1.829-8.683-2.821-8.683v6.4zM21.473 14.067h7.863v-6.4h-7.863v6.4zM16.908 10.75c0.643 1.978 2.486 3.317 4.565 3.317v-6.4c0.693 0 1.308 0.446 1.522 1.106l-6.087 1.978zM14.478 3.272l2.43 7.478 6.087-1.978-2.43-7.478-6.087 1.978z"></path>
</svg>
