<!-- Generated by IcoMoon.io -->
<svg version="1.1" xmlns="http://www.w3.org/2000/svg" width="32" height="32" viewBox="0 0 32 32">
<title>stats</title>
<path d="M14.4 3.2h3.2c1.767 0 3.2 1.433 3.2 3.2v19.2c0 1.767-1.433 3.2-3.2 3.2h-3.2c-1.767 0-3.2-1.433-3.2-3.2v-19.2c0-1.767 1.433-3.2 3.2-3.2zM17.6 6.4h-3.2v19.2h3.2v-19.2z"></path>
<path d="M3.2 9.6h3.2c1.767 0 3.2 1.433 3.2 3.2v12.8c0 1.767-1.433 3.2-3.2 3.2h-3.2c-1.767 0-3.2-1.433-3.2-3.2v-12.8c0-1.767 1.433-3.2 3.2-3.2zM6.4 12.8h-3.2v12.8h3.2v-12.8z"></path>
<path d="M22.4 16v9.6c0 1.767 1.433 3.2 3.2 3.2h3.2c1.767 0 3.2-1.433 3.2-3.2v-9.6c0-1.767-1.433-3.2-3.2-3.2h-3.2c-1.767 0-3.2 1.433-3.2 3.2zM25.6 16h3.2v9.6h-3.2v-9.6z"></path>
</svg>
