<!-- Generated by IcoMoon.io -->
<svg version="1.1" xmlns="http://www.w3.org/2000/svg" width="32" height="32" viewBox="0 0 32 32">
<title>statsFilled</title>
<path d="M11.2 6.4c0-1.767 1.433-3.2 3.2-3.2h3.2c1.767 0 3.2 1.433 3.2 3.2v19.2c0 1.767-1.433 3.2-3.2 3.2h-3.2c-1.767 0-3.2-1.433-3.2-3.2v-19.2z"></path>
<path d="M22.4 12.8c0-1.767 1.433-3.2 3.2-3.2h3.2c1.767 0 3.2 1.433 3.2 3.2v12.8c0 1.767-1.433 3.2-3.2 3.2h-3.2c-1.767 0-3.2-1.433-3.2-3.2v-12.8z"></path>
<path d="M3.2 12.8c-1.767 0-3.2 1.433-3.2 3.2v9.6c0 1.767 1.433 3.2 3.2 3.2h3.2c1.767 0 3.2-1.433 3.2-3.2v-9.6c0-1.767-1.433-3.2-3.2-3.2h-3.2z"></path>
</svg>
