<svg width="16" height="17" viewBox="0 0 16 17" fill="none" xmlns="http://www.w3.org/2000/svg">
<path d="M14.375 6.5C14.3751 6.46516 14.3705 6.43047 14.3612 6.39687L13.465 3.25938C13.4121 3.07717 13.3018 2.91695 13.1504 2.80262C12.999 2.68829 12.8147 2.62598 12.625 2.625H3.375C3.1854 2.62612 3.00124 2.68849 2.84997 2.80281C2.69871 2.91713 2.58845 3.07728 2.53563 3.25938L1.63938 6.39687C1.62996 6.43045 1.62512 6.46513 1.625 6.5V7.5C1.62484 7.87934 1.71555 8.2532 1.88953 8.59029C2.06351 8.92737 2.3157 9.21788 2.625 9.4375V13.5C2.625 13.7321 2.71719 13.9546 2.88128 14.1187C3.04538 14.2828 3.26794 14.375 3.5 14.375H12.5C12.7321 14.375 12.9546 14.2828 13.1187 14.1187C13.2828 13.9546 13.375 13.7321 13.375 13.5V9.4375C13.6843 9.21788 13.9365 8.92737 14.1105 8.59029C14.2845 8.2532 14.3752 7.87934 14.375 7.5V6.5ZM3.25688 3.46563C3.26424 3.43985 3.2797 3.41713 3.30097 3.40081C3.32224 3.38449 3.3482 3.37544 3.375 3.375H12.625C12.6521 3.37504 12.6785 3.3839 12.7002 3.40025C12.7218 3.4166 12.7375 3.43954 12.745 3.46563L13.5031 6.125H2.5L3.25688 3.46563ZM6.375 6.875H9.625V7.5C9.625 7.93098 9.4538 8.3443 9.14905 8.64905C8.8443 8.9538 8.43098 9.125 8 9.125C7.56902 9.125 7.1557 8.9538 6.85095 8.64905C6.54621 8.3443 6.375 7.93098 6.375 7.5V6.875ZM2.375 6.875H5.625V7.5C5.625 7.93098 5.4538 8.3443 5.14905 8.64905C4.8443 8.9538 4.43098 9.125 4 9.125C3.56902 9.125 3.1557 8.9538 2.85095 8.64905C2.54621 8.3443 2.375 7.93098 2.375 7.5V6.875ZM12.625 13.5C12.625 13.5332 12.6118 13.5649 12.5884 13.5884C12.5649 13.6118 12.5332 13.625 12.5 13.625H3.5C3.46685 13.625 3.43505 13.6118 3.41161 13.5884C3.38817 13.5649 3.375 13.5332 3.375 13.5V9.79125C3.8634 9.92413 4.38148 9.89751 4.85368 9.71526C5.32589 9.53301 5.72752 9.20467 6 8.77812C6.21432 9.1143 6.50993 9.39103 6.8595 9.58273C7.20906 9.77444 7.60132 9.87494 8 9.87494C8.39868 9.87494 8.79093 9.77444 9.1405 9.58273C9.49007 9.39103 9.78568 9.1143 10 8.77812C10.2725 9.20467 10.6741 9.53301 11.1463 9.71526C11.6185 9.89751 12.1366 9.92413 12.625 9.79125V13.5ZM12 9.125C11.569 9.125 11.1557 8.9538 10.851 8.64905C10.5462 8.3443 10.375 7.93098 10.375 7.5V6.875H13.625V7.5C13.625 7.93098 13.4538 8.3443 13.149 8.64905C12.8443 8.9538 12.431 9.125 12 9.125Z" fill="#000214"/>
</svg>
