<!-- Generated by IcoMoon.io -->
<svg version="1.1" xmlns="http://www.w3.org/2000/svg" width="32" height="32" viewBox="0 0 32 32">
<title>support</title>
<path d="M14.4 4.8c-4.418 0-8 3.582-8 8 1.767 0 3.2 1.433 3.2 3.2v6.4c0 1.767-1.433 3.2-3.2 3.2h-3.2c-1.767 0-3.2-1.433-3.2-3.2v-6.4c0-1.767 1.433-3.2 3.2-3.2 0-6.186 5.014-11.2 11.2-11.2h3.2c6.186 0 11.2 5.014 11.2 11.2 1.767 0 3.2 1.433 3.2 3.2v6.4c0 1.767-1.433 3.2-3.2 3.2h-0.273c-0.659 1.864-2.437 3.2-4.527 3.2h-4.422c-0.879 0.982-2.156 1.6-3.578 1.6-2.651 0-4.8-2.149-4.8-4.8s2.149-4.8 4.8-4.8c2.651 0 4.8 2.149 4.8 4.8h3.2c0.234 0 0.457-0.050 0.658-0.141-1.308-0.402-2.258-1.62-2.258-3.059v-6.4c0-1.767 1.433-3.2 3.2-3.2 0-4.418-3.582-8-8-8h-3.2zM28.8 22.4h-3.2v-6.4h3.2v6.4zM3.2 16h3.2v6.4h-3.2v-6.4zM14.4 25.6c0-0.884 0.716-1.6 1.6-1.6s1.6 0.716 1.6 1.6-0.716 1.6-1.6 1.6c-0.884 0-1.6-0.716-1.6-1.6z"></path>
<path d="M15.2 13.6c0 1.325-1.075 2.4-2.4 2.4s-2.4-1.075-2.4-2.4c0-1.325 1.075-2.4 2.4-2.4s2.4 1.075 2.4 2.4z"></path>
<path d="M19.2 16c1.325 0 2.4-1.075 2.4-2.4s-1.075-2.4-2.4-2.4c-1.325 0-2.4 1.075-2.4 2.4s1.075 2.4 2.4 2.4z"></path>
</svg>
