<!-- Generated by IcoMoon.io -->
<svg version="1.1" xmlns="http://www.w3.org/2000/svg" width="32" height="32" viewBox="0 0 32 32">
<title>supportFilled</title>
<path d="M6.4 12.8c0-4.418 3.582-8 8-8h3.2c4.418 0 8 3.582 8 8v11.2c0 0.884-0.716 1.6-1.6 1.6h-3.2c0-2.651-2.149-4.8-4.8-4.8s-4.8 2.149-4.8 4.8 2.149 4.8 4.8 4.8c1.422 0 2.699-0.618 3.578-1.6h4.422c2.094 0 3.875-1.341 4.531-3.211 0.089 0.007 0.178 0.011 0.269 0.011 1.767 0 3.2-1.433 3.2-3.2v-6.4c0-1.767-1.433-3.2-3.2-3.2 0-6.186-5.014-11.2-11.2-11.2h-3.2c-6.186 0-11.2 5.014-11.2 11.2-1.767 0-3.2 1.433-3.2 3.2v6.4c0 1.767 1.433 3.2 3.2 3.2s3.2-1.433 3.2-3.2v-9.6zM17.6 25.6c0-0.884-0.716-1.6-1.6-1.6s-1.6 0.716-1.6 1.6 0.716 1.6 1.6 1.6c0.884 0 1.6-0.716 1.6-1.6z"></path>
<path d="M14.4 6.4c-3.535 0-6.4 2.865-6.4 6.4v10.158c0 0.576 0.467 1.042 1.042 1.042 0.348 0 0.674-0.174 0.867-0.464l1.116-1.673c1.109-1.663 2.976-2.663 4.975-2.663s3.866 0.999 4.975 2.663l1.116 1.673c0.193 0.29 0.519 0.464 0.867 0.464 0.576 0 1.042-0.467 1.042-1.042v-10.158c0-3.535-2.865-6.4-6.4-6.4h-3.2zM14.4 12.8c0 0.884-0.716 1.6-1.6 1.6s-1.6-0.716-1.6-1.6c0-0.884 0.716-1.6 1.6-1.6s1.6 0.716 1.6 1.6zM19.2 14.4c0.884 0 1.6-0.716 1.6-1.6s-0.716-1.6-1.6-1.6c-0.884 0-1.6 0.716-1.6 1.6s0.716 1.6 1.6 1.6z"></path>
</svg>
