<svg width="20" height="18" viewBox="0 0 20 18" fill="none" xmlns="http://www.w3.org/2000/svg">
<path fill-rule="evenodd" clip-rule="evenodd" d="M9 2C6.23858 2 4 4.23858 4 7C5.10457 7 6 7.89543 6 9V13C6 14.1046 5.10457 15 4 15H2C0.89543 15 0 14.1046 0 13V9C0 7.89543 0.895431 7 2 7C2 3.13401 5.13401 0 9 0H11C14.866 0 18 3.13401 18 7C19.1046 7 20 7.89543 20 9V13C20 14.1046 19.1046 15 18 15H17.8293C17.4175 16.1652 16.3062 17 15 17H12.2361C11.6868 17.6137 10.8885 18 10 18C8.34315 18 7 16.6569 7 15C7 13.3431 8.34315 12 10 12C11.6569 12 13 13.3431 13 15H15C15.1465 15 15.2857 14.9685 15.4111 14.9119C14.5939 14.6605 14 13.8996 14 13V9C14 7.89543 14.8954 7 16 7C16 4.23858 13.7614 2 11 2H9ZM18 13H16V9H18V13ZM2 9H4V13H2L2 9ZM9 15C9 14.4477 9.44772 14 10 14C10.5523 14 11 14.4477 11 15C11 15.5523 10.5523 16 10 16C9.44772 16 9 15.5523 9 15Z" fill="#1C1C1F"/>
<path d="M9.5 7.5C9.5 8.32843 8.82843 9 8 9C7.17157 9 6.5 8.32843 6.5 7.5C6.5 6.67157 7.17157 6 8 6C8.82843 6 9.5 6.67157 9.5 7.5Z" fill="#1C1C1F"/>
<path d="M12 9C12.8284 9 13.5 8.32843 13.5 7.5C13.5 6.67157 12.8284 6 12 6C11.1716 6 10.5 6.67157 10.5 7.5C10.5 8.32843 11.1716 9 12 9Z" fill="#1C1C1F"/>
</svg>
