<!-- Generated by IcoMoon.io -->
<svg version="1.1" xmlns="http://www.w3.org/2000/svg" width="32" height="32" viewBox="0 0 32 32">
<title>textMessage</title>
<path d="M9.333 16c-1.105 0-2-0.895-2-2s0.895-2 2-2 2 0.895 2 2c0 1.105-0.895 2-2 2z"></path>
<path d="M16 16c-1.105 0-2-0.895-2-2s0.895-2 2-2 2 0.895 2 2c0 1.105-0.895 2-2 2z"></path>
<path d="M20.667 14c0 1.105 0.895 2 2 2s2-0.895 2-2c0-1.105-0.895-2-2-2s-2 0.895-2 2z"></path>
<path d="M5.333 2.667h21.333c1.473 0 2.667 1.194 2.667 2.667v15.852c0 1.473-1.194 2.667-2.667 2.667h-16.070c-0.8 0-1.557 0.359-2.064 0.978l-2.555 3.123c-1.111 1.358-3.311 0.572-3.311-1.182v-21.437c0-1.473 1.194-2.667 2.667-2.667zM26.667 5.333h-21.333v19.196l1.136-1.388c1.013-1.238 2.528-1.956 4.128-1.956h16.070v-15.852z"></path>
</svg>
