<svg width="24" height="24" viewBox="0 0 24 24" fill="none" xmlns="http://www.w3.org/2000/svg">
<path fill-rule="evenodd" clip-rule="evenodd" d="M4 2H20C21.1046 2 22 2.89543 22 4V15.8889C22 16.9935 21.1046 17.8889 20 17.8889H7.94776C7.34789 17.8889 6.7797 18.1581 6.39984 18.6224L4.48354 20.9646C3.65039 21.9829 2 21.3937 2 20.078V4C2 2.89543 2.89543 2 4 2ZM5.5 10.5C5.5 11.3284 6.17157 12 7 12C7.82843 12 8.5 11.3284 8.5 10.5C8.5 9.67157 7.82843 9 7 9C6.17157 9 5.5 9.67157 5.5 10.5ZM10.5 10.5C10.5 11.3284 11.1716 12 12 12C12.8284 12 13.5 11.3284 13.5 10.5C13.5 9.67157 12.8284 9 12 9C11.1716 9 10.5 9.67157 10.5 10.5ZM17 12C16.1716 12 15.5 11.3284 15.5 10.5C15.5 9.67157 16.1716 9 17 9C17.8284 9 18.5 9.67157 18.5 10.5C18.5 11.3284 17.8284 12 17 12Z" fill="#1C1C1F"/>
</svg>
