<!-- Generated by IcoMoon.io -->
<svg version="1.1" xmlns="http://www.w3.org/2000/svg" width="32" height="32" viewBox="0 0 32 32">
<title>textMessageFilled</title>
<path stroke-linejoin="round" stroke-linecap="butt" stroke-miterlimit="4" stroke-width="2.6667" stroke="#000" fill="#000" d="M19.333 14c0 1.841 1.492 3.333 3.333 3.333s3.333-1.492 3.333-3.333c0-0.824-0.299-1.579-0.795-2.161 0.47 0.105 0.96 0.161 1.462 0.161 0.456 0 0.902-0.046 1.333-0.134v9.319c0 0.736-0.597 1.333-1.333 1.333h-16.070c-1.2 0-2.336 0.539-3.096 1.467l-2.555 3.123c-0.317 0.388-0.946 0.163-0.946-0.338v-21.437c0-0.736 0.597-1.333 1.333-1.333h14.8c-0.088 0.431-0.134 0.877-0.134 1.333 0 2.181 1.047 4.117 2.666 5.333-1.841 0-3.333 1.493-3.333 3.333zM19.333 14c0-1.841-1.492-3.333-3.333-3.333s-3.333 1.492-3.333 3.333M19.333 14c0 1.841-1.492 3.333-3.333 3.333s-3.333-1.492-3.333-3.333M12.667 14c0 1.841-1.492 3.333-3.333 3.333s-3.333-1.492-3.333-3.333c0-1.841 1.492-3.333 3.333-3.333s3.333 1.492 3.333 3.333z"></path>
<path d="M32 5.333c0 2.946-2.388 5.333-5.333 5.333s-5.333-2.388-5.333-5.333c0-2.946 2.388-5.333 5.333-5.333s5.333 2.388 5.333 5.333z"></path>
</svg>
