<svg width="19" height="14" viewBox="0 0 19 14" fill="none" xmlns="http://www.w3.org/2000/svg">
<path fill-rule="evenodd" clip-rule="evenodd" d="M0.333252 2.00004C0.333252 1.07957 1.07944 0.333374 1.99992 0.333374H16.9999C17.9204 0.333374 18.6666 1.07957 18.6666 2.00004V3.66671C18.6666 4.58718 17.9204 5.33337 16.9999 5.33337C16.4753 5.33337 15.9813 5.58036 15.6666 6.00004C15.2221 6.59263 15.2221 7.40745 15.6666 8.00004C15.9813 8.41972 16.4753 8.66671 16.9999 8.66671C17.9204 8.66671 18.6666 9.4129 18.6666 10.3334V12C18.6666 12.9205 17.9204 13.6667 16.9999 13.6667H1.99992C1.07944 13.6667 0.333252 12.9205 0.333252 12V10.3334C0.333252 9.4129 1.07944 8.66671 1.99992 8.66671C2.52451 8.66671 3.01849 8.41972 3.33325 8.00004C3.7777 7.40745 3.7777 6.59263 3.33325 6.00004C3.01849 5.58036 2.52451 5.33337 1.99992 5.33337C1.07944 5.33337 0.333252 4.58718 0.333252 3.66671V2.00004ZM8.66658 2.00004H16.9999V3.66671C15.9507 3.66671 14.9628 4.16069 14.3333 5.00004C13.4444 6.18523 13.4444 7.81486 14.3333 9.00004C14.9628 9.83939 15.9507 10.3334 16.9999 10.3334V12H8.66658V2.00004ZM6.99992 2.00004H1.99992V3.66671C3.04911 3.66671 4.03707 4.16069 4.66658 5.00004C5.55547 6.18523 5.55547 7.81486 4.66658 9.00004C4.03707 9.83939 3.04911 10.3334 1.99992 10.3334L1.99992 12H6.99992V2.00004Z" fill="#EBAD01"/>
</svg>
