<svg width="24" height="24" viewBox="0 0 24 24" fill="none" xmlns="http://www.w3.org/2000/svg">
<path d="M7.70711 11.7071C7.31658 12.0976 6.68342 12.0976 6.29289 11.7071L2.29289 7.70708C1.90237 7.31655 1.90237 6.68339 2.29289 6.29287L2.30492 6.28104L6.29306 2.29289C6.68359 1.90237 7.31675 1.90237 7.70728 2.29289C8.0978 2.68342 8.0978 3.31658 7.70728 3.70711L5.41441 5.99997H19.1113C19.6022 5.99997 20.0002 6.44769 20.0002 6.99997C20.0002 7.55226 19.6022 7.99997 19.1113 7.99997H5.41421L7.70711 10.2929C8.09763 10.6834 8.09763 11.3166 7.70711 11.7071Z" fill="#1C1C1F"/>
<path d="M16.2929 13.7071C15.9024 13.3166 15.9024 12.6834 16.2929 12.2929C16.6834 11.9024 17.3166 11.9024 17.7071 12.2929L21.7071 16.2929C22.0976 16.6834 22.0976 17.3166 21.7071 17.7071L21.6985 17.7156L17.707 21.7071C17.3165 22.0976 16.6833 22.0976 16.2928 21.7071C15.9023 21.3166 15.9023 20.6834 16.2928 20.2929L18.5857 18H4.88889C4.39797 18 4 17.5523 4 17C4 16.4477 4.39797 16 4.88889 16H18.5858L16.2929 13.7071Z" fill="#1C1C1F"/>
</svg>
