<svg width="20" height="20" viewBox="0 0 20 20" fill="none" xmlns="http://www.w3.org/2000/svg">
<path d="M6.87866 16.1501C6.94833 16.6377 7.36601 17 7.85866 17C8.46109 17 8.92386 16.4664 8.83866 15.8701L8.1215 10.8499C8.05183 10.3623 7.63415 10 7.1415 10C6.53907 10 6.07631 10.5336 6.1615 11.1299L6.87866 16.1501Z" fill="#1C1C1F"/>
<path d="M12.1415 17C11.5391 17 11.0763 16.4664 11.1615 15.8701L11.8787 10.85C11.9483 10.3623 12.366 10 12.8587 10C13.4611 10 13.9239 10.5336 13.8387 11.1299L13.1215 16.15C13.0518 16.6377 12.6342 17 12.1415 17Z" fill="#1C1C1F"/>
<path fill-rule="evenodd" clip-rule="evenodd" d="M4 3V2C4 0.89543 4.89543 0 6 0H14C15.1046 0 16 0.895431 16 2V3H18C19.1046 3 20 3.89543 20 5V7C20 8.10457 19.1046 9 18 9H17.6692C17.669 9.10013 17.6613 9.2017 17.6455 9.30411L16.2609 18.3041C16.1108 19.2798 15.2713 20 14.2842 20H5.71586C4.72871 20 3.88921 19.2798 3.73911 18.3041L2.3545 9.30411C2.33874 9.2017 2.33101 9.10013 2.33081 9H2C0.895431 9 0 8.10457 0 7V5C0 3.89543 0.895431 3 2 3H4ZM6 2H14V3H6V2ZM2 5V7H18V5H2ZM5.71586 18L4.33124 9H15.6688L14.2842 18H5.71586Z" fill="#1C1C1F"/>
</svg>
