<svg width="24" height="24" viewBox="0 0 24 24" fill="none" xmlns="http://www.w3.org/2000/svg">
<path d="M7.68327 9.70711C7.29275 9.31658 7.29275 8.68342 7.68327 8.29289L11.6714 4.30477C11.7033 4.27182 11.7374 4.24105 11.7735 4.21272C11.8322 4.16663 11.8948 4.12804 11.9601 4.09693C12.0887 4.03558 12.2325 4.0009 12.3843 4.00002C12.3927 3.99997 12.4011 4.00001 12.4096 4.00017C12.5161 4.00219 12.6185 4.02087 12.7143 4.05369C12.8543 4.1015 12.9858 4.18123 13.0975 4.2929L13.1048 4.30032L17.0974 8.29288C17.4879 8.68341 17.4879 9.31657 17.0974 9.7071C16.7069 10.0976 16.0737 10.0976 15.6832 9.7071L13.3902 7.41411L13.3902 15C13.3902 15.5523 12.9425 16 12.3902 16C11.8379 16 11.3902 15.5523 11.3902 15L11.3902 7.4144L9.09749 9.70711C8.70696 10.0976 8.0738 10.0976 7.68327 9.70711Z" fill="black"/>
<path d="M6 15C6 14.4477 5.55228 14 5 14C4.44772 14 4 14.4477 4 15V17C4 18.6569 5.34315 20 7 20H17C18.6569 20 20 18.6569 20 17V15C20 14.4477 19.5523 14 19 14C18.4477 14 18 14.4477 18 15V17C18 17.5523 17.5523 18 17 18H7C6.44772 18 6 17.5523 6 17V15Z" fill="black"/>
</svg>
