<svg width="16" height="16" viewBox="0 0 16 16" fill="none" xmlns="http://www.w3.org/2000/svg">
<path opacity="0.2" d="M7 10.5C7 10.8956 6.8827 11.2822 6.66294 11.6111C6.44318 11.94 6.13082 12.1964 5.76537 12.3478C5.39992 12.4991 4.99778 12.5387 4.60982 12.4616C4.22186 12.3844 3.86549 12.1939 3.58579 11.9142C3.30608 11.6345 3.1156 11.2781 3.03843 10.8902C2.96126 10.5022 3.00087 10.1001 3.15224 9.73463C3.30362 9.36918 3.55996 9.05682 3.88886 8.83706C4.21776 8.6173 4.60444 8.5 5 8.5C5.53043 8.5 6.03914 8.71071 6.41421 9.08579C6.78929 9.46086 7 9.96957 7 10.5ZM5 2C4.60444 2 4.21776 2.1173 3.88886 2.33706C3.55996 2.55682 3.30362 2.86918 3.15224 3.23463C3.00087 3.60009 2.96126 4.00222 3.03843 4.39018C3.1156 4.77814 3.30608 5.13451 3.58579 5.41421C3.86549 5.69392 4.22186 5.8844 4.60982 5.96157C4.99778 6.03874 5.39992 5.99914 5.76537 5.84776C6.13082 5.69638 6.44318 5.44004 6.66294 5.11114C6.8827 4.78224 7 4.39556 7 4C7 3.46957 6.78929 2.96086 6.41421 2.58579C6.03914 2.21071 5.53043 2 5 2ZM11 8.5C10.6044 8.5 10.2178 8.6173 9.88886 8.83706C9.55996 9.05682 9.30362 9.36918 9.15224 9.73463C9.00087 10.1001 8.96126 10.5022 9.03843 10.8902C9.1156 11.2781 9.30608 11.6345 9.58579 11.9142C9.86549 12.1939 10.2219 12.3844 10.6098 12.4616C10.9978 12.5387 11.3999 12.4991 11.7654 12.3478C12.1308 12.1964 12.4432 11.94 12.6629 11.6111C12.8827 11.2822 13 10.8956 13 10.5C13 9.96957 12.7893 9.46086 12.4142 9.08579C12.0391 8.71071 11.5304 8.5 11 8.5ZM11 6C11.3956 6 11.7822 5.8827 12.1111 5.66294C12.44 5.44318 12.6964 5.13082 12.8478 4.76537C12.9991 4.39992 13.0387 3.99778 12.9616 3.60982C12.8844 3.22186 12.6939 2.86549 12.4142 2.58579C12.1345 2.30608 11.7781 2.1156 11.3902 2.03843C11.0022 1.96126 10.6001 2.00087 10.2346 2.15224C9.86918 2.30362 9.55682 2.55996 9.33706 2.88886C9.1173 3.21776 9 3.60444 9 4C9 4.53043 9.21071 5.03914 9.58579 5.41421C9.96086 5.78929 10.4696 6 11 6Z" fill="#0C29FF"/>
<path d="M1.7 7.90001C1.75253 7.9394 1.8123 7.96807 1.87591 7.98436C1.93952 8.00066 2.00571 8.00427 2.07071 7.99498C2.13571 7.98569 2.19825 7.9637 2.25475 7.93024C2.31125 7.89679 2.3606 7.85253 2.4 7.80001C2.70273 7.39637 3.09528 7.06876 3.54656 6.84312C3.99784 6.61748 4.49545 6.50001 5 6.50001C5.50455 6.50001 6.00216 6.61748 6.45344 6.84312C6.90472 7.06876 7.29727 7.39637 7.6 7.80001C7.67966 7.906 7.79815 7.97601 7.92942 7.99464C8.06069 8.01328 8.19399 7.97901 8.3 7.89938C8.33779 7.87128 8.37127 7.8378 8.39937 7.80001C8.7021 7.39637 9.09465 7.06876 9.54593 6.84312C9.99721 6.61748 10.4948 6.50001 10.9994 6.50001C11.5039 6.50001 12.0015 6.61748 12.4528 6.84312C12.9041 7.06876 13.2966 7.39637 13.5994 7.80001C13.679 7.90609 13.7976 7.97619 13.9289 7.99489C14.0602 8.01358 14.1936 7.97934 14.2997 7.89969C14.4058 7.82005 14.4759 7.70152 14.4946 7.57018C14.5133 7.43885 14.479 7.30547 14.3994 7.19938C13.9568 6.60605 13.3666 6.1389 12.6875 5.84438C13.0598 5.50447 13.3206 5.05994 13.4358 4.56913C13.5509 4.07832 13.515 3.56417 13.3327 3.09414C13.1504 2.62412 12.8303 2.22019 12.4143 1.93536C11.9984 1.65054 11.506 1.49812 11.0019 1.49812C10.4977 1.49812 10.0054 1.65054 9.58942 1.93536C9.17346 2.22019 8.85332 2.62412 8.67103 3.09414C8.48874 3.56417 8.45281 4.07832 8.56796 4.56913C8.6831 5.05994 8.94394 5.50447 9.31625 5.84438C8.8259 6.05641 8.38045 6.35995 8.00375 6.73876C7.62704 6.35995 7.1816 6.05641 6.69125 5.84438C7.06355 5.50447 7.3244 5.05994 7.43954 4.56913C7.55469 4.07832 7.51876 3.56417 7.33647 3.09414C7.15418 2.62412 6.83404 2.22019 6.41808 1.93536C6.00212 1.65054 5.50976 1.49812 5.00562 1.49812C4.50149 1.49812 4.00913 1.65054 3.59317 1.93536C3.17721 2.22019 2.85707 2.62412 2.67478 3.09414C2.49249 3.56417 2.45656 4.07832 2.57171 4.56913C2.68685 5.05994 2.9477 5.50447 3.32 5.84438C2.63791 6.13794 2.04481 6.60539 1.6 7.20001C1.5606 7.25253 1.53194 7.31231 1.51564 7.37592C1.49935 7.43952 1.49574 7.50572 1.50503 7.57072C1.51431 7.63572 1.53631 7.69825 1.56976 7.75475C1.60322 7.81125 1.64747 7.86061 1.7 7.90001ZM11 2.50001C11.2967 2.50001 11.5867 2.58798 11.8334 2.7528C12.08 2.91762 12.2723 3.15189 12.3858 3.42598C12.4994 3.70007 12.5291 4.00167 12.4712 4.29264C12.4133 4.58361 12.2704 4.85089 12.0607 5.06067C11.8509 5.27045 11.5836 5.41331 11.2926 5.47118C11.0017 5.52906 10.7001 5.49936 10.426 5.38583C10.1519 5.27229 9.91762 5.08004 9.75279 4.83336C9.58797 4.58669 9.5 4.29668 9.5 4.00001C9.5 3.60218 9.65803 3.22065 9.93934 2.93935C10.2206 2.65804 10.6022 2.50001 11 2.50001ZM5 2.50001C5.29667 2.50001 5.58668 2.58798 5.83335 2.7528C6.08003 2.91762 6.27229 3.15189 6.38582 3.42598C6.49935 3.70007 6.52906 4.00167 6.47118 4.29264C6.4133 4.58361 6.27044 4.85089 6.06066 5.06067C5.85088 5.27045 5.58361 5.41331 5.29264 5.47118C5.00166 5.52906 4.70006 5.49936 4.42597 5.38583C4.15189 5.27229 3.91762 5.08004 3.7528 4.83336C3.58797 4.58669 3.5 4.29668 3.5 4.00001C3.5 3.60218 3.65804 3.22065 3.93934 2.93935C4.22064 2.65804 4.60217 2.50001 5 2.50001ZM12.6875 12.3444C13.0598 12.0045 13.3206 11.5599 13.4358 11.0691C13.5509 10.5783 13.515 10.0642 13.3327 9.59414C13.1504 9.12412 12.8303 8.72019 12.4143 8.43536C11.9984 8.15054 11.506 7.99812 11.0019 7.99812C10.4977 7.99812 10.0054 8.15054 9.58942 8.43536C9.17346 8.72019 8.85332 9.12412 8.67103 9.59414C8.48874 10.0642 8.45281 10.5783 8.56796 11.0691C8.6831 11.5599 8.94394 12.0045 9.31625 12.3444C8.8259 12.5564 8.38045 12.86 8.00375 13.2388C7.62704 12.86 7.1816 12.5564 6.69125 12.3444C7.06355 12.0045 7.3244 11.5599 7.43954 11.0691C7.55469 10.5783 7.51876 10.0642 7.33647 9.59414C7.15418 9.12412 6.83404 8.72019 6.41808 8.43536C6.00212 8.15054 5.50976 7.99812 5.00562 7.99812C4.50149 7.99812 4.00913 8.15054 3.59317 8.43536C3.17721 8.72019 2.85707 9.12412 2.67478 9.59414C2.49249 10.0642 2.45656 10.5783 2.57171 11.0691C2.68685 11.5599 2.9477 12.0045 3.32 12.3444C2.63791 12.6379 2.04481 13.1054 1.6 13.7C1.5606 13.7525 1.53194 13.8123 1.51564 13.8759C1.49935 13.9395 1.49574 14.0057 1.50503 14.0707C1.51431 14.1357 1.53631 14.1983 1.56976 14.2548C1.60322 14.3113 1.64747 14.3606 1.7 14.4C1.75253 14.4394 1.8123 14.4681 1.87591 14.4844C1.93952 14.5007 2.00571 14.5043 2.07071 14.495C2.13571 14.4857 2.19825 14.4637 2.25475 14.4302C2.31125 14.3968 2.3606 14.3525 2.4 14.3C2.70273 13.8964 3.09528 13.5688 3.54656 13.3431C3.99784 13.1175 4.49545 13 5 13C5.50455 13 6.00216 13.1175 6.45344 13.3431C6.90472 13.5688 7.29727 13.8964 7.6 14.3C7.67966 14.406 7.79815 14.476 7.92942 14.4946C8.06069 14.5133 8.19399 14.479 8.3 14.3994C8.33779 14.3713 8.37127 14.3378 8.39937 14.3C8.7021 13.8964 9.09465 13.5688 9.54593 13.3431C9.99721 13.1175 10.4948 13 10.9994 13C11.5039 13 12.0015 13.1175 12.4528 13.3431C12.9041 13.5688 13.2966 13.8964 13.5994 14.3C13.679 14.4061 13.7976 14.4762 13.9289 14.4949C14.0602 14.5136 14.1936 14.4793 14.2997 14.3997C14.4058 14.32 14.4759 14.2015 14.4946 14.0702C14.5133 13.9388 14.479 13.8055 14.3994 13.6994C13.9568 13.106 13.3666 12.6389 12.6875 12.3444ZM5 9.00001C5.29667 9.00001 5.58668 9.08798 5.83335 9.2528C6.08003 9.41762 6.27229 9.65189 6.38582 9.92598C6.49935 10.2001 6.52906 10.5017 6.47118 10.7926C6.4133 11.0836 6.27044 11.3509 6.06066 11.5607C5.85088 11.7704 5.58361 11.9133 5.29264 11.9712C5.00166 12.0291 4.70006 11.9994 4.42597 11.8858C4.15189 11.7723 3.91762 11.58 3.7528 11.3334C3.58797 11.0867 3.5 10.7967 3.5 10.5C3.5 10.1022 3.65804 9.72065 3.93934 9.43935C4.22064 9.15804 4.60217 9.00001 5 9.00001ZM11 9.00001C11.2967 9.00001 11.5867 9.08798 11.8334 9.2528C12.08 9.41762 12.2723 9.65189 12.3858 9.92598C12.4994 10.2001 12.5291 10.5017 12.4712 10.7926C12.4133 11.0836 12.2704 11.3509 12.0607 11.5607C11.8509 11.7704 11.5836 11.9133 11.2926 11.9712C11.0017 12.0291 10.7001 11.9994 10.426 11.8858C10.1519 11.7723 9.91762 11.58 9.75279 11.3334C9.58797 11.0867 9.5 10.7967 9.5 10.5C9.5 10.1022 9.65803 9.72065 9.93934 9.43935C10.2206 9.15804 10.6022 9.00001 11 9.00001Z" fill="#0C29FF"/>
</svg>
