<svg width="24" height="24" viewBox="0 0 24 24" fill="none" xmlns="http://www.w3.org/2000/svg">
<path fill-rule="evenodd" clip-rule="evenodd" d="M8.75732 6.75731C9.14785 6.36679 9.78101 6.36679 10.1715 6.75731L10.7931 7.3789C11.4349 6.9874 12.1889 6.76157 12.9955 6.7609C13.8051 6.76022 14.5621 6.98648 15.2061 7.37961L15.8284 6.75731C16.2189 6.36679 16.8521 6.36679 17.2426 6.75731C17.6331 7.14783 17.6331 7.781 17.2426 8.17152L16.6208 8.79334C17.0137 9.43601 17.2403 10.1914 17.2406 10.9997C17.241 11.8086 17.0149 12.5646 16.6222 13.2079L17.2427 13.8284C17.6332 14.2189 17.6332 14.8521 17.2427 15.2426C16.8521 15.6331 16.219 15.6331 15.8284 15.2426L15.2084 14.6225C14.5649 15.0159 13.8084 15.2426 12.999 15.2426C12.1902 15.2426 11.4341 15.0162 10.7908 14.6232L10.1715 15.2426C9.78094 15.6331 9.14777 15.6331 8.75725 15.2426C8.36672 14.8521 8.36672 14.2189 8.75725 13.8284L9.37658 13.209C8.98377 12.566 8.7574 11.8103 8.7574 11.0018C8.7574 10.1923 8.98431 9.4357 9.37799 8.79219L8.75732 8.17152C8.3668 7.781 8.3668 7.14783 8.75732 6.75731ZM12.999 13.2426C11.761 13.2426 10.7574 12.2389 10.7574 11.0018C10.7574 9.76536 11.7598 8.76193 12.9972 8.7609C14.2355 8.75986 15.2401 9.76325 15.2406 11.0007C15.2412 12.2382 14.2375 13.2426 12.999 13.2426Z" fill="#1C1C1F"/>
<path fill-rule="evenodd" clip-rule="evenodd" d="M2 4.01354V18C2 19.1046 2.89543 20 4 20L5 20.0008C5 21.1049 5.89541 22 6.99952 22C8.10395 22 8.99948 21.1044 8.99904 20L15 20.0008C15 21.1049 15.8954 22 16.9995 22C18.1039 22 18.9995 21.1044 18.999 20H19.9989C21.1039 20 21.9995 19.104 21.9989 17.999L21.9915 4.00047C21.9909 2.89572 21.0947 2.0007 19.99 2.00153L3.9985 2.01354C2.89452 2.01437 2 2.90956 2 4.01354ZM19.9915 4.00153L4 4.01354V7.00085L4.99925 7.00043C5.55102 7.00042 5.99851 7.44744 5.99904 7.99926C5.99957 8.55167 5.5516 8.99979 4.99925 9.00001H4V13.0008L4.99925 13.0004C5.55102 13.0004 5.99851 13.4474 5.99904 13.9993C5.99957 14.5517 5.5516 14.9998 4.99925 15H4V18H19.9989L19.9915 4.00153Z" fill="#1C1C1F"/>
</svg>
