<!-- Generated by IcoMoon.io -->
<svg version="1.1" xmlns="http://www.w3.org/2000/svg" width="32" height="32" viewBox="0 0 32 32">
<title>vaultFilled</title>
<path d="M15.568 14.225c0 2.199 1.784 3.984 3.985 3.984s3.986-1.786 3.985-3.986c-0.001-2.2-1.787-3.984-3.988-3.982-2.2 0.002-3.982 1.786-3.982 3.984z"></path>
<path d="M0 5.353v19.536c0 1.964 1.592 3.556 3.556 3.556h0.475c0.614 1.063 1.763 1.778 3.079 1.778h1.779c1.316 0 2.465-0.715 3.079-1.778h8.063c0.614 1.063 1.763 1.778 3.079 1.778h1.779c1.316 0 2.465-0.715 3.079-1.778h0.475c1.964 0 3.557-1.593 3.556-3.558l-0.011-19.553c-0.001-1.964-1.594-3.555-3.558-3.554l-24.876 0.017c-1.963 0.001-3.553 1.593-3.553 3.556zM12.444 7.111c0.982-0.982 2.574-0.982 3.556 0 0.102 0.102 0.193 0.21 0.274 0.324 0.99-0.479 2.1-0.748 3.274-0.749 1.179-0.001 2.295 0.269 3.289 0.75 0.081-0.114 0.172-0.223 0.275-0.325 0.982-0.982 2.574-0.982 3.556 0s0.982 2.574 0 3.556c-0.102 0.102-0.21 0.193-0.324 0.274 0.481 0.992 0.751 2.105 0.752 3.281s-0.269 2.291-0.749 3.284c0.113 0.080 0.22 0.171 0.322 0.272 0.982 0.982 0.982 2.574 0 3.555s-2.574 0.982-3.556 0c-0.101-0.101-0.191-0.208-0.271-0.32-0.993 0.482-2.108 0.752-3.286 0.752s-2.291-0.27-3.283-0.75c-0.080 0.112-0.17 0.219-0.27 0.319-0.982 0.982-2.574 0.982-3.556 0s-0.982-2.574 0-3.555c0.1-0.1 0.207-0.19 0.319-0.27-0.481-0.992-0.75-2.106-0.75-3.282 0-1.178 0.27-2.293 0.753-3.287-0.113-0.080-0.22-0.171-0.321-0.272-0.982-0.982-0.982-2.574 0-3.556zM7.104 7.117c0.984-0.003 1.783 0.793 1.783 1.777l0.001 10.662c0 0.982-0.796 1.778-1.778 1.778s-1.778-0.796-1.778-1.777v-10.662c0-0.979 0.792-1.774 1.771-1.777z"></path>
</svg>
