<!-- Generated by IcoMoon.io -->
<svg version="1.1" xmlns="http://www.w3.org/2000/svg" width="32" height="32" viewBox="0 0 32 32">
<title>vault</title>
<path d="M8.884 8.893c-0.98 0.002-1.773 0.798-1.773 1.777v7.108c0 0.982 0.796 1.777 1.778 1.777s1.778-0.796 1.778-1.778l-0.001-7.107c-0-0.983-0.798-1.779-1.781-1.777z"></path>
<path d="M16.711 8.533c-0.785-0.785-2.059-0.785-2.844 0s-0.785 2.059 0 2.844c0.081 0.081 0.167 0.153 0.257 0.217-0.386 0.795-0.602 1.687-0.602 2.629 0 0.941 0.216 1.832 0.6 2.626-0.089 0.064-0.175 0.136-0.255 0.216-0.785 0.785-0.785 2.059 0 2.844s2.059 0.785 2.844 0c0.080-0.080 0.152-0.166 0.216-0.255 0.794 0.385 1.685 0.6 2.627 0.6s1.834-0.216 2.629-0.601c0.064 0.090 0.136 0.175 0.217 0.256 0.786 0.785 2.059 0.785 2.844 0s0.786-2.059 0-2.844c-0.081-0.081-0.167-0.153-0.257-0.218 0.385-0.794 0.6-1.686 0.6-2.627s-0.217-1.832-0.601-2.625c0.091-0.065 0.177-0.137 0.259-0.219 0.786-0.785 0.786-2.059 0-2.844s-2.059-0.785-2.844 0c-0.082 0.082-0.155 0.169-0.22 0.26-0.795-0.385-1.688-0.601-2.631-0.6-0.939 0.001-1.827 0.216-2.619 0.599-0.065-0.091-0.138-0.178-0.219-0.259zM19.554 16.701c-1.368 0-2.477-1.109-2.477-2.476s1.107-2.475 2.475-2.476c1.369-0.001 2.478 1.108 2.479 2.475s-1.108 2.477-2.477 2.477z"></path>
<path d="M0 5.352v17.759c0 1.964 1.592 3.556 3.556 3.556 0 1.963 1.592 3.556 3.555 3.556s3.556-1.592 3.555-3.556h10.668c0 1.963 1.592 3.556 3.555 3.556s3.556-1.592 3.555-3.556c1.964-0 3.556-1.593 3.555-3.558l-0.011-17.776c-0.001-1.964-1.594-3.555-3.558-3.553l-24.876 0.016c-1.963 0.001-3.553 1.593-3.553 3.556zM3.556 5.352l24.876-0.016 0.011 17.776h-24.887v-17.759z"></path>
</svg>
