<svg width="24" height="24" viewBox="0 0 24 24" fill="none" xmlns="http://www.w3.org/2000/svg">
<path fill-rule="evenodd" clip-rule="evenodd" d="M21.1667 7.99715V7.83333H21.0933C19.5132 4.39078 16.0358 2 12 2C7.96418 2 4.48675 4.39078 2.90674 7.83333H2.83333V7.99715C2.29736 9.22283 2 10.5767 2 12C2 13.4233 2.29736 14.7772 2.83333 16.0029V16.1667H2.90674C4.48675 19.6092 7.96418 22 12 22C16.0358 22 19.5132 19.6092 21.0933 16.1667H21.1667V16.0029C21.7026 14.7772 22 13.4233 22 12C22 10.5767 21.7026 9.22283 21.1667 7.99715ZM7.37024 9.5C7.05562 11.1505 7.05563 12.8495 7.37025 14.5H4.04817C3.80029 13.7108 3.66667 12.871 3.66667 12C3.66667 11.129 3.80029 10.2892 4.04817 9.5H7.37024ZM9.07162 9.5C8.71072 11.1454 8.71072 12.8546 9.07163 14.5H14.9284C15.2893 12.8546 15.2893 11.1454 14.9284 9.5H9.07162ZM14.4291 7.83333H9.57087C10.1039 6.44416 10.9136 5.13759 12 3.9994C13.0864 5.13759 13.8961 6.44416 14.4291 7.83333ZM16.6298 9.5C16.9444 11.1505 16.9444 12.8495 16.6298 14.5H19.9518C20.1997 13.7108 20.3333 12.871 20.3333 12C20.3333 11.129 20.1997 10.2892 19.9518 9.5H16.6298ZM19.2185 7.83333H16.1985C15.745 6.45686 15.0605 5.14043 14.1448 3.94528C16.307 4.51954 18.124 5.94132 19.2185 7.83333ZM4.78152 7.83333C5.87599 5.94132 7.69297 4.51954 9.85518 3.94528C8.93953 5.14043 8.25497 6.45686 7.80153 7.83333H4.78152ZM4.78152 16.1667H7.80155C8.255 17.5431 8.93956 18.8596 9.85523 20.0547C7.69299 19.4805 5.876 18.0587 4.78152 16.1667ZM12 20.0006C13.0864 18.8624 13.8961 17.5558 14.4291 16.1667H9.57088C10.1039 17.5558 10.9136 18.8624 12 20.0006ZM19.2185 16.1667H16.1985C15.745 17.5431 15.0604 18.8596 14.1448 20.0547C16.307 19.4805 18.124 18.0587 19.2185 16.1667Z" fill="#1C1C1F"/>
</svg>
