<svg width="17" height="17" viewBox="0 0 17 17" fill="none" xmlns="http://www.w3.org/2000/svg">
<path d="M4.36602 14.4469L4.63692 14.5824C5.74152 15.2394 7.00435 15.5828 8.28956 15.5757C12.2461 15.5666 15.4969 12.3081 15.4969 8.35162C15.4969 6.43952 14.7375 4.60325 13.387 3.24964C12.0384 1.88204 10.1958 1.11133 8.27557 1.11133C4.33712 1.11133 1.09668 4.35222 1.09668 8.29022C1.09668 8.32138 1.09668 8.35207 1.09713 8.38323C1.10899 9.72213 1.48347 11.0328 2.18074 12.1758L2.36134 12.4467L1.63894 15.1106L4.36602 14.4469Z" fill="#00E676"/>
<path d="M14.1907 2.43823C12.6534 0.869701 10.5444 -0.0102632 8.34827 9.03406e-05H8.33427C3.81159 0.000104485 0.0898578 3.72186 0.0898578 8.24455C0.0898578 8.26576 0.0903104 8.28654 0.0903104 8.30777C0.107346 9.74571 0.479592 11.1571 1.17392 12.4164L0 16.7057L4.37507 15.5769C5.58368 16.2405 6.94246 16.5825 8.32119 16.5703C12.8606 16.5454 16.5819 12.8025 16.5792 8.26261C16.59 6.0814 15.7299 3.98372 14.1907 2.43823ZM8.34827 15.1706C7.12613 15.177 5.9255 14.8491 4.87622 14.2224L4.60532 14.087L2.00015 14.7642L2.6774 12.1907L2.49681 11.9198C1.82597 10.8366 1.47056 9.58773 1.47054 8.31363C1.47054 4.55623 4.56244 1.46432 8.31985 1.46432C12.0772 1.46432 15.1691 4.55623 15.1691 8.31363C15.1691 10.6795 13.9433 12.8837 11.9332 14.1321C10.8701 14.8131 9.63339 15.1737 8.37086 15.1706M12.3396 10.1589L11.8429 9.93318C11.8429 9.93318 11.1205 9.61711 10.669 9.39137C10.6239 9.39137 10.5787 9.34622 10.5335 9.34622C10.4222 9.34897 10.3135 9.38004 10.2175 9.43652C10.1213 9.49295 10.1723 9.48166 9.54024 10.2041C9.49736 10.2885 9.40931 10.3413 9.3145 10.3395H9.26934C9.20147 10.3282 9.13856 10.2967 9.08875 10.2492L8.86299 10.1589C8.3786 9.95385 7.93508 9.66327 7.55363 9.30107C7.46333 9.21076 7.32789 9.12045 7.23758 9.03016C6.90333 8.70997 6.61468 8.34535 6.37973 7.94656L6.33457 7.85626C6.29535 7.80107 6.26489 7.74015 6.24428 7.67565C6.23247 7.59744 6.24844 7.51757 6.28942 7.44991C6.33051 7.38218 6.47003 7.22414 6.60547 7.0887C6.74093 6.95326 6.74093 6.86296 6.83123 6.77265C6.87764 6.7082 6.90971 6.63456 6.92528 6.55668C6.94086 6.4788 6.93958 6.39848 6.92153 6.32114C6.71111 5.73692 6.46997 5.16422 6.19913 4.60544C6.12653 4.49253 6.01342 4.41174 5.88308 4.37969H5.38642C5.29612 4.37969 5.20583 4.42483 5.11552 4.42483L5.07037 4.46998C4.98007 4.51513 4.88977 4.60544 4.79946 4.65059C4.70917 4.69574 4.66402 4.83119 4.57372 4.92149C4.25808 5.32036 4.08344 5.81253 4.07707 6.32114C4.08207 6.67891 4.15883 7.03204 4.30281 7.3596L4.34797 7.49505C4.75338 8.36182 5.32036 9.14334 6.01853 9.79772L6.19913 9.97832C6.33055 10.0872 6.45148 10.2081 6.56033 10.3395C7.49583 11.1536 8.60698 11.7405 9.80663 12.0552C9.94208 12.1004 10.1227 12.1004 10.2581 12.1455H10.7096C10.9456 12.1339 11.1764 12.0723 11.3869 11.9649C11.4975 11.9148 11.6032 11.8543 11.7029 11.7843L11.7932 11.694C11.8835 11.6037 11.9738 11.5586 12.0641 11.4683C12.1524 11.3897 12.2285 11.2984 12.2899 11.1974C12.3766 10.9951 12.4375 10.7829 12.4705 10.5653V10.2492C12.4299 10.2128 12.3843 10.1823 12.335 10.1589" fill="white"/>
</svg>
