<svg width="32" height="32" viewBox="0 0 32 32" fill="none" xmlns="http://www.w3.org/2000/svg">
<path d="M0 4C0 1.79086 1.79086 0 4 0H20.2918C22.5644 0 24.642 1.28401 25.6584 3.31672L31.1554 14.3108C31.7108 15.4217 32 16.6466 32 17.8885V28C32 30.2091 30.2091 32 28 32H4C1.79086 32 0 30.2091 0 28V4Z" fill="#B4E0CC"/>
<path fill-rule="evenodd" clip-rule="evenodd" d="M20.2918 2H4C2.89543 2 2 2.89543 2 4V28C2 29.1046 2.89543 30 4 30H28C29.1046 30 30 29.1046 30 28V17.8885C30 16.9571 29.7831 16.0384 29.3666 15.2053L23.8695 4.21115C23.1919 2.85601 21.8069 2 20.2918 2ZM4 0C1.79086 0 0 1.79086 0 4V28C0 30.2091 1.79086 32 4 32H28C30.2091 32 32 30.2091 32 28V17.8885C32 16.6466 31.7108 15.4217 31.1554 14.3108L25.6584 3.31672C24.642 1.28401 22.5644 0 20.2918 0H4Z" fill="#1C1C1F"/>
<path d="M0 4C0 1.79086 1.79086 0 4 0L11.3666 14.7331C11.7831 15.5663 12 16.4849 12 17.4164V32H4C1.79086 32 0 30.2091 0 28V4Z" fill="#31B67A"/>
<path fill-rule="evenodd" clip-rule="evenodd" d="M4 0C1.79086 0 0 1.79086 0 4V28C0 30.2091 1.79086 32 4 32H12V17.4164C12 16.4849 11.7831 15.5663 11.3666 14.7331L4 0ZM10 30V17.4164C10 16.7954 9.85542 16.183 9.57771 15.6276L2.92161 2.31535C2.3673 2.67091 2 3.29256 2 4V28C2 29.1046 2.89543 30 4 30H10Z" fill="#1C1C1F"/>
<path d="M4 4H19.5279C21.043 4 22.428 4.85601 23.1056 6.21115L27.5528 15.1056C28.2177 16.4354 27.2507 18 25.7639 18H11L4 4Z" fill="#EBFAF3"/>
<path fill-rule="evenodd" clip-rule="evenodd" d="M4 4L11 18H25.7639C27.2507 18 28.2177 16.4354 27.5528 15.1056L23.1056 6.21115C22.428 4.85601 21.043 4 19.5279 4H4ZM7.23607 6L12.2361 16H25.7639L21.3167 7.10557C20.9779 6.428 20.2854 6 19.5279 6H7.23607Z" fill="#1C1C1F"/>
<path d="M14 22C14 20.8954 14.8954 20 16 20H24C25.1046 20 26 20.8954 26 22V24C26 25.1046 25.1046 26 24 26H16C14.8954 26 14 25.1046 14 24V22Z" fill="#31B67A"/>
<path fill-rule="evenodd" clip-rule="evenodd" d="M24 22H16L16 24H24V22ZM16 20C14.8954 20 14 20.8954 14 22V24C14 25.1046 14.8954 26 16 26H24C25.1046 26 26 25.1046 26 24V22C26 20.8954 25.1046 20 24 20H16Z" fill="#1C1C1F"/>
</svg>
