<svg width="32" height="32" viewBox="0 0 32 32" fill="none" xmlns="http://www.w3.org/2000/svg">
<path d="M11.8823 1.93185C12.1681 0.864919 13.2648 0.231754 14.3318 0.517638L20.1273 2.07055C21.1942 2.35644 21.8274 3.45311 21.5415 4.52004L18.1769 17.0771C17.891 18.144 16.7943 18.7772 15.7274 18.4913L9.93183 16.9384C8.8649 16.6525 8.23173 15.5558 8.51762 14.4889L11.8823 1.93185Z" fill="#CDC7C7"/>
<path fill-rule="evenodd" clip-rule="evenodd" d="M19.6097 4.0024L13.8141 2.44949L10.4495 15.0065L16.245 16.5594L19.6097 4.0024ZM14.3318 0.517638C13.2648 0.231754 12.1681 0.864919 11.8823 1.93185L8.51762 14.4889C8.23173 15.5558 8.8649 16.6525 9.93183 16.9384L15.7274 18.4913C16.7943 18.7772 17.891 18.144 18.1769 17.0771L21.5415 4.52004C21.8274 3.45311 21.1942 2.35644 20.1273 2.07055L14.3318 0.517638Z" fill="black"/>
<path d="M15.8823 2.93185C16.1681 1.86492 17.2648 1.23175 18.3318 1.51764L24.1273 3.07055C25.1942 3.35644 25.8274 4.45311 25.5415 5.52004L22.1769 18.0771C21.891 19.144 20.7943 19.7772 19.7274 19.4913L13.9318 17.9384C12.8649 17.6525 12.2317 16.5558 12.5176 15.4889L15.8823 2.93185Z" fill="#EEE9E9"/>
<path fill-rule="evenodd" clip-rule="evenodd" d="M23.6097 5.0024L17.8141 3.44949L14.4495 16.0065L20.245 17.5594L23.6097 5.0024ZM18.3318 1.51764C17.2648 1.23175 16.1681 1.86492 15.8823 2.93185L12.5176 15.4889C12.2317 16.5558 12.8649 17.6525 13.9318 17.9384L19.7274 19.4913C20.7943 19.7772 21.891 19.144 22.1769 18.0771L25.5415 5.52004C25.8274 4.45311 25.1942 3.35644 24.1273 3.07055L18.3318 1.51764Z" fill="black"/>
<path d="M3 12C3 10.8954 3.89543 10 5 10H21C21.5523 10 22 10.4477 22 11V31C22 31.5523 21.5523 32 21 32H4C3.44771 32 3 31.5523 3 31V12Z" fill="#2B68AF"/>
<path fill-rule="evenodd" clip-rule="evenodd" d="M20 12H5V30H20V12ZM5 10C3.89543 10 3 10.8954 3 12V31C3 31.5523 3.44771 32 4 32H21C21.5523 32 22 31.5523 22 31V11C22 10.4477 21.5523 10 21 10H5Z" fill="black"/>
<path d="M7 11C7 10.4477 7.44772 10 8 10H28C28.5523 10 29 10.4477 29 11V31C29 31.5523 28.5523 32 28 32H8C7.44772 32 7 31.5523 7 31V11Z" fill="#5A98E0"/>
<path fill-rule="evenodd" clip-rule="evenodd" d="M9 12V30H27V12H9ZM8 10C7.44772 10 7 10.4477 7 11V31C7 31.5523 7.44772 32 8 32H28C28.5523 32 29 31.5523 29 31V11C29 10.4477 28.5523 10 28 10H8Z" fill="black"/>
<path d="M2.77214 10.6838C2.90825 10.2754 3.29039 10 3.72082 10H6.61263C7.29519 10 7.77716 10.6687 7.56132 11.3162L5.22798 18.3162C5.09187 18.7246 4.70973 19 4.2793 19H1.38749C0.704928 19 0.222958 18.3313 0.438802 17.6838L2.77214 10.6838Z" fill="#2B68AF"/>
<path fill-rule="evenodd" clip-rule="evenodd" d="M4.44158 12L2.77491 17H3.55854L5.22521 12H4.44158ZM3.72082 10C3.29039 10 2.90825 10.2754 2.77214 10.6838L0.438802 17.6838C0.222958 18.3313 0.704928 19 1.38749 19H4.2793C4.70973 19 5.09187 18.7246 5.22798 18.3162L7.56132 11.3162C7.77716 10.6687 7.29519 10 6.61263 10H3.72082Z" fill="black"/>
<path d="M8.4388 11.3162C8.22296 10.6687 8.70493 10 9.38749 10H28.2793C28.7097 10 29.0919 10.2754 29.228 10.6838L31.5613 17.6838C31.7772 18.3313 31.2952 19 30.6126 19H11.7208C11.2904 19 10.9083 18.7246 10.7721 18.3162L8.4388 11.3162Z" fill="#5A98E0"/>
<path fill-rule="evenodd" clip-rule="evenodd" d="M10.7749 12L12.4416 17H29.2252L27.5585 12H10.7749ZM9.38749 10C8.70493 10 8.22296 10.6687 8.4388 11.3162L10.7721 18.3162C10.9083 18.7246 11.2904 19 11.7208 19H30.6126C31.2952 19 31.7772 18.3313 31.5613 17.6838L29.228 10.6838C29.0919 10.2754 28.7097 10 28.2793 10H9.38749Z" fill="black"/>
<path d="M15 17H21V32H15V17Z" fill="#FF903F"/>
<path fill-rule="evenodd" clip-rule="evenodd" d="M19 19H17V30H19V19ZM15 17V32H21V17H15Z" fill="black"/>
</svg>
