<svg width="32" height="32" viewBox="0 0 32 32" fill="none" xmlns="http://www.w3.org/2000/svg">
<path d="M26 0C28.2091 0 30 1.79086 30 4V22H8V0H26Z" fill="#9A9089"/>
<path d="M30 20V26C30 28.2091 28.2091 30 26 30H6C3.79086 30 2 28.2091 2 26V20H30Z" fill="#EBEBEB"/>
<path d="M10 0V22H2V4C2 1.79086 3.79086 0 6 0H10Z" fill="#4B4743"/>
<path fill-rule="evenodd" clip-rule="evenodd" d="M2 4C2 1.79086 3.79086 0 6 0H26C28.2091 0 30 1.79086 30 4V26C30 28.2091 28.2091 30 26 30H6C3.79086 30 2 28.2091 2 26V4ZM28 20V4C28 2.89543 27.1046 2 26 2H10V20H28ZM4 22V26C4 27.1046 4.89543 28 6 28H26C27.1046 28 28 27.1046 28 26V22H4ZM8 2H6C4.89543 2 4 2.89543 4 4V20H8V2Z" fill="#1C1C1F"/>
<path d="M23 4C24.6569 4 26 5.34315 26 7C26 8.65685 24.6569 10 23 10H15C13.3431 10 12 8.65685 12 7C12 5.34315 13.3431 4 15 4H23Z" fill="#4B4743"/>
<path fill-rule="evenodd" clip-rule="evenodd" d="M15 8H23C23.5523 8 24 7.55228 24 7C24 6.44772 23.5523 6 23 6H15C14.4477 6 14 6.44772 14 7C14 7.55228 14.4477 8 15 8ZM26 7C26 5.34315 24.6569 4 23 4H15C13.3431 4 12 5.34315 12 7C12 8.65685 13.3431 10 15 10H23C24.6569 10 26 8.65685 26 7Z" fill="#1C1C1F"/>
<path d="M16 24C17.1046 24 18 24.8954 18 26V29.2251C18 30.5903 16.6626 31.5542 15.3675 31.1225L12.6325 30.2108C12.2219 30.074 11.7781 30.074 11.3675 30.2108L8.63246 31.1225C7.33739 31.5542 6 30.5903 6 29.2251V26C6 24.8954 6.89543 24 8 24H16Z" fill="#FFBC01"/>
<path fill-rule="evenodd" clip-rule="evenodd" d="M16 29.2251V26H8V29.2251L10.7351 28.3135C11.5562 28.0398 12.4438 28.0398 13.2649 28.3135L16 29.2251ZM18 26C18 24.8954 17.1046 24 16 24H8C6.89543 24 6 24.8954 6 26V29.2251C6 30.5903 7.33739 31.5542 8.63246 31.1225L11.3675 30.2108C11.7781 30.074 12.2219 30.074 12.6325 30.2108L15.3675 31.1225C16.6626 31.5542 18 30.5903 18 29.2251V26Z" fill="#1C1C1F"/>
</svg>
