<svg width="32" height="32" viewBox="0 0 32 32" fill="none" xmlns="http://www.w3.org/2000/svg">
<path d="M27.8593 7C29.1967 7 30.4456 7.6684 31.1875 8.7812L31.6641 9.49615C31.8831 9.82469 32 10.2107 32 10.6056V28C32 30.2091 30.2091 32 28 32H4C1.79086 32 0 30.2091 0 28V10.6056C0 10.2107 0.116876 9.82469 0.335899 9.49615L0.812534 8.7812C1.5544 7.6684 2.80332 7 4.14074 7H27.8593Z" fill="#CC7E49"/>
<path fill-rule="evenodd" clip-rule="evenodd" d="M4 30H28C29.1046 30 30 29.1046 30 28V10.6056L29.5234 9.8906C29.1524 9.3342 28.528 9 27.8593 9H4.14074C3.47203 9 2.84757 9.3342 2.47663 9.8906L2 10.6056V28C2 29.1046 2.89543 30 4 30ZM31.1875 8.7812C30.4456 7.6684 29.1967 7 27.8593 7H4.14074C2.80332 7 1.5544 7.6684 0.812534 8.7812L0.335899 9.49615C0.116876 9.82469 0 10.2107 0 10.6056V28C0 30.2091 1.79086 32 4 32H28C30.2091 32 32 30.2091 32 28V10.6056C32 10.2107 31.8831 9.82469 31.6641 9.49615L31.1875 8.7812Z" fill="#1C1C1F"/>
<path d="M22.6029 0C24.7104 0 26.6635 1.10579 27.7478 2.91303L32 10H0L4.25218 2.91303C5.33652 1.10579 7.28957 0 9.39714 0H22.6029Z" fill="#7A4B2C"/>
<path fill-rule="evenodd" clip-rule="evenodd" d="M32 10L27.7478 2.91303C26.6635 1.10579 24.7104 0 22.6029 0H9.39714C7.28957 0 5.33652 1.10579 4.25218 2.91303L0 10H32ZM28.4676 8L26.0328 3.94202C25.3099 2.7372 24.0079 2 22.6029 2H9.39714C7.99209 2 6.69006 2.7372 5.96717 3.94202L3.53238 8H28.4676Z" fill="#1C1C1F"/>
<path d="M26 12C27.1046 12 28 12.8954 28 14V18C28 19.1046 27.1046 20 26 20H18C16.8954 20 16 19.1046 16 18V14C16 12.8954 16.8954 12 18 12H26Z" fill="#FFBC01"/>
<path fill-rule="evenodd" clip-rule="evenodd" d="M18 18H26V14H18L18 18ZM28 14C28 12.8954 27.1046 12 26 12H18C16.8954 12 16 12.8954 16 14V18C16 19.1046 16.8954 20 18 20H26C27.1046 20 28 19.1046 28 18V14Z" fill="#1C1C1F"/>
<path d="M27 21C27.5523 21 28 21.4477 28 22C28 22.5523 27.5523 23 27 23H17C16.4477 23 16 22.5523 16 22C16 21.4477 16.4477 21 17 21H27Z" fill="#84848A"/>
<path fill-rule="evenodd" clip-rule="evenodd" d="M27 23H17C16.4477 23 16 22.5523 16 22C16 21.4477 16.4477 21 17 21H27C27.5523 21 28 21.4477 28 22C28 22.5523 27.5523 23 27 23Z" fill="#1C1C1F"/>
<path d="M17 0V10H15V0H17Z" fill="#CC7E49"/>
<path fill-rule="evenodd" clip-rule="evenodd" d="M17 0H15V10H17V0Z" fill="#1C1C1F"/>
</svg>
