<svg width="32" height="32" viewBox="0 0 32 32" fill="none" xmlns="http://www.w3.org/2000/svg">
<g clip-path="url(#clip0_4899_6620)">
<path d="M0 17H32V28C32 30.2091 30.2091 32 28 32H4C1.79086 32 0 30.2091 0 28V17Z" fill="#31B67A"/>
<path fill-rule="evenodd" clip-rule="evenodd" d="M30 19H2V28C2 29.1046 2.89543 30 4 30H28C29.1046 30 30 29.1046 30 28V19ZM0 17V28C0 30.2091 1.79086 32 4 32H28C30.2091 32 32 30.2091 32 28V17H0Z" fill="#1C1C1F"/>
<path d="M0 13H32V24C32 26.2091 30.2091 28 28 28H4C1.79086 28 0 26.2091 0 24V13Z" fill="#31B67A"/>
<path fill-rule="evenodd" clip-rule="evenodd" d="M30 15H2V24C2 25.1046 2.89543 26 4 26H28C29.1046 26 30 25.1046 30 24V15ZM0 13V24C0 26.2091 1.79086 28 4 28H28C30.2091 28 32 26.2091 32 24V13H0Z" fill="#1C1C1F"/>
<path d="M0 4C0 1.79086 1.79086 0 4 0H28C30.2091 0 32 1.79086 32 4V20C32 22.2091 30.2091 24 28 24H4C1.79086 24 0 22.2091 0 20V4Z" fill="#31B67A"/>
<path fill-rule="evenodd" clip-rule="evenodd" d="M28 2H4C2.89543 2 2 2.89543 2 4V20C2 21.1046 2.89543 22 4 22H28C29.1046 22 30 21.1046 30 20V4C30 2.89543 29.1046 2 28 2ZM4 0C1.79086 0 0 1.79086 0 4V20C0 22.2091 1.79086 24 4 24H28C30.2091 24 32 22.2091 32 20V4C32 1.79086 30.2091 0 28 0H4Z" fill="#1C1C1F"/>
<path d="M28 14.1329V9.86707C28 8.75207 27.2865 7.76217 26.2287 7.40958C25.4552 7.15174 24.8483 6.54477 24.5904 5.77126C24.2378 4.71348 23.2479 4 22.1329 4H9.86707C8.75207 4 7.76217 4.71348 7.40958 5.77126C7.15174 6.54477 6.54477 7.15174 5.77126 7.40958C4.71348 7.76217 4 8.75207 4 9.86707V14.1329C4 15.2479 4.71348 16.2378 5.77126 16.5904C6.54477 16.8483 7.15174 17.4552 7.40958 18.2287C7.76217 19.2865 8.75207 20 9.86707 20H22.1329C23.2479 20 24.2378 19.2865 24.5904 18.2287C24.8483 17.4552 25.4552 16.8483 26.2287 16.5904C27.2865 16.2378 28 15.2479 28 14.1329Z" fill="#DEF7EC"/>
<path d="M20 12C20 14.2091 18.2091 16 16 16C13.7909 16 12 14.2091 12 12C12 9.79086 13.7909 8 16 8C18.2091 8 20 9.79086 20 12Z" fill="#31B67A"/>
<path fill-rule="evenodd" clip-rule="evenodd" d="M16 14C17.1046 14 18 13.1046 18 12C18 10.8954 17.1046 10 16 10C14.8954 10 14 10.8954 14 12C14 13.1046 14.8954 14 16 14ZM16 16C18.2091 16 20 14.2091 20 12C20 9.79086 18.2091 8 16 8C13.7909 8 12 9.79086 12 12C12 14.2091 13.7909 16 16 16Z" fill="#1C1C1F"/>
<path fill-rule="evenodd" clip-rule="evenodd" d="M26 14.1329V9.86707C26 9.61293 25.8374 9.38731 25.5963 9.30695C24.2256 8.85004 23.15 7.77443 22.6931 6.40371C22.6127 6.16262 22.3871 6 22.1329 6H9.86707C9.61293 6 9.38731 6.16262 9.30695 6.40371C8.85004 7.77443 7.77443 8.85004 6.40371 9.30695C6.16262 9.38731 6 9.61293 6 9.86707V14.1329C6 14.3871 6.16262 14.6127 6.40371 14.6931C7.77443 15.15 8.85004 16.2256 9.30695 17.5963C9.38731 17.8374 9.61293 18 9.86707 18H22.1329C22.3871 18 22.6127 17.8374 22.6931 17.5963C23.15 16.2256 24.2256 15.15 25.5963 14.6931C25.8374 14.6127 26 14.3871 26 14.1329ZM28 9.86707V14.1329C28 15.2479 27.2865 16.2378 26.2287 16.5904C25.4552 16.8483 24.8483 17.4552 24.5904 18.2287C24.2378 19.2865 23.2479 20 22.1329 20H9.86707C8.75207 20 7.76217 19.2865 7.40958 18.2287C7.15174 17.4552 6.54477 16.8483 5.77126 16.5904C4.71348 16.2378 4 15.2479 4 14.1329V9.86707C4 8.75207 4.71348 7.76217 5.77126 7.40958C6.54477 7.15174 7.15174 6.54477 7.40958 5.77126C7.76217 4.71348 8.75207 4 9.86707 4H22.1329C23.2479 4 24.2378 4.71348 24.5904 5.77126C24.8483 6.54477 25.4552 7.15174 26.2287 7.40958C27.2865 7.76217 28 8.75207 28 9.86707Z" fill="#1C1C1F"/>
</g>
<defs>
<clipPath id="clip0_4899_6620">
<rect width="32" height="32" fill="white"/>
</clipPath>
</defs>
</svg>
