<svg width="32" height="32" viewBox="0 0 32 32" fill="none" xmlns="http://www.w3.org/2000/svg">
<path d="M5 10C5 8.89543 5.89543 8 7 8H25C26.1046 8 27 8.89543 27 10V17C27 18.1046 26.1046 19 25 19H7C5.89543 19 5 18.1046 5 17V10Z" fill="#C2EDEA"/>
<path fill-rule="evenodd" clip-rule="evenodd" d="M25 10H7L7 17H25V10ZM7 8C5.89543 8 5 8.89543 5 10V17C5 18.1046 5.89543 19 7 19H25C26.1046 19 27 18.1046 27 17V10C27 8.89543 26.1046 8 25 8H7Z" fill="black"/>
<path d="M5 10C5 8.89543 5.89543 8 7 8H10C11.1046 8 12 8.89543 12 10V17C12 18.1046 11.1046 19 10 19H7C5.89543 19 5 18.1046 5 17V10Z" fill="#C2EDEA"/>
<path fill-rule="evenodd" clip-rule="evenodd" d="M10 10H7L7 17H10V10ZM7 8C5.89543 8 5 8.89543 5 10V17C5 18.1046 5.89543 19 7 19H10C11.1046 19 12 18.1046 12 17V10C12 8.89543 11.1046 8 10 8H7Z" fill="black"/>
<path d="M3 29C3 27.8954 3.89543 27 5 27C6.10457 27 7 27.8954 7 29V30C7 31.1046 6.10457 32 5 32C3.89543 32 3 31.1046 3 30V29Z" fill="#C4C4C4"/>
<path fill-rule="evenodd" clip-rule="evenodd" d="M5 27C3.89543 27 3 27.8954 3 29V30C3 31.1046 3.89543 32 5 32C6.10457 32 7 31.1046 7 30V29C7 27.8954 6.10457 27 5 27Z" fill="black"/>
<path d="M12 29C12 27.8954 12.8954 27 14 27C15.1046 27 16 27.8954 16 29V30C16 31.1046 15.1046 32 14 32C12.8954 32 12 31.1046 12 30V29Z" fill="#C4C4C4"/>
<path fill-rule="evenodd" clip-rule="evenodd" d="M14 27C12.8954 27 12 27.8954 12 29V30C12 31.1046 12.8954 32 14 32C15.1046 32 16 31.1046 16 30V29C16 27.8954 15.1046 27 14 27Z" fill="black"/>
<path d="M25 29C25 27.8954 25.8954 27 27 27C28.1046 27 29 27.8954 29 29V30C29 31.1046 28.1046 32 27 32C25.8954 32 25 31.1046 25 30V29Z" fill="#C4C4C4"/>
<path fill-rule="evenodd" clip-rule="evenodd" d="M27 27C25.8954 27 25 27.8954 25 29V30C25 31.1046 25.8954 32 27 32C28.1046 32 29 31.1046 29 30V29C29 27.8954 28.1046 27 27 27Z" fill="black"/>
<path d="M0 19C0 17.8954 0.895431 17 2 17H30C31.1046 17 32 17.8954 32 19V27C32 28.1046 31.1046 29 30 29H2C0.895431 29 0 28.1046 0 27V19Z" fill="#A33333"/>
<path fill-rule="evenodd" clip-rule="evenodd" d="M30 19H2V27H30V19ZM2 17C0.895431 17 0 17.8954 0 19V27C0 28.1046 0.895431 29 2 29H30C31.1046 29 32 28.1046 32 27V19C32 17.8954 31.1046 17 30 17H2Z" fill="black"/>
<path d="M10 19C10 17.8954 10.8954 17 12 17H30C31.1046 17 32 17.8954 32 19V27C32 28.1046 31.1046 29 30 29H12C10.8954 29 10 28.1046 10 27V19Z" fill="#F54D4D"/>
<path fill-rule="evenodd" clip-rule="evenodd" d="M30 19H12L12 27H30V19ZM12 17C10.8954 17 10 17.8954 10 19V27C10 28.1046 10.8954 29 12 29H30C31.1046 29 32 28.1046 32 27V19C32 17.8954 31.1046 17 30 17H12Z" fill="black"/>
<path fill-rule="evenodd" clip-rule="evenodd" d="M19.8676 2H12.1324L8.53238 8H23.4676L19.8676 2ZM21.5826 0.971008C21.2212 0.368598 20.5701 0 19.8676 0H12.1324C11.4299 0 10.7788 0.368598 10.4174 0.971009L5 10H27L21.5826 0.971008Z" fill="black"/>
<path d="M11 2C11 0.89543 11.8954 0 13 0H19C20.1046 0 21 0.895431 21 2V8C21 9.10457 20.1046 10 19 10H13C11.8954 10 11 9.10457 11 8V2Z" fill="#7AACDB"/>
<path fill-rule="evenodd" clip-rule="evenodd" d="M19 2H13L13 8H19V2ZM13 0C11.8954 0 11 0.89543 11 2V8C11 9.10457 11.8954 10 13 10H19C20.1046 10 21 9.10457 21 8V2C21 0.895431 20.1046 0 19 0H13Z" fill="black"/>
<path d="M20 23C20 24.6569 18.6569 26 17 26C15.3431 26 14 24.6569 14 23C14 21.3431 15.3431 20 17 20C18.6569 20 20 21.3431 20 23Z" fill="#FBE886"/>
<path fill-rule="evenodd" clip-rule="evenodd" d="M17 24C17.5523 24 18 23.5523 18 23C18 22.4477 17.5523 22 17 22C16.4477 22 16 22.4477 16 23C16 23.5523 16.4477 24 17 24ZM17 26C18.6569 26 20 24.6569 20 23C20 21.3431 18.6569 20 17 20C15.3431 20 14 21.3431 14 23C14 24.6569 15.3431 26 17 26Z" fill="black"/>
<path d="M29 23C29 24.6569 27.6569 26 26 26C24.3431 26 23 24.6569 23 23C23 21.3431 24.3431 20 26 20C27.6569 20 29 21.3431 29 23Z" fill="#FBE886"/>
<path fill-rule="evenodd" clip-rule="evenodd" d="M26 24C26.5523 24 27 23.5523 27 23C27 22.4477 26.5523 22 26 22C25.4477 22 25 22.4477 25 23C25 23.5523 25.4477 24 26 24ZM26 26C27.6569 26 29 24.6569 29 23C29 21.3431 27.6569 20 26 20C24.3431 20 23 21.3431 23 23C23 24.6569 24.3431 26 26 26Z" fill="black"/>
</svg>
