<svg width="185" height="185" viewBox="0 0 185 185" fill="none" xmlns="http://www.w3.org/2000/svg">
<path d="M52.1712 59.9401C58.8312 53.2801 80.6612 64.0101 100.641 84.3601C120.621 104.71 131.721 126.17 125.061 132.83C118.401 139.49 31.0812 172.79 21.8312 163.17C12.5812 154.29 45.5112 66.6001 52.1712 59.9401Z" fill="#FFB94A"/>
<path opacity="0.2" d="M125.06 132.83C118.4 139.49 31.0805 172.79 21.8305 163.17C21.4605 162.8 21.0905 162.06 20.7205 160.95C20.7205 160.95 102.49 127.65 116.18 113.96C125.06 132.83 125.06 132.83 125.06 132.83Z" fill="black"/>
<path opacity="0.2" d="M52.1684 59.9395C45.5084 66.5995 12.2084 153.919 21.8284 163.169C22.1984 163.539 22.9384 163.909 24.0484 164.279C24.0484 164.279 57.3484 82.5095 71.0384 68.8195C52.1684 59.9395 52.1684 59.9395 52.1684 59.9395Z" fill="white"/>
<path d="M125.061 132.829C118.771 139.119 98.7907 129.869 79.5507 111.369C78.4407 110.259 77.7007 109.519 76.5907 108.409C75.8507 107.669 75.4807 107.299 74.7407 106.559C74.3707 106.189 74.0007 105.819 73.6307 105.449C72.5207 104.339 71.4107 103.229 70.6707 102.119C70.3007 101.749 69.9307 101.379 69.9307 101.379C68.4507 99.5294 66.9707 98.0494 65.8607 96.1994C52.9107 80.2894 47.3607 65.4894 52.5407 59.9394C56.6107 55.8694 66.6007 58.4594 78.4407 65.8594C80.6607 67.3394 82.8807 68.8194 85.1007 70.2994C87.3207 71.7794 89.5407 73.6294 91.7607 75.8494C93.6107 77.3294 95.4607 79.1794 97.3107 81.0294C98.4207 82.1394 99.5307 83.2494 100.641 84.3594C104.711 88.4294 108.411 92.4994 111.741 96.5694C113.591 98.7894 115.071 101.009 116.921 103.229C125.801 116.549 129.501 128.389 125.061 132.829Z" fill="#F79911"/>
<path d="M122.101 81.4002C120.991 81.4002 119.511 80.6602 118.771 79.5502C115.071 73.6302 111.001 61.7902 119.881 55.8702C126.171 51.8002 132.091 56.9802 136.161 60.3102C137.641 61.4202 140.231 64.0102 141.341 64.0102C141.341 64.0102 141.711 64.0102 141.711 63.6402C143.191 62.1602 142.821 61.0502 140.971 56.6102C139.121 52.5402 136.531 46.6202 141.711 41.4402C146.891 36.2602 152.441 39.2202 156.511 40.7002C160.951 42.9202 162.061 42.9202 163.911 41.4402C164.651 40.7002 164.651 40.3302 164.651 39.9602C164.281 36.6302 157.991 31.4502 153.551 28.8602C151.701 28.1202 151.331 25.9002 152.071 24.0502C153.181 22.2002 155.401 21.8302 157.251 22.5702C159.471 24.0502 170.941 31.0802 171.681 39.2202C172.051 42.1802 170.941 44.7702 169.091 46.9902C163.541 52.5402 157.251 49.5802 153.181 47.7302C149.111 45.8802 148.001 45.5102 146.891 46.9902C145.411 48.4702 145.781 49.5802 147.631 54.0202C149.481 58.0902 152.071 64.0102 146.891 69.1902C140.971 75.1102 135.051 69.5602 131.351 66.2302C127.651 62.9002 125.801 61.4202 124.321 62.5302C119.511 65.8602 125.431 75.8502 125.431 75.8502C126.541 77.7002 125.801 79.9202 124.321 81.0302C123.581 81.4002 122.841 81.4002 122.101 81.4002Z" fill="#F45145"/>
<path d="M36.2604 68.4497C35.1504 68.4497 33.6704 67.7097 33.3004 66.5997C32.1904 64.7497 32.5604 62.5297 34.4104 61.4197C35.8904 60.6797 38.4804 58.0897 38.8504 56.2397C38.8504 55.8697 38.8504 55.4997 38.4804 54.7597C38.1104 54.0197 35.5204 54.7597 33.6704 55.4997C30.3404 56.6097 23.6804 58.4597 21.0904 52.1697C18.8704 46.6197 22.9404 42.9197 25.1604 41.0697C27.7504 38.8497 27.3804 38.8497 27.3804 38.1097C27.0104 37.3697 26.6404 37.3697 23.6804 37.3697C20.3504 37.3697 14.8004 37.3697 12.5804 31.4497C12.2104 29.2297 12.2104 26.6397 13.3204 24.7897C16.6504 19.6097 25.9004 18.4997 28.8604 18.1297C31.0804 17.7597 32.5604 19.6097 32.9304 21.4597C32.9304 23.3097 31.4504 25.1597 29.6004 25.5297C24.7904 25.8997 20.3504 27.3797 19.6104 28.4897C20.3504 29.5997 20.7204 29.9697 24.0504 29.9697C27.0104 29.9697 32.1904 29.9697 34.4104 35.5197C36.6304 41.0697 32.5604 44.7697 30.3404 46.6197C28.1204 48.4697 28.1204 48.8397 28.1204 49.2097C28.8604 49.2097 30.7104 48.8397 31.8204 48.4697C35.5204 47.3597 41.4404 45.8797 44.7704 51.0597C46.2504 53.2797 46.6204 55.4997 46.2504 58.0897C45.1404 63.6397 39.2204 67.3397 38.4804 68.0797C37.7404 68.0797 37.0004 68.4497 36.2604 68.4497ZM131.72 166.5C125.8 166.5 120.99 162.06 120.25 161.69C118.77 160.21 118.77 158.36 120.25 156.88C121.73 155.4 123.95 155.77 125.43 157.25C126.54 158.36 129.5 160.95 131.35 160.95C131.72 160.95 132.09 160.95 132.46 160.58C132.83 160.21 131.72 157.62 130.98 156.14C129.5 152.81 126.54 146.89 132.09 143.19C137.27 139.86 141.34 143.56 143.93 145.41C146.52 147.26 146.52 147.26 147.26 146.89C147.63 146.52 148 146.15 147.26 143.19C146.89 139.86 145.78 134.68 150.96 131.35C153.18 129.87 155.4 129.87 157.62 130.61C163.17 132.83 166.13 141.71 166.87 144.67C167.24 146.52 166.13 148.74 164.28 149.11C162.43 149.48 160.21 148.37 159.84 146.52C158.73 142.08 156.14 138.01 155.03 137.64C153.92 138.38 153.92 138.75 154.29 142.08C154.66 145.04 155.77 150.22 150.96 153.18C145.78 156.51 141.71 152.81 139.12 150.96C136.9 149.11 136.53 149.11 136.16 149.11C136.16 149.85 137.27 151.33 137.64 152.44C139.49 155.77 142.08 160.58 137.64 164.65C136.53 166.5 134.31 166.5 131.72 166.5Z" fill="#5FA3E0"/>
<path d="M158.361 96.5703C158.361 98.7903 156.881 100.27 154.661 100.27C141.341 100.27 128.391 101.75 116.551 103.6C99.9009 106.19 86.2109 109.89 79.1809 111.74C78.0709 110.63 77.3309 109.89 76.2209 108.78C75.1109 107.67 74.3709 106.93 73.2609 105.82C77.3309 104.71 91.7609 100.27 111.371 96.9403C124.321 94.7203 139.121 93.2403 154.291 93.2403C156.511 92.8703 158.361 94.3503 158.361 96.5703Z" fill="#F45145"/>
<path d="M114.701 30.3408C115.071 49.9508 106.561 67.3408 97.3107 81.0308C88.8007 93.2408 79.5507 102.491 74.7407 106.561C74.3707 106.191 74.0007 105.821 73.6307 105.451C72.5207 104.341 71.4107 103.231 70.6707 102.121C70.3007 101.751 69.9307 101.381 69.9307 101.381C74.3707 97.3108 83.9907 88.4308 92.1307 76.2208C100.641 63.6408 108.041 47.7308 107.671 30.7108C107.671 28.8608 109.151 27.0108 111.371 27.0108C112.851 26.6408 114.701 28.1208 114.701 30.3408Z" fill="#5FA3E0"/>
<path opacity="0.2" d="M113.59 133.94C103.599 131.35 89.5395 122.1 76.2195 108.41C56.2395 88.4297 45.1395 66.5997 51.7995 59.9397C56.2395 55.4997 67.3395 58.8297 80.2895 67.3397C75.1095 65.8597 71.4095 66.2297 69.1895 68.4497C62.5295 75.1097 73.2595 96.9397 93.6095 116.92C100.269 123.95 107.299 129.5 113.59 133.94Z" fill="black"/>
<path d="M84.7317 70.67C81.7717 85.1 72.1517 99.16 70.3017 102.12C68.4517 100.27 66.9717 98.05 65.4917 96.2C68.8217 91.02 76.9617 77.7 78.4417 65.86C78.8117 62.53 78.4417 59.57 77.7017 56.61C76.2217 51.43 72.1517 48.1 65.8617 45.88C64.0117 45.14 62.9017 42.92 63.6417 41.07C64.3817 39.22 66.2317 38.11 68.4517 38.85C76.9617 41.81 82.5117 46.99 84.7317 54.39C86.2117 59.57 85.8417 65.12 84.7317 70.67Z" fill="#F45145"/>
<path d="M55.4989 33.3C59.5858 33.3 62.8989 29.9869 62.8989 25.9C62.8989 21.8131 59.5858 18.5 55.4989 18.5C51.412 18.5 48.0989 21.8131 48.0989 25.9C48.0989 29.9869 51.412 33.3 55.4989 33.3Z" fill="#FDC457"/>
<path d="M92.498 44.3996C96.5849 44.3996 99.898 41.0865 99.898 36.9996C99.898 32.9127 96.5849 29.5996 92.498 29.5996C88.4111 29.5996 85.098 32.9127 85.098 36.9996C85.098 41.0865 88.4111 44.3996 92.498 44.3996Z" fill="#5FA3E0"/>
<path d="M136.899 37.0002C140.986 37.0002 144.299 33.6871 144.299 29.6002C144.299 25.5133 140.986 22.2002 136.899 22.2002C132.812 22.2002 129.499 25.5133 129.499 29.6002C129.499 33.6871 132.812 37.0002 136.899 37.0002Z" fill="#FDC457"/>
<path d="M162.801 85.0998C166.888 85.0998 170.201 81.7867 170.201 77.6998C170.201 73.6129 166.888 70.2998 162.801 70.2998C158.714 70.2998 155.401 73.6129 155.401 77.6998C155.401 81.7867 158.714 85.0998 162.801 85.0998Z" fill="#FDC457"/>
<path d="M144.301 125.8C148.388 125.8 151.701 122.487 151.701 118.4C151.701 114.313 148.388 111 144.301 111C140.214 111 136.901 114.313 136.901 118.4C136.901 122.487 140.214 125.8 144.301 125.8Z" fill="#5FA3E0"/>
</svg>
