<svg width="32" height="32" viewBox="0 0 32 32" fill="none" xmlns="http://www.w3.org/2000/svg">
<g clip-path="url(#clip0_1181_2448)">
<path d="M0 10.019C0 6.707 2.68362 4.02141 5.99562 4.01899L25.9836 4.0044C29.2977 4.00198 31.9862 6.68698 31.988 10.0011L31.9978 27.9978C31.999 30.2078 30.2078 32 27.9978 32H4C1.79086 32 0 30.2092 0 28L0 10.019Z" fill="#31B67A"/>
<path fill-rule="evenodd" clip-rule="evenodd" d="M25.9851 6.0044L5.99708 6.01899C3.78908 6.0206 2 7.811 2 10.019L2 28C2 29.1046 2.89543 30 4 30H27.9978C29.1028 30 29.9984 29.1039 29.9978 27.9989L29.988 10.0022C29.9868 7.79279 28.1945 6.00278 25.9851 6.0044ZM5.99562 4.01899C2.68362 4.02141 0 6.707 0 10.019L0 28C0 30.2092 1.79086 32 4 32H27.9978C30.2078 32 31.999 30.2078 31.9978 27.9978L31.988 10.0011C31.9862 6.68698 29.2977 4.00198 25.9836 4.0044L5.99562 4.01899Z" fill="#1C1C1F"/>
<rect y="12" width="32" height="2" fill="#1C1C1F"/>
<path d="M2 14H10V20H2V14Z" fill="#EBFAF3"/>
<path d="M2 24H10V30H4C2.89543 30 2 29.1046 2 28V24Z" fill="#EBFAF3"/>
<path d="M12 16H30V26H12V16Z" fill="#EBFAF3"/>
<rect x="11" y="16" width="8" height="2" fill="#1C1C1F"/>
<rect x="23" y="16" width="7" height="2" fill="#1C1C1F"/>
<path d="M15 10C15 8.89543 15.8954 8 17 8H25C26.1046 8 27 8.89543 27 10V16C27 18.2091 25.2091 20 23 20H19C16.7909 20 15 18.2091 15 16V10Z" fill="#FFEEBF"/>
<path fill-rule="evenodd" clip-rule="evenodd" d="M11.9955 10.0082C11.9948 6.69169 9.30261 4.00527 5.98607 4.01173C2.67817 4.01817 0 6.70157 0 10.0095V28C0 30.2092 1.79086 32 4 32H12L11.9988 26.0001H30V24.0001H11.9984L11.9955 10.0082ZM9.99959 30L9.99836 24.0001H2V28C2 29.1046 2.89543 30 4 30H9.99959ZM9.99754 20.0001L9.99795 22.0001H2V20.0001H9.99754ZM9.99549 10.0086L9.99713 18.0001H2V10.0095C2 7.80461 3.78511 6.01602 5.98996 6.01173C8.20057 6.00742 9.99504 7.79803 9.99549 10.0086Z" fill="#1C1C1F"/>
<path fill-rule="evenodd" clip-rule="evenodd" d="M15 10.0001C15 8.89549 15.8954 8.00006 17 8.00006H25C26.1046 8.00006 27 8.89549 27 10.0001V16.0001C27 18.2092 25.2091 20.0001 23 20.0001H19C16.7909 20.0001 15 18.2092 15 16.0001V10.0001ZM17 10.0001H25V16.0001C25 17.1046 24.1046 18.0001 23 18.0001H19C17.8954 18.0001 17 17.1046 17 16.0001V10.0001Z" fill="#1C1C1F"/>
<rect x="19" y="12" width="4" height="4" rx="2" fill="#1D6645" stroke="#1C1C1F" stroke-width="2"/>
</g>
<defs>
<clipPath id="clip0_1181_2448">
<rect width="32" height="32" fill="white"/>
</clipPath>
</defs>
</svg>
