<svg width="32" height="32" viewBox="0 0 32 32" fill="none" xmlns="http://www.w3.org/2000/svg">
<path d="M24.0001 19.8698C25.2793 20.7836 25.0527 22.7481 23.5991 23.3466L4.74878 31.1085C3.6289 31.5696 2.34159 31.3122 1.48521 30.4558L-nan -nanL1.48521 30.4558C0.628834 29.5994 0.371371 28.3121 0.832498 27.1922L8.59439 8.34194C9.19295 6.88827 11.1575 6.66171 12.0712 7.94096L13.1666 9.47457C15.7322 13.0664 18.8746 16.2088 22.4665 18.7744L24.0001 19.8698Z" fill="#FFBC01"/>
<path d="M22.6985 23.3848L16.3346 25.5061L15.9648 25.3007C12.0471 23.1242 8.81702 19.8941 6.64049 15.9764L6.43508 15.6066L8.5564 9.24268L11.5507 13.7341C13.3083 16.3706 15.5706 18.6329 18.2071 20.3905L22.6985 23.3848Z" fill="#FD3C2D"/>
<path d="M14.9202 26.9204L8.55629 29.0417L-nan -nanL8.55629 29.0417C5.88548 28.1514 3.7897 26.0556 2.89943 23.3848L-nan -nanL2.89943 23.3848L5.02075 17.0209L5.22616 17.3906C7.4027 21.3084 10.6327 24.5384 14.5505 26.715L14.9202 26.9204Z" fill="#FD3C2D"/>
<path fill-rule="evenodd" clip-rule="evenodd" d="M23.5991 23.3466C25.0527 22.7481 25.2793 20.7836 24.0001 19.8698L22.4665 18.7744C18.8746 16.2088 15.7322 13.0664 13.1666 9.47457L12.0712 7.94096C11.1575 6.66171 9.19295 6.88827 8.59439 8.34194L0.832498 27.1922C0.371371 28.3121 0.628834 29.5994 1.48521 30.4558C2.34159 31.3122 3.6289 31.5696 4.74878 31.1085L23.5991 23.3466ZM12.7893 25.6348L14.9899 24.7287C11.8304 22.7733 9.16773 20.1106 7.21236 16.9511L6.30621 19.1517C6.33122 19.1888 6.35633 19.2258 6.38154 19.2628C8.06918 21.736 10.205 23.8718 12.6782 25.5595C12.7152 25.5847 12.7522 25.6098 12.7893 25.6348ZM6.6673 28.1556C5.49803 27.4297 4.51128 26.443 3.78539 25.2737L2.68186 27.9537C2.52815 28.327 2.61397 28.7561 2.89943 29.0416C3.18489 29.327 3.61399 29.4129 3.98728 29.2592L6.6673 28.1556ZM22.8376 21.4973L21.0013 22.2534L18.207 20.3905C15.5706 18.6328 13.3082 16.3705 11.5506 13.7341L9.68765 10.9397L10.4437 9.10344L11.5392 10.637C14.233 14.4085 17.5326 17.708 21.304 20.4018L22.8376 21.4973ZM16.5427 23.3285L18.1866 22.7806L17.0976 22.0546C14.2415 20.1505 11.7906 17.6996 9.88651 14.8435L9.16054 13.7545L8.61258 15.3984C10.5264 18.6824 13.2587 21.4147 16.5427 23.3285ZM8.60123 26.9185C7.00108 26.2186 5.72243 24.9399 5.02254 23.3398L5.60388 21.5958C6.97302 23.3742 8.56682 24.968 10.3452 26.3371L8.60123 26.9185Z" fill="#1C1C1F"/>
<path d="M16 0C18.2091 0 20 1.79086 20 4C20 6.20914 18.2091 8 16 8C13.7909 8 12 6.20914 12 4C12 1.79086 13.7909 0 16 0Z" fill="#FF90A5"/>
<path fill-rule="evenodd" clip-rule="evenodd" d="M16 2C14.8954 2 14 2.89543 14 4C14 5.10457 14.8954 6 16 6C17.1046 6 18 5.10457 18 4C18 2.89543 17.1046 2 16 2ZM20 4C20 1.79086 18.2091 0 16 0C13.7909 0 12 1.79086 12 4C12 6.20914 13.7909 8 16 8C18.2091 8 20 6.20914 20 4Z" fill="#1C1C1F"/>
<path d="M28 12C30.2091 12 32 13.7909 32 16C32 18.2091 30.2091 20 28 20C25.7909 20 24 18.2091 24 16C24 13.7909 25.7909 12 28 12Z" fill="#31B67A"/>
<path fill-rule="evenodd" clip-rule="evenodd" d="M28 14C26.8954 14 26 14.8954 26 16C26 17.1046 26.8954 18 28 18C29.1046 18 30 17.1046 30 16C30 14.8954 29.1046 14 28 14ZM32 16C32 13.7909 30.2091 12 28 12C25.7909 12 24 13.7909 24 16C24 18.2091 25.7909 20 28 20C30.2091 20 32 18.2091 32 16Z" fill="#1C1C1F"/>
<path d="M25.8546 4.67627C26.6406 4.59314 27.4018 4.98069 27.797 5.66518L28.6402 7.12565C29.3836 8.41323 28.5121 10.033 27.028 10.1221L26.7924 10.1362C26.164 10.1739 25.59 10.5053 25.2432 11.0306L23.7994 13.2173C23.4995 13.6715 23.0275 13.9838 22.4923 14.0823L19.4993 14.6331C18.667 14.7863 17.8284 14.399 17.4053 13.6661L16.4168 11.9541C15.7259 10.7573 16.4278 9.2372 17.7869 8.98711L19.4335 8.6841C19.9378 8.5913 20.3871 8.30838 20.6888 7.89376L22.2712 5.71875C22.6041 5.26114 23.1153 4.96599 23.6781 4.90647L25.8546 4.67627Z" fill="#0C29FF"/>
<path fill-rule="evenodd" clip-rule="evenodd" d="M26.9082 8.12565L26.065 6.66518L23.8885 6.89538L22.306 9.07039C21.7027 9.89963 20.804 10.4655 19.7954 10.6511L18.1489 10.9541L19.1373 12.6661L22.1304 12.1154L23.5741 9.92865C24.2678 8.87798 25.4158 8.21523 26.6725 8.1398L26.9082 8.12565ZM19.4335 8.6841L17.7869 8.98711C16.4278 9.2372 15.7259 10.7573 16.4168 11.9541L17.4053 13.6661C17.8284 14.399 18.667 14.7863 19.4993 14.6331L22.4923 14.0823C23.0275 13.9838 23.4995 13.6715 23.7994 13.2173L25.2432 11.0306C25.59 10.5053 26.164 10.1739 26.7924 10.1362L27.028 10.1221C28.5121 10.033 29.3836 8.41323 28.6402 7.12565L27.797 5.66518C27.4018 4.98069 26.6406 4.59314 25.8546 4.67627L23.6781 4.90647C23.1153 4.966 22.6041 5.26114 22.2712 5.71875L20.6888 7.89376C20.3871 8.30838 19.9378 8.5913 19.4335 8.6841Z" fill="#1C1C1F"/>
</svg>
