<svg width="32" height="32" viewBox="0 0 32 32" fill="none" xmlns="http://www.w3.org/2000/svg">
<path d="M2 12L8 4L16 10L24 4L30 12L20 20H12L2 12Z" fill="#FFEEBF"/>
<path fill-rule="evenodd" clip-rule="evenodd" d="M16 10L8 4L2 12L12 20H20L30 12L24 4L16 10ZM23.6 6.8L16 12.5L8.4 6.8L4.76309 11.6492L12.7016 18H19.2984L27.2369 11.6492L23.6 6.8Z" fill="#1C1C1F"/>
<path d="M5 18C4.46459 12.6459 8.66907 8 14.0499 8H17.9501C23.3309 8 27.5354 12.6459 27 18H5Z" fill="#0C29FF"/>
<path fill-rule="evenodd" clip-rule="evenodd" d="M17.9502 10H14.05C10.4711 10 7.55932 12.6346 7.03759 16H24.9627C24.4409 12.6346 21.5291 10 17.9502 10ZM26.9818 16C26.4472 11.5395 22.6468 8 17.9502 8H14.05C9.3534 8 5.553 11.5395 5.01847 16C5.01185 16.0552 5.00574 16.1106 5.00012 16.1661C4.9397 16.7637 4.93783 17.377 5.00012 18H27.0001C27.0624 17.377 27.0605 16.7637 27.0001 16.1661C26.9945 16.1106 26.9884 16.0552 26.9818 16Z" fill="#1C1C1F"/>
<path d="M2 10L10 14L16 4L22 14L30 10L26 26V28C26 29.1046 25.1046 30 24 30H8C6.89543 30 6 29.1046 6 28V26L2 10Z" fill="#FFBC01"/>
<path fill-rule="evenodd" clip-rule="evenodd" d="M22 14L16 4L10 14L2 10L6 26V28C6 29.1046 6.89543 30 8 30H24C25.1046 30 26 29.1046 26 28V26L30 10L22 14ZM27.0051 13.7335L21.2379 16.6171L16 7.8873L10.7621 16.6171L4.99494 13.7335L8 25.7538L8 28H24V25.7538L27.0051 13.7335Z" fill="#1C1C1F"/>
<path d="M16 0C17.6569 0 19 1.34315 19 3C19 4.65685 17.6569 6 16 6C14.3431 6 13 4.65685 13 3C13 1.34315 14.3431 0 16 0Z" fill="#FD3C2D"/>
<path fill-rule="evenodd" clip-rule="evenodd" d="M16 2C15.4477 2 15 2.44772 15 3C15 3.55228 15.4477 4 16 4C16.5523 4 17 3.55228 17 3C17 2.44772 16.5523 2 16 2ZM19 3C19 1.34315 17.6569 0 16 0C14.3431 0 13 1.34315 13 3C13 4.65685 14.3431 6 16 6C17.6569 6 19 4.65685 19 3Z" fill="#1C1C1F"/>
<path d="M24 2C25.6569 2 27 3.34315 27 5C27 6.65685 25.6569 8 24 8C22.3431 8 21 6.65685 21 5C21 3.34315 22.3431 2 24 2Z" fill="#FD3C2D"/>
<path fill-rule="evenodd" clip-rule="evenodd" d="M24 4C23.4477 4 23 4.44772 23 5C23 5.55228 23.4477 6 24 6C24.5523 6 25 5.55228 25 5C25 4.44772 24.5523 4 24 4ZM27 5C27 3.34315 25.6569 2 24 2C22.3431 2 21 3.34315 21 5C21 6.65685 22.3431 8 24 8C25.6569 8 27 6.65685 27 5Z" fill="#1C1C1F"/>
<path d="M8 2C9.65685 2 11 3.34315 11 5C11 6.65685 9.65685 8 8 8C6.34315 8 5 6.65685 5 5C5 3.34315 6.34315 2 8 2Z" fill="#FD3C2D"/>
<path fill-rule="evenodd" clip-rule="evenodd" d="M8 4C7.44772 4 7 4.44772 7 5C7 5.55228 7.44772 6 8 6C8.55228 6 9 5.55228 9 5C9 4.44772 8.55228 4 8 4ZM11 5C11 3.34315 9.65685 2 8 2C6.34315 2 5 3.34315 5 5C5 6.65685 6.34315 8 8 8C9.65685 8 11 6.65685 11 5Z" fill="#1C1C1F"/>
<path d="M3 8C4.65685 8 6 9.34315 6 11C6 12.6569 4.65685 14 3 14C1.34315 14 0 12.6569 0 11C0 9.34315 1.34315 8 3 8Z" fill="#FD3C2D"/>
<path fill-rule="evenodd" clip-rule="evenodd" d="M3 10C2.44772 10 2 10.4477 2 11C2 11.5523 2.44772 12 3 12C3.55228 12 4 11.5523 4 11C4 10.4477 3.55228 10 3 10ZM6 11C6 9.34315 4.65685 8 3 8C1.34315 8 0 9.34315 0 11C0 12.6569 1.34315 14 3 14C4.65685 14 6 12.6569 6 11Z" fill="#1C1C1F"/>
<path d="M29 7C30.6569 7 32 8.34315 32 10C32 11.6569 30.6569 13 29 13C27.3431 13 26 11.6569 26 10C26 8.34315 27.3431 7 29 7Z" fill="#FD3C2D"/>
<path fill-rule="evenodd" clip-rule="evenodd" d="M29 9C28.4477 9 28 9.44772 28 10C28 10.5523 28.4477 11 29 11C29.5523 11 30 10.5523 30 10C30 9.44772 29.5523 9 29 9ZM32 10C32 8.34315 30.6569 7 29 7C27.3431 7 26 8.34315 26 10C26 11.6569 27.3431 13 29 13C30.6569 13 32 11.6569 32 10Z" fill="#1C1C1F"/>
<path d="M4 26C4 24.8954 4.89543 24 6 24H26C27.1046 24 28 24.8954 28 26V30C28 31.1046 27.1046 32 26 32H6C4.89543 32 4 31.1046 4 30V26Z" fill="#2F2F33"/>
<path fill-rule="evenodd" clip-rule="evenodd" d="M26 26H6L6 30H26V26ZM6 24C4.89543 24 4 24.8954 4 26V30C4 31.1046 4.89543 32 6 32H26C27.1046 32 28 31.1046 28 30V26C28 24.8954 27.1046 24 26 24H6Z" fill="#1C1C1F"/>
</svg>
