<svg width="32" height="32" viewBox="0 0 32 32" fill="none" xmlns="http://www.w3.org/2000/svg">
<path d="M29 2C29 0.89543 28.1046 0 27 0H2C0.895432 0 0 0.895431 0 2V21C0 22.1046 0.895432 23 2 23H27C28.1046 23 29 22.1046 29 21V2Z" fill="#787676"/>
<path fill-rule="evenodd" clip-rule="evenodd" d="M2 2H27L27 21H2V2ZM27 0C28.1046 0 29 0.89543 29 2V21C29 22.1046 28.1046 23 27 23H2C0.89543 23 0 22.1046 0 21V2C0 0.895431 0.89543 0 2 0H27Z" fill="#1C1C1F"/>
<path d="M32 2C32 0.89543 31.1046 0 30 0H6C4.89543 0 4 0.895431 4 2V21C4 22.1046 4.89543 23 6 23H30C31.1046 23 32 22.1046 32 21V2Z" fill="#CADEE1"/>
<path d="M32 15H4V21C4 22.1046 4.89543 23 6 23H30C31.1046 23 32 22.1046 32 21V15Z" fill="#A4A2A2"/>
<path fill-rule="evenodd" clip-rule="evenodd" d="M32 2C32 0.89543 31.1046 0 30 0H6C4.89543 0 4 0.895431 4 2V21C4 22.1046 4.89543 23 6 23H30C31.1046 23 32 22.1046 32 21V2ZM30 2H6V15H30V2ZM30 17H6V21H30V17Z" fill="#1C1C1F"/>
<path d="M17 21H11L9 32H19L17 21Z" fill="#787676"/>
<path fill-rule="evenodd" clip-rule="evenodd" d="M15.3308 23L16.6036 30H11.3964L12.6692 23H15.3308ZM11 21H17L19 32H9L11 21Z" fill="#1C1C1F"/>
<path d="M21 21H15L13 32H23L21 21Z" fill="#787676"/>
<path fill-rule="evenodd" clip-rule="evenodd" d="M22.6364 30L21 21H15L13.3636 30H7C5.89543 30 5 30.8954 5 32H27C27 30.8954 26.1046 30 25 30H22.6364ZM20.6036 30L19.3308 23H16.6692L15.3964 30H20.6036Z" fill="#1C1C1F"/>
<path fill-rule="evenodd" clip-rule="evenodd" d="M18 20C17.4477 20 17 19.5523 17 19C17 18.4477 17.4477 18 18 18C18.5523 18 19 18.4477 19 19C19 19.5523 18.5523 20 18 20Z" fill="black"/>
</svg>
