<svg width="32" height="32" viewBox="0 0 32 32" fill="none" xmlns="http://www.w3.org/2000/svg">
<defs>
<clipPath id="clip0_2310_3089">
<rect width="32" height="32" fill="white"/>
</clipPath>
</defs>
<g clip-path="url(#clip0_2310_3089)">
<path d="M7 5.00001L13.1793 1.13792C14.3164 0.427267 15.7339 0.333597 16.9546 0.888449L26 5.00001V11H7V5.00001Z" fill="#7A4B2C"/>
<path fill-rule="evenodd" clip-rule="evenodd" d="M24 6.28784L16.127 2.70918C15.5166 2.43176 14.8079 2.47859 14.2393 2.83392L9 6.10851V9.00001H24V6.28784ZM13.1793 1.13792L7 5.00001V11H26V5.00001L16.9546 0.888449C15.7339 0.333597 14.3164 0.427267 13.1793 1.13792Z" fill="#1C1C1F"/>
<path d="M1.47904 6.67217C2.94246 3.37948 7.19331 2.47398 9.87159 4.88443L10 5L10.1284 4.88443C12.8067 2.47398 17.0575 3.37948 18.521 6.67217C19.412 8.67707 18.9763 11.0237 17.4249 12.5751L12.6687 17.3313C11.1948 18.8052 8.8052 18.8052 7.33134 17.3313L2.57507 12.5751C1.02368 11.0237 0.58797 8.67707 1.47904 6.67217Z" fill="#FD3C2D"/>
<path fill-rule="evenodd" clip-rule="evenodd" d="M10.0001 7.69071L8.53376 6.371C6.86569 4.86974 4.2182 5.43369 3.30676 7.48443C2.75179 8.73311 3.02316 10.1946 3.98938 11.1608L8.74565 15.9171C9.43847 16.6099 10.5617 16.6099 11.2545 15.9171L16.0108 11.1608C16.977 10.1946 17.2484 8.73311 16.6934 7.48443C15.782 5.43369 13.1345 4.86974 11.4664 6.371L10.0001 7.69071ZM9.87169 4.88441C7.19341 2.47396 2.94256 3.37946 1.47914 6.67215C0.58807 8.67705 1.02378 11.0237 2.57517 12.5751L7.33144 17.3313C8.8053 18.8052 11.1949 18.8052 12.6688 17.3313L17.425 12.5751C18.9764 11.0237 19.4121 8.67705 18.5211 6.67215C17.0576 3.37946 12.8068 2.47396 10.1285 4.88441L10.0001 4.99998L9.87169 4.88441Z" fill="#1C1C1F"/>
<path d="M10 12.0287C10 9.55476 12.4237 7.80789 14.7706 8.5902L14.8625 8.62084C15.6159 8.87197 16.4049 9 17.199 9H26V15L22.0155 16.3282C20.6947 16.7684 19.2819 16.8564 17.9167 16.5833L12.9136 15.5827C11.2195 15.2439 10 13.7564 10 12.0287Z" fill="#7A4B2C"/>
<path fill-rule="evenodd" clip-rule="evenodd" d="M24 13.5584V10.9999H17.199C16.1899 10.9999 15.1874 10.8373 14.2301 10.5181L14.1381 10.4875C13.0863 10.1369 12 10.9198 12 12.0286C12 12.8029 12.5466 13.4696 13.3059 13.6215L18.309 14.6221C19.3329 14.8269 20.3925 14.7609 21.383 14.4307L24 13.5584ZM26 14.9999L22.0155 16.3281C20.6947 16.7684 19.2819 16.8563 17.9167 16.5833L12.9136 15.5827C11.2195 15.2438 10 13.7563 10 12.0286C10 9.5547 12.4237 7.80783 14.7706 8.59014L14.8625 8.62078C15.6159 8.87191 16.4049 8.99994 17.199 8.99994H26V14.9999Z" fill="#1C1C1F"/>
<path d="M24 4C24 2.89543 24.8954 2 26 2H30C31.1046 2 32 2.89543 32 4V16C32 17.1046 31.1046 18 30 18H26C24.8954 18 24 17.1046 24 16V4Z" fill="#FFEBEE"/>
<path fill-rule="evenodd" clip-rule="evenodd" d="M30 4H26V16H30V4ZM26 2C24.8954 2 24 2.89543 24 4V16C24 17.1046 24.8954 18 26 18H30C31.1046 18 32 17.1046 32 16V4C32 2.89543 31.1046 2 30 2H26Z" fill="#1C1C1F"/>
<path d="M27 12C27 12.5523 27.4477 13 28 13C28.5523 13 29 12.5523 29 12C29 11.4477 28.5523 11 28 11C27.4477 11 27 11.4477 27 12Z" fill="#1C1C1F"/>
<rect x="19" y="9" width="5" height="2" fill="#7A4B2C"/>
<path d="M0 26C0 24.8954 0.895431 24 2 24H20C21.1046 24 22 24.8954 22 26V34H0V26Z" fill="#FFEBEE"/>
<path fill-rule="evenodd" clip-rule="evenodd" d="M20 26H2V32H20V26ZM2 24C0.895431 24 0 24.8954 0 26V34H22V26C22 24.8954 21.1046 24 20 24H2Z" fill="#1C1C1F"/>
<path d="M22 25C22 27.7614 17.0751 30 11 30C4.92487 30 0 27.7614 0 25C0 22.2386 4.92487 20 11 20C17.0751 20 22 22.2386 22 25Z" fill="#D9D9D9"/>
<path d="M5 25C5 24.4477 5.44772 24 6 24H16C16.5523 24 17 24.4477 17 25C17 25.5523 16.5523 26 16 26H6C5.44771 26 5 25.5523 5 25Z" fill="#1C1C1F"/>
<path fill-rule="evenodd" clip-rule="evenodd" d="M22 25C22 27.7614 17.0751 30 11 30C4.92487 30 0 27.7614 0 25C0 22.2386 4.92487 20 11 20C17.0751 20 22 22.2386 22 25ZM20 25C20 25.1142 19.8069 25.871 17.9506 26.7148C16.2748 27.4765 13.8193 28 11 28C8.18072 28 5.7252 27.4765 4.04943 26.7148C2.19311 25.871 2 25.1142 2 25C2 24.8858 2.19311 24.129 4.04943 23.2852C5.7252 22.5235 8.18072 22 11 22C13.8193 22 16.2748 22.5235 17.9506 23.2852C19.8069 24.129 20 24.8858 20 25Z" fill="#1C1C1F"/>
</g>
</svg>
