<svg width="48" height="48" viewBox="0 0 48 48" fill="none" xmlns="http://www.w3.org/2000/svg">
<path d="M0 12C0 5.37258 5.37258 0 12 0H36C42.6274 0 48 5.37258 48 12V36C48 42.6274 42.6274 48 36 48H12C5.37258 48 0 42.6274 0 36V12Z" fill="#FFF0F2"/>
<path d="M22.3698 17.7938L22.3773 17.801L22.3849 17.8079C22.8597 18.2426 23.3597 19.1907 23.74 20.4522C24.1087 21.6755 24.3145 23.0243 24.3145 24.1004C24.3145 25.1426 24.1262 26.4627 23.7681 27.6669C23.3994 28.9065 22.9013 29.8509 22.3936 30.3046L22.3815 30.3155L22.3698 30.3267C22.0284 30.6523 21.4913 30.8938 21 30.8938C20.5087 30.8938 19.9716 30.6523 19.6302 30.3267L19.6199 30.3168L19.6093 30.3073C19.0657 29.8175 18.5658 28.8281 18.2058 27.567C17.856 26.3413 17.6855 25.0276 17.6855 24.0603C17.6855 22.917 17.8837 21.5786 18.2449 20.3887C18.6163 19.1651 19.1128 18.2551 19.6047 17.8173L19.6177 17.8058L19.6302 17.7938C19.9716 17.4682 20.5087 17.2267 21 17.2267C21.4913 17.2267 22.0284 17.4682 22.3698 17.7938ZM28.8647 12.3517L28.8638 12.3508C26.6527 10.1095 23.7912 9 21 9C18.2088 9 15.3473 10.1095 13.1362 12.3508L13.1353 12.3517C10.5793 14.9493 9 19.0801 9 24.0201C9 28.9213 10.5801 33.0515 13.1353 35.6483L13.1362 35.6492C15.3473 37.8905 18.2088 39 21 39C23.7912 39 26.6527 37.8905 28.8638 35.6492L28.8647 35.6483C31.4199 33.0515 33 28.9213 33 24.0201C33 19.0801 31.4207 14.9493 28.8647 12.3517Z" fill="#FF90A5" stroke="#2F2F33" stroke-width="2"/>
<path d="M39.9818 14.8757V12.7514H37.9392V11.7297C37.9392 11.373 37.9574 10.8216 38.2675 10.5135C38.3951 10.3838 38.6505 10.2378 39.0881 10.2378C39.2523 10.2378 39.5988 10.2703 40 10.4811V8.24324C39.5805 8.0973 39.1429 8 38.5957 8C37.6292 8 36.5167 8.25946 35.769 9.15135C35.1125 9.92973 35.0213 10.7568 35.0213 11.5351V12.7514H34V14.8757H35.0213V20H37.9392V14.8757H39.9818Z" fill="black"/>
</svg>
