<svg width="32" height="32" viewBox="0 0 32 32" fill="none" xmlns="http://www.w3.org/2000/svg">
<defs>
<clipPath id="clip0_2390_4108">
<rect width="32" height="32" fill="white"/>
</clipPath>
</defs>
<g clip-path="url(#clip0_2390_4108)">
<path d="M29.137 11.779C29.0357 12.5002 28.7338 13.1785 28.2656 13.7364L16.493 27.7665C15.1135 29.4105 12.6624 29.6249 11.0184 28.2454L2.08807 20.752C0.444044 19.3725 0.229607 16.9215 1.60911 15.2775L12.8976 1.82431C13.6564 0.920018 14.7851 0.409675 15.9653 0.437284L25.1729 0.652698C26.0551 0.673336 26.9039 0.993581 27.5799 1.56076L28.6068 2.42243C29.6331 3.28365 30.1434 4.61286 29.9571 5.93965L29.137 11.779Z" fill="#661D2A"/>
<path fill-rule="evenodd" clip-rule="evenodd" d="M3.33697 19.2636L12.2673 26.7571C13.0893 27.4468 14.3148 27.3396 15.0046 26.5176L26.7772 12.4875C27.0113 12.2085 27.1623 11.8694 27.2129 11.5088L28.033 5.66943C28.1262 5.00603 27.871 4.34143 27.3579 3.91082L26.331 3.04915C25.993 2.76556 25.5686 2.60543 25.1275 2.59511L15.9198 2.3797C15.3298 2.3659 14.7654 2.62107 14.386 3.07322L3.09749 16.5264C2.40774 17.3484 2.51496 18.5739 3.33697 19.2636ZM28.2656 13.7364C28.7338 13.1785 29.0357 12.5002 29.137 11.779L29.9571 5.93965C30.1434 4.61286 29.6331 3.28365 28.6068 2.42243L27.5799 1.56076C26.9039 0.993581 26.0551 0.673336 25.1729 0.652698L15.9653 0.437284C14.7851 0.409675 13.6564 0.920018 12.8976 1.82431L1.60911 15.2775C0.229607 16.9215 0.444044 19.3725 2.08807 20.752L11.0184 28.2454C12.6624 29.6249 15.1135 29.4105 16.493 27.7665L28.2656 13.7364Z" fill="#1C1C1F"/>
<path d="M31.5913 13.5492C31.8234 14.7066 31.5169 15.9068 30.7581 16.8111L19.4695 30.2643C18.09 31.9083 15.639 32.1227 13.995 30.7432L5.06465 23.2498C3.42063 21.8703 3.20619 19.4192 4.58569 17.7752L15.8742 4.32209C16.633 3.41779 17.7617 2.90745 18.9419 2.93506L26.4044 3.10965C28.2214 3.15215 29.7662 4.4484 30.1235 6.23038L31.5913 13.5492Z" fill="#FF90A5"/>
<path fill-rule="evenodd" clip-rule="evenodd" d="M6.31355 21.7614L15.2439 29.2548C16.0659 29.9446 17.2914 29.8374 17.9812 29.0154L29.2697 15.5622C29.6491 15.1101 29.8024 14.51 29.6863 13.9313L28.2185 6.61243C28.0398 5.72144 27.2674 5.07332 26.3589 5.05206L18.8964 4.87748C18.3063 4.86367 17.742 5.11884 17.3626 5.57099L6.07407 19.0241C5.38432 19.8461 5.49154 21.0717 6.31355 21.7614ZM30.7581 16.8111C31.5169 15.9068 31.8234 14.7066 31.5913 13.5492L30.1235 6.23038C29.7662 4.4484 28.2214 3.15215 26.4044 3.10965L18.9419 2.93506C17.7617 2.90745 16.633 3.41779 15.8742 4.32209L4.58569 17.7752C3.20619 19.4192 3.42063 21.8703 5.06465 23.2498L13.995 30.7432C15.639 32.1227 18.09 31.9083 19.4695 30.2643L30.7581 16.8111Z" fill="#1C1C1F"/>
<path d="M26.2446 13.1222C24.8651 14.7662 22.414 14.9806 20.77 13.6011C19.126 12.2216 18.9115 9.77057 20.291 8.12655C21.6705 6.48253 24.1216 6.26809 25.7656 7.64759C27.4096 9.02709 27.6241 11.4781 26.2446 13.1222Z" fill="white"/>
<path fill-rule="evenodd" clip-rule="evenodd" d="M22.0189 12.1127C22.8409 12.8025 24.0664 12.6953 24.7562 11.8733C25.4459 11.0512 25.3387 9.82572 24.5167 9.13597C23.6947 8.44622 22.4691 8.55344 21.7794 9.37545C21.0896 10.1975 21.1969 11.423 22.0189 12.1127ZM20.77 13.6011C22.414 14.9806 24.8651 14.7662 26.2446 13.1222C27.6241 11.4781 27.4096 9.02709 25.7656 7.64759C24.1216 6.26809 21.6705 6.48253 20.291 8.12655C18.9115 9.77057 19.126 12.2216 20.77 13.6011Z" fill="#1C1C1F"/>
<path d="M13.9424 23.2493L12.1475 25.3884L15.8825 28.5225L16.6954 27.5537L15.2282 26.3227L16.121 25.2587L15.2978 24.568L14.4051 25.6319L13.7835 25.1104L14.7655 23.94L13.9424 23.2493Z" fill="#1C1C1F"/>
<path d="M14.2401 22.8946L17.9751 26.0286L18.788 25.0599L17.3544 23.857L19.568 24.1303L20.5782 22.9264L18.0674 22.814C18.1795 22.6122 18.26 22.3457 18.2421 22.0826C18.218 21.7475 18.032 21.4006 17.7128 21.1327C17.416 20.8837 17.0019 20.7176 16.605 20.7471C16.0892 20.7819 15.7437 21.1026 15.5087 21.3826L14.2401 22.8946ZM15.8033 22.5554L15.9584 22.3707C16.1369 22.1579 16.3292 22.0425 16.494 22.028C16.6428 22.0098 16.8036 22.0684 16.9156 22.1624C17.0332 22.261 17.1141 22.4148 17.1258 22.5487C17.1392 22.7603 17.0045 23.0004 16.8823 23.1459L16.7273 23.3307L15.8033 22.5554Z" fill="#1C1C1F"/>
<path d="M18.7788 17.4855L16.998 19.6078L20.733 22.7418L22.5139 20.6195L21.6907 19.9288L20.7228 21.0824L20.0788 20.542L20.995 19.4501L20.1719 18.7593L19.2556 19.8513L18.6341 19.3297L19.602 18.1762L18.7788 17.4855Z" fill="#1C1C1F"/>
<path d="M20.8898 14.9697L19.109 17.092L22.844 20.2261L24.6248 18.1038L23.8017 17.4131L22.8337 18.5666L22.1897 18.0263L23.106 16.9343L22.2828 16.2436L21.3666 17.3356L20.745 16.814L21.7129 15.6605L20.8898 14.9697Z" fill="#1C1C1F"/>
</g>
</svg>
