<svg width="32" height="32" viewBox="0 0 32 32" fill="none" xmlns="http://www.w3.org/2000/svg">
<path d="M10.1472 5.07971C9.5136 4.1749 9.73349 2.92781 10.6383 2.29425L12.2766 1.1471C13.1814 0.513545 14.4285 0.733441 15.0621 1.63825L18.5035 6.55316C19.1371 7.45797 18.9172 8.70507 18.0124 9.33862L16.3741 10.4858C15.4693 11.1193 14.2222 10.8994 13.5886 9.99462L10.1472 5.07971Z" fill="#F3CE4A"/>
<path fill-rule="evenodd" clip-rule="evenodd" d="M13.4238 2.7854L11.7855 3.93256L15.2269 8.84747L16.8652 7.70032L13.4238 2.7854ZM10.6383 2.29425C9.73349 2.92781 9.5136 4.1749 10.1472 5.07971L13.5886 9.99462C14.2222 10.8994 15.4693 11.1193 16.3741 10.4858L18.0124 9.33862C18.9172 8.70507 19.1371 7.45797 18.5035 6.55316L15.0621 1.63825C14.4285 0.733441 13.1814 0.513545 12.2766 1.1471L10.6383 2.29425Z" fill="black"/>
<path d="M17.5887 1.6383C18.2222 0.733494 19.4693 0.513598 20.3741 1.14715L22.0124 2.29431C22.9173 2.92786 23.1372 4.17495 22.5036 5.07976L19.0621 9.99468C18.4286 10.8995 17.1815 11.1194 16.2767 10.4858L14.6384 9.33867C13.7336 8.70512 13.5137 7.45803 14.1472 6.55322L17.5887 1.6383Z" fill="#F3CE4A"/>
<path fill-rule="evenodd" clip-rule="evenodd" d="M20.8653 3.93261L19.227 2.78546L15.7855 7.70037L17.4238 8.84752L20.8653 3.93261ZM20.3741 1.14715C19.4693 0.513598 18.2222 0.733494 17.5887 1.6383L14.1472 6.55322C13.5137 7.45803 13.7336 8.70512 14.6384 9.33867L16.2767 10.4858C17.1815 11.1194 18.4286 10.8995 19.0621 9.99468L22.5036 5.07976C23.1372 4.17495 22.9173 2.92786 22.0124 2.29431L20.3741 1.14715Z" fill="black"/>
<path d="M4 7C4 5.89543 4.89543 5 6 5H17C18.1046 5 19 5.89543 19 7V18C19 19.1046 18.1046 20 17 20H6C4.89543 20 4 19.1046 4 18V7Z" fill="#4C8BAE"/>
<path fill-rule="evenodd" clip-rule="evenodd" d="M17 7H6L6 18H17V7ZM6 5C4.89543 5 4 5.89543 4 7V18C4 19.1046 4.89543 20 6 20H17C18.1046 20 19 19.1046 19 18V7C19 5.89543 18.1046 5 17 5H6Z" fill="black"/>
<path d="M8 7C8 5.89543 8.89543 5 10 5H26C27.1046 5 28 5.89543 28 7V18C28 19.1046 27.1046 20 26 20H10C8.89543 20 8 19.1046 8 18V7Z" fill="#78B4D6"/>
<path fill-rule="evenodd" clip-rule="evenodd" d="M26 7H10V18H26V7ZM10 5C8.89543 5 8 5.89543 8 7V18C8 19.1046 8.89543 20 10 20H26C27.1046 20 28 19.1046 28 18V7C28 5.89543 27.1046 5 26 5H10Z" fill="black"/>
<path d="M0 20C0 18.8954 0.895431 18 2 18H12C13.1046 18 14 18.8954 14 20V30C14 31.1046 13.1046 32 12 32H2C0.89543 32 0 31.1046 0 30V20Z" fill="#63B46C"/>
<path fill-rule="evenodd" clip-rule="evenodd" d="M12 20H2L2 30H12V20ZM2 18C0.895431 18 0 18.8954 0 20V30C0 31.1046 0.89543 32 2 32H12C13.1046 32 14 31.1046 14 30V20C14 18.8954 13.1046 18 12 18H2Z" fill="black"/>
<path d="M4 20C4 18.8954 4.89543 18 6 18H30C31.1046 18 32 18.8954 32 20V30C32 31.1046 31.1046 32 30 32H6C4.89543 32 4 31.1046 4 30V20Z" fill="#84D88D"/>
<path fill-rule="evenodd" clip-rule="evenodd" d="M30 20H6V30H30V20ZM6 18C4.89543 18 4 18.8954 4 20V30C4 31.1046 4.89543 32 6 32H30C31.1046 32 32 31.1046 32 30V20C32 18.8954 31.1046 18 30 18H6Z" fill="black"/>
<path d="M15 5H21V20H15V5Z" fill="#F3CE4A"/>
<path fill-rule="evenodd" clip-rule="evenodd" d="M19 7H17V18H19V7ZM15 5V20H21V5H15Z" fill="black"/>
<path d="M15 18H21V32H15V18Z" fill="#F3CE4A"/>
<path fill-rule="evenodd" clip-rule="evenodd" d="M19 20H17V30H19V20ZM15 18V32H21V18H15Z" fill="black"/>
</svg>
