<svg width="32" height="32" viewBox="0 0 32 32" fill="none" xmlns="http://www.w3.org/2000/svg">
<path d="M6.14715 6.22693C5.5136 5.32212 5.73349 4.07503 6.6383 3.44147L9.91491 1.14716C10.8197 0.513609 12.0668 0.733505 12.7004 1.63832L18.4361 9.82984C19.0697 10.7346 18.8498 11.9817 17.945 12.6153L14.6684 14.9096C13.7636 15.5432 12.5165 15.3233 11.8829 14.4184L6.14715 6.22693Z" fill="#46A74A"/>
<path fill-rule="evenodd" clip-rule="evenodd" d="M11.0621 2.78547L7.78546 5.07977L13.5212 13.2713L16.7978 10.977L11.0621 2.78547ZM6.6383 3.44147C5.73349 4.07503 5.5136 5.32212 6.14715 6.22693L11.8829 14.4184C12.5165 15.3233 13.7636 15.5432 14.6684 14.9096L17.945 12.6153C18.8498 11.9817 19.0697 10.7346 18.4361 9.82984L12.7004 1.63832C12.0668 0.733505 10.8197 0.513609 9.91491 1.14716L6.6383 3.44147Z" fill="black"/>
<path d="M18.8829 1.6383C19.5164 0.733494 20.7635 0.513598 21.6683 1.14715L24.9449 3.44146C25.8498 4.07501 26.0696 5.32211 25.4361 6.22692L19.7003 14.4184C19.0668 15.3232 17.8197 15.5431 16.9149 14.9096L13.6383 12.6153C12.7335 11.9817 12.5136 10.7346 13.1471 9.82982L18.8829 1.6383Z" fill="#46A74A"/>
<path fill-rule="evenodd" clip-rule="evenodd" d="M23.7978 5.07976L20.5212 2.78546L14.7854 10.977L18.062 13.2713L23.7978 5.07976ZM21.6683 1.14715C20.7635 0.513598 19.5164 0.733494 18.8829 1.6383L13.1471 9.82982C12.5136 10.7346 12.7335 11.9817 13.6383 12.6153L16.9149 14.9096C17.8197 15.5431 19.0668 15.3232 19.7003 14.4184L25.4361 6.22692C26.0696 5.32211 25.8498 4.07501 24.9449 3.44146L21.6683 1.14715Z" fill="black"/>
<path d="M0 9C0 7.89543 0.895431 7 2 7H6C7.10457 7 8 7.89543 8 9V15C8 16.1046 7.10457 17 6 17H2C0.895431 17 0 16.1046 0 15V9Z" fill="#C12222"/>
<path fill-rule="evenodd" clip-rule="evenodd" d="M6 9H2V15H6V9ZM2 7C0.895431 7 0 7.89543 0 9V15C0 16.1046 0.895431 17 2 17H6C7.10457 17 8 16.1046 8 15V9C8 7.89543 7.10457 7 6 7H2Z" fill="black"/>
<path d="M4 9C4 7.89543 4.89543 7 6 7H30C31.1046 7 32 7.89543 32 9V15C32 16.1046 31.1046 17 30 17H6C4.89543 17 4 16.1046 4 15V9Z" fill="#F44444"/>
<path fill-rule="evenodd" clip-rule="evenodd" d="M30 9H6V15H30V9ZM6 7C4.89543 7 4 7.89543 4 9V15C4 16.1046 4.89543 17 6 17H30C31.1046 17 32 16.1046 32 15V9C32 7.89543 31.1046 7 30 7H6Z" fill="black"/>
<path d="M3 17C3 15.8954 3.89543 15 5 15H21C22.1046 15 23 15.8954 23 17V30C23 31.1046 22.1046 32 21 32H5C3.89543 32 3 31.1046 3 30V17Z" fill="#C12222"/>
<path fill-rule="evenodd" clip-rule="evenodd" d="M21 17H5V30H21V17ZM5 15C3.89543 15 3 15.8954 3 17V30C3 31.1046 3.89543 32 5 32H21C22.1046 32 23 31.1046 23 30V17C23 15.8954 22.1046 15 21 15H5Z" fill="black"/>
<path d="M7 17C7 15.8954 7.89543 15 9 15H27C28.1046 15 29 15.8954 29 17V30C29 31.1046 28.1046 32 27 32H9C7.89543 32 7 31.1046 7 30V17Z" fill="#F44444"/>
<path fill-rule="evenodd" clip-rule="evenodd" d="M27 17H9L9 30H27V17ZM9 15C7.89543 15 7 15.8954 7 17V30C7 31.1046 7.89543 32 9 32H27C28.1046 32 29 31.1046 29 30V17C29 15.8954 28.1046 15 27 15H9Z" fill="black"/>
<path d="M14 7H22V32H14V7Z" fill="#46A74A"/>
<path fill-rule="evenodd" clip-rule="evenodd" d="M20 9H16V30H20V9ZM14 7V32H22V7H14Z" fill="black"/>
</svg>
