<svg width="32" height="32" viewBox="0 0 32 32" fill="none" xmlns="http://www.w3.org/2000/svg">
<path d="M3 16H14L12 23L14 30H3L2.5 23L3 16Z" fill="#CD8038"/>
<path fill-rule="evenodd" clip-rule="evenodd" d="M9.12517 16H4.87459C3.65244 16 2.7446 17.1317 3.00973 18.3248C3.69401 21.404 3.69401 24.596 3.00973 27.6752C2.7446 28.8683 3.65244 30 4.87459 30H9.12517C10.3473 30 11.2552 28.8683 10.99 27.6752C10.3057 24.596 10.3057 21.404 10.99 18.3248C11.2552 17.1317 10.3473 16 9.12517 16ZM4.87459 14C2.37295 14 0.514669 16.3166 1.05735 18.7586C1.67813 21.5521 1.67813 24.4479 1.05735 27.2414C0.514669 29.6834 2.37295 32 4.87459 32H9.12517C11.6268 32 13.4851 29.6834 12.9424 27.2414C12.3216 24.4479 12.3216 21.5521 12.9424 18.7586C13.4851 16.3166 11.6268 14 9.12517 14H4.87459Z" fill="#1C1C1F"/>
<path d="M6 16L14 16.0001V23.0001V32.0001L6 30L5 23.0001L6 16Z" fill="#E59C57"/>
<path fill-rule="evenodd" clip-rule="evenodd" d="M12.1252 16H7.87459C6.65244 16 5.7446 17.1317 6.00973 18.3248C6.69401 21.404 6.69401 24.596 6.00973 27.6752C5.7446 28.8683 6.65244 30 7.87459 30H12.1252C13.3473 30 14.2552 28.8683 13.99 27.6752C13.3057 24.596 13.3057 21.404 13.99 18.3248C14.2552 17.1317 13.3473 16 12.1252 16ZM7.87459 14C5.37295 14 3.51467 16.3166 4.05735 18.7586C4.67813 21.5521 4.67813 24.4479 4.05735 27.2414C3.51467 29.6834 5.37295 32 7.87459 32H12.1252C14.6268 32 16.4851 29.6834 15.9424 27.2414C15.3216 24.4479 15.3216 21.5521 15.9424 18.7586C16.4851 16.3166 14.6268 14 12.1252 14H7.87459Z" fill="#1C1C1F"/>
<path d="M9 22C9 20.8954 9.89543 20 11 20H28C29.1046 20 30 20.8954 30 22V30C30 31.1046 29.1046 32 28 32H11C9.89543 32 9 31.1046 9 30V22Z" fill="#3A8FB4"/>
<path fill-rule="evenodd" clip-rule="evenodd" d="M28 22H11L11 30H28V22ZM11 20C9.89543 20 9 20.8954 9 22V30C9 31.1046 9.89543 32 11 32H28C29.1046 32 30 31.1046 30 30V22C30 20.8954 29.1046 20 28 20H11Z" fill="#1C1C1F"/>
<path d="M13 22C13 20.8954 13.9481 20 15.1176 20H28.8824C30.0519 20 31 20.8954 31 22V30C31 31.1046 30.0519 32 28.8824 32H15.1176C13.9481 32 13 31.1046 13 30V22Z" fill="#60B2D6"/>
<path fill-rule="evenodd" clip-rule="evenodd" d="M28.8824 22H15.1176L15.1176 30H28.8824V22ZM15.1176 20C13.9481 20 13 20.8954 13 22V30C13 31.1046 13.9481 32 15.1176 32H28.8824C30.0519 32 31 31.1046 31 30V22C31 20.8954 30.0519 20 28.8824 20H15.1176Z" fill="#1C1C1F"/>
<path fill-rule="evenodd" clip-rule="evenodd" d="M24 19H20V20H24V19ZM20 17C18.8954 17 18 17.8954 18 19V20C18 21.1046 18.8954 22 20 22H24C25.1046 22 26 21.1046 26 20V19C26 17.8954 25.1046 17 24 17H20Z" fill="#1C1C1F"/>
<path d="M9 3H11V23H9V3Z" fill="#C4C4C4"/>
<path fill-rule="evenodd" clip-rule="evenodd" d="M11 3H9V23H11V3Z" fill="#1C1C1F"/>
<path d="M12 0V5H8V3L12 0Z" fill="#C4C4C4"/>
<path fill-rule="evenodd" clip-rule="evenodd" d="M12 0L8 3V5H12V0Z" fill="#1C1C1F"/>
<path fill-rule="evenodd" clip-rule="evenodd" d="M26 26H18V24H26V26Z" fill="#1C1C1F"/>
</svg>
