<svg width="32" height="32" viewBox="0 0 32 32" fill="none" xmlns="http://www.w3.org/2000/svg">
<path d="M28 21C29.6569 21 31 22.3431 31 24V28C31 29.6569 29.6569 31 28 31H4C2.34315 31 1 29.6569 1 28V24C1 22.3431 2.34315 21 4 21H28Z" fill="#0C29FF" stroke="#2F2F33" stroke-width="2"/>
<path d="M7.78366 26.8823C7.33022 27.3803 6.85447 27.4026 6.6612 27.4026C6.29696 27.4026 5.95502 27.2614 5.73944 27.0607C5.47927 26.8154 5.33803 26.4362 5.33803 26.0943C5.33803 25.7449 5.4644 25.3584 5.76918 25.0759C6.00705 24.8603 6.28953 24.7488 6.6612 24.7488C6.87677 24.7488 7.36739 24.7786 7.78366 25.2915V23.7527C7.24845 23.5372 6.86191 23.5 6.62403 23.5C5.85095 23.5 5.18936 23.8271 4.75079 24.2731C4.30477 24.7265 4 25.3955 4 26.1017C4 26.7484 4.26761 27.4249 4.75079 27.9081C5.15963 28.3095 5.80635 28.6514 6.66864 28.6514C6.98828 28.6514 7.27075 28.592 7.78366 28.4061V26.8823Z" fill="white"/>
<path d="M8.60036 23.5818V28.5399H9.88636V23.5818H8.60036Z" fill="white"/>
<path d="M12.1452 28.5399H13.6988L14.8139 26.9269L15.8694 28.5399H17.4305L15.5572 25.8936L17.1703 23.5818H15.5869L14.8213 24.8678L14.0854 23.5818H12.4946L14.0854 25.8936L12.1452 28.5399Z" fill="white"/>
<path d="M17.43 28.5399H18.9836L20.0986 26.9269L21.1542 28.5399H22.7152L20.842 25.8936L22.4551 23.5818H20.8717L20.1061 24.8678L19.3701 23.5818H17.7794L19.3701 25.8936L17.43 28.5399Z" fill="white"/>
<path d="M22.7148 28.5399H24.2684L25.3834 26.9269L26.439 28.5399H28L26.1268 25.8936L27.7398 23.5818H26.1565L25.3908 24.8678L24.6549 23.5818H23.0641L24.6549 25.8936L22.7148 28.5399Z" fill="white"/>
<path d="M9.61727 2.25629C10.1804 1.4679 11.0896 1 12.0585 1H19.9415C20.9104 1 21.8196 1.4679 22.3827 2.25629L28.9274 11.4188C29.4001 12.0806 28.927 13 28.1136 13H3.88638C3.07301 13 2.59988 12.0806 3.07265 11.4188L9.61727 2.25629Z" fill="#E0E4FF" stroke="#2F2F33" stroke-width="2" stroke-linejoin="round"/>
<rect x="13" y="4" width="6" height="6" rx="3" fill="#F6F7FB" stroke="#2F2F33" stroke-width="2" stroke-linejoin="round"/>
<rect x="14" y="15" width="4" height="6" fill="#F6F7FB" stroke="#2F2F33" stroke-width="2" stroke-linejoin="round"/>
<rect x="6" y="15" width="4" height="6" fill="#F6F7FB" stroke="#2F2F33" stroke-width="2" stroke-linejoin="round"/>
<rect x="22" y="15" width="4" height="6" fill="#F6F7FB" stroke="#2F2F33" stroke-width="2" stroke-linejoin="round"/>
</svg>
