<svg width="36" height="36" viewBox="0 0 36 36" fill="none" xmlns="http://www.w3.org/2000/svg">
<g clip-path="url(#clip0_2138_11943)">
<path d="M0 4.5C0 2.01472 2.01472 0 4.5 0H31.5C33.9853 0 36 2.01472 36 4.5V31.5C36 33.9853 33.9853 36 31.5 36H4.5C2.01472 36 0 33.9853 0 31.5V4.5Z" fill="#31B67A"/>
<path fill-rule="evenodd" clip-rule="evenodd" d="M31.5 1.5H4.5C2.84315 1.5 1.5 2.84315 1.5 4.5V31.5C1.5 33.1569 2.84315 34.5 4.5 34.5H31.5C33.1569 34.5 34.5 33.1569 34.5 31.5V4.5C34.5 2.84315 33.1569 1.5 31.5 1.5ZM4.5 0C2.01472 0 0 2.01472 0 4.5V31.5C0 33.9853 2.01472 36 4.5 36H31.5C33.9853 36 36 33.9853 36 31.5V4.5C36 2.01472 33.9853 0 31.5 0H4.5Z" fill="#1C1C1F"/>
<path d="M0 4.5C0 2.01472 2.01472 0 4.5 0H31.5C33.9853 0 36 2.01472 36 4.5V27C36 29.4853 33.9853 31.5 31.5 31.5H4.5C2.01472 31.5 0 29.4853 0 27V4.5Z" fill="#EBFAF3"/>
<path fill-rule="evenodd" clip-rule="evenodd" d="M31.5 1.5H4.5C2.84315 1.5 1.5 2.84315 1.5 4.5V27C1.5 28.6569 2.84315 30 4.5 30H31.5C33.1569 30 34.5 28.6569 34.5 27V4.5C34.5 2.84315 33.1569 1.5 31.5 1.5ZM4.5 0C2.01472 0 0 2.01472 0 4.5V27C0 29.4853 2.01472 31.5 4.5 31.5H31.5C33.9853 31.5 36 29.4853 36 27V4.5C36 2.01472 33.9853 0 31.5 0H4.5Z" fill="#1C1C1F"/>
<path d="M16.7707 9.63981C17.3679 8.78673 18.6312 8.78673 19.2284 9.63981L26.8474 20.5241C27.5433 21.5183 26.8321 22.8843 25.6186 22.8843H10.3805C9.16701 22.8843 8.45578 21.5183 9.15169 20.5241L16.7707 9.63981Z" fill="#31B67A"/>
<path fill-rule="evenodd" clip-rule="evenodd" d="M20.4579 8.77961L28.0769 19.6639C29.4688 21.6522 28.0463 24.3843 25.6192 24.3843H10.3812C7.95413 24.3843 6.53167 21.6523 7.9235 19.6639L15.5425 8.77961C16.7368 7.07347 19.2636 7.07346 20.4579 8.77961ZM19.2291 9.63981C18.6319 8.78673 17.3685 8.78673 16.7714 9.63981L9.15235 20.5241C8.45643 21.5183 9.16766 22.8843 10.3812 22.8843H25.6192C26.8328 22.8843 27.544 21.5183 26.8481 20.5241L19.2291 9.63981Z" fill="#1C1C1F"/>
</g>
<defs>
<clipPath id="clip0_2138_11943">
<rect width="36" height="36" fill="white"/>
</clipPath>
</defs>
</svg>
