<svg width="48" height="48" viewBox="0 0 48 48" fill="none" xmlns="http://www.w3.org/2000/svg">
<path d="M0 12C0 5.37258 5.37258 0 12 0H36C42.6274 0 48 5.37258 48 12V36C48 42.6274 42.6274 48 36 48H12C5.37258 48 0 42.6274 0 36V12Z" fill="#FFF7E0"/>
<path d="M23.0385 20.7253C22.9523 21.027 23.0127 21.3517 23.2017 21.6022C23.3906 21.8527 23.6862 22 24 22H34.0362L22.35 38.0686L24.9662 28.2577C25.0463 27.9575 24.9823 27.6371 24.793 27.3908C24.6037 27.1444 24.3107 27 24 27H12.1742L25.7814 11.1249L23.0385 20.7253Z" fill="#EBAD01" stroke="#2F2F33" stroke-width="2" stroke-linejoin="round"/>
</svg>
