<svg width="32" height="32" viewBox="0 0 32 32" fill="none" xmlns="http://www.w3.org/2000/svg">
<path d="M32 5C32 2.79086 30.2091 1 28 1H4C1.79086 1 0 2.79086 0 5V21C0 23.2091 1.79086 25 4 25H14.2C14.0689 24.3538 14 23.6849 14 23C14 17.4772 18.4772 13 24 13C27.2712 13 30.1755 14.5707 32 16.999V5Z" fill="#6D6D73"/>
<path fill-rule="evenodd" clip-rule="evenodd" d="M32 16.999C31.4311 16.2418 30.7572 15.5681 30 14.9993V12H2V21C2 22.1046 2.89543 23 4 23H14C14 23.6849 14.0689 24.3538 14.2 25H4C1.79086 25 0 23.2091 0 21V5C0 2.79086 1.79086 1 4 1H28C30.2091 1 32 2.79086 32 5V16.999ZM2 6H30V5C30 3.89543 29.1046 3 28 3H4C2.89543 3 2 3.89543 2 5V6Z" fill="#1C1C1F"/>
<path d="M16 23C16 18.5817 19.5817 15 24 15C28.4183 15 32 18.5817 32 23C32 27.4183 28.4183 31 24 31C19.5817 31 16 27.4183 16 23Z" fill="#FAC2BE"/>
<path fill-rule="evenodd" clip-rule="evenodd" d="M18 23C18 26.3137 20.6863 29 24 29C27.3137 29 30 26.3137 30 23C30 19.6863 27.3137 17 24 17C20.6863 17 18 19.6863 18 23ZM24 15C19.5817 15 16 18.5817 16 23C16 27.4183 19.5817 31 24 31C28.4183 31 32 27.4183 32 23C32 18.5817 28.4183 15 24 15Z" fill="#FD3C2D"/>
<path d="M25.293 25.7071C25.6835 26.0976 26.3167 26.0976 26.7072 25.7071C27.0977 25.3166 27.0977 24.6834 26.7072 24.2929L25.4143 23L26.7071 21.7071C27.0976 21.3166 27.0976 20.6834 26.7071 20.2929C26.3166 19.9024 25.6834 19.9024 25.2929 20.2929L24.0001 21.5857L22.7072 20.2929C22.3167 19.9024 21.6835 19.9024 21.293 20.2929C20.9025 20.6834 20.9025 21.3166 21.293 21.7071L22.5858 23L21.2929 24.2929C20.9024 24.6834 20.9024 25.3166 21.2929 25.7071C21.6834 26.0976 22.3166 26.0976 22.7071 25.7071L24.0001 24.4142L25.293 25.7071Z" fill="#FD3C2D"/>
</svg>
