<svg width="32" height="32" viewBox="0 0 32 32" fill="none" xmlns="http://www.w3.org/2000/svg">
<circle cx="17" cy="16" r="13" fill="#F5B914" stroke="black" stroke-width="2"/>
<rect x="6" y="9" width="8" height="8" rx="1" fill="black" stroke="black" stroke-width="2"/>
<rect x="22" y="9" width="8" height="8" rx="1" fill="black" stroke="black" stroke-width="2"/>
<rect x="2" y="9" width="10" height="8" rx="1" fill="#2F2F33" stroke="black" stroke-width="2"/>
<rect x="18" y="9" width="10" height="8" rx="1" fill="#2F2F33" stroke="black" stroke-width="2"/>
<rect x="15.5" y="12.5" width="1" height="1" fill="#2F2F33" stroke="black"/>
<mask id="path-7-inside-1_2256_2901" fill="white">
<path d="M11 20C13.9232 22.3385 18.0768 22.3385 21 20V22C18.0768 24.3385 13.9232 24.3385 11 22V20Z"/>
</mask>
<path d="M11 20C13.9232 22.3385 18.0768 22.3385 21 20V22C18.0768 24.3385 13.9232 24.3385 11 22V20Z" fill="#2F2F33"/>
<path d="M19 20V22H23V20H19ZM13 22V20H9V22H13ZM19.7506 20.4383C17.5579 22.1925 14.4421 22.1925 12.2494 20.4383L9.75061 23.5617C13.4042 26.4846 18.5958 26.4846 22.2494 23.5617L19.7506 20.4383ZM9.75061 21.5617C13.4042 24.4846 18.5958 24.4846 22.2494 21.5617L19.7506 18.4383C17.5579 20.1925 14.4421 20.1925 12.2494 18.4383L9.75061 21.5617Z" fill="black" mask="url(#path-7-inside-1_2256_2901)"/>
<rect x="2" y="9" width="10" height="8" rx="1" fill="#B4E0CC" stroke="black" stroke-width="2"/>
<rect x="18" y="9" width="10" height="8" rx="1" fill="#B4E0CC" stroke="black" stroke-width="2"/>
<path d="M6.92052 10V10.7441C6.59583 10.805 6.2982 10.9673 6.09526 11.1905C5.8991 11.407 5.75705 11.7182 5.75705 12.1443C5.75705 12.4487 5.82469 12.699 6.04791 12.929C6.14938 13.0372 6.35908 13.1995 6.792 13.3484L7.19109 13.4837C7.33315 13.531 7.42785 13.5716 7.49549 13.6189C7.58343 13.6866 7.63078 13.7745 7.63078 13.876C7.63078 13.9842 7.58343 14.0857 7.50902 14.1601C7.40755 14.2616 7.25197 14.3157 7.06933 14.3157C6.87317 14.3157 6.62289 14.2413 6.45378 14.1601C6.30496 14.0857 6.12909 13.9504 5.98703 13.8151L5.5 14.7215C5.72999 14.9042 5.95998 15.0259 6.15614 15.1071C6.40643 15.2086 6.65671 15.2627 6.92052 15.2694V16H7.59696V15.2356C7.89459 15.1612 8.21251 14.9989 8.40868 14.7959C8.5575 14.6404 8.78749 14.3224 8.78749 13.7745C8.78749 13.4701 8.71308 13.2063 8.44927 12.9493C8.19222 12.699 7.90812 12.6043 7.6646 12.5231L7.31285 12.4014C7.21139 12.3675 7.06933 12.2931 7.00169 12.2322C6.93405 12.1646 6.90699 12.0834 6.90699 12.009C6.90699 11.9076 6.95434 11.8331 7.00846 11.7858C7.10316 11.6979 7.25874 11.664 7.41432 11.664C7.74577 11.664 8.02311 11.8399 8.17193 11.9549L8.61838 11.0891C8.16516 10.8185 7.82018 10.7576 7.59696 10.7441V10H6.92052Z" fill="black"/>
<path d="M22.9205 10V10.7441C22.5958 10.805 22.2982 10.9673 22.0953 11.1905C21.8991 11.407 21.757 11.7182 21.757 12.1443C21.757 12.4487 21.8247 12.699 22.0479 12.929C22.1494 13.0372 22.3591 13.1995 22.792 13.3484L23.1911 13.4837C23.3331 13.531 23.4278 13.5716 23.4955 13.6189C23.5834 13.6866 23.6308 13.7745 23.6308 13.876C23.6308 13.9842 23.5834 14.0857 23.509 14.1601C23.4076 14.2616 23.252 14.3157 23.0693 14.3157C22.8732 14.3157 22.6229 14.2413 22.4538 14.1601C22.305 14.0857 22.1291 13.9504 21.987 13.8151L21.5 14.7215C21.73 14.9042 21.96 15.0259 22.1561 15.1071C22.4064 15.2086 22.6567 15.2627 22.9205 15.2694V16H23.597V15.2356C23.8946 15.1612 24.2125 14.9989 24.4087 14.7959C24.5575 14.6404 24.7875 14.3224 24.7875 13.7745C24.7875 13.4701 24.7131 13.2063 24.4493 12.9493C24.1922 12.699 23.9081 12.6043 23.6646 12.5231L23.3129 12.4014C23.2114 12.3675 23.0693 12.2931 23.0017 12.2322C22.934 12.1646 22.907 12.0834 22.907 12.009C22.907 11.9076 22.9543 11.8331 23.0085 11.7858C23.1032 11.6979 23.2587 11.664 23.4143 11.664C23.7458 11.664 24.0231 11.8399 24.1719 11.9549L24.6184 11.0891C24.1652 10.8185 23.8202 10.7576 23.597 10.7441V10H22.9205Z" fill="black"/>
</svg>
