<svg width="32" height="32" viewBox="0 0 32 32" fill="none" xmlns="http://www.w3.org/2000/svg">
<path fill-rule="evenodd" clip-rule="evenodd" d="M4 9C3.44772 9 3 9.44772 3 10V27.5926C3 27.6884 3.01348 27.7811 3.03865 27.8689C3.01304 27.9671 3 28.0665 3 28.1667C3 30.2838 8.8203 32 16 32C23.1797 32 29 30.2838 29 28.1667C29 28.0665 28.987 27.9671 28.9613 27.8689C28.9865 27.7811 29 27.6884 29 27.5926V10C29 9.44772 28.5523 9 28 9H4Z" fill="#EBA77A"/>
<path fill-rule="evenodd" clip-rule="evenodd" d="M5.08224 27.9579C5.10679 27.9764 5.1344 27.9965 5.16539 28.0181C5.57538 28.3039 6.29905 28.6421 7.37328 28.9589C9.49562 29.5847 12.5462 30 16 30C19.4538 30 22.5044 29.5847 24.6267 28.9589C25.701 28.6421 26.4246 28.3039 26.8346 28.0181C26.8656 27.9965 26.8932 27.9764 26.9178 27.9579L26.888 27.8435L27 27.4529V11H5V27.4529L5.11204 27.8435L5.08224 27.9579ZM27.0961 27.7956C27.0968 27.7957 27.0929 27.8019 27.0822 27.814C27.09 27.8016 27.0954 27.7955 27.0961 27.7956ZM4.91781 27.814C4.90709 27.8019 4.90316 27.7957 4.90388 27.7956C4.9046 27.7955 4.90996 27.8016 4.91781 27.814ZM3.03865 27.8689C3.01304 27.9671 3 28.0665 3 28.1667C3 30.2838 8.8203 32 16 32C23.1797 32 29 30.2838 29 28.1667C29 28.0665 28.987 27.9671 28.9613 27.8689C28.9865 27.7811 29 27.6884 29 27.5926V10C29 9.44772 28.5523 9 28 9H4C3.44772 9 3 9.44772 3 10V27.5926C3 27.6884 3.01348 27.7811 3.03865 27.8689Z" fill="#1C1C1F"/>
<path d="M29 9.5C29 11.9853 23.1797 14 16 14C8.8203 14 3 11.9853 3 9.5C3 7.01472 8.8203 5 16 5C23.1797 5 29 7.01472 29 9.5Z" fill="#CC8759"/>
<path fill-rule="evenodd" clip-rule="evenodd" d="M27.0201 9.37589C27.0205 9.37591 27.0192 9.37986 27.015 9.38767C27.0177 9.37978 27.0198 9.37587 27.0201 9.37589ZM26.9304 9.5C26.8836 9.44797 26.814 9.37984 26.7117 9.29615C26.3042 8.96262 25.5933 8.57324 24.5382 8.20799C22.4469 7.4841 19.4282 7 16 7C12.5718 7 9.55309 7.4841 7.46183 8.20799C6.40669 8.57324 5.69581 8.96262 5.28828 9.29615C5.18602 9.37984 5.11637 9.44797 5.06955 9.5C5.11637 9.55203 5.18602 9.62016 5.28828 9.70385C5.69581 10.0374 6.40669 10.4268 7.46183 10.792C9.55309 11.5159 12.5718 12 16 12C19.4282 12 22.4469 11.5159 24.5382 10.792C25.5933 10.4268 26.3042 10.0374 26.7117 9.70385C26.814 9.62016 26.8836 9.55204 26.9304 9.5ZM4.97986 9.37589C4.98022 9.37587 4.9823 9.37978 4.985 9.38767C4.98084 9.37985 4.97949 9.37591 4.97986 9.37589ZM4.97986 9.62411C4.97949 9.62409 4.98084 9.62014 4.985 9.61233C4.9823 9.62022 4.98022 9.62413 4.97986 9.62411ZM27.015 9.61234C27.0192 9.62015 27.0205 9.62409 27.0201 9.62411C27.0198 9.62413 27.0177 9.62023 27.015 9.61234ZM16 14C23.1797 14 29 11.9853 29 9.5C29 7.01472 23.1797 5 16 5C8.8203 5 3 7.01472 3 9.5C3 11.9853 8.8203 14 16 14Z" fill="#1C1C1F"/>
<path d="M21 5C21 7.76142 18.7614 10 16 10C13.2386 10 11 7.76142 11 5C11 2.23858 13.2386 0 16 0C18.7614 0 21 2.23858 21 5Z" fill="#FFE066"/>
<path fill-rule="evenodd" clip-rule="evenodd" d="M21 10V9H19.0005C20.2147 8.08777 21 6.6356 21 5C21 2.23858 18.7614 0 16 0C13.2386 0 11 2.23858 11 5C11 6.6356 11.7853 8.08777 12.9995 9H11V10H21ZM19 5C19 6.65685 17.6569 8 16 8C14.3431 8 13 6.65685 13 5C13 3.34315 14.3431 2 16 2C17.6569 2 19 3.34315 19 5Z" fill="#1C1C1F"/>
</svg>
