<svg width="32" height="32" viewBox="0 0 32 32" fill="none" xmlns="http://www.w3.org/2000/svg">
<path d="M1 16H31V22C31 24.2091 29.2091 26 27 26H5C2.79086 26 1 24.2091 1 22V16Z" fill="#84848A"/>
<path fill-rule="evenodd" clip-rule="evenodd" d="M29 18H3V22C3 23.1046 3.89543 24 5 24H27C28.1046 24 29 23.1046 29 22V18ZM1 16V22C1 24.2091 2.79086 26 5 26H27C29.2091 26 31 24.2091 31 22V16H1Z" fill="#1C1C1F"/>
<path d="M1 4C1 1.79086 2.79086 0 5 0H27C29.2091 0 31 1.79086 31 4V18H1V4Z" fill="#D0D0D6"/>
<path fill-rule="evenodd" clip-rule="evenodd" d="M27 2H5C3.89543 2 3 2.89543 3 4V16H29V4C29 2.89543 28.1046 2 27 2ZM5 0C2.79086 0 1 1.79086 1 4V18H31V4C31 1.79086 29.2091 0 27 0H5Z" fill="#1C1C1F"/>
<path d="M7 22C7 20.8954 7.89543 20 9 20H23C24.1046 20 25 20.8954 25 22V30C25 31.1046 24.1046 32 23 32H9C7.89543 32 7 31.1046 7 30V22Z" fill="#2F2F33"/>
<path fill-rule="evenodd" clip-rule="evenodd" d="M23 22H9L9 30H23V22ZM9 20C7.89543 20 7 20.8954 7 22V30C7 31.1046 7.89543 32 9 32H23C24.1046 32 25 31.1046 25 30V22C25 20.8954 24.1046 20 23 20H9Z" fill="#1C1C1F"/>
<path d="M5 21C5 20.4477 5.44772 20 6 20H26C26.5523 20 27 20.4477 27 21C27 21.5523 26.5523 22 26 22H6C5.44772 22 5 21.5523 5 21Z" fill="#1C1C1F"/>
<path d="M5 9C5 8.44772 5.44772 8 6 8H10C10.5523 8 11 8.44772 11 9C11 9.55228 10.5523 10 10 10H6C5.44772 10 5 9.55228 5 9Z" fill="#0C29FF"/>
<path fill-rule="evenodd" clip-rule="evenodd" d="M6 8C5.44772 8 5 8.44772 5 9C5 9.55228 5.44772 10 6 10H10C10.5523 10 11 9.55228 11 9C11 8.44772 10.5523 8 10 8H6Z" fill="#1C1C1F"/>
<path d="M5 13C5 12.4477 5.44772 12 6 12H10C10.5523 12 11 12.4477 11 13C11 13.5523 10.5523 14 10 14H6C5.44772 14 5 13.5523 5 13Z" fill="#0C29FF"/>
<path fill-rule="evenodd" clip-rule="evenodd" d="M6 12C5.44772 12 5 12.4477 5 13C5 13.5523 5.44772 14 6 14H10C10.5523 14 11 13.5523 11 13C11 12.4477 10.5523 12 10 12H6Z" fill="#1C1C1F"/>
<path d="M13 9C13 8.44772 13.4477 8 14 8H18C18.5523 8 19 8.44772 19 9C19 9.55228 18.5523 10 18 10H14C13.4477 10 13 9.55228 13 9Z" fill="#0C29FF"/>
<path fill-rule="evenodd" clip-rule="evenodd" d="M14 8C13.4477 8 13 8.44772 13 9C13 9.55228 13.4477 10 14 10H18C18.5523 10 19 9.55228 19 9C19 8.44772 18.5523 8 18 8H14Z" fill="#1C1C1F"/>
<path d="M13 13C13 12.4477 13.4477 12 14 12H18C18.5523 12 19 12.4477 19 13C19 13.5523 18.5523 14 18 14H14C13.4477 14 13 13.5523 13 13Z" fill="#0C29FF"/>
<path fill-rule="evenodd" clip-rule="evenodd" d="M14 12C13.4477 12 13 12.4477 13 13C13 13.5523 13.4477 14 14 14H18C18.5523 14 19 13.5523 19 13C19 12.4477 18.5523 12 18 12H14Z" fill="#1C1C1F"/>
<path d="M21 9C21 8.44772 21.4477 8 22 8H26C26.5523 8 27 8.44772 27 9C27 9.55228 26.5523 10 26 10H22C21.4477 10 21 9.55228 21 9Z" fill="#0C29FF"/>
<path fill-rule="evenodd" clip-rule="evenodd" d="M22 8C21.4477 8 21 8.44772 21 9C21 9.55228 21.4477 10 22 10H26C26.5523 10 27 9.55228 27 9C27 8.44772 26.5523 8 26 8H22Z" fill="#1C1C1F"/>
<path d="M21 13C21 12.4477 21.4477 12 22 12H26C26.5523 12 27 12.4477 27 13C27 13.5523 26.5523 14 26 14H22C21.4477 14 21 13.5523 21 13Z" fill="#0C29FF"/>
<path fill-rule="evenodd" clip-rule="evenodd" d="M22 12C21.4477 12 21 12.4477 21 13C21 13.5523 21.4477 14 22 14H26C26.5523 14 27 13.5523 27 13C27 12.4477 26.5523 12 26 12H22Z" fill="#1C1C1F"/>
<path d="M13 5C13 4.44772 13.4477 4 14 4H18C18.5523 4 19 4.44772 19 5C19 5.55228 18.5523 6 18 6H14C13.4477 6 13 5.55228 13 5Z" fill="#0C29FF"/>
<path fill-rule="evenodd" clip-rule="evenodd" d="M14 4C13.4477 4 13 4.44772 13 5C13 5.55228 13.4477 6 14 6H18C18.5523 6 19 5.55228 19 5C19 4.44772 18.5523 4 18 4H14Z" fill="#1C1C1F"/>
<path d="M5 5C5 4.44772 5.44772 4 6 4H10C10.5523 4 11 4.44772 11 5C11 5.55228 10.5523 6 10 6H6C5.44772 6 5 5.55228 5 5Z" fill="#0C29FF"/>
<path fill-rule="evenodd" clip-rule="evenodd" d="M6 4C5.44772 4 5 4.44772 5 5C5 5.55228 5.44772 6 6 6H10C10.5523 6 11 5.55228 11 5C11 4.44772 10.5523 4 10 4H6Z" fill="#1C1C1F"/>
<path d="M21 5C21 4.44772 21.4477 4 22 4H26C26.5523 4 27 4.44772 27 5C27 5.55228 26.5523 6 26 6H22C21.4477 6 21 5.55228 21 5Z" fill="#0C29FF"/>
<path fill-rule="evenodd" clip-rule="evenodd" d="M22 4C21.4477 4 21 4.44772 21 5C21 5.55228 21.4477 6 22 6H26C26.5523 6 27 5.55228 27 5C27 4.44772 26.5523 4 26 4H22Z" fill="#1C1C1F"/>
</svg>
