<svg width="20" height="20" fill="none" xmlns="http://www.w3.org/2000/svg">
    <g clip-path="url(#a)">
        <path d="m0 20 1.25-1.25L2.5 20l1.25-1.25L5 20l1.25-1.25L7.5 20l1.25-1.25L10 20l1.25-1.25L12.5 20V9.615A9.615 9.615 0 0 0 2.885 0" fill="#F0F0F7"/>
        <path fill-rule="evenodd" clip-rule="evenodd" d="m0 20 1.25-1.25L2.5 20l1.25-1.25L5 20l1.25-1.25L7.5 20l1.25-1.25L10 20l1.25-1.25L12.5 20V9.615A9.615 9.615 0 0 0 2.885 0 2.885 2.885 0 0 0 0 2.885V20Zm1.25-3.018V2.885c0-.903.732-1.635 1.635-1.635a8.365 8.365 0 0 1 8.365 8.365v7.367L10 18.232l-1.25-1.25-1.25 1.25-1.25-1.25L5 18.232l-1.25-1.25-1.25 1.25-1.25-1.25Z" fill="#1C1C1F"/>
        <path d="M16.25 2.5a2.5 2.5 0 0 0-2.5-2.5H2.5c-.077.328.09.657.348.872a2.5 2.5 0 0 1 .902 1.923v8.455A3.75 3.75 0 0 0 7.5 15h8.75V2.5Z" fill="#C2C9FF"/>
        <path fill-rule="evenodd" clip-rule="evenodd" d="M4.667 1.25h9.083c.69 0 1.25.56 1.25 1.25v11.25H7.5a2.5 2.5 0 0 1-2.5-2.5V2.795c0-.543-.117-1.068-.333-1.545ZM13.75 0a2.5 2.5 0 0 1 2.5 2.5V15H7.5a3.75 3.75 0 0 1-3.75-3.75V2.795A2.5 2.5 0 0 0 2.368.56L2.5 0h11.25Z" fill="#1C1C1F"/>
        <path d="M11.25 3.125a.625.625 0 0 0-.625-.625h-3.75a.625.625 0 1 0 0 1.25h3.75c.345 0 .625-.28.625-.625ZM13.125 3.75a.625.625 0 1 1 0-1.25.625.625 0 0 1 0 1.25ZM13.125 8.75a.625.625 0 1 1 0-1.25.625.625 0 0 1 0 1.25ZM13.125 5a.625.625 0 1 1 0 1.25h-6.25a.625.625 0 1 1 0-1.25h6.25ZM11.25 8.125a.625.625 0 0 0-.625-.625h-3.75a.625.625 0 1 0 0 1.25h3.75c.345 0 .625-.28.625-.625ZM9.375 10a.625.625 0 1 1 0 1.25h-2.5a.625.625 0 1 1 0-1.25h2.5Z" fill="#1C1C1F"/>
        <path d="M20 11.25c0-.69-.56-1.25-1.25-1.25h-6.448c-.926 0-1.677.75-1.677 1.677" fill="#F0F0F7"/>
        <path fill-rule="evenodd" clip-rule="evenodd" d="M12.302 11.25h6.448v1.25c0 .69-.56 1.25-1.25 1.25h-6.118a4.6 4.6 0 0 0 .493-2.073c0-.236.191-.427.427-.427Zm-2.394 2.5c.456-.58.717-1.307.717-2.073 0-.926.75-1.677 1.677-1.677h6.448c.69 0 1.25.56 1.25 1.25v1.25a2.5 2.5 0 0 1-2.5 2.5H8.125l.646-.323a3.351 3.351 0 0 0 1.137-.927Z" fill="#1C1C1F"/>
    </g>
    <defs>
        <clipPath id="a">
            <path fill="#fff" d="M0 0h20v20H0z"/>
        </clipPath>
    </defs>
</svg>
