<svg width="32" height="32" viewBox="0 0 32 32" fill="none" xmlns="http://www.w3.org/2000/svg">
<g clip-path="url(#clip0_2917_3677)">
<path d="M7 10V5.55425L12.7093 1.98591C13.5621 1.45291 14.6252 1.38266 15.5408 1.7988L24 5.64391V10H7Z" fill="#7A4B2C" stroke="#1C1C1F" stroke-width="2"/>
<circle cx="9" cy="10" r="6" fill="#FFC933" stroke="#1C1C1F" stroke-width="2"/>
<path d="M10 12.0287C10 10.2373 11.755 8.97241 13.4544 9.53889L13.5463 9.56953C14.4017 9.85464 15.2974 10 16.199 10H24V14.2792L20.6993 15.3795C19.5436 15.7647 18.3074 15.8417 17.1129 15.6028L12.1098 14.6021C10.883 14.3568 10 13.2797 10 12.0287Z" fill="#7A4B2C" stroke="#1C1C1F" stroke-width="2"/>
<rect x="24" y="3" width="6" height="14" rx="1" fill="#E0E4FF" stroke="#1C1C1F" stroke-width="2"/>
<circle cx="1" cy="1" r="1" transform="matrix(-1 0 0 1 28 11)" fill="#1C1C1F"/>
<rect x="18" y="9" width="5" height="2" fill="#7A4B2C"/>
<path d="M1 26C1 25.4477 1.44772 25 2 25H20C20.5523 25 21 25.4477 21 26V33H1V26Z" fill="#E0E4FF" stroke="#1C1C1F" stroke-width="2"/>
<path d="M21 25C21 25.7474 20.2878 26.7509 18.3644 27.6252C16.5312 28.4584 13.9284 29 11 29C8.07158 29 5.46882 28.4584 3.63563 27.6252C1.71217 26.7509 1 25.7474 1 25C1 24.2526 1.71217 23.2491 3.63563 22.3748C5.46882 21.5416 8.07158 21 11 21C13.9284 21 16.5312 21.5416 18.3644 22.3748C20.2878 23.2491 21 24.2526 21 25Z" fill="#D9D9D9" stroke="#1C1C1F" stroke-width="2"/>
<rect x="5.5" y="24.5" width="11" height="1" rx="0.5" fill="#2F2F33" stroke="#1C1C1F"/>
</g>
<defs>
<clipPath id="clip0_2917_3677">
<rect width="32" height="32" fill="white"/>
</clipPath>
</defs>
</svg>
