<svg width="32" height="32" viewBox="0 0 32 32" fill="none" xmlns="http://www.w3.org/2000/svg">
<path d="M31.6118 29.6712C31.815 30.8903 30.8749 32 29.6391 32L3.99998 32C1.79084 32 -2.11374e-05 30.2091 -2.13305e-05 28L-2.17676e-05 23C-2.19608e-05 20.7909 1.79084 19 3.99998 19L29.694 19C30.9111 19 31.846 20.078 31.6739 21.2828L31.4377 22.9363C31.1476 24.9667 31.1716 27.0296 31.5088 29.0527L31.6118 29.6712Z" fill="#FCF296"/>
<path fill-rule="evenodd" clip-rule="evenodd" d="M3.99998 30L29.6391 30L29.536 29.3815C29.1651 27.1561 29.1387 24.8869 29.4578 22.6535L29.694 21L3.99998 21C2.89541 21 1.99998 21.8954 1.99998 23L1.99998 28C1.99998 29.1046 2.89541 30 3.99998 30ZM29.6391 32C30.8749 32 31.815 30.8903 31.6118 29.6712L31.5088 29.0527C31.1716 27.0296 31.1476 24.9667 31.4377 22.9363L31.6739 21.2828C31.846 20.078 30.9111 19 29.694 19L3.99998 19C1.79084 19 -2.19608e-05 20.7909 -2.17676e-05 23L-2.13305e-05 28C-2.11374e-05 30.2091 1.79084 32 3.99998 32L29.6391 32Z" fill="black"/>
<path d="M31.6118 29.6712C31.815 30.8903 30.8749 32 29.6391 32L7.99998 32C5.79084 32 3.99998 30.2091 3.99998 28L3.99998 23C3.99998 20.7909 5.79084 19 7.99998 19L29.694 19C30.9111 19 31.846 20.078 31.6739 21.2828L31.4377 22.9363C31.1476 24.9667 31.1716 27.0296 31.5088 29.0527L31.6118 29.6712Z" fill="#FBF5C4"/>
<path fill-rule="evenodd" clip-rule="evenodd" d="M7.99998 30L29.6391 30L29.536 29.3815C29.1651 27.1561 29.1387 24.8869 29.4578 22.6535L29.694 21L7.99998 21C6.89541 21 5.99998 21.8954 5.99998 23L5.99998 28C5.99998 29.1046 6.89541 30 7.99998 30ZM29.6391 32C30.8749 32 31.815 30.8903 31.6118 29.6712L31.5088 29.0527C31.1716 27.0296 31.1476 24.9667 31.4377 22.9363L31.6739 21.2828C31.846 20.078 30.9111 19 29.694 19L7.99998 19C5.79084 19 3.99998 20.7909 3.99998 23L3.99998 28C3.99998 30.2091 5.79084 32 7.99998 32L29.6391 32Z" fill="black"/>
<path d="M31.3788 18.5149C31.6943 19.7772 30.7396 21 29.4385 21L4.00002 21C1.79088 21 2.08243e-05 19.2091 2.06311e-05 17L-nan -nanL2.06311e-05 17C2.0438e-05 14.7909 1.79088 13 4.00002 13L29.4385 13C30.7396 13 31.6943 14.2228 31.3788 15.4851L31.3638 15.5448C31.125 16.5002 31.125 17.4998 31.3638 18.4552L31.3788 18.5149Z" fill="#B8B8B1"/>
<path fill-rule="evenodd" clip-rule="evenodd" d="M4.00002 19L29.4385 19L29.4235 18.9403C29.1051 17.6664 29.1051 16.3336 29.4235 15.0597L29.4385 15L4.00002 15C2.89545 15 2.00002 15.8954 2.00002 17C2.00002 18.1046 2.89545 19 4.00002 19ZM29.4385 21C30.7396 21 31.6943 19.7772 31.3788 18.5149L31.3638 18.4552C31.125 17.4998 31.125 16.5002 31.3638 15.5448L31.3788 15.4851C31.6943 14.2228 30.7396 13 29.4385 13L4.00002 13C1.79088 13 2.0438e-05 14.7909 2.06311e-05 17C2.08243e-05 19.2091 1.79088 21 4.00002 21L29.4385 21Z" fill="black"/>
<path d="M31.4039 18.5307C31.7077 19.789 30.7542 21 29.4598 21L7.99996 21C5.79082 21 3.99996 19.2091 3.99996 17L-nan -nanL3.99996 17C3.99996 14.7909 5.79082 13 7.99996 13L29.4598 13C30.7542 13 31.7077 14.211 31.4039 15.4693L31.3743 15.5922C31.1509 16.5174 31.1509 17.4826 31.3743 18.4078L31.4039 18.5307Z" fill="#EFEEE0"/>
<path fill-rule="evenodd" clip-rule="evenodd" d="M7.99996 19L29.4598 19L29.4301 18.8771C29.1323 17.6434 29.1323 16.3566 29.4301 15.1229L29.4598 15L7.99996 15C6.89539 15 5.99996 15.8954 5.99996 17C5.99996 18.1046 6.89539 19 7.99996 19ZM29.4598 21C30.7542 21 31.7077 19.789 31.4039 18.5307L31.3743 18.4078C31.1509 17.4826 31.1509 16.5174 31.3743 15.5922L31.4039 15.4693C31.7077 14.211 30.7542 13 29.4598 13L7.99996 13C5.79082 13 3.99996 14.7909 3.99996 17C3.99996 19.2091 5.79082 21 7.99996 21L29.4598 21Z" fill="black"/>
<path d="M27 0H29V10C29 10.5523 28.5523 11 28 11L-nan -nanL28 11C27.4477 11 27 10.5523 27 10V0Z" fill="#C4C4C4"/>
<path fill-rule="evenodd" clip-rule="evenodd" d="M29 0H27V10C27 10.5523 27.4477 11 28 11C28.5523 11 29 10.5523 29 10V0Z" fill="black"/>
<path d="M7 0H25V13C25 14.1046 24.1046 15 23 15H9C7.89543 15 7 14.1046 7 13V0Z" fill="#1A1919"/>
<path fill-rule="evenodd" clip-rule="evenodd" d="M23 2H9L9 13H23V2ZM7 0V13C7 14.1046 7.89543 15 9 15H23C24.1046 15 25 14.1046 25 13V0H7Z" fill="black"/>
<path d="M7 0H21V13C21 14.1046 20.1046 15 19 15H9C7.89543 15 7 14.1046 7 13V0Z" fill="#252323"/>
<path fill-rule="evenodd" clip-rule="evenodd" d="M19 2H9L9 13H19V2ZM7 0V13C7 14.1046 7.89543 15 9 15H19C20.1046 15 21 14.1046 21 13V0H7Z" fill="black"/>
<path d="M0 0H32L-nan -nanL32 0C32 1.10457 31.1046 2 30 2H0V0Z" fill="black"/>
<path fill-rule="evenodd" clip-rule="evenodd" d="M32 0H0V2H30C31.1046 2 32 1.10457 32 0Z" fill="black"/>
<path d="M9 25C9 23.8954 9.89543 23 11 23H17C18.1046 23 19 23.8954 19 25V27.4072C19 28.7181 17.7601 29.6745 16.4922 29.3417L14.5078 28.8208C14.1749 28.7334 13.8251 28.7334 13.4922 28.8208L11.5078 29.3417C10.2399 29.6745 9 28.7181 9 27.4072V25Z" fill="#43A347"/>
<path fill-rule="evenodd" clip-rule="evenodd" d="M17 25H11V27.4072L12.9844 26.8863C13.6502 26.7116 14.3498 26.7116 15.0156 26.8863L17 27.4072V25ZM11 23C9.89543 23 9 23.8954 9 25V27.4072C9 28.7181 10.2399 29.6745 11.5078 29.3417L13.4922 28.8208C13.8251 28.7334 14.1749 28.7334 14.5078 28.8208L16.4922 29.3417C17.7601 29.6745 19 28.7181 19 27.4072V25C19 23.8954 18.1046 23 17 23H11Z" fill="black"/>
<path d="M9 18C9 16.8954 9.89543 16 11 16H17C18.1046 16 19 16.8954 19 18V20.4072C19 21.7181 17.7601 22.6745 16.4922 22.3417L14.5078 21.8208C14.1749 21.7334 13.8251 21.7334 13.4922 21.8208L11.5078 22.3417C10.2399 22.6745 9 21.7181 9 20.4072V18Z" fill="#EC8234"/>
<path fill-rule="evenodd" clip-rule="evenodd" d="M17 18H11V20.4072L12.9844 19.8863C13.6502 19.7116 14.3498 19.7116 15.0156 19.8863L17 20.4072V18ZM11 16C9.89543 16 9 16.8954 9 18V20.4072C9 21.7181 10.2399 22.6745 11.5078 22.3417L13.4922 21.8208C13.8251 21.7334 14.1749 21.7334 14.5078 21.8208L16.4922 22.3417C17.7601 22.6745 19 21.7181 19 20.4072V18C19 16.8954 18.1046 16 17 16H11Z" fill="black"/>
</svg>
