<svg width="32" height="32" viewBox="0 0 32 32" fill="none" xmlns="http://www.w3.org/2000/svg">
<path d="M31.3788 27.5149C31.6943 28.7772 30.7396 30 29.4385 30L4.00002 30C1.79088 30 2.08243e-05 28.2091 2.06311e-05 26L-nan -nanL2.06311e-05 26C2.0438e-05 23.7909 1.79088 22 4.00002 22L29.4385 22C30.7396 22 31.6943 23.2228 31.3788 24.4851L31.3638 24.5448C31.125 25.5002 31.125 26.4998 31.3638 27.4552L31.3788 27.5149Z" fill="#B8B8B1"/>
<path fill-rule="evenodd" clip-rule="evenodd" d="M4.00002 28L29.4385 28L29.4235 27.9403C29.1051 26.6664 29.1051 25.3336 29.4235 24.0597L29.4385 24L4.00002 24C2.89545 24 2.00002 24.8954 2.00002 26C2.00002 27.1046 2.89545 28 4.00002 28ZM29.4385 30C30.7396 30 31.6943 28.7772 31.3788 27.5149L31.3638 27.4552C31.125 26.4998 31.125 25.5002 31.3638 24.5448L31.3788 24.4851C31.6943 23.2228 30.7396 22 29.4385 22L4.00002 22C1.79088 22 2.0438e-05 23.7909 2.06311e-05 26C2.08243e-05 28.2091 1.79088 30 4.00002 30L29.4385 30Z" fill="black"/>
<path d="M31.4039 27.5307C31.7077 28.789 30.7542 30 29.4598 30L7.99996 30C5.79082 30 3.99996 28.2091 3.99996 26L-nan -nanL3.99996 26C3.99996 23.7909 5.79082 22 7.99996 22L29.4598 22C30.7542 22 31.7077 23.211 31.4039 24.4693L31.3743 24.5922C31.1509 25.5174 31.1509 26.4826 31.3743 27.4078L31.4039 27.5307Z" fill="#EFEEE0"/>
<path fill-rule="evenodd" clip-rule="evenodd" d="M7.99996 28L29.4598 28L29.4301 27.8771C29.1323 26.6434 29.1323 25.3566 29.4301 24.1229L29.4598 24L7.99996 24C6.89539 24 5.99996 24.8954 5.99996 26C5.99996 27.1046 6.89539 28 7.99996 28ZM29.4598 30C30.7542 30 31.7077 28.789 31.4039 27.5307L31.3743 27.4078C31.1509 26.4826 31.1509 25.5174 31.3743 24.5922L31.4039 24.4693C31.7077 23.211 30.7542 22 29.4598 22L7.99996 22C5.79082 22 3.99996 23.7909 3.99996 26C3.99996 28.2091 5.79082 30 7.99996 30L29.4598 30Z" fill="black"/>
<path d="M9 27C9 25.8954 9.89543 25 11 25H17C18.1046 25 19 25.8954 19 27V29.4072C19 30.7181 17.7601 31.6745 16.4922 31.3417L14.5078 30.8208C14.1749 30.7334 13.8251 30.7334 13.4922 30.8208L11.5078 31.3417C10.2399 31.6745 9 30.7181 9 29.4072V27Z" fill="#60A22D"/>
<path fill-rule="evenodd" clip-rule="evenodd" d="M17 27H11V29.4072L12.9844 28.8863C13.6502 28.7116 14.3498 28.7116 15.0156 28.8863L17 29.4072V27ZM11 25C9.89543 25 9 25.8954 9 27V29.4072C9 30.7181 10.2399 31.6745 11.5078 31.3417L13.4922 30.8208C13.8251 30.7334 14.1749 30.7334 14.5078 30.8208L16.4922 31.3417C17.7601 31.6745 19 30.7181 19 29.4072V27C19 25.8954 18.1046 25 17 25H11Z" fill="black"/>
<path d="M20 4H26V21C26 22.6569 24.6569 24 23 24L-nan -nanL23 24C21.3431 24 20 22.6569 20 21V4Z" fill="#F5F1F1"/>
<path fill-rule="evenodd" clip-rule="evenodd" d="M24 6H22V21C22 21.5523 22.4477 22 23 22C23.5523 22 24 21.5523 24 21V6ZM20 4V21C20 22.6569 21.3431 24 23 24C24.6569 24 26 22.6569 26 21V4H20Z" fill="black"/>
<path d="M20 14V21C20 22.6569 21.3431 24 23 24C24.6569 24 26 22.6569 26 21V14H20Z" fill="#B68BFC"/>
<path fill-rule="evenodd" clip-rule="evenodd" d="M22 16V21C22 21.5523 22.4477 22 23 22C23.5523 22 24 21.5523 24 21V16H22ZM20 14H26V21C26 22.6569 24.6569 24 23 24C21.3431 24 20 22.6569 20 21V14Z" fill="black"/>
<path fill-rule="evenodd" clip-rule="evenodd" d="M18.0001 0H12.0001V11L6.58755 21.0518C5.87007 22.3843 6.83514 24 8.34849 24H21.6516C23.165 24 24.13 22.3843 23.4126 21.0518L18.0001 11V0Z" fill="#F5F1F1"/>
<path fill-rule="evenodd" clip-rule="evenodd" d="M6.58755 21.0518C5.87007 22.3843 6.83514 24 8.34849 24H21.6516C23.165 24 24.13 22.3843 23.4126 21.0518L18.0001 11V0H12.0001V11L6.58755 21.0518ZM14.0001 2V11.5042L8.34849 22H21.6516L16.0001 11.5042V2H14.0001Z" fill="black"/>
<path d="M8.50006 17.5H21.5001L23.4126 21.0518C24.13 22.3843 23.165 24 21.6516 24H8.34849C6.83514 24 5.87007 22.3843 6.58755 21.0518L8.50006 17.5Z" fill="#F35959"/>
<path fill-rule="evenodd" clip-rule="evenodd" d="M9.69465 19.5L8.34849 22L21.6516 22L20.3055 19.5H9.69465ZM21.5001 17.5H8.50006L6.58755 21.0518C5.87007 22.3843 6.83514 24 8.34849 24H21.6516C23.165 24 24.13 22.3843 23.4126 21.0518L21.5001 17.5Z" fill="black"/>
</svg>
