<svg width="32" height="33" viewBox="0 0 32 33" fill="none" xmlns="http://www.w3.org/2000/svg">
<g clip-path="url(#clip0_1076_8225)">
<path d="M0 8.5C0 4.08172 3.58172 0.5 8 0.5H24C28.4183 0.5 32 4.08172 32 8.5V24.5C32 28.9183 28.4183 32.5 24 32.5H8C3.58172 32.5 0 28.9183 0 24.5V8.5Z" fill="#F6F7FB"/>
<path fill-rule="evenodd" clip-rule="evenodd" d="M21.0668 9.03346L10.4001 17.0335L9.6001 15.9668L20.2668 7.9668L21.0668 9.03346Z" fill="black"/>
<path fill-rule="evenodd" clip-rule="evenodd" d="M20.2668 25.0335L9.6001 17.0335L10.4001 15.9668L21.0668 23.9668L20.2668 25.0335Z" fill="black"/>
<path d="M14 16.5C14 18.7091 12.2091 20.5 10 20.5C7.79086 20.5 6 18.7091 6 16.5C6 14.2909 7.79086 12.5 10 12.5C12.2091 12.5 14 14.2909 14 16.5Z" fill="#8594FF"/>
<path fill-rule="evenodd" clip-rule="evenodd" d="M10 19.1667C11.4728 19.1667 12.6667 17.9728 12.6667 16.5C12.6667 15.0272 11.4728 13.8333 10 13.8333C8.52724 13.8333 7.33333 15.0272 7.33333 16.5C7.33333 17.9728 8.52724 19.1667 10 19.1667ZM10 20.5C12.2091 20.5 14 18.7091 14 16.5C14 14.2909 12.2091 12.5 10 12.5C7.79086 12.5 6 14.2909 6 16.5C6 18.7091 7.79086 20.5 10 20.5Z" fill="black"/>
<path d="M24.6665 9.83301C24.6665 12.0421 22.8756 13.833 20.6665 13.833C18.4574 13.833 16.6665 12.0421 16.6665 9.83301C16.6665 7.62387 18.4574 5.83301 20.6665 5.83301C22.8756 5.83301 24.6665 7.62387 24.6665 9.83301Z" fill="#8594FF"/>
<path fill-rule="evenodd" clip-rule="evenodd" d="M20.6665 12.4997C22.1393 12.4997 23.3332 11.3058 23.3332 9.83301C23.3332 8.36025 22.1393 7.16634 20.6665 7.16634C19.1937 7.16634 17.9998 8.36025 17.9998 9.83301C17.9998 11.3058 19.1937 12.4997 20.6665 12.4997ZM20.6665 13.833C22.8756 13.833 24.6665 12.0421 24.6665 9.83301C24.6665 7.62387 22.8756 5.83301 20.6665 5.83301C18.4574 5.83301 16.6665 7.62387 16.6665 9.83301C16.6665 12.0421 18.4574 13.833 20.6665 13.833Z" fill="black"/>
<path d="M24.6665 23.167C24.6665 25.3761 22.8756 27.167 20.6665 27.167C18.4574 27.167 16.6665 25.3761 16.6665 23.167C16.6665 20.9579 18.4574 19.167 20.6665 19.167C22.8756 19.167 24.6665 20.9579 24.6665 23.167Z" fill="#8594FF"/>
<path fill-rule="evenodd" clip-rule="evenodd" d="M20.6665 25.8337C22.1393 25.8337 23.3332 24.6398 23.3332 23.167C23.3332 21.6942 22.1393 20.5003 20.6665 20.5003C19.1937 20.5003 17.9998 21.6942 17.9998 23.167C17.9998 24.6398 19.1937 25.8337 20.6665 25.8337ZM20.6665 27.167C22.8756 27.167 24.6665 25.3761 24.6665 23.167C24.6665 20.9579 22.8756 19.167 20.6665 19.167C18.4574 19.167 16.6665 20.9579 16.6665 23.167C16.6665 25.3761 18.4574 27.167 20.6665 27.167Z" fill="black"/>
</g>
<defs>
<clipPath id="clip0_1076_8225">
<rect width="32" height="32" fill="white" transform="translate(0 0.5)"/>
</clipPath>
</defs>
</svg>
