<svg width="20" height="20" viewBox="0 0 20 20" fill="none" xmlns="http://www.w3.org/2000/svg">
<path fill-rule="evenodd" clip-rule="evenodd" d="M13.3196 5V4.375C13.3196 2.64911 11.9205 1.25 10.1946 1.25C8.46869 1.25 7.06958 2.64911 7.06958 4.375V5H13.3196ZM10.1946 0C7.77833 0 5.81958 1.95875 5.81958 4.375V6.25H14.5696V4.375C14.5696 1.95875 12.6108 0 10.1946 0Z" fill="#1C1C1F"/>
<path d="M2.87909 7.10569C3.07285 5.89257 4.1193 5 5.3478 5H10.6664C11.8949 5 12.9413 5.89257 13.1351 7.10569L14.7323 17.1057C14.9749 18.6244 13.8016 20 12.2636 20H3.75057C2.21257 20 1.03929 18.6244 1.28187 17.1057L2.87909 7.10569Z" fill="#661D2A"/>
<path fill-rule="evenodd" clip-rule="evenodd" d="M10.6664 6.25H5.3478C4.73355 6.25 4.21032 6.69629 4.11344 7.30285L2.51622 17.3028C2.39493 18.0622 2.98157 18.75 3.75057 18.75H12.2636C13.0326 18.75 13.6192 18.0622 13.4979 17.3028L11.9007 7.30285C11.8038 6.69629 11.2806 6.25 10.6664 6.25ZM5.3478 5C4.1193 5 3.07285 5.89257 2.87909 7.10569L1.28187 17.1057C1.03929 18.6244 2.21257 20 3.75057 20H12.2636C13.8016 20 14.9749 18.6244 14.7323 17.1057L13.1351 7.10569C12.9413 5.89257 11.8949 5 10.6664 5H5.3478Z" fill="#1C1C1F"/>
<path d="M5.65659 7.05579C5.87148 5.86567 6.90745 5 8.11681 5H14.7721C15.9814 5 17.0174 5.86567 17.2323 7.05579L19.0379 17.0558C19.3148 18.5895 18.1362 20 16.5776 20H6.31126C4.75274 20 3.57412 18.5895 3.85104 17.0558L5.65659 7.05579Z" fill="#FFEBEE"/>
<path fill-rule="evenodd" clip-rule="evenodd" d="M14.7721 6.25H8.11681C7.51213 6.25 6.99415 6.68283 6.8867 7.2779L5.08115 17.2779C4.94269 18.0448 5.532 18.75 6.31126 18.75H16.5776C17.3569 18.75 17.9462 18.0448 17.8077 17.2779L16.0022 7.2779C15.8947 6.68283 15.3768 6.25 14.7721 6.25ZM8.11681 5C6.90745 5 5.87148 5.86567 5.65659 7.05579L3.85104 17.0558C3.57412 18.5895 4.75274 20 6.31126 20H16.5776C18.1362 20 19.3148 18.5895 19.0379 17.0558L17.2323 7.05579C17.0174 5.86567 15.9814 5 14.7721 5H8.11681Z" fill="#1C1C1F"/>
<path d="M7.69458 8.75C7.69458 8.05964 8.25422 7.5 8.94458 7.5H13.9446C14.6349 7.5 15.1946 8.05964 15.1946 8.75V10C15.1946 10.6904 14.6349 11.25 13.9446 11.25H8.94458C8.25422 11.25 7.69458 10.6904 7.69458 10V8.75Z" fill="#FF90A5"/>
<path fill-rule="evenodd" clip-rule="evenodd" d="M13.9446 8.75H8.94458L8.94458 10H13.9446V8.75ZM8.94458 7.5C8.25422 7.5 7.69458 8.05964 7.69458 8.75V10C7.69458 10.6904 8.25422 11.25 8.94458 11.25H13.9446C14.6349 11.25 15.1946 10.6904 15.1946 10V8.75C15.1946 8.05964 14.6349 7.5 13.9446 7.5H8.94458Z" fill="#1C1C1F"/>
</svg>
