<svg width="32" height="32" viewBox="0 0 32 32" fill="none" xmlns="http://www.w3.org/2000/svg">
<g clip-path="url(#clip0_3848_6007)">
<path d="M0 5C0 3.89543 0.895431 3 2 3H14C15.1046 3 16 3.89543 16 5V30C16 31.1046 15.1046 32 14 32H4C1.79086 32 0 30.2091 0 28V5Z" fill="#31B67A"/>
<path fill-rule="evenodd" clip-rule="evenodd" d="M14 5H2V28C2 29.1046 2.89543 30 4 30H14V5ZM2 3C0.895431 3 0 3.89543 0 5V28C0 30.2091 1.79086 32 4 32H14C15.1046 32 16 31.1046 16 30V5C16 3.89543 15.1046 3 14 3H2Z" fill="#1C1C1F"/>
<path d="M26 7C26 4.79086 24.2091 3 22 3H2L3.08158 4.30691C3.6752 5.0242 4 5.9261 4 6.85718V26C4 29.3137 6.68629 32 10 32H26V7Z" fill="white"/>
<path d="M22 5H5.70534C5.89914 5.59536 6 6.22174 6 6.85718V26C6 28.2091 7.79086 30 10 30H24V24H26V32H10C6.68629 32 4 29.3137 4 26V6.85718C4 6.20614 3.8412 5.56937 3.54273 5C3.41435 4.75509 3.26012 4.52265 3.08158 4.30691L2 3H22C24.2091 3 26 4.79086 26 7V10H24V7C24 5.89543 23.1046 5 22 5Z" fill="#1C1C1F"/>
<path d="M32 26C32 24.8954 31.1046 24 30 24H19.6833C18.2013 24 17 25.2013 17 26.6833Lnan nanL17 26.6833C17 28.716 15.8515 30.5742 14.0334 31.4833L13 32H28C30.2091 32 32 30.2091 32 28V26Z" fill="#F0F0F7"/>
<path fill-rule="evenodd" clip-rule="evenodd" d="M19.6833 26H30V28C30 29.1046 29.1046 30 28 30H18.2111C18.7207 28.9897 19 27.8577 19 26.6833C19 26.3059 19.3059 26 19.6833 26ZM15.8524 30C16.5825 29.0711 17 27.9089 17 26.6833C17 25.2013 18.2013 24 19.6833 24H30C31.1046 24 32 24.8954 32 26V28C32 30.2091 30.2091 32 28 32H13L14.0334 31.4833C14.7553 31.1223 15.3717 30.6117 15.8524 30Z" fill="#1C1C1F"/>
<path fill-rule="evenodd" clip-rule="evenodd" d="M10 2C9.44772 2 9 2.44772 9 3V4H7V3C7 1.34315 8.34315 0 10 0C11.6569 0 13 1.34315 13 3V4C13 6.20914 11.2091 8 9 8H8V6H9C10.1046 6 11 5.10457 11 4V3C11 2.44772 10.5523 2 10 2Z" fill="#1C1C1F"/>
<path fill-rule="evenodd" clip-rule="evenodd" d="M18 2C17.4477 2 17 2.44772 17 3V4H15V3C15 1.34315 16.3431 0 18 0C19.6569 0 21 1.34315 21 3V4C21 6.20914 19.2091 8 17 8H16V6H17C18.1046 6 19 5.10457 19 4V3C19 2.44772 18.5523 2 18 2Z" fill="#1C1C1F"/>
<path d="M8 10H14V18H8V10Z" fill="#FD3C2D"/>
<path fill-rule="evenodd" clip-rule="evenodd" d="M12 12H10V16H12V12ZM8 10V18H14V10H8Z" fill="black"/>
<path d="M8 16H14V24H8V16Z" fill="#D9D9D9"/>
<path fill-rule="evenodd" clip-rule="evenodd" d="M12 18H10V22H12V18ZM8 16V24H14V16H8Z" fill="black"/>
<path d="M12 10H18V18H12V10Z" fill="#D9D9D9"/>
<path fill-rule="evenodd" clip-rule="evenodd" d="M16 12H14V16H16V12ZM12 10V18H18V10H12Z" fill="black"/>
<path d="M12 16H18V24H12V16Z" fill="#FFBC01"/>
<path fill-rule="evenodd" clip-rule="evenodd" d="M16 18H14V22H16V18ZM12 16V24H18V16H12Z" fill="black"/>
<path fill-rule="evenodd" clip-rule="evenodd" d="M26.3378 12.7543C25.5826 12.2103 24.6612 11.9467 23.7325 12.009C22.8037 12.0712 21.9258 12.4554 21.2499 13.0954C20.574 13.7354 20.1424 14.591 20.0295 15.515C19.9167 16.4389 20.1296 17.3733 20.6315 18.1572C21.1335 18.941 21.8932 19.5253 22.7796 19.8093C23.666 20.0933 24.6237 20.0592 25.4878 19.713L26.2317 21.5695C24.9356 22.0889 23.499 22.1399 22.1694 21.7139C20.8397 21.2879 19.7003 20.4115 18.9473 19.2358C18.1943 18.06 17.875 16.6584 18.0443 15.2725C18.2136 13.8865 18.8609 12.6031 19.8748 11.6431C20.8887 10.6832 22.2056 10.1068 23.5987 10.0134C24.9918 9.92005 26.3738 10.3154 27.5068 11.1315C28.6397 11.9475 29.4526 13.1331 29.8053 14.484C30.1581 15.8349 30.0287 17.2666 29.4394 18.5324L27.6263 17.6882C28.0191 16.8444 28.1054 15.89 27.8702 14.9893C27.635 14.0887 27.0931 13.2983 26.3378 12.7543Z" fill="black"/>
<path fill-rule="evenodd" clip-rule="evenodd" d="M25.4789 17.562L25.8132 16.8441C26.0096 16.4222 26.0527 15.945 25.9351 15.4947C25.8175 15.0444 25.5466 14.6492 25.1689 14.3772C24.7913 14.1051 24.3306 13.9734 23.8662 14.0045C23.4019 14.0356 22.9629 14.2277 22.6249 14.5477C22.287 14.8677 22.0712 15.2955 22.0148 15.7575C21.9583 16.2195 22.0648 16.6867 22.3158 17.0786C22.5668 17.4705 22.9466 17.7626 23.3898 17.9046C23.833 18.0466 24.3119 18.0296 24.7439 17.8565L25.4789 17.562ZM27.7354 19.9451L28.8321 22.6822L26.9755 23.4261C25.2475 24.1185 23.332 24.1866 21.5592 23.6186C19.7863 23.0506 18.267 21.8821 17.2631 20.3143C16.2591 18.7466 15.8333 16.8779 16.059 15.03C16.2848 13.1821 17.1479 11.4707 18.4997 10.1908L19.8748 11.6431C18.9243 12.5431 18.2959 13.7274 18.0816 15.0139C18.0673 15.0996 18.0549 15.1859 18.0443 15.2725C17.8961 16.4852 18.1221 17.7098 18.6854 18.7847C18.7658 18.9383 18.8532 19.0888 18.9473 19.2358C19.7003 20.4115 20.8397 21.2879 22.1694 21.7139C22.8453 21.9305 23.5488 22.0237 24.2475 21.9949C24.9224 21.967 25.5928 21.8252 26.2293 21.5705L26.2317 21.5695L25.4878 19.713C24.6237 20.0592 23.666 20.0933 22.7796 19.8093C21.8932 19.5253 21.1335 18.941 20.6315 18.1572C20.1296 17.3733 19.9167 16.4389 20.0295 15.515C20.1424 14.591 20.574 13.7354 21.2499 13.0954C21.9258 12.4554 22.8037 12.0712 23.7325 12.009C24.6612 11.9467 25.5826 12.2103 26.3378 12.7543C27.0459 13.2643 27.5665 13.9909 27.8226 14.8218C27.8396 14.8772 27.8555 14.9331 27.8702 14.9893C28.076 15.7774 28.0357 16.6066 27.7592 17.3669C27.7197 17.4756 27.6754 17.5828 27.6263 17.6882L29.4394 18.5324C29.7292 17.91 29.9077 17.2476 29.9725 16.5744C30.0229 16.0495 30.0042 15.518 29.9151 14.9939C29.886 14.823 29.8494 14.6529 29.8053 14.484C29.4526 13.1331 28.6397 11.9475 27.5068 11.1315C26.5862 10.4684 25.5013 10.0831 24.3796 10.012C24.1207 9.99561 23.8599 9.99593 23.5987 10.0134C22.3797 10.0952 21.2191 10.5466 20.2688 11.3013C20.133 11.4091 20.0015 11.5231 19.8748 11.6431L18.4997 10.1908C19.8515 8.91087 21.6074 8.14245 23.4649 8.01793C25.3224 7.8934 27.1651 8.42057 28.6757 9.50861C30.1862 10.5967 31.2701 12.1774 31.7404 13.9787C32.2108 15.7799 32.0383 17.6888 31.2526 19.3765L30.4084 21.1896L27.7354 19.9451Z" fill="white"/>
<path fill-rule="evenodd" clip-rule="evenodd" d="M26.2929 15.7929C26.6834 15.4024 27.3166 15.4024 27.7071 15.7929L29 17.0858L30.2929 15.7929C30.6834 15.4024 31.3166 15.4024 31.7071 15.7929C32.0976 16.1834 32.0976 16.8166 31.7071 17.2071L29.9899 18.9243C29.4432 19.471 28.5568 19.471 28.0101 18.9243L26.2929 17.2071C25.9024 16.8166 25.9024 16.1834 26.2929 15.7929Z" fill="black"/>
</g>
<defs>
<clipPath id="clip0_3848_6007">
<rect width="32" height="32" fill="white"/>
</clipPath>
</defs>
</svg>
