<svg width="32" height="32" viewBox="0 0 32 32" fill="none" xmlns="http://www.w3.org/2000/svg">
<path d="M28 6C30.2091 6 32 7.79086 32 10V28C32 30.2091 30.2091 32 28 32H4C1.79086 32 0 30.2091 0 28V10C0 7.79086 1.79086 6 4 6H28Z" fill="#7A4B2C"/>
<path d="M16 6V32H10V6H16Z" fill="#31B67A"/>
<path d="M26 6V32H20V6H26Z" fill="#FD3C2D"/>
<path d="M0 10C0 7.79086 1.79086 6 4 6H8V32H4C1.79086 32 0 30.2091 0 28V10Z" fill="#522A10"/>
<path fill-rule="evenodd" clip-rule="evenodd" d="M10 4V6H4C1.79086 6 0 7.79086 0 10V28C0 30.2091 1.79086 32 4 32H28C30.2091 32 32 30.2091 32 28V10C32 7.79086 30.2091 6 28 6H26V4C26 1.79086 24.2091 0 22 0H14C11.7909 0 10 1.79086 10 4ZM24 6V4C24 2.89543 23.1046 2 22 2H14C12.8954 2 12 2.89543 12 4V6H24ZM8 30H10V8H8V30ZM6 8H4C2.89543 8 2 8.89543 2 10V28C2 29.1046 2.89543 30 4 30H6V8ZM22 8H24V30H22V8ZM16 8H20V30H16V8ZM12 8H14V30H12V8ZM26 30V8H28C29.1046 8 30 8.89543 30 10V28C30 29.1046 29.1046 30 28 30H26Z" fill="#1C1C1F"/>
<path d="M23.9642 18.4019C24.9208 17.8496 26.144 18.1773 26.6963 19.1339L27.6963 20.866C28.2485 21.8225 27.9208 23.0457 26.9642 23.598L20.036 27.598C19.0794 28.1503 17.8562 27.8225 17.304 26.866L16.304 25.1339C15.7517 24.1773 16.0794 22.9541 17.036 22.4019L23.9642 18.4019Z" fill="#FFBC01"/>
<path fill-rule="evenodd" clip-rule="evenodd" d="M19.036 25.866L25.9642 21.866L24.9642 20.1339L18.036 24.1339L19.036 25.866ZM26.6963 19.1339C26.144 18.1773 24.9208 17.8496 23.9642 18.4019L17.036 22.4019C16.0794 22.9541 15.7517 24.1773 16.304 25.1339L17.304 26.866C17.8562 27.8225 19.0794 28.1503 20.036 27.598L26.9642 23.598C27.9208 23.0457 28.2485 21.8225 27.6963 20.866L26.6963 19.1339Z" fill="#1C1C1F"/>
<path d="M14 12C16.2091 12 18 13.7909 18 16C18 18.2091 16.2091 20 14 20C11.7909 20 10 18.2091 10 16C10 13.7909 11.7909 12 14 12Z" fill="#FF90A5"/>
<path fill-rule="evenodd" clip-rule="evenodd" d="M14 14C12.8954 14 12 14.8954 12 16C12 17.1046 12.8954 18 14 18C15.1046 18 16 17.1046 16 16C16 14.8954 15.1046 14 14 14ZM18 16C18 13.7909 16.2091 12 14 12C11.7909 12 10 13.7909 10 16C10 18.2091 11.7909 20 14 20C16.2091 20 18 18.2091 18 16Z" fill="#1C1C1F"/>
</svg>
