<svg width="32" height="32" viewBox="0 0 32 32" fill="none" xmlns="http://www.w3.org/2000/svg">
<path d="M0 7C0 5.89543 0.895431 5 2 5H17C18.1046 5 19 5.89543 19 7V30C19 31.1046 18.1046 32 17 32H2C0.895431 32 0 31.1046 0 30V7Z" fill="#302F2F"/>
<path fill-rule="evenodd" clip-rule="evenodd" d="M17 7H2L2 30H17V7ZM2 5C0.895431 5 0 5.89543 0 7V30C0 31.1046 0.895431 32 2 32H17C18.1046 32 19 31.1046 19 30V7C19 5.89543 18.1046 5 17 5H2Z" fill="black"/>
<path d="M4 7C4 5.89543 4.89543 5 6 5H17C18.1046 5 19 5.89543 19 7V30C19 31.1046 18.1046 32 17 32H6C4.89543 32 4 31.1046 4 30V7Z" fill="#676666"/>
<path fill-rule="evenodd" clip-rule="evenodd" d="M17 7H6L6 30H17V7ZM6 5C4.89543 5 4 5.89543 4 7V30C4 31.1046 4.89543 32 6 32H17C18.1046 32 19 31.1046 19 30V7C19 5.89543 18.1046 5 17 5H6Z" fill="black"/>
<path fill-rule="evenodd" clip-rule="evenodd" d="M13 2H6V5H13V2ZM4 0V7H15V0H4Z" fill="black"/>
<path d="M1 1C1 0.447715 1.44772 0 2 0H17C17.5523 0 18 0.447715 18 1C18 1.55228 17.5523 2 17 2H2C1.44772 2 1 1.55228 1 1Z" fill="#C4C4C4"/>
<path fill-rule="evenodd" clip-rule="evenodd" d="M2 0C1.44772 0 1 0.447715 1 1C1 1.55228 1.44772 2 2 2H17C17.5523 2 18 1.55228 18 1C18 0.447715 17.5523 0 17 0H2Z" fill="black"/>
<path fill-rule="evenodd" clip-rule="evenodd" d="M8 10V12H15V10H8Z" fill="black"/>
<path d="M14.2222 18C14.2222 16.8954 15.1176 16 16.2222 16H29.9999C31.1045 16 31.9999 16.8954 31.9999 18V30C31.9999 31.1046 31.1045 32 29.9999 32H16.2222C15.1176 32 14.2222 31.1046 14.2222 30V18Z" fill="#1A1C54"/>
<path fill-rule="evenodd" clip-rule="evenodd" d="M29.9999 18H16.2222V30H29.9999L29.9999 18ZM16.2222 16C15.1176 16 14.2222 16.8954 14.2222 18V30C14.2222 31.1046 15.1176 32 16.2222 32H29.9999C31.1045 32 31.9999 31.1046 31.9999 30V18C31.9999 16.8954 31.1045 16 29.9999 16H16.2222Z" fill="black"/>
<path d="M18 18C18 16.8954 18.8954 16 20 16H30C31.1046 16 32 16.8954 32 18V30C32 31.1046 31.1046 32 30 32H20C18.8954 32 18 31.1046 18 30V18Z" fill="#343785"/>
<path fill-rule="evenodd" clip-rule="evenodd" d="M30 18H20L20 30H30V18ZM20 16C18.8954 16 18 16.8954 18 18V30C18 31.1046 18.8954 32 20 32H30C31.1046 32 32 31.1046 32 30V18C32 16.8954 31.1046 16 30 16H20Z" fill="black"/>
<path fill-rule="evenodd" clip-rule="evenodd" d="M26 15H20V16H26V15ZM20 13C18.8954 13 18 13.8954 18 15V18H28V15C28 13.8954 27.1046 13 26 13H20Z" fill="black"/>
</svg>
