<svg width="32" height="32" viewBox="0 0 32 32" fill="none" xmlns="http://www.w3.org/2000/svg">
<path d="M12 6C12 4.89543 11.1046 4 10 4H2C0.895431 4 0 4.89543 0 6V30C0 31.1046 0.895431 32 2 32H10C11.1046 32 12 31.1046 12 30V6Z" fill="#5D5D68"/>
<path fill-rule="evenodd" clip-rule="evenodd" d="M2 6H10L10 30H2V6ZM10 4C11.1046 4 12 4.89543 12 6V30C12 31.1046 11.1046 32 10 32H2C0.895431 32 0 31.1046 0 30V6C0 4.89543 0.895431 4 2 4H10Z" fill="black"/>
<path d="M32 6C32 4.89543 31.1046 4 30 4H8C6.89543 4 6 4.89543 6 6V30C6 31.1046 6.89543 32 8 32H30C31.1046 32 32 31.1046 32 30V6Z" fill="#A8A8C0"/>
<path fill-rule="evenodd" clip-rule="evenodd" d="M8 6H30L30 30H8V6ZM30 4C31.1046 4 32 4.89543 32 6V30C32 31.1046 31.1046 32 30 32H8C6.89543 32 6 31.1046 6 30V6C6 4.89543 6.89543 4 8 4H30Z" fill="black"/>
<path d="M28 8H10V28H28V8Z" fill="#C8C8DD"/>
<path fill-rule="evenodd" clip-rule="evenodd" d="M12 10H26V26H12V10ZM28 8V28H10V8H28Z" fill="black"/>
<path d="M15 17.8563C15 20.0237 16.7909 21.7808 19 21.7808C21.2091 21.7808 23 20.0237 23 17.8563C23 15.6888 21.2091 13.9318 19 13.9318C16.7909 13.9318 15 15.6888 15 17.8563Z" fill="#DAD9D9"/>
<path fill-rule="evenodd" clip-rule="evenodd" d="M14.7572 15.0813L15.5538 15.8627C15.2019 16.447 15 17.1285 15 17.8562C15 18.6587 15.2455 19.4049 15.6667 20.0265L14.7574 20.9186C14.3669 21.3018 14.3669 21.923 14.7574 22.3062C15.1479 22.6893 15.7811 22.6893 16.1716 22.3062L17.1564 21.34C17.7081 21.6216 18.3351 21.7807 19 21.7807C19.6649 21.7807 20.2919 21.6216 20.8437 21.3399L21.8285 22.3062C22.2191 22.6894 22.8522 22.6894 23.2428 22.3062C23.6333 21.9231 23.6333 21.3019 23.2428 20.9187L22.3333 20.0264C22.7545 19.4048 23 18.6586 23 17.8562C23 17.1284 22.7981 16.4469 22.4462 15.8627L23.2426 15.0813C23.6331 14.6982 23.6331 14.0769 23.2426 13.6938C22.8521 13.3106 22.2189 13.3106 21.8284 13.6938L21.032 14.4751C20.4365 14.1299 19.7418 13.9317 19 13.9317C18.2581 13.9317 17.5635 14.1299 16.9679 14.4752L16.1715 13.6937C15.7809 13.3106 15.1478 13.3106 14.7572 13.6937C14.3667 14.0769 14.3667 14.6981 14.7572 15.0813ZM19 19.7807C17.8593 19.7807 17 18.8833 17 17.8562C17 16.8291 17.8593 15.9317 19 15.9317C20.1407 15.9317 21 16.8291 21 17.8562C21 18.8833 20.1407 19.7807 19 19.7807Z" fill="black"/>
</svg>
