<svg width="32" height="32" viewBox="0 0 32 32" fill="none" xmlns="http://www.w3.org/2000/svg">
<path d="M28 5C30.2091 5 32 6.79086 32 9V27C32 29.2091 30.2091 31 28 31H4C1.79086 31 0 29.2091 0 27V9C0 6.79086 1.79086 5 4 5H28Z" fill="#7A4B2C"/>
<path fill-rule="evenodd" clip-rule="evenodd" d="M4 29H28C29.1046 29 30 28.1046 30 27V9C30 7.89543 29.1046 7 28 7H4C2.89543 7 2 7.89543 2 9V27C2 28.1046 2.89543 29 4 29ZM32 9C32 6.79086 30.2091 5 28 5H4C1.79086 5 0 6.79086 0 9V27C0 29.2091 1.79086 31 4 31H28C30.2091 31 32 29.2091 32 27V9Z" fill="#1C1C1F"/>
<path d="M28 5C30.2091 5 32 6.79086 32 9V15C32 17.2091 30.2091 19 28 19H10C7.79086 19 6 17.2091 6 15V5H28Z" fill="#31B67A"/>
<path fill-rule="evenodd" clip-rule="evenodd" d="M10 17H28C29.1046 17 30 16.1046 30 15V9C30 7.89543 29.1046 7 28 7H8V15C8 16.1046 8.89543 17 10 17ZM32 9C32 6.79086 30.2091 5 28 5H6V15C6 17.2091 7.79086 19 10 19H28C30.2091 19 32 17.2091 32 15V9Z" fill="#1C1C1F"/>
<path fill-rule="evenodd" clip-rule="evenodd" d="M12 5H24C24 3.89543 23.1046 3 22 3H14C12.8954 3 12 3.89543 12 5ZM26 5C26 2.79086 24.2091 1 22 1H14C11.7909 1 10 2.79086 10 5V7H26V5Z" fill="#1C1C1F"/>
<path d="M0 9C0 6.79086 1.79086 5 4 5H8V31H4C1.79086 31 0 29.2091 0 27V9Z" fill="#522A10"/>
<path fill-rule="evenodd" clip-rule="evenodd" d="M6 7H4C2.89543 7 2 7.89543 2 9V27C2 28.1046 2.89543 29 4 29H6V7ZM4 5C1.79086 5 0 6.79086 0 9V27C0 29.2091 1.79086 31 4 31H8V5H4Z" fill="#1C1C1F"/>
<path d="M14 12C15.6569 12 17 13.3431 17 15V21C17 22.6569 15.6569 24 14 24C12.3431 24 11 22.6569 11 21V15C11 13.3431 12.3431 12 14 12Z" fill="#1D6645"/>
<path fill-rule="evenodd" clip-rule="evenodd" d="M15 21V15C15 14.4477 14.5523 14 14 14C13.4477 14 13 14.4477 13 15V21C13 21.5523 13.4477 22 14 22C14.5523 22 15 21.5523 15 21ZM17 15C17 13.3431 15.6569 12 14 12C12.3431 12 11 13.3431 11 15V21C11 22.6569 12.3431 24 14 24C15.6569 24 17 22.6569 17 21V15Z" fill="#1C1C1F"/>
<path d="M24 12C25.6569 12 27 13.3431 27 15V21C27 22.6569 25.6569 24 24 24C22.3431 24 21 22.6569 21 21V15C21 13.3431 22.3431 12 24 12Z" fill="#1D6645"/>
<path fill-rule="evenodd" clip-rule="evenodd" d="M25 21V15C25 14.4477 24.5523 14 24 14C23.4477 14 23 14.4477 23 15V21C23 21.5523 23.4477 22 24 22C24.5523 22 25 21.5523 25 21ZM27 15C27 13.3431 25.6569 12 24 12C22.3431 12 21 13.3431 21 15V21C21 22.6569 22.3431 24 24 24C25.6569 24 27 22.6569 27 21V15Z" fill="#1C1C1F"/>
<path d="M14 12C15.6569 12 17 13.3431 17 15C17 16.6569 15.6569 18 14 18C12.3431 18 11 16.6569 11 15C11 13.3431 12.3431 12 14 12Z" fill="#FFBC01"/>
<path fill-rule="evenodd" clip-rule="evenodd" d="M14 14C13.4477 14 13 14.4477 13 15C13 15.5523 13.4477 16 14 16C14.5523 16 15 15.5523 15 15C15 14.4477 14.5523 14 14 14ZM17 15C17 13.3431 15.6569 12 14 12C12.3431 12 11 13.3431 11 15C11 16.6569 12.3431 18 14 18C15.6569 18 17 16.6569 17 15Z" fill="#1C1C1F"/>
<path d="M24 12C25.6569 12 27 13.3431 27 15C27 16.6569 25.6569 18 24 18C22.3431 18 21 16.6569 21 15C21 13.3431 22.3431 12 24 12Z" fill="#FFBC01"/>
<path fill-rule="evenodd" clip-rule="evenodd" d="M24 14C23.4477 14 23 14.4477 23 15C23 15.5523 23.4477 16 24 16C24.5523 16 25 15.5523 25 15C25 14.4477 24.5523 14 24 14ZM27 15C27 13.3431 25.6569 12 24 12C22.3431 12 21 13.3431 21 15C21 16.6569 22.3431 18 24 18C25.6569 18 27 16.6569 27 15Z" fill="#1C1C1F"/>
</svg>
